<?xml version="1.0" encoding="utf-8" standalone="no"?>
<!DOCTYPE svg PUBLIC "-//W3C//DTD SVG 1.1//EN"
  "http://www.w3.org/Graphics/SVG/1.1/DTD/svg11.dtd">
<svg xmlns:xlink="http://www.w3.org/1999/xlink" width="460.8pt" height="345.6pt" viewBox="0 0 460.8 345.6" xmlns="http://www.w3.org/2000/svg" version="1.1">
 <metadata>
  <rdf:RDF xmlns:dc="http://purl.org/dc/elements/1.1/" xmlns:cc="http://creativecommons.org/ns#" xmlns:rdf="http://www.w3.org/1999/02/22-rdf-syntax-ns#">
   <cc:Work>
    <dc:type rdf:resource="http://purl.org/dc/dcmitype/StillImage"/>
    <dc:date>2024-07-31T08:39:37.819957</dc:date>
    <dc:format>image/svg+xml</dc:format>
    <dc:creator>
     <cc:Agent>
      <dc:title>Matplotlib v3.7.2, https://matplotlib.org/</dc:title>
     </cc:Agent>
    </dc:creator>
   </cc:Work>
  </rdf:RDF>
 </metadata>
 <defs>
  <style type="text/css">*{stroke-linejoin: round; stroke-linecap: butt}</style>
 </defs>
 <g id="figure_1">
  <g id="patch_1">
   <path d="M 0 345.6 
L 460.8 345.6 
L 460.8 0 
L 0 0 
z
" style="fill: #ffffff"/>
  </g>
  <g id="axes_1">
   <g id="patch_2">
    <path d="M 57.6 307.584 
L 414.72 307.584 
L 414.72 41.472 
L 57.6 41.472 
z
" style="fill: #ffffff"/>
   </g>
   <g id="matplotlib.axis_1">
    <g id="xtick_1">
     <g id="text_1">
      <!-- 1 -->
      <g style="fill: #262626" transform="translate(84.17875 322.182437) scale(0.1 -0.1)">
       <defs>
        <path id="DejaVuSans-31" d="M 794 531 
L 1825 531 
L 1825 4091 
L 703 3866 
L 703 4441 
L 1819 4666 
L 2450 4666 
L 2450 531 
L 3481 531 
L 3481 0 
L 794 0 
L 794 531 
z
" transform="scale(0.015625)"/>
       </defs>
       <use xlink:href="#DejaVuSans-31"/>
      </g>
     </g>
    </g>
    <g id="xtick_2">
     <g id="text_2">
      <!-- 2 -->
      <g style="fill: #262626" transform="translate(143.69875 322.182437) scale(0.1 -0.1)">
       <defs>
        <path id="DejaVuSans-32" d="M 1228 531 
L 3431 531 
L 3431 0 
L 469 0 
L 469 531 
Q 828 903 1448 1529 
Q 2069 2156 2228 2338 
Q 2531 2678 2651 2914 
Q 2772 3150 2772 3378 
Q 2772 3750 2511 3984 
Q 2250 4219 1831 4219 
Q 1534 4219 1204 4116 
Q 875 4013 500 3803 
L 500 4441 
Q 881 4594 1212 4672 
Q 1544 4750 1819 4750 
Q 2544 4750 2975 4387 
Q 3406 4025 3406 3419 
Q 3406 3131 3298 2873 
Q 3191 2616 2906 2266 
Q 2828 2175 2409 1742 
Q 1991 1309 1228 531 
z
" transform="scale(0.015625)"/>
       </defs>
       <use xlink:href="#DejaVuSans-32"/>
      </g>
     </g>
    </g>
    <g id="xtick_3">
     <g id="text_3">
      <!-- 3 -->
      <g style="fill: #262626" transform="translate(203.21875 322.182437) scale(0.1 -0.1)">
       <defs>
        <path id="DejaVuSans-33" d="M 2597 2516 
Q 3050 2419 3304 2112 
Q 3559 1806 3559 1356 
Q 3559 666 3084 287 
Q 2609 -91 1734 -91 
Q 1441 -91 1130 -33 
Q 819 25 488 141 
L 488 750 
Q 750 597 1062 519 
Q 1375 441 1716 441 
Q 2309 441 2620 675 
Q 2931 909 2931 1356 
Q 2931 1769 2642 2001 
Q 2353 2234 1838 2234 
L 1294 2234 
L 1294 2753 
L 1863 2753 
Q 2328 2753 2575 2939 
Q 2822 3125 2822 3475 
Q 2822 3834 2567 4026 
Q 2313 4219 1838 4219 
Q 1578 4219 1281 4162 
Q 984 4106 628 3988 
L 628 4550 
Q 988 4650 1302 4700 
Q 1616 4750 1894 4750 
Q 2613 4750 3031 4423 
Q 3450 4097 3450 3541 
Q 3450 3153 3228 2886 
Q 3006 2619 2597 2516 
z
" transform="scale(0.015625)"/>
       </defs>
       <use xlink:href="#DejaVuSans-33"/>
      </g>
     </g>
    </g>
    <g id="xtick_4">
     <g id="text_4">
      <!-- 4 -->
      <g style="fill: #262626" transform="translate(262.73875 322.182437) scale(0.1 -0.1)">
       <defs>
        <path id="DejaVuSans-34" d="M 2419 4116 
L 825 1625 
L 2419 1625 
L 2419 4116 
z
M 2253 4666 
L 3047 4666 
L 3047 1625 
L 3713 1625 
L 3713 1100 
L 3047 1100 
L 3047 0 
L 2419 0 
L 2419 1100 
L 313 1100 
L 313 1709 
L 2253 4666 
z
" transform="scale(0.015625)"/>
       </defs>
       <use xlink:href="#DejaVuSans-34"/>
      </g>
     </g>
    </g>
    <g id="xtick_5">
     <g id="text_5">
      <!-- 5 -->
      <g style="fill: #262626" transform="translate(322.25875 322.182437) scale(0.1 -0.1)">
       <defs>
        <path id="DejaVuSans-35" d="M 691 4666 
L 3169 4666 
L 3169 4134 
L 1269 4134 
L 1269 2991 
Q 1406 3038 1543 3061 
Q 1681 3084 1819 3084 
Q 2600 3084 3056 2656 
Q 3513 2228 3513 1497 
Q 3513 744 3044 326 
Q 2575 -91 1722 -91 
Q 1428 -91 1123 -41 
Q 819 9 494 109 
L 494 744 
Q 775 591 1075 516 
Q 1375 441 1709 441 
Q 2250 441 2565 725 
Q 2881 1009 2881 1497 
Q 2881 1984 2565 2268 
Q 2250 2553 1709 2553 
Q 1456 2553 1204 2497 
Q 953 2441 691 2322 
L 691 4666 
z
" transform="scale(0.015625)"/>
       </defs>
       <use xlink:href="#DejaVuSans-35"/>
      </g>
     </g>
    </g>
    <g id="xtick_6">
     <g id="text_6">
      <!-- 6 -->
      <g style="fill: #262626" transform="translate(381.77875 322.182437) scale(0.1 -0.1)">
       <defs>
        <path id="DejaVuSans-36" d="M 2113 2584 
Q 1688 2584 1439 2293 
Q 1191 2003 1191 1497 
Q 1191 994 1439 701 
Q 1688 409 2113 409 
Q 2538 409 2786 701 
Q 3034 994 3034 1497 
Q 3034 2003 2786 2293 
Q 2538 2584 2113 2584 
z
M 3366 4563 
L 3366 3988 
Q 3128 4100 2886 4159 
Q 2644 4219 2406 4219 
Q 1781 4219 1451 3797 
Q 1122 3375 1075 2522 
Q 1259 2794 1537 2939 
Q 1816 3084 2150 3084 
Q 2853 3084 3261 2657 
Q 3669 2231 3669 1497 
Q 3669 778 3244 343 
Q 2819 -91 2113 -91 
Q 1303 -91 875 529 
Q 447 1150 447 2328 
Q 447 3434 972 4092 
Q 1497 4750 2381 4750 
Q 2619 4750 2861 4703 
Q 3103 4656 3366 4563 
z
" transform="scale(0.015625)"/>
       </defs>
       <use xlink:href="#DejaVuSans-36"/>
      </g>
     </g>
    </g>
    <g id="text_7">
     <!-- Model -->
     <g style="fill: #262626" transform="translate(221.146719 335.860562) scale(0.1 -0.1)">
      <defs>
       <path id="DejaVuSans-4d" d="M 628 4666 
L 1569 4666 
L 2759 1491 
L 3956 4666 
L 4897 4666 
L 4897 0 
L 4281 0 
L 4281 4097 
L 3078 897 
L 2444 897 
L 1241 4097 
L 1241 0 
L 628 0 
L 628 4666 
z
" transform="scale(0.015625)"/>
       <path id="DejaVuSans-6f" d="M 1959 3097 
Q 1497 3097 1228 2736 
Q 959 2375 959 1747 
Q 959 1119 1226 758 
Q 1494 397 1959 397 
Q 2419 397 2687 759 
Q 2956 1122 2956 1747 
Q 2956 2369 2687 2733 
Q 2419 3097 1959 3097 
z
M 1959 3584 
Q 2709 3584 3137 3096 
Q 3566 2609 3566 1747 
Q 3566 888 3137 398 
Q 2709 -91 1959 -91 
Q 1206 -91 779 398 
Q 353 888 353 1747 
Q 353 2609 779 3096 
Q 1206 3584 1959 3584 
z
" transform="scale(0.015625)"/>
       <path id="DejaVuSans-64" d="M 2906 2969 
L 2906 4863 
L 3481 4863 
L 3481 0 
L 2906 0 
L 2906 525 
Q 2725 213 2448 61 
Q 2172 -91 1784 -91 
Q 1150 -91 751 415 
Q 353 922 353 1747 
Q 353 2572 751 3078 
Q 1150 3584 1784 3584 
Q 2172 3584 2448 3432 
Q 2725 3281 2906 2969 
z
M 947 1747 
Q 947 1113 1208 752 
Q 1469 391 1925 391 
Q 2381 391 2643 752 
Q 2906 1113 2906 1747 
Q 2906 2381 2643 2742 
Q 2381 3103 1925 3103 
Q 1469 3103 1208 2742 
Q 947 2381 947 1747 
z
" transform="scale(0.015625)"/>
       <path id="DejaVuSans-65" d="M 3597 1894 
L 3597 1613 
L 953 1613 
Q 991 1019 1311 708 
Q 1631 397 2203 397 
Q 2534 397 2845 478 
Q 3156 559 3463 722 
L 3463 178 
Q 3153 47 2828 -22 
Q 2503 -91 2169 -91 
Q 1331 -91 842 396 
Q 353 884 353 1716 
Q 353 2575 817 3079 
Q 1281 3584 2069 3584 
Q 2775 3584 3186 3129 
Q 3597 2675 3597 1894 
z
M 3022 2063 
Q 3016 2534 2758 2815 
Q 2500 3097 2075 3097 
Q 1594 3097 1305 2825 
Q 1016 2553 972 2059 
L 3022 2063 
z
" transform="scale(0.015625)"/>
       <path id="DejaVuSans-6c" d="M 603 4863 
L 1178 4863 
L 1178 0 
L 603 0 
L 603 4863 
z
" transform="scale(0.015625)"/>
      </defs>
      <use xlink:href="#DejaVuSans-4d"/>
      <use xlink:href="#DejaVuSans-6f" x="86.279297"/>
      <use xlink:href="#DejaVuSans-64" x="147.460938"/>
      <use xlink:href="#DejaVuSans-65" x="210.9375"/>
      <use xlink:href="#DejaVuSans-6c" x="272.460938"/>
     </g>
    </g>
   </g>
   <g id="matplotlib.axis_2">
    <g id="ytick_1">
     <g id="text_8">
      <!-- 0.00 -->
      <g style="fill: #262626" transform="translate(28.334375 311.383219) scale(0.1 -0.1)">
       <defs>
        <path id="DejaVuSans-30" d="M 2034 4250 
Q 1547 4250 1301 3770 
Q 1056 3291 1056 2328 
Q 1056 1369 1301 889 
Q 1547 409 2034 409 
Q 2525 409 2770 889 
Q 3016 1369 3016 2328 
Q 3016 3291 2770 3770 
Q 2525 4250 2034 4250 
z
M 2034 4750 
Q 2819 4750 3233 4129 
Q 3647 3509 3647 2328 
Q 3647 1150 3233 529 
Q 2819 -91 2034 -91 
Q 1250 -91 836 529 
Q 422 1150 422 2328 
Q 422 3509 836 4129 
Q 1250 4750 2034 4750 
z
" transform="scale(0.015625)"/>
        <path id="DejaVuSans-2e" d="M 684 794 
L 1344 794 
L 1344 0 
L 684 0 
L 684 794 
z
" transform="scale(0.015625)"/>
       </defs>
       <use xlink:href="#DejaVuSans-30"/>
       <use xlink:href="#DejaVuSans-2e" x="63.623047"/>
       <use xlink:href="#DejaVuSans-30" x="95.410156"/>
       <use xlink:href="#DejaVuSans-30" x="159.033203"/>
      </g>
     </g>
    </g>
    <g id="ytick_2">
     <g id="text_9">
      <!-- 0.05 -->
      <g style="fill: #262626" transform="translate(28.334375 278.119219) scale(0.1 -0.1)">
       <use xlink:href="#DejaVuSans-30"/>
       <use xlink:href="#DejaVuSans-2e" x="63.623047"/>
       <use xlink:href="#DejaVuSans-30" x="95.410156"/>
       <use xlink:href="#DejaVuSans-35" x="159.033203"/>
      </g>
     </g>
    </g>
    <g id="ytick_3">
     <g id="text_10">
      <!-- 0.10 -->
      <g style="fill: #262626" transform="translate(28.334375 244.855219) scale(0.1 -0.1)">
       <use xlink:href="#DejaVuSans-30"/>
       <use xlink:href="#DejaVuSans-2e" x="63.623047"/>
       <use xlink:href="#DejaVuSans-31" x="95.410156"/>
       <use xlink:href="#DejaVuSans-30" x="159.033203"/>
      </g>
     </g>
    </g>
    <g id="ytick_4">
     <g id="text_11">
      <!-- 0.15 -->
      <g style="fill: #262626" transform="translate(28.334375 211.591219) scale(0.1 -0.1)">
       <use xlink:href="#DejaVuSans-30"/>
       <use xlink:href="#DejaVuSans-2e" x="63.623047"/>
       <use xlink:href="#DejaVuSans-31" x="95.410156"/>
       <use xlink:href="#DejaVuSans-35" x="159.033203"/>
      </g>
     </g>
    </g>
    <g id="ytick_5">
     <g id="text_12">
      <!-- 0.20 -->
      <g style="fill: #262626" transform="translate(28.334375 178.327219) scale(0.1 -0.1)">
       <use xlink:href="#DejaVuSans-30"/>
       <use xlink:href="#DejaVuSans-2e" x="63.623047"/>
       <use xlink:href="#DejaVuSans-32" x="95.410156"/>
       <use xlink:href="#DejaVuSans-30" x="159.033203"/>
      </g>
     </g>
    </g>
    <g id="ytick_6">
     <g id="text_13">
      <!-- 0.25 -->
      <g style="fill: #262626" transform="translate(28.334375 145.063219) scale(0.1 -0.1)">
       <use xlink:href="#DejaVuSans-30"/>
       <use xlink:href="#DejaVuSans-2e" x="63.623047"/>
       <use xlink:href="#DejaVuSans-32" x="95.410156"/>
       <use xlink:href="#DejaVuSans-35" x="159.033203"/>
      </g>
     </g>
    </g>
    <g id="ytick_7">
     <g id="text_14">
      <!-- 0.30 -->
      <g style="fill: #262626" transform="translate(28.334375 111.799219) scale(0.1 -0.1)">
       <use xlink:href="#DejaVuSans-30"/>
       <use xlink:href="#DejaVuSans-2e" x="63.623047"/>
       <use xlink:href="#DejaVuSans-33" x="95.410156"/>
       <use xlink:href="#DejaVuSans-30" x="159.033203"/>
      </g>
     </g>
    </g>
    <g id="ytick_8">
     <g id="text_15">
      <!-- 0.35 -->
      <g style="fill: #262626" transform="translate(28.334375 78.535219) scale(0.1 -0.1)">
       <use xlink:href="#DejaVuSans-30"/>
       <use xlink:href="#DejaVuSans-2e" x="63.623047"/>
       <use xlink:href="#DejaVuSans-33" x="95.410156"/>
       <use xlink:href="#DejaVuSans-35" x="159.033203"/>
      </g>
     </g>
    </g>
    <g id="ytick_9">
     <g id="text_16">
      <!-- 0.40 -->
      <g style="fill: #262626" transform="translate(28.334375 45.271219) scale(0.1 -0.1)">
       <use xlink:href="#DejaVuSans-30"/>
       <use xlink:href="#DejaVuSans-2e" x="63.623047"/>
       <use xlink:href="#DejaVuSans-34" x="95.410156"/>
       <use xlink:href="#DejaVuSans-30" x="159.033203"/>
      </g>
     </g>
    </g>
    <g id="text_17">
     <!-- auROC -->
     <g style="fill: #262626" transform="translate(22.254687 191.662375) rotate(-90) scale(0.1 -0.1)">
      <defs>
       <path id="DejaVuSans-61" d="M 2194 1759 
Q 1497 1759 1228 1600 
Q 959 1441 959 1056 
Q 959 750 1161 570 
Q 1363 391 1709 391 
Q 2188 391 2477 730 
Q 2766 1069 2766 1631 
L 2766 1759 
L 2194 1759 
z
M 3341 1997 
L 3341 0 
L 2766 0 
L 2766 531 
Q 2569 213 2275 61 
Q 1981 -91 1556 -91 
Q 1019 -91 701 211 
Q 384 513 384 1019 
Q 384 1609 779 1909 
Q 1175 2209 1959 2209 
L 2766 2209 
L 2766 2266 
Q 2766 2663 2505 2880 
Q 2244 3097 1772 3097 
Q 1472 3097 1187 3025 
Q 903 2953 641 2809 
L 641 3341 
Q 956 3463 1253 3523 
Q 1550 3584 1831 3584 
Q 2591 3584 2966 3190 
Q 3341 2797 3341 1997 
z
" transform="scale(0.015625)"/>
       <path id="DejaVuSans-75" d="M 544 1381 
L 544 3500 
L 1119 3500 
L 1119 1403 
Q 1119 906 1312 657 
Q 1506 409 1894 409 
Q 2359 409 2629 706 
Q 2900 1003 2900 1516 
L 2900 3500 
L 3475 3500 
L 3475 0 
L 2900 0 
L 2900 538 
Q 2691 219 2414 64 
Q 2138 -91 1772 -91 
Q 1169 -91 856 284 
Q 544 659 544 1381 
z
M 1991 3584 
L 1991 3584 
z
" transform="scale(0.015625)"/>
       <path id="DejaVuSans-52" d="M 2841 2188 
Q 3044 2119 3236 1894 
Q 3428 1669 3622 1275 
L 4263 0 
L 3584 0 
L 2988 1197 
Q 2756 1666 2539 1819 
Q 2322 1972 1947 1972 
L 1259 1972 
L 1259 0 
L 628 0 
L 628 4666 
L 2053 4666 
Q 2853 4666 3247 4331 
Q 3641 3997 3641 3322 
Q 3641 2881 3436 2590 
Q 3231 2300 2841 2188 
z
M 1259 4147 
L 1259 2491 
L 2053 2491 
Q 2509 2491 2742 2702 
Q 2975 2913 2975 3322 
Q 2975 3731 2742 3939 
Q 2509 4147 2053 4147 
L 1259 4147 
z
" transform="scale(0.015625)"/>
       <path id="DejaVuSans-4f" d="M 2522 4238 
Q 1834 4238 1429 3725 
Q 1025 3213 1025 2328 
Q 1025 1447 1429 934 
Q 1834 422 2522 422 
Q 3209 422 3611 934 
Q 4013 1447 4013 2328 
Q 4013 3213 3611 3725 
Q 3209 4238 2522 4238 
z
M 2522 4750 
Q 3503 4750 4090 4092 
Q 4678 3434 4678 2328 
Q 4678 1225 4090 567 
Q 3503 -91 2522 -91 
Q 1538 -91 948 565 
Q 359 1222 359 2328 
Q 359 3434 948 4092 
Q 1538 4750 2522 4750 
z
" transform="scale(0.015625)"/>
       <path id="DejaVuSans-43" d="M 4122 4306 
L 4122 3641 
Q 3803 3938 3442 4084 
Q 3081 4231 2675 4231 
Q 1875 4231 1450 3742 
Q 1025 3253 1025 2328 
Q 1025 1406 1450 917 
Q 1875 428 2675 428 
Q 3081 428 3442 575 
Q 3803 722 4122 1019 
L 4122 359 
Q 3791 134 3420 21 
Q 3050 -91 2638 -91 
Q 1578 -91 968 557 
Q 359 1206 359 2328 
Q 359 3453 968 4101 
Q 1578 4750 2638 4750 
Q 3056 4750 3426 4639 
Q 3797 4528 4122 4306 
z
" transform="scale(0.015625)"/>
      </defs>
      <use xlink:href="#DejaVuSans-61"/>
      <use xlink:href="#DejaVuSans-75" x="61.279297"/>
      <use xlink:href="#DejaVuSans-52" x="124.658203"/>
      <use xlink:href="#DejaVuSans-4f" x="194.140625"/>
      <use xlink:href="#DejaVuSans-43" x="272.851562"/>
     </g>
    </g>
   </g>
   <g id="PolyCollection_1">
    <defs>
     <path id="m33e5b14215" d="M 88.087157 -140.397142 
L 86.632843 -140.397142 
L 86.492932 -141.015761 
L 86.332013 -141.63438 
L 86.148168 -142.252999 
L 85.93954 -142.871617 
L 85.704383 -143.490236 
L 85.441127 -144.108855 
L 85.148433 -144.727474 
L 84.82526 -145.346093 
L 84.470931 -145.964712 
L 84.085191 -146.583331 
L 83.668275 -147.20195 
L 83.220952 -147.820569 
L 82.744579 -148.439188 
L 82.241126 -149.057807 
L 81.713199 -149.676425 
L 81.164045 -150.295044 
L 80.597534 -150.913663 
L 80.018126 -151.532282 
L 79.43082 -152.150901 
L 78.841076 -152.76952 
L 78.254725 -153.388139 
L 77.677855 -154.006758 
L 77.116684 -154.625377 
L 76.577418 -155.243996 
L 76.066103 -155.862614 
L 75.588465 -156.481233 
L 75.149758 -157.099852 
L 74.754608 -157.718471 
L 74.406875 -158.33709 
L 74.109525 -158.955709 
L 73.864524 -159.574328 
L 73.672759 -160.192947 
L 73.533983 -160.811566 
L 73.446801 -161.430185 
L 73.408685 -162.048803 
L 73.41602 -162.667422 
L 73.464199 -163.286041 
L 73.547737 -163.90466 
L 73.660423 -164.523279 
L 73.795501 -165.141898 
L 73.945861 -165.760517 
L 74.104261 -166.379136 
L 74.263538 -166.997755 
L 74.416838 -167.616374 
L 74.557819 -168.234993 
L 74.680858 -168.853611 
L 74.781224 -169.47223 
L 74.855222 -170.090849 
L 74.900313 -170.709468 
L 74.915188 -171.328087 
L 74.899807 -171.946706 
L 74.855389 -172.565325 
L 74.784375 -173.183944 
L 74.690336 -173.802563 
L 74.577858 -174.421182 
L 74.45239 -175.0398 
L 74.320066 -175.658419 
L 74.187512 -176.277038 
L 74.061637 -176.895657 
L 73.949417 -177.514276 
L 73.857692 -178.132895 
L 73.792953 -178.751514 
L 73.761166 -179.370133 
L 73.767598 -179.988752 
L 73.81668 -180.607371 
L 73.911894 -181.22599 
L 74.055693 -181.844608 
L 74.249456 -182.463227 
L 74.49347 -183.081846 
L 74.786947 -183.700465 
L 75.128078 -184.319084 
L 75.514101 -184.937703 
L 75.941401 -185.556322 
L 76.405631 -186.174941 
L 76.901838 -186.79356 
L 77.424611 -187.412179 
L 77.968225 -188.030797 
L 78.526789 -188.649416 
L 79.094386 -189.268035 
L 79.665213 -189.886654 
L 80.233697 -190.505273 
L 80.794608 -191.123892 
L 81.343147 -191.742511 
L 81.875021 -192.36113 
L 82.386493 -192.979749 
L 82.874423 -193.598368 
L 83.336277 -194.216986 
L 83.77013 -194.835605 
L 84.17465 -195.454224 
L 84.549068 -196.072843 
L 84.893131 -196.691462 
L 85.207062 -197.310081 
L 85.491493 -197.9287 
L 85.747413 -198.547319 
L 85.976098 -199.165938 
L 86.179056 -199.784557 
L 86.357963 -200.403176 
L 86.514612 -201.021794 
L 86.650853 -201.640413 
L 88.069147 -201.640413 
L 88.069147 -201.640413 
L 88.205388 -201.021794 
L 88.362037 -200.403176 
L 88.540944 -199.784557 
L 88.743902 -199.165938 
L 88.972587 -198.547319 
L 89.228507 -197.9287 
L 89.512938 -197.310081 
L 89.826869 -196.691462 
L 90.170932 -196.072843 
L 90.54535 -195.454224 
L 90.94987 -194.835605 
L 91.383723 -194.216986 
L 91.845577 -193.598368 
L 92.333507 -192.979749 
L 92.844979 -192.36113 
L 93.376853 -191.742511 
L 93.925392 -191.123892 
L 94.486303 -190.505273 
L 95.054787 -189.886654 
L 95.625614 -189.268035 
L 96.193211 -188.649416 
L 96.751775 -188.030797 
L 97.295389 -187.412179 
L 97.818162 -186.79356 
L 98.314369 -186.174941 
L 98.778599 -185.556322 
L 99.205899 -184.937703 
L 99.591922 -184.319084 
L 99.933053 -183.700465 
L 100.22653 -183.081846 
L 100.470544 -182.463227 
L 100.664307 -181.844608 
L 100.808106 -181.22599 
L 100.90332 -180.607371 
L 100.952402 -179.988752 
L 100.958834 -179.370133 
L 100.927047 -178.751514 
L 100.862308 -178.132895 
L 100.770583 -177.514276 
L 100.658363 -176.895657 
L 100.532488 -176.277038 
L 100.399934 -175.658419 
L 100.26761 -175.0398 
L 100.142142 -174.421182 
L 100.029664 -173.802563 
L 99.935625 -173.183944 
L 99.864611 -172.565325 
L 99.820193 -171.946706 
L 99.804812 -171.328087 
L 99.819687 -170.709468 
L 99.864778 -170.090849 
L 99.938776 -169.47223 
L 100.039142 -168.853611 
L 100.162181 -168.234993 
L 100.303162 -167.616374 
L 100.456462 -166.997755 
L 100.615739 -166.379136 
L 100.774139 -165.760517 
L 100.924499 -165.141898 
L 101.059577 -164.523279 
L 101.172263 -163.90466 
L 101.255801 -163.286041 
L 101.30398 -162.667422 
L 101.311315 -162.048803 
L 101.273199 -161.430185 
L 101.186017 -160.811566 
L 101.047241 -160.192947 
L 100.855476 -159.574328 
L 100.610475 -158.955709 
L 100.313125 -158.33709 
L 99.965392 -157.718471 
L 99.570242 -157.099852 
L 99.131535 -156.481233 
L 98.653897 -155.862614 
L 98.142582 -155.243996 
L 97.603316 -154.625377 
L 97.042145 -154.006758 
L 96.465275 -153.388139 
L 95.878924 -152.76952 
L 95.28918 -152.150901 
L 94.701874 -151.532282 
L 94.122466 -150.913663 
L 93.555955 -150.295044 
L 93.006801 -149.676425 
L 92.478874 -149.057807 
L 91.975421 -148.439188 
L 91.499048 -147.820569 
L 91.051725 -147.20195 
L 90.634809 -146.583331 
L 90.249069 -145.964712 
L 89.89474 -145.346093 
L 89.571567 -144.727474 
L 89.278873 -144.108855 
L 89.015617 -143.490236 
L 88.78046 -142.871617 
L 88.571832 -142.252999 
L 88.387987 -141.63438 
L 88.227068 -141.015761 
L 88.087157 -140.397142 
z
" style="stroke: #595959; stroke-width: 1.5"/>
    </defs>
    <g clip-path="url(#p5a6bf8b0ab)">
     <use xlink:href="#m33e5b14215" x="0" y="345.6" style="fill: #72b6a1; stroke: #595959; stroke-width: 1.5"/>
    </g>
   </g>
   <g id="PolyCollection_2">
    <defs>
     <path id="m9f2ca0a67a" d="M 147.318373 -127.488921 
L 146.441627 -127.488921 
L 146.359848 -128.370395 
L 146.266082 -129.251869 
L 146.159222 -130.133343 
L 146.038179 -131.014818 
L 145.901902 -131.896292 
L 145.749409 -132.777766 
L 145.579814 -133.65924 
L 145.392358 -134.540715 
L 145.186442 -135.422189 
L 144.961658 -136.303663 
L 144.717826 -137.185137 
L 144.455018 -138.066612 
L 144.173595 -138.948086 
L 143.874226 -139.82956 
L 143.55791 -140.711034 
L 143.225997 -141.592509 
L 142.880189 -142.473983 
L 142.522549 -143.355457 
L 142.155487 -144.236931 
L 141.781748 -145.118406 
L 141.404383 -145.99988 
L 141.026714 -146.881354 
L 140.652283 -147.762828 
L 140.2848 -148.644303 
L 139.928068 -149.525777 
L 139.585913 -150.407251 
L 139.262097 -151.288725 
L 138.960231 -152.1702 
L 138.683678 -153.051674 
L 138.435461 -153.933148 
L 138.218172 -154.814622 
L 138.033879 -155.696097 
L 137.884055 -156.577571 
L 137.769501 -157.459045 
L 137.690298 -158.340519 
L 137.645767 -159.221994 
L 137.634458 -160.103468 
L 137.65415 -160.984942 
L 137.701882 -161.866416 
L 137.774009 -162.747891 
L 137.866279 -163.629365 
L 137.973928 -164.510839 
L 138.091808 -165.392313 
L 138.214522 -166.273788 
L 138.336576 -167.155262 
L 138.452543 -168.036736 
L 138.557231 -168.91821 
L 138.645844 -169.799685 
L 138.714143 -170.681159 
L 138.758593 -171.562633 
L 138.776489 -172.444107 
L 138.766059 -173.325582 
L 138.726542 -174.207056 
L 138.658234 -175.08853 
L 138.562499 -175.970004 
L 138.441745 -176.851479 
L 138.299369 -177.732953 
L 138.139666 -178.614427 
L 137.967703 -179.495901 
L 137.789178 -180.377376 
L 137.610244 -181.25885 
L 137.437328 -182.140324 
L 137.27693 -183.021798 
L 137.13543 -183.903273 
L 137.018892 -184.784747 
L 136.932883 -185.666221 
L 136.882308 -186.547695 
L 136.871267 -187.42917 
L 136.902944 -188.310644 
L 136.979526 -189.192118 
L 137.102153 -190.073592 
L 137.270903 -190.955067 
L 137.484817 -191.836541 
L 137.74195 -192.718015 
L 138.039451 -193.599489 
L 138.373672 -194.480964 
L 138.740293 -195.362438 
L 139.134468 -196.243912 
L 139.550969 -197.125386 
L 139.984346 -198.006861 
L 140.429074 -198.888335 
L 140.879695 -199.769809 
L 141.330954 -200.651283 
L 141.777912 -201.532758 
L 142.216041 -202.414232 
L 142.641302 -203.295706 
L 143.050202 -204.17718 
L 143.439824 -205.058655 
L 143.807845 -205.940129 
L 144.152529 -206.821603 
L 144.472707 -207.703077 
L 144.76774 -208.584552 
L 145.037475 -209.466026 
L 145.282191 -210.3475 
L 145.502535 -211.228974 
L 145.699465 -212.110449 
L 145.874185 -212.991923 
L 146.028082 -213.873397 
L 146.162676 -214.754871 
L 147.597324 -214.754871 
L 147.597324 -214.754871 
L 147.731918 -213.873397 
L 147.885815 -212.991923 
L 148.060535 -212.110449 
L 148.257465 -211.228974 
L 148.477809 -210.3475 
L 148.722525 -209.466026 
L 148.99226 -208.584552 
L 149.287293 -207.703077 
L 149.607471 -206.821603 
L 149.952155 -205.940129 
L 150.320176 -205.058655 
L 150.709798 -204.17718 
L 151.118698 -203.295706 
L 151.543959 -202.414232 
L 151.982088 -201.532758 
L 152.429046 -200.651283 
L 152.880305 -199.769809 
L 153.330926 -198.888335 
L 153.775654 -198.006861 
L 154.209031 -197.125386 
L 154.625532 -196.243912 
L 155.019707 -195.362438 
L 155.386328 -194.480964 
L 155.720549 -193.599489 
L 156.01805 -192.718015 
L 156.275183 -191.836541 
L 156.489097 -190.955067 
L 156.657847 -190.073592 
L 156.780474 -189.192118 
L 156.857056 -188.310644 
L 156.888733 -187.42917 
L 156.877692 -186.547695 
L 156.827117 -185.666221 
L 156.741108 -184.784747 
L 156.62457 -183.903273 
L 156.48307 -183.021798 
L 156.322672 -182.140324 
L 156.149756 -181.25885 
L 155.970822 -180.377376 
L 155.792297 -179.495901 
L 155.620334 -178.614427 
L 155.460631 -177.732953 
L 155.318255 -176.851479 
L 155.197501 -175.970004 
L 155.101766 -175.08853 
L 155.033458 -174.207056 
L 154.993941 -173.325582 
L 154.983511 -172.444107 
L 155.001407 -171.562633 
L 155.045857 -170.681159 
L 155.114156 -169.799685 
L 155.202769 -168.91821 
L 155.307457 -168.036736 
L 155.423424 -167.155262 
L 155.545478 -166.273788 
L 155.668192 -165.392313 
L 155.786072 -164.510839 
L 155.893721 -163.629365 
L 155.985991 -162.747891 
L 156.058118 -161.866416 
L 156.10585 -160.984942 
L 156.125542 -160.103468 
L 156.114233 -159.221994 
L 156.069702 -158.340519 
L 155.990499 -157.459045 
L 155.875945 -156.577571 
L 155.726121 -155.696097 
L 155.541828 -154.814622 
L 155.324539 -153.933148 
L 155.076322 -153.051674 
L 154.799769 -152.1702 
L 154.497903 -151.288725 
L 154.174087 -150.407251 
L 153.831932 -149.525777 
L 153.4752 -148.644303 
L 153.107717 -147.762828 
L 152.733286 -146.881354 
L 152.355617 -145.99988 
L 151.978252 -145.118406 
L 151.604513 -144.236931 
L 151.237451 -143.355457 
L 150.879811 -142.473983 
L 150.534003 -141.592509 
L 150.20209 -140.711034 
L 149.885774 -139.82956 
L 149.586405 -138.948086 
L 149.304982 -138.066612 
L 149.042174 -137.185137 
L 148.798342 -136.303663 
L 148.573558 -135.422189 
L 148.367642 -134.540715 
L 148.180186 -133.65924 
L 148.010591 -132.777766 
L 147.858098 -131.896292 
L 147.721821 -131.014818 
L 147.600778 -130.133343 
L 147.493918 -129.251869 
L 147.400152 -128.370395 
L 147.318373 -127.488921 
z
" style="stroke: #595959; stroke-width: 1.5"/>
    </defs>
    <g clip-path="url(#p9afef6b3fc)">
     <use xlink:href="#m9f2ca0a67a" x="0" y="345.6" style="fill: #e99675; stroke: #595959; stroke-width: 1.5"/>
    </g>
   </g>
   <g id="PolyCollection_3">
    <defs>
     <path id="ma14d85ef2a" d="M 206.759294 -125.584519 
L 206.040706 -125.584519 
L 205.96539 -126.610978 
L 205.878437 -127.637437 
L 205.778957 -128.663896 
L 205.666162 -129.690355 
L 205.539391 -130.716814 
L 205.398131 -131.743273 
L 205.242039 -132.769732 
L 205.070941 -133.796191 
L 204.884836 -134.82265 
L 204.683875 -135.849109 
L 204.468341 -136.875568 
L 204.238605 -137.902027 
L 203.995087 -138.928486 
L 203.738202 -139.954945 
L 203.468302 -140.981404 
L 203.185629 -142.007863 
L 202.890269 -143.034322 
L 202.582118 -144.060781 
L 202.260865 -145.08724 
L 201.926002 -146.113699 
L 201.576849 -147.140158 
L 201.212612 -148.166617 
L 200.832461 -149.193076 
L 200.435638 -150.219535 
L 200.021575 -151.245994 
L 199.590036 -152.272453 
L 199.141257 -153.298912 
L 198.67609 -154.325371 
L 198.19613 -155.35183 
L 197.703829 -156.378289 
L 197.20257 -157.404748 
L 196.696715 -158.431207 
L 196.191603 -159.457666 
L 195.693497 -160.484125 
L 195.209487 -161.510584 
L 194.747338 -162.537043 
L 194.315297 -163.563502 
L 193.921848 -164.589961 
L 193.575453 -165.61642 
L 193.284249 -166.642879 
L 193.055757 -167.669338 
L 192.896579 -168.695797 
L 192.812125 -169.722256 
L 192.806362 -170.748715 
L 192.881616 -171.775174 
L 193.038426 -172.801633 
L 193.275458 -173.828092 
L 193.589497 -174.854551 
L 193.975501 -175.88101 
L 194.426735 -176.90747 
L 194.934958 -177.933929 
L 195.49068 -178.960388 
L 196.083457 -179.986847 
L 196.702221 -181.013306 
L 197.33563 -182.039765 
L 197.972422 -183.066224 
L 198.601758 -184.092683 
L 199.213538 -185.119142 
L 199.798685 -186.145601 
L 200.349376 -187.17206 
L 200.859226 -188.198519 
L 201.323409 -189.224978 
L 201.738717 -190.251437 
L 202.103562 -191.277896 
L 202.417924 -192.304355 
L 202.683237 -193.330814 
L 202.902243 -194.357273 
L 203.078803 -195.383732 
L 203.217681 -196.410191 
L 203.324309 -197.43665 
L 203.40455 -198.463109 
L 203.464456 -199.489568 
L 203.510034 -200.516027 
L 203.547041 -201.542486 
L 203.580793 -202.568945 
L 203.616009 -203.595404 
L 203.656689 -204.621863 
L 203.706032 -205.648322 
L 203.76639 -206.674781 
L 203.83926 -207.70124 
L 203.925313 -208.727699 
L 204.024454 -209.754158 
L 204.135904 -210.780617 
L 204.258314 -211.807076 
L 204.389878 -212.833535 
L 204.528468 -213.859994 
L 204.671757 -214.886453 
L 204.817347 -215.912912 
L 204.962874 -216.939371 
L 205.106114 -217.96583 
L 205.245052 -218.992289 
L 205.377949 -220.018748 
L 205.503377 -221.045207 
L 205.620238 -222.071666 
L 205.727769 -223.098125 
L 205.825524 -224.124584 
L 205.91335 -225.151043 
L 205.991353 -226.177502 
L 206.059856 -227.203961 
L 206.740144 -227.203961 
L 206.740144 -227.203961 
L 206.808647 -226.177502 
L 206.88665 -225.151043 
L 206.974476 -224.124584 
L 207.072231 -223.098125 
L 207.179762 -222.071666 
L 207.296623 -221.045207 
L 207.422051 -220.018748 
L 207.554948 -218.992289 
L 207.693886 -217.96583 
L 207.837126 -216.939371 
L 207.982653 -215.912912 
L 208.128243 -214.886453 
L 208.271532 -213.859994 
L 208.410122 -212.833535 
L 208.541686 -211.807076 
L 208.664096 -210.780617 
L 208.775546 -209.754158 
L 208.874687 -208.727699 
L 208.96074 -207.70124 
L 209.03361 -206.674781 
L 209.093968 -205.648322 
L 209.143311 -204.621863 
L 209.183991 -203.595404 
L 209.219207 -202.568945 
L 209.252959 -201.542486 
L 209.289966 -200.516027 
L 209.335544 -199.489568 
L 209.39545 -198.463109 
L 209.475691 -197.43665 
L 209.582319 -196.410191 
L 209.721197 -195.383732 
L 209.897757 -194.357273 
L 210.116763 -193.330814 
L 210.382076 -192.304355 
L 210.696438 -191.277896 
L 211.061283 -190.251437 
L 211.476591 -189.224978 
L 211.940774 -188.198519 
L 212.450624 -187.17206 
L 213.001315 -186.145601 
L 213.586462 -185.119142 
L 214.198242 -184.092683 
L 214.827578 -183.066224 
L 215.46437 -182.039765 
L 216.097779 -181.013306 
L 216.716543 -179.986847 
L 217.30932 -178.960388 
L 217.865042 -177.933929 
L 218.373265 -176.90747 
L 218.824499 -175.88101 
L 219.210503 -174.854551 
L 219.524542 -173.828092 
L 219.761574 -172.801633 
L 219.918384 -171.775174 
L 219.993638 -170.748715 
L 219.987875 -169.722256 
L 219.903421 -168.695797 
L 219.744243 -167.669338 
L 219.515751 -166.642879 
L 219.224547 -165.61642 
L 218.878152 -164.589961 
L 218.484703 -163.563502 
L 218.052662 -162.537043 
L 217.590513 -161.510584 
L 217.106503 -160.484125 
L 216.608397 -159.457666 
L 216.103285 -158.431207 
L 215.59743 -157.404748 
L 215.096171 -156.378289 
L 214.60387 -155.35183 
L 214.12391 -154.325371 
L 213.658743 -153.298912 
L 213.209964 -152.272453 
L 212.778425 -151.245994 
L 212.364362 -150.219535 
L 211.967539 -149.193076 
L 211.587388 -148.166617 
L 211.223151 -147.140158 
L 210.873998 -146.113699 
L 210.539135 -145.08724 
L 210.217882 -144.060781 
L 209.909731 -143.034322 
L 209.614371 -142.007863 
L 209.331698 -140.981404 
L 209.061798 -139.954945 
L 208.804913 -138.928486 
L 208.561395 -137.902027 
L 208.331659 -136.875568 
L 208.116125 -135.849109 
L 207.915164 -134.82265 
L 207.729059 -133.796191 
L 207.557961 -132.769732 
L 207.401869 -131.743273 
L 207.260609 -130.716814 
L 207.133838 -129.690355 
L 207.021043 -128.663896 
L 206.921563 -127.637437 
L 206.83461 -126.610978 
L 206.759294 -125.584519 
z
" style="stroke: #595959; stroke-width: 1.5"/>
    </defs>
    <g clip-path="url(#p7bc3e6f566)">
     <use xlink:href="#ma14d85ef2a" x="0" y="345.6" style="fill: #95a3c3; stroke: #595959; stroke-width: 1.5"/>
    </g>
   </g>
   <g id="PolyCollection_4">
    <defs>
     <path id="me08456b7d3" d="M 266.300299 -108.219082 
L 265.539701 -108.219082 
L 265.465869 -109.110368 
L 265.381782 -110.001653 
L 265.286887 -110.892939 
L 265.180772 -111.784224 
L 265.063197 -112.67551 
L 264.934119 -113.566795 
L 264.793712 -114.458081 
L 264.642378 -115.349366 
L 264.480754 -116.240652 
L 264.309703 -117.131937 
L 264.130292 -118.023223 
L 263.943766 -118.914508 
L 263.751506 -119.805794 
L 263.554974 -120.697079 
L 263.355655 -121.588365 
L 263.154993 -122.479651 
L 262.954322 -123.370936 
L 262.7548 -124.262222 
L 262.557348 -125.153507 
L 262.362598 -126.044793 
L 262.170851 -126.936078 
L 261.982049 -127.827364 
L 261.795766 -128.718649 
L 261.611213 -129.609935 
L 261.42726 -130.50122 
L 261.242479 -131.392506 
L 261.055195 -132.283791 
L 260.863552 -133.175077 
L 260.665592 -134.066362 
L 260.459333 -134.957648 
L 260.242854 -135.848933 
L 260.014379 -136.740219 
L 259.772357 -137.631504 
L 259.515533 -138.52279 
L 259.243017 -139.414075 
L 258.954335 -140.305361 
L 258.649472 -141.196646 
L 258.328903 -142.087932 
L 257.993614 -142.979217 
L 257.645099 -143.870503 
L 257.28536 -144.761788 
L 256.916877 -145.653074 
L 256.542581 -146.544359 
L 256.165803 -147.435645 
L 255.79022 -148.32693 
L 255.419789 -149.218216 
L 255.058671 -150.109501 
L 254.711146 -151.000787 
L 254.381533 -151.892072 
L 254.074095 -152.783358 
L 253.792951 -153.674643 
L 253.541993 -154.565929 
L 253.324796 -155.457214 
L 253.144551 -156.3485 
L 253.003995 -157.239786 
L 252.90536 -158.131071 
L 252.850332 -159.022357 
L 252.840025 -159.913642 
L 252.874969 -160.804928 
L 252.955113 -161.696213 
L 253.079841 -162.587499 
L 253.248 -163.478784 
L 253.457942 -164.37007 
L 253.707572 -165.261355 
L 253.994401 -166.152641 
L 254.315607 -167.043926 
L 254.668101 -167.935212 
L 255.048582 -168.826497 
L 255.453604 -169.717783 
L 255.879628 -170.609068 
L 256.323075 -171.500354 
L 256.780375 -172.391639 
L 257.248003 -173.282925 
L 257.722518 -174.17421 
L 258.200587 -175.065496 
L 258.679014 -175.956781 
L 259.154753 -176.848067 
L 259.624932 -177.739352 
L 260.086864 -178.630638 
L 260.538057 -179.521923 
L 260.97623 -180.413209 
L 261.399326 -181.304494 
L 261.805518 -182.19578 
L 262.193223 -183.087065 
L 262.561111 -183.978351 
L 262.908113 -184.869636 
L 263.233425 -185.760922 
L 263.536513 -186.652207 
L 263.817104 -187.543493 
L 264.07519 -188.434778 
L 264.311006 -189.326064 
L 264.525024 -190.21735 
L 264.717923 -191.108635 
L 264.890571 -191.999921 
L 265.043994 -192.891206 
L 265.179348 -193.782492 
L 265.297885 -194.673777 
L 265.400923 -195.565063 
L 265.489815 -196.456348 
L 266.350185 -196.456348 
L 266.350185 -196.456348 
L 266.439077 -195.565063 
L 266.542115 -194.673777 
L 266.660652 -193.782492 
L 266.796006 -192.891206 
L 266.949429 -191.999921 
L 267.122077 -191.108635 
L 267.314976 -190.21735 
L 267.528994 -189.326064 
L 267.76481 -188.434778 
L 268.022896 -187.543493 
L 268.303487 -186.652207 
L 268.606575 -185.760922 
L 268.931887 -184.869636 
L 269.278889 -183.978351 
L 269.646777 -183.087065 
L 270.034482 -182.19578 
L 270.440674 -181.304494 
L 270.86377 -180.413209 
L 271.301943 -179.521923 
L 271.753136 -178.630638 
L 272.215068 -177.739352 
L 272.685247 -176.848067 
L 273.160986 -175.956781 
L 273.639413 -175.065496 
L 274.117482 -174.17421 
L 274.591997 -173.282925 
L 275.059625 -172.391639 
L 275.516925 -171.500354 
L 275.960372 -170.609068 
L 276.386396 -169.717783 
L 276.791418 -168.826497 
L 277.171899 -167.935212 
L 277.524393 -167.043926 
L 277.845599 -166.152641 
L 278.132428 -165.261355 
L 278.382058 -164.37007 
L 278.592 -163.478784 
L 278.760159 -162.587499 
L 278.884887 -161.696213 
L 278.965031 -160.804928 
L 278.999975 -159.913642 
L 278.989668 -159.022357 
L 278.93464 -158.131071 
L 278.836005 -157.239786 
L 278.695449 -156.3485 
L 278.515204 -155.457214 
L 278.298007 -154.565929 
L 278.047049 -153.674643 
L 277.765905 -152.783358 
L 277.458467 -151.892072 
L 277.128854 -151.000787 
L 276.781329 -150.109501 
L 276.420211 -149.218216 
L 276.04978 -148.32693 
L 275.674197 -147.435645 
L 275.297419 -146.544359 
L 274.923123 -145.653074 
L 274.55464 -144.761788 
L 274.194901 -143.870503 
L 273.846386 -142.979217 
L 273.511097 -142.087932 
L 273.190528 -141.196646 
L 272.885665 -140.305361 
L 272.596983 -139.414075 
L 272.324467 -138.52279 
L 272.067643 -137.631504 
L 271.825621 -136.740219 
L 271.597146 -135.848933 
L 271.380667 -134.957648 
L 271.174408 -134.066362 
L 270.976448 -133.175077 
L 270.784805 -132.283791 
L 270.597521 -131.392506 
L 270.41274 -130.50122 
L 270.228787 -129.609935 
L 270.044234 -128.718649 
L 269.857951 -127.827364 
L 269.669149 -126.936078 
L 269.477402 -126.044793 
L 269.282652 -125.153507 
L 269.0852 -124.262222 
L 268.885678 -123.370936 
L 268.685007 -122.479651 
L 268.484345 -121.588365 
L 268.285026 -120.697079 
L 268.088494 -119.805794 
L 267.896234 -118.914508 
L 267.709708 -118.023223 
L 267.530297 -117.131937 
L 267.359246 -116.240652 
L 267.197622 -115.349366 
L 267.046288 -114.458081 
L 266.905881 -113.566795 
L 266.776803 -112.67551 
L 266.659228 -111.784224 
L 266.553113 -110.892939 
L 266.458218 -110.001653 
L 266.374131 -109.110368 
L 266.300299 -108.219082 
z
" style="stroke: #595959; stroke-width: 1.5"/>
    </defs>
    <g clip-path="url(#p63cf3ae1e5)">
     <use xlink:href="#me08456b7d3" x="0" y="345.6" style="fill: #db96c0; stroke: #595959; stroke-width: 1.5"/>
    </g>
   </g>
   <g id="PolyCollection_5">
    <defs>
     <path id="m28e9305821" d="M 325.966517 -145.073891 
L 324.913483 -145.073891 
L 324.804715 -145.805611 
L 324.678868 -146.537331 
L 324.534413 -147.269051 
L 324.369899 -148.000771 
L 324.183984 -148.732491 
L 323.975477 -149.464211 
L 323.743365 -150.195931 
L 323.486846 -150.927651 
L 323.205345 -151.659371 
L 322.898528 -152.39109 
L 322.566301 -153.12281 
L 322.208807 -153.85453 
L 321.826409 -154.58625 
L 321.419661 -155.31797 
L 320.989291 -156.04969 
L 320.536161 -156.78141 
L 320.061247 -157.51313 
L 319.565613 -158.24485 
L 319.050407 -158.97657 
L 318.516854 -159.70829 
L 317.966283 -160.44001 
L 317.400161 -161.171729 
L 316.820141 -161.903449 
L 316.228138 -162.635169 
L 315.626401 -163.366889 
L 315.017602 -164.098609 
L 314.404916 -164.830329 
L 313.792095 -165.562049 
L 313.183522 -166.293769 
L 312.584237 -167.025489 
L 311.999929 -167.757209 
L 311.436884 -168.488929 
L 310.901895 -169.220649 
L 310.402119 -169.952368 
L 309.944896 -170.684088 
L 309.53753 -171.415808 
L 309.187042 -172.147528 
L 308.899905 -172.879248 
L 308.681783 -173.610968 
L 308.537273 -174.342688 
L 308.469689 -175.074408 
L 308.480873 -175.806128 
L 308.571073 -176.537848 
L 308.738876 -177.269568 
L 308.981214 -178.001288 
L 309.293437 -178.733007 
L 309.669453 -179.464727 
L 310.10193 -180.196447 
L 310.582541 -180.928167 
L 311.10225 -181.659887 
L 311.651613 -182.391607 
L 312.221088 -183.123327 
L 312.801326 -183.855047 
L 313.383453 -184.586767 
L 313.9593 -185.318487 
L 314.521599 -186.050207 
L 315.064131 -186.781927 
L 315.581816 -187.513646 
L 316.070764 -188.245366 
L 316.528271 -188.977086 
L 316.952781 -189.708806 
L 317.343816 -190.440526 
L 317.701871 -191.172246 
L 318.028303 -191.903966 
L 318.325199 -192.635686 
L 318.595237 -193.367406 
L 318.841555 -194.099126 
L 319.067611 -194.830846 
L 319.277049 -195.562566 
L 319.473584 -196.294286 
L 319.660872 -197.026005 
L 319.842413 -197.757725 
L 320.021446 -198.489445 
L 320.200869 -199.221165 
L 320.383159 -199.952885 
L 320.57032 -200.684605 
L 320.763841 -201.416325 
L 320.964669 -202.148045 
L 321.173206 -202.879765 
L 321.389326 -203.611485 
L 321.612403 -204.343205 
L 321.841366 -205.074925 
L 322.07476 -205.806644 
L 322.310829 -206.538364 
L 322.547595 -207.270084 
L 322.782955 -208.001804 
L 323.014766 -208.733524 
L 323.240934 -209.465244 
L 323.459488 -210.196964 
L 323.668651 -210.928684 
L 323.866893 -211.660404 
L 324.052965 -212.392124 
L 324.225927 -213.123844 
L 324.385154 -213.855564 
L 324.53033 -214.587283 
L 324.661432 -215.319003 
L 324.7787 -216.050723 
L 324.882602 -216.782443 
L 324.973797 -217.514163 
L 325.906203 -217.514163 
L 325.906203 -217.514163 
L 325.997398 -216.782443 
L 326.1013 -216.050723 
L 326.218568 -215.319003 
L 326.34967 -214.587283 
L 326.494846 -213.855564 
L 326.654073 -213.123844 
L 326.827035 -212.392124 
L 327.013107 -211.660404 
L 327.211349 -210.928684 
L 327.420512 -210.196964 
L 327.639066 -209.465244 
L 327.865234 -208.733524 
L 328.097045 -208.001804 
L 328.332405 -207.270084 
L 328.569171 -206.538364 
L 328.80524 -205.806644 
L 329.038634 -205.074925 
L 329.267597 -204.343205 
L 329.490674 -203.611485 
L 329.706794 -202.879765 
L 329.915331 -202.148045 
L 330.116159 -201.416325 
L 330.30968 -200.684605 
L 330.496841 -199.952885 
L 330.679131 -199.221165 
L 330.858554 -198.489445 
L 331.037587 -197.757725 
L 331.219128 -197.026005 
L 331.406416 -196.294286 
L 331.602951 -195.562566 
L 331.812389 -194.830846 
L 332.038445 -194.099126 
L 332.284763 -193.367406 
L 332.554801 -192.635686 
L 332.851697 -191.903966 
L 333.178129 -191.172246 
L 333.536184 -190.440526 
L 333.927219 -189.708806 
L 334.351729 -188.977086 
L 334.809236 -188.245366 
L 335.298184 -187.513646 
L 335.815869 -186.781927 
L 336.358401 -186.050207 
L 336.9207 -185.318487 
L 337.496547 -184.586767 
L 338.078674 -183.855047 
L 338.658912 -183.123327 
L 339.228387 -182.391607 
L 339.77775 -181.659887 
L 340.297459 -180.928167 
L 340.77807 -180.196447 
L 341.210547 -179.464727 
L 341.586563 -178.733007 
L 341.898786 -178.001288 
L 342.141124 -177.269568 
L 342.308927 -176.537848 
L 342.399127 -175.806128 
L 342.410311 -175.074408 
L 342.342727 -174.342688 
L 342.198217 -173.610968 
L 341.980095 -172.879248 
L 341.692958 -172.147528 
L 341.34247 -171.415808 
L 340.935104 -170.684088 
L 340.477881 -169.952368 
L 339.978105 -169.220649 
L 339.443116 -168.488929 
L 338.880071 -167.757209 
L 338.295763 -167.025489 
L 337.696478 -166.293769 
L 337.087905 -165.562049 
L 336.475084 -164.830329 
L 335.862398 -164.098609 
L 335.253599 -163.366889 
L 334.651862 -162.635169 
L 334.059859 -161.903449 
L 333.479839 -161.171729 
L 332.913717 -160.44001 
L 332.363146 -159.70829 
L 331.829593 -158.97657 
L 331.314387 -158.24485 
L 330.818753 -157.51313 
L 330.343839 -156.78141 
L 329.890709 -156.04969 
L 329.460339 -155.31797 
L 329.053591 -154.58625 
L 328.671193 -153.85453 
L 328.313699 -153.12281 
L 327.981472 -152.39109 
L 327.674655 -151.659371 
L 327.393154 -150.927651 
L 327.136635 -150.195931 
L 326.904523 -149.464211 
L 326.696016 -148.732491 
L 326.510101 -148.000771 
L 326.345587 -147.269051 
L 326.201132 -146.537331 
L 326.075285 -145.805611 
L 325.966517 -145.073891 
z
" style="stroke: #595959; stroke-width: 1.5"/>
    </defs>
    <g clip-path="url(#pf42b48908e)">
     <use xlink:href="#m28e9305821" x="0" y="345.6" style="fill: #a2c865; stroke: #595959; stroke-width: 1.5"/>
    </g>
   </g>
   <g id="PolyCollection_6">
    <defs>
     <path id="m0025467112" d="M 385.579193 -143.406968 
L 384.340807 -143.406968 
L 384.226722 -143.925537 
L 384.097894 -144.444107 
L 383.953735 -144.962676 
L 383.793896 -145.481246 
L 383.618311 -145.999815 
L 383.427238 -146.518385 
L 383.221285 -147.036954 
L 383.001431 -147.555524 
L 382.769024 -148.074093 
L 382.525774 -148.592663 
L 382.273715 -149.111233 
L 382.015159 -149.629802 
L 381.752626 -150.148372 
L 381.488759 -150.666941 
L 381.226223 -151.185511 
L 380.967596 -151.70408 
L 380.715256 -152.22265 
L 380.47126 -152.741219 
L 380.237242 -153.259789 
L 380.014315 -153.778358 
L 379.802993 -154.296928 
L 379.603138 -154.815498 
L 379.413942 -155.334067 
L 379.233929 -155.852637 
L 379.060998 -156.371206 
L 378.892493 -156.889776 
L 378.725308 -157.408345 
L 378.556006 -157.926915 
L 378.380964 -158.445484 
L 378.196525 -158.964054 
L 377.999146 -159.482623 
L 377.785545 -160.001193 
L 377.552824 -160.519763 
L 377.298571 -161.038332 
L 377.020929 -161.556902 
L 376.718631 -162.075471 
L 376.390997 -162.594041 
L 376.037895 -163.11261 
L 375.659668 -163.63118 
L 375.257038 -164.149749 
L 374.83099 -164.668319 
L 374.382654 -165.186888 
L 373.91318 -165.705458 
L 373.423637 -166.224028 
L 372.914939 -166.742597 
L 372.387798 -167.261167 
L 371.842726 -167.779736 
L 371.280075 -168.298306 
L 370.700133 -168.816875 
L 370.103253 -169.335445 
L 369.490019 -169.854014 
L 368.861441 -170.372584 
L 368.21916 -170.891153 
L 367.565646 -171.409723 
L 366.904379 -171.928292 
L 366.239996 -172.446862 
L 365.578384 -172.965432 
L 364.926715 -173.484001 
L 364.293403 -174.002571 
L 363.687991 -174.52114 
L 363.12096 -175.03971 
L 362.603461 -175.558279 
L 362.146996 -176.076849 
L 361.763038 -176.595418 
L 361.462631 -177.113988 
L 361.25597 -177.632557 
L 361.152 -178.151127 
L 361.158034 -178.669697 
L 361.279433 -179.188266 
L 361.519345 -179.706836 
L 361.878527 -180.225405 
L 362.35526 -180.743975 
L 362.945351 -181.262544 
L 363.642237 -181.781114 
L 364.43717 -182.299683 
L 365.319482 -182.818253 
L 366.276916 -183.336822 
L 367.296003 -183.855392 
L 368.362471 -184.373962 
L 369.461663 -184.892531 
L 370.578952 -185.411101 
L 371.700128 -185.92967 
L 372.811753 -186.44824 
L 373.901462 -186.966809 
L 374.958204 -187.485379 
L 375.972429 -188.003948 
L 376.936202 -188.522518 
L 377.843254 -189.041087 
L 378.688981 -189.559657 
L 379.470381 -190.078227 
L 380.185954 -190.596796 
L 380.835562 -191.115366 
L 381.420268 -191.633935 
L 381.942149 -192.152505 
L 382.404115 -192.671074 
L 382.809718 -193.189644 
L 383.162972 -193.708213 
L 383.468186 -194.226783 
L 383.729817 -194.745352 
L 386.190183 -194.745352 
L 386.190183 -194.745352 
L 386.451814 -194.226783 
L 386.757028 -193.708213 
L 387.110282 -193.189644 
L 387.515885 -192.671074 
L 387.977851 -192.152505 
L 388.499732 -191.633935 
L 389.084438 -191.115366 
L 389.734046 -190.596796 
L 390.449619 -190.078227 
L 391.231019 -189.559657 
L 392.076746 -189.041087 
L 392.983798 -188.522518 
L 393.947571 -188.003948 
L 394.961796 -187.485379 
L 396.018538 -186.966809 
L 397.108247 -186.44824 
L 398.219872 -185.92967 
L 399.341048 -185.411101 
L 400.458337 -184.892531 
L 401.557529 -184.373962 
L 402.623997 -183.855392 
L 403.643084 -183.336822 
L 404.600518 -182.818253 
L 405.48283 -182.299683 
L 406.277763 -181.781114 
L 406.974649 -181.262544 
L 407.56474 -180.743975 
L 408.041473 -180.225405 
L 408.400655 -179.706836 
L 408.640567 -179.188266 
L 408.761966 -178.669697 
L 408.768 -178.151127 
L 408.66403 -177.632557 
L 408.457369 -177.113988 
L 408.156962 -176.595418 
L 407.773004 -176.076849 
L 407.316539 -175.558279 
L 406.79904 -175.03971 
L 406.232009 -174.52114 
L 405.626597 -174.002571 
L 404.993285 -173.484001 
L 404.341616 -172.965432 
L 403.680004 -172.446862 
L 403.015621 -171.928292 
L 402.354354 -171.409723 
L 401.70084 -170.891153 
L 401.058559 -170.372584 
L 400.429981 -169.854014 
L 399.816747 -169.335445 
L 399.219867 -168.816875 
L 398.639925 -168.298306 
L 398.077274 -167.779736 
L 397.532202 -167.261167 
L 397.005061 -166.742597 
L 396.496363 -166.224028 
L 396.00682 -165.705458 
L 395.537346 -165.186888 
L 395.08901 -164.668319 
L 394.662962 -164.149749 
L 394.260332 -163.63118 
L 393.882105 -163.11261 
L 393.529003 -162.594041 
L 393.201369 -162.075471 
L 392.899071 -161.556902 
L 392.621429 -161.038332 
L 392.367176 -160.519763 
L 392.134455 -160.001193 
L 391.920854 -159.482623 
L 391.723475 -158.964054 
L 391.539036 -158.445484 
L 391.363994 -157.926915 
L 391.194692 -157.408345 
L 391.027507 -156.889776 
L 390.859002 -156.371206 
L 390.686071 -155.852637 
L 390.506058 -155.334067 
L 390.316862 -154.815498 
L 390.117007 -154.296928 
L 389.905685 -153.778358 
L 389.682758 -153.259789 
L 389.44874 -152.741219 
L 389.204744 -152.22265 
L 388.952404 -151.70408 
L 388.693777 -151.185511 
L 388.431241 -150.666941 
L 388.167374 -150.148372 
L 387.904841 -149.629802 
L 387.646285 -149.111233 
L 387.394226 -148.592663 
L 387.150976 -148.074093 
L 386.918569 -147.555524 
L 386.698715 -147.036954 
L 386.492762 -146.518385 
L 386.301689 -145.999815 
L 386.126104 -145.481246 
L 385.966265 -144.962676 
L 385.822106 -144.444107 
L 385.693278 -143.925537 
L 385.579193 -143.406968 
z
" style="stroke: #595959; stroke-width: 1.5"/>
    </defs>
    <g clip-path="url(#p699b8fe8f0)">
     <use xlink:href="#m0025467112" x="0" y="345.6" style="fill: #e5c849; stroke: #595959; stroke-width: 1.5"/>
    </g>
   </g>
   <g id="line2d_1">
    <path d="M 87.36 183.871858 
L 87.36 189.856051 
" clip-path="url(#p66f242e3c9)" style="fill: none; stroke: #3d3d3d; stroke-width: 1.5; stroke-linecap: round"/>
   </g>
   <g id="line2d_2">
    <path d="M 87.36 164.901398 
L 87.36 159.306394 
" clip-path="url(#p66f242e3c9)" style="fill: none; stroke: #3d3d3d; stroke-width: 1.5; stroke-linecap: round"/>
   </g>
   <g id="line2d_3">
    <path d="M 82.896 189.856051 
L 91.824 189.856051 
" clip-path="url(#p66f242e3c9)" style="fill: none; stroke: #3d3d3d; stroke-width: 1.5; stroke-linecap: round"/>
   </g>
   <g id="line2d_4">
    <path d="M 82.896 159.306394 
L 91.824 159.306394 
" clip-path="url(#p66f242e3c9)" style="fill: none; stroke: #3d3d3d; stroke-width: 1.5; stroke-linecap: round"/>
   </g>
   <g id="line2d_5">
    <path d="M 146.88 185.059382 
L 146.88 195.750432 
" clip-path="url(#p66f242e3c9)" style="fill: none; stroke: #3d3d3d; stroke-width: 1.5; stroke-linecap: round"/>
   </g>
   <g id="line2d_6">
    <path d="M 146.88 158.014087 
L 146.88 153.205776 
" clip-path="url(#p66f242e3c9)" style="fill: none; stroke: #3d3d3d; stroke-width: 1.5; stroke-linecap: round"/>
   </g>
   <g id="line2d_7">
    <path d="M 142.416 195.750432 
L 151.344 195.750432 
" clip-path="url(#p66f242e3c9)" style="fill: none; stroke: #3d3d3d; stroke-width: 1.5; stroke-linecap: round"/>
   </g>
   <g id="line2d_8">
    <path d="M 142.416 153.205776 
L 151.344 153.205776 
" clip-path="url(#p66f242e3c9)" style="fill: none; stroke: #3d3d3d; stroke-width: 1.5; stroke-linecap: round"/>
   </g>
   <g id="line2d_9">
    <path d="M 206.4 180.247745 
L 206.4 185.29223 
" clip-path="url(#p66f242e3c9)" style="fill: none; stroke: #3d3d3d; stroke-width: 1.5; stroke-linecap: round"/>
   </g>
   <g id="line2d_10">
    <path d="M 206.4 169.613244 
L 206.4 168.959606 
" clip-path="url(#p66f242e3c9)" style="fill: none; stroke: #3d3d3d; stroke-width: 1.5; stroke-linecap: round"/>
   </g>
   <g id="line2d_11">
    <path d="M 201.936 185.29223 
L 210.864 185.29223 
" clip-path="url(#p66f242e3c9)" style="fill: none; stroke: #3d3d3d; stroke-width: 1.5; stroke-linecap: round"/>
   </g>
   <g id="line2d_12">
    <path d="M 201.936 168.959606 
L 210.864 168.959606 
" clip-path="url(#p66f242e3c9)" style="fill: none; stroke: #3d3d3d; stroke-width: 1.5; stroke-linecap: round"/>
   </g>
   <g id="line2d_13">
    <path d="M 265.92 196.156253 
L 265.92 217.398643 
" clip-path="url(#p66f242e3c9)" style="fill: none; stroke: #3d3d3d; stroke-width: 1.5; stroke-linecap: round"/>
   </g>
   <g id="line2d_14">
    <path d="M 265.92 180.06313 
L 265.92 169.125926 
" clip-path="url(#p66f242e3c9)" style="fill: none; stroke: #3d3d3d; stroke-width: 1.5; stroke-linecap: round"/>
   </g>
   <g id="line2d_15">
    <path d="M 261.456 217.398643 
L 270.384 217.398643 
" clip-path="url(#p66f242e3c9)" style="fill: none; stroke: #3d3d3d; stroke-width: 1.5; stroke-linecap: round"/>
   </g>
   <g id="line2d_16">
    <path d="M 261.456 169.125926 
L 270.384 169.125926 
" clip-path="url(#p66f242e3c9)" style="fill: none; stroke: #3d3d3d; stroke-width: 1.5; stroke-linecap: round"/>
   </g>
   <g id="line2d_17">
    <path d="M 325.44 172.349208 
L 325.44 184.267699 
" clip-path="url(#p66f242e3c9)" style="fill: none; stroke: #3d3d3d; stroke-width: 1.5; stroke-linecap: round"/>
   </g>
   <g id="line2d_18">
    <path d="M 325.44 164.219486 
L 325.44 156.106397 
" clip-path="url(#p66f242e3c9)" style="fill: none; stroke: #3d3d3d; stroke-width: 1.5; stroke-linecap: round"/>
   </g>
   <g id="line2d_19">
    <path d="M 320.976 184.267699 
L 329.904 184.267699 
" clip-path="url(#p66f242e3c9)" style="fill: none; stroke: #3d3d3d; stroke-width: 1.5; stroke-linecap: round"/>
   </g>
   <g id="line2d_20">
    <path d="M 320.976 156.106397 
L 329.904 156.106397 
" clip-path="url(#p66f242e3c9)" style="fill: none; stroke: #3d3d3d; stroke-width: 1.5; stroke-linecap: round"/>
   </g>
   <g id="line2d_21">
    <path d="M 384.96 176.498892 
L 384.96 190.135469 
" clip-path="url(#p66f242e3c9)" style="fill: none; stroke: #3d3d3d; stroke-width: 1.5; stroke-linecap: round"/>
   </g>
   <g id="line2d_22">
    <path d="M 384.96 165.724682 
L 384.96 162.912211 
" clip-path="url(#p66f242e3c9)" style="fill: none; stroke: #3d3d3d; stroke-width: 1.5; stroke-linecap: round"/>
   </g>
   <g id="line2d_23">
    <path d="M 380.496 190.135469 
L 389.424 190.135469 
" clip-path="url(#p66f242e3c9)" style="fill: none; stroke: #3d3d3d; stroke-width: 1.5; stroke-linecap: round"/>
   </g>
   <g id="line2d_24">
    <path d="M 380.496 162.912211 
L 389.424 162.912211 
" clip-path="url(#p66f242e3c9)" style="fill: none; stroke: #3d3d3d; stroke-width: 1.5; stroke-linecap: round"/>
   </g>
   <g id="line2d_25">
    <path d="M 78.432 175.299725 
L 96.288 175.299725 
" clip-path="url(#p66f242e3c9)" style="fill: none; stroke: #3d3d3d; stroke-width: 1.5; stroke-linecap: round"/>
   </g>
   <g id="line2d_26">
    <path d="M 137.952 171.15503 
L 155.808 171.15503 
" clip-path="url(#p66f242e3c9)" style="fill: none; stroke: #3d3d3d; stroke-width: 1.5; stroke-linecap: round"/>
   </g>
   <g id="line2d_27">
    <path d="M 197.472 174.275194 
L 215.328 174.275194 
" clip-path="url(#p66f242e3c9)" style="fill: none; stroke: #3d3d3d; stroke-width: 1.5; stroke-linecap: round"/>
   </g>
   <g id="line2d_28">
    <path d="M 256.992 188.319254 
L 274.848 188.319254 
" clip-path="url(#p66f242e3c9)" style="fill: none; stroke: #3d3d3d; stroke-width: 1.5; stroke-linecap: round"/>
   </g>
   <g id="line2d_29">
    <path d="M 316.512 169.20576 
L 334.368 169.20576 
" clip-path="url(#p66f242e3c9)" style="fill: none; stroke: #3d3d3d; stroke-width: 1.5; stroke-linecap: round"/>
   </g>
   <g id="line2d_30">
    <path d="M 376.032 167.861894 
L 393.888 167.861894 
" clip-path="url(#p66f242e3c9)" style="fill: none; stroke: #3d3d3d; stroke-width: 1.5; stroke-linecap: round"/>
   </g>
   <g id="patch_3">
    <path d="M 57.6 307.584 
L 57.6 41.472 
" style="fill: none; stroke: #262626; stroke-width: 0.8; stroke-linejoin: miter; stroke-linecap: square"/>
   </g>
   <g id="patch_4">
    <path d="M 414.72 307.584 
L 414.72 41.472 
" style="fill: none; stroke: #262626; stroke-width: 0.8; stroke-linejoin: miter; stroke-linecap: square"/>
   </g>
   <g id="patch_5">
    <path d="M 57.6 307.584 
L 414.72 307.584 
" style="fill: none; stroke: #262626; stroke-width: 0.8; stroke-linejoin: miter; stroke-linecap: square"/>
   </g>
   <g id="patch_6">
    <path d="M 57.6 41.472 
L 414.72 41.472 
" style="fill: none; stroke: #262626; stroke-width: 0.8; stroke-linejoin: miter; stroke-linecap: square"/>
   </g>
   <g id="patch_7">
    <path d="M 78.432 183.871858 
L 96.288 183.871858 
L 96.288 164.901398 
L 78.432 164.901398 
L 78.432 183.871858 
L 78.432 183.871858 
z
" clip-path="url(#p66f242e3c9)" style="fill: none; stroke: #3d3d3d; stroke-width: 1.5; stroke-linejoin: miter"/>
   </g>
   <g id="patch_8">
    <path d="M 137.952 185.059382 
L 155.808 185.059382 
L 155.808 158.014087 
L 137.952 158.014087 
L 137.952 185.059382 
L 137.952 185.059382 
z
" clip-path="url(#p66f242e3c9)" style="fill: none; stroke: #3d3d3d; stroke-width: 1.5; stroke-linejoin: miter"/>
   </g>
   <g id="patch_9">
    <path d="M 197.472 180.247745 
L 215.328 180.247745 
L 215.328 169.613244 
L 197.472 169.613244 
L 197.472 180.247745 
L 197.472 180.247745 
z
" clip-path="url(#p66f242e3c9)" style="fill: none; stroke: #3d3d3d; stroke-width: 1.5; stroke-linejoin: miter"/>
   </g>
   <g id="patch_10">
    <path d="M 256.992 196.156253 
L 274.848 196.156253 
L 274.848 180.06313 
L 256.992 180.06313 
L 256.992 196.156253 
L 256.992 196.156253 
z
" clip-path="url(#p66f242e3c9)" style="fill: none; stroke: #3d3d3d; stroke-width: 1.5; stroke-linejoin: miter"/>
   </g>
   <g id="patch_11">
    <path d="M 316.512 172.349208 
L 334.368 172.349208 
L 334.368 164.219486 
L 316.512 164.219486 
L 316.512 172.349208 
L 316.512 172.349208 
z
" clip-path="url(#p66f242e3c9)" style="fill: none; stroke: #3d3d3d; stroke-width: 1.5; stroke-linejoin: miter"/>
   </g>
   <g id="patch_12">
    <path d="M 376.032 176.498892 
L 393.888 176.498892 
L 393.888 165.724682 
L 376.032 165.724682 
L 376.032 176.498892 
L 376.032 176.498892 
z
" clip-path="url(#p66f242e3c9)" style="fill: none; stroke: #3d3d3d; stroke-width: 1.5; stroke-linejoin: miter"/>
   </g>
   <g id="PathCollection_1">
    <defs>
     <path id="C0_0_1e7e55bb3e" d="M 0 2.5 
C 0.663008 2.5 1.29895 2.236584 1.767767 1.767767 
C 2.236584 1.29895 2.5 0.663008 2.5 -0 
C 2.5 -0.663008 2.236584 -1.29895 1.767767 -1.767767 
C 1.29895 -2.236584 0.663008 -2.5 0 -2.5 
C -0.663008 -2.5 -1.29895 -2.236584 -1.767767 -1.767767 
C -2.236584 -1.29895 -2.5 -0.663008 -2.5 0 
C -2.5 0.663008 -2.236584 1.29895 -1.767767 1.767767 
C -1.29895 2.236584 -0.663008 2.5 0 2.5 
z
"/>
    </defs>
    <g clip-path="url(#p66f242e3c9)">
     <use xlink:href="#C0_0_1e7e55bb3e" x="96.841169" y="163.564186" style="fill: #66c2a5; stroke: #000000; stroke-width: 0.5"/>
    </g>
    <g clip-path="url(#p66f242e3c9)">
     <use xlink:href="#C0_0_1e7e55bb3e" x="91.956603" y="186.057302" style="fill: #66c2a5; stroke: #000000; stroke-width: 0.5"/>
    </g>
    <g clip-path="url(#p66f242e3c9)">
     <use xlink:href="#C0_0_1e7e55bb3e" x="91.25084" y="189.856051" style="fill: #66c2a5; stroke: #000000; stroke-width: 0.5"/>
    </g>
    <g clip-path="url(#p66f242e3c9)">
     <use xlink:href="#C0_0_1e7e55bb3e" x="95.113251" y="159.306394" style="fill: #66c2a5; stroke: #000000; stroke-width: 0.5"/>
    </g>
    <g clip-path="url(#p66f242e3c9)">
     <use xlink:href="#C0_0_1e7e55bb3e" x="97.114959" y="181.120925" style="fill: #66c2a5; stroke: #000000; stroke-width: 0.5"/>
    </g>
    <g clip-path="url(#p66f242e3c9)">
     <use xlink:href="#C0_0_1e7e55bb3e" x="93.587059" y="183.143376" style="fill: #66c2a5; stroke: #000000; stroke-width: 0.5"/>
    </g>
    <g clip-path="url(#p66f242e3c9)">
     <use xlink:href="#C0_0_1e7e55bb3e" x="100.225417" y="165.347136" style="fill: #66c2a5; stroke: #000000; stroke-width: 0.5"/>
    </g>
    <g clip-path="url(#p66f242e3c9)">
     <use xlink:href="#C0_0_1e7e55bb3e" x="96.702613" y="169.478525" style="fill: #66c2a5; stroke: #000000; stroke-width: 0.5"/>
    </g>
   </g>
   <g id="PathCollection_2">
    <defs>
     <path id="C1_0_d3439ff13e" d="M 0 2.5 
C 0.663008 2.5 1.29895 2.236584 1.767767 1.767767 
C 2.236584 1.29895 2.5 0.663008 2.5 -0 
C 2.5 -0.663008 2.236584 -1.29895 1.767767 -1.767767 
C 1.29895 -2.236584 0.663008 -2.5 0 -2.5 
C -0.663008 -2.5 -1.29895 -2.236584 -1.767767 -1.767767 
C -2.236584 -1.29895 -2.5 -0.663008 -2.5 0 
C -2.5 0.663008 -2.236584 1.29895 -1.767767 1.767767 
C -1.29895 2.236584 -0.663008 2.5 0 2.5 
z
"/>
    </defs>
    <g clip-path="url(#p66f242e3c9)">
     <use xlink:href="#C1_0_d3439ff13e" x="153.795413" y="156.312634" style="fill: #fc8d62; stroke: #000000; stroke-width: 0.5"/>
    </g>
    <g clip-path="url(#p66f242e3c9)">
     <use xlink:href="#C1_0_d3439ff13e" x="152.738167" y="182.617805" style="fill: #fc8d62; stroke: #000000; stroke-width: 0.5"/>
    </g>
    <g clip-path="url(#p66f242e3c9)">
     <use xlink:href="#C1_0_d3439ff13e" x="152.155591" y="188.053142" style="fill: #fc8d62; stroke: #000000; stroke-width: 0.5"/>
    </g>
    <g clip-path="url(#p66f242e3c9)">
     <use xlink:href="#C1_0_d3439ff13e" x="156.749008" y="153.205776" style="fill: #fc8d62; stroke: #000000; stroke-width: 0.5"/>
    </g>
    <g clip-path="url(#p66f242e3c9)">
     <use xlink:href="#C1_0_d3439ff13e" x="153.291164" y="184.061462" style="fill: #fc8d62; stroke: #000000; stroke-width: 0.5"/>
    </g>
    <g clip-path="url(#p66f242e3c9)">
     <use xlink:href="#C1_0_d3439ff13e" x="148.780806" y="195.750432" style="fill: #fc8d62; stroke: #000000; stroke-width: 0.5"/>
    </g>
    <g clip-path="url(#p66f242e3c9)">
     <use xlink:href="#C1_0_d3439ff13e" x="152.808719" y="159.692256" style="fill: #fc8d62; stroke: #000000; stroke-width: 0.5"/>
    </g>
    <g clip-path="url(#p66f242e3c9)">
     <use xlink:href="#C1_0_d3439ff13e" x="156.855497" y="158.581238" style="fill: #fc8d62; stroke: #000000; stroke-width: 0.5"/>
    </g>
   </g>
   <g id="PathCollection_3">
    <defs>
     <path id="C2_0_4c7ec7dcbc" d="M 0 2.5 
C 0.663008 2.5 1.29895 2.236584 1.767767 1.767767 
C 2.236584 1.29895 2.5 0.663008 2.5 -0 
C 2.5 -0.663008 2.236584 -1.29895 1.767767 -1.767767 
C 1.29895 -2.236584 0.663008 -2.5 0 -2.5 
C -0.663008 -2.5 -1.29895 -2.236584 -1.767767 -1.767767 
C -2.236584 -1.29895 -2.5 -0.663008 -2.5 0 
C -2.5 0.663008 -2.236584 1.29895 -1.767767 1.767767 
C -1.29895 2.236584 -0.663008 2.5 0 2.5 
z
"/>
    </defs>
    <g clip-path="url(#p66f242e3c9)">
     <use xlink:href="#C2_0_4c7ec7dcbc" x="209.762782" y="172.099728" style="fill: #8da0cb; stroke: #000000; stroke-width: 0.5"/>
    </g>
    <g clip-path="url(#p66f242e3c9)">
     <use xlink:href="#C2_0_4c7ec7dcbc" x="209.678978" y="198.152093" style="fill: #8da0cb; stroke: #000000; stroke-width: 0.5"/>
    </g>
    <g clip-path="url(#p66f242e3c9)">
     <use xlink:href="#C2_0_4c7ec7dcbc" x="213.917988" y="185.29223" style="fill: #8da0cb; stroke: #000000; stroke-width: 0.5"/>
    </g>
    <g clip-path="url(#p66f242e3c9)">
     <use xlink:href="#C2_0_4c7ec7dcbc" x="213.921276" y="140.259427" style="fill: #8da0cb; stroke: #000000; stroke-width: 0.5"/>
    </g>
    <g clip-path="url(#p66f242e3c9)">
     <use xlink:href="#C2_0_4c7ec7dcbc" x="215.142309" y="178.56625" style="fill: #8da0cb; stroke: #000000; stroke-width: 0.5"/>
    </g>
    <g clip-path="url(#p66f242e3c9)">
     <use xlink:href="#C2_0_4c7ec7dcbc" x="217.702036" y="176.450659" style="fill: #8da0cb; stroke: #000000; stroke-width: 0.5"/>
    </g>
    <g clip-path="url(#p66f242e3c9)">
     <use xlink:href="#C2_0_4c7ec7dcbc" x="216.214316" y="168.959606" style="fill: #8da0cb; stroke: #000000; stroke-width: 0.5"/>
    </g>
    <g clip-path="url(#p66f242e3c9)">
     <use xlink:href="#C2_0_4c7ec7dcbc" x="214.864024" y="169.831123" style="fill: #8da0cb; stroke: #000000; stroke-width: 0.5"/>
    </g>
   </g>
   <g id="PathCollection_4">
    <defs>
     <path id="C3_0_9e191d0d56" d="M 0 2.5 
C 0.663008 2.5 1.29895 2.236584 1.767767 1.767767 
C 2.236584 1.29895 2.5 0.663008 2.5 -0 
C 2.5 -0.663008 2.236584 -1.29895 1.767767 -1.767767 
C 1.29895 -2.236584 0.663008 -2.5 0 -2.5 
C -0.663008 -2.5 -1.29895 -2.236584 -1.767767 -1.767767 
C -2.236584 -1.29895 -2.5 -0.663008 -2.5 0 
C -2.5 0.663008 -2.236584 1.29895 -1.767767 1.767767 
C -1.29895 2.236584 -0.663008 2.5 0 2.5 
z
"/>
    </defs>
    <g clip-path="url(#p66f242e3c9)">
     <use xlink:href="#C3_0_9e191d0d56" x="275.710366" y="186.775805" style="fill: #e78ac3; stroke: #000000; stroke-width: 0.5"/>
    </g>
    <g clip-path="url(#p66f242e3c9)">
     <use xlink:href="#C3_0_9e191d0d56" x="270.954903" y="217.398643" style="fill: #e78ac3; stroke: #000000; stroke-width: 0.5"/>
    </g>
    <g clip-path="url(#p66f242e3c9)">
     <use xlink:href="#C3_0_9e191d0d56" x="271.417132" y="203.241485" style="fill: #e78ac3; stroke: #000000; stroke-width: 0.5"/>
    </g>
    <g clip-path="url(#p66f242e3c9)">
     <use xlink:href="#C3_0_9e191d0d56" x="269.827646" y="169.125926" style="fill: #e78ac3; stroke: #000000; stroke-width: 0.5"/>
    </g>
    <g clip-path="url(#p66f242e3c9)">
     <use xlink:href="#C3_0_9e191d0d56" x="270.606772" y="178.626125" style="fill: #e78ac3; stroke: #000000; stroke-width: 0.5"/>
    </g>
    <g clip-path="url(#p66f242e3c9)">
     <use xlink:href="#C3_0_9e191d0d56" x="274.62154" y="193.794509" style="fill: #e78ac3; stroke: #000000; stroke-width: 0.5"/>
    </g>
    <g clip-path="url(#p66f242e3c9)">
     <use xlink:href="#C3_0_9e191d0d56" x="268.206817" y="180.542131" style="fill: #e78ac3; stroke: #000000; stroke-width: 0.5"/>
    </g>
    <g clip-path="url(#p66f242e3c9)">
     <use xlink:href="#C3_0_9e191d0d56" x="272.273179" y="189.862704" style="fill: #e78ac3; stroke: #000000; stroke-width: 0.5"/>
    </g>
   </g>
   <g id="PathCollection_5">
    <defs>
     <path id="C4_0_b80faf9b52" d="M 0 2.5 
C 0.663008 2.5 1.29895 2.236584 1.767767 1.767767 
C 2.236584 1.29895 2.5 0.663008 2.5 -0 
C 2.5 -0.663008 2.236584 -1.29895 1.767767 -1.767767 
C 1.29895 -2.236584 0.663008 -2.5 0 -2.5 
C -0.663008 -2.5 -1.29895 -2.236584 -1.767767 -1.767767 
C -2.236584 -1.29895 -2.5 -0.663008 -2.5 0 
C -2.5 0.663008 -2.236584 1.29895 -1.767767 1.767767 
C -1.29895 2.236584 -0.663008 2.5 0 2.5 
z
"/>
    </defs>
    <g clip-path="url(#p66f242e3c9)">
     <use xlink:href="#C4_0_b80faf9b52" x="331.75939" y="156.106397" style="fill: #a6d854; stroke: #000000; stroke-width: 0.5"/>
    </g>
    <g clip-path="url(#p66f242e3c9)">
     <use xlink:href="#C4_0_b80faf9b52" x="332.507227" y="184.267699" style="fill: #a6d854; stroke: #000000; stroke-width: 0.5"/>
    </g>
    <g clip-path="url(#p66f242e3c9)">
     <use xlink:href="#C4_0_b80faf9b52" x="331.699484" y="169.757942" style="fill: #a6d854; stroke: #000000; stroke-width: 0.5"/>
    </g>
    <g clip-path="url(#p66f242e3c9)">
     <use xlink:href="#C4_0_b80faf9b52" x="330.347558" y="144.344246" style="fill: #a6d854; stroke: #000000; stroke-width: 0.5"/>
    </g>
    <g clip-path="url(#p66f242e3c9)">
     <use xlink:href="#C4_0_b80faf9b52" x="331.705686" y="166.92385" style="fill: #a6d854; stroke: #000000; stroke-width: 0.5"/>
    </g>
    <g clip-path="url(#p66f242e3c9)">
     <use xlink:href="#C4_0_b80faf9b52" x="337.265305" y="177.468538" style="fill: #a6d854; stroke: #000000; stroke-width: 0.5"/>
    </g>
    <g clip-path="url(#p66f242e3c9)">
     <use xlink:href="#C4_0_b80faf9b52" x="337.869681" y="170.642765" style="fill: #a6d854; stroke: #000000; stroke-width: 0.5"/>
    </g>
    <g clip-path="url(#p66f242e3c9)">
     <use xlink:href="#C4_0_b80faf9b52" x="332.604264" y="168.653578" style="fill: #a6d854; stroke: #000000; stroke-width: 0.5"/>
    </g>
   </g>
   <g id="PathCollection_6">
    <defs>
     <path id="C5_0_af7b591f08" d="M 0 2.5 
C 0.663008 2.5 1.29895 2.236584 1.767767 1.767767 
C 2.236584 1.29895 2.5 0.663008 2.5 -0 
C 2.5 -0.663008 2.236584 -1.29895 1.767767 -1.767767 
C 1.29895 -2.236584 0.663008 -2.5 0 -2.5 
C -0.663008 -2.5 -1.29895 -2.236584 -1.767767 -1.767767 
C -2.236584 -1.29895 -2.5 -0.663008 -2.5 0 
C -2.5 0.663008 -2.236584 1.29895 -1.767767 1.767767 
C -1.29895 2.236584 -0.663008 2.5 0 2.5 
z
"/>
    </defs>
    <g clip-path="url(#p66f242e3c9)">
     <use xlink:href="#C5_0_af7b591f08" x="393.577936" y="162.912211" style="fill: #ffd92f; stroke: #000000; stroke-width: 0.5"/>
    </g>
    <g clip-path="url(#p66f242e3c9)">
     <use xlink:href="#C5_0_af7b591f08" x="387.526721" y="190.135469" style="fill: #ffd92f; stroke: #000000; stroke-width: 0.5"/>
    </g>
    <g clip-path="url(#p66f242e3c9)">
     <use xlink:href="#C5_0_af7b591f08" x="389.927366" y="167.649005" style="fill: #ffd92f; stroke: #000000; stroke-width: 0.5"/>
    </g>
    <g clip-path="url(#p66f242e3c9)">
     <use xlink:href="#C5_0_af7b591f08" x="391.088491" y="178.719264" style="fill: #ffd92f; stroke: #000000; stroke-width: 0.5"/>
    </g>
    <g clip-path="url(#p66f242e3c9)">
     <use xlink:href="#C5_0_af7b591f08" x="396.462944" y="165.75961" style="fill: #ffd92f; stroke: #000000; stroke-width: 0.5"/>
    </g>
    <g clip-path="url(#p66f242e3c9)">
     <use xlink:href="#C5_0_af7b591f08" x="389.131821" y="175.758768" style="fill: #ffd92f; stroke: #000000; stroke-width: 0.5"/>
    </g>
    <g clip-path="url(#p66f242e3c9)">
     <use xlink:href="#C5_0_af7b591f08" x="391.90044" y="165.619901" style="fill: #ffd92f; stroke: #000000; stroke-width: 0.5"/>
    </g>
    <g clip-path="url(#p66f242e3c9)">
     <use xlink:href="#C5_0_af7b591f08" x="397.882504" y="168.074784" style="fill: #ffd92f; stroke: #000000; stroke-width: 0.5"/>
    </g>
   </g>
   <g id="text_18">
    <!-- Violin Plot with Overlayed Box and Strip Plots -->
    <g style="fill: #262626" transform="translate(100.525313 35.472) scale(0.12 -0.12)">
     <defs>
      <path id="DejaVuSans-56" d="M 1831 0 
L 50 4666 
L 709 4666 
L 2188 738 
L 3669 4666 
L 4325 4666 
L 2547 0 
L 1831 0 
z
" transform="scale(0.015625)"/>
      <path id="DejaVuSans-69" d="M 603 3500 
L 1178 3500 
L 1178 0 
L 603 0 
L 603 3500 
z
M 603 4863 
L 1178 4863 
L 1178 4134 
L 603 4134 
L 603 4863 
z
" transform="scale(0.015625)"/>
      <path id="DejaVuSans-6e" d="M 3513 2113 
L 3513 0 
L 2938 0 
L 2938 2094 
Q 2938 2591 2744 2837 
Q 2550 3084 2163 3084 
Q 1697 3084 1428 2787 
Q 1159 2491 1159 1978 
L 1159 0 
L 581 0 
L 581 3500 
L 1159 3500 
L 1159 2956 
Q 1366 3272 1645 3428 
Q 1925 3584 2291 3584 
Q 2894 3584 3203 3211 
Q 3513 2838 3513 2113 
z
" transform="scale(0.015625)"/>
      <path id="DejaVuSans-20" transform="scale(0.015625)"/>
      <path id="DejaVuSans-50" d="M 1259 4147 
L 1259 2394 
L 2053 2394 
Q 2494 2394 2734 2622 
Q 2975 2850 2975 3272 
Q 2975 3691 2734 3919 
Q 2494 4147 2053 4147 
L 1259 4147 
z
M 628 4666 
L 2053 4666 
Q 2838 4666 3239 4311 
Q 3641 3956 3641 3272 
Q 3641 2581 3239 2228 
Q 2838 1875 2053 1875 
L 1259 1875 
L 1259 0 
L 628 0 
L 628 4666 
z
" transform="scale(0.015625)"/>
      <path id="DejaVuSans-74" d="M 1172 4494 
L 1172 3500 
L 2356 3500 
L 2356 3053 
L 1172 3053 
L 1172 1153 
Q 1172 725 1289 603 
Q 1406 481 1766 481 
L 2356 481 
L 2356 0 
L 1766 0 
Q 1100 0 847 248 
Q 594 497 594 1153 
L 594 3053 
L 172 3053 
L 172 3500 
L 594 3500 
L 594 4494 
L 1172 4494 
z
" transform="scale(0.015625)"/>
      <path id="DejaVuSans-77" d="M 269 3500 
L 844 3500 
L 1563 769 
L 2278 3500 
L 2956 3500 
L 3675 769 
L 4391 3500 
L 4966 3500 
L 4050 0 
L 3372 0 
L 2619 2869 
L 1863 0 
L 1184 0 
L 269 3500 
z
" transform="scale(0.015625)"/>
      <path id="DejaVuSans-68" d="M 3513 2113 
L 3513 0 
L 2938 0 
L 2938 2094 
Q 2938 2591 2744 2837 
Q 2550 3084 2163 3084 
Q 1697 3084 1428 2787 
Q 1159 2491 1159 1978 
L 1159 0 
L 581 0 
L 581 4863 
L 1159 4863 
L 1159 2956 
Q 1366 3272 1645 3428 
Q 1925 3584 2291 3584 
Q 2894 3584 3203 3211 
Q 3513 2838 3513 2113 
z
" transform="scale(0.015625)"/>
      <path id="DejaVuSans-76" d="M 191 3500 
L 800 3500 
L 1894 563 
L 2988 3500 
L 3597 3500 
L 2284 0 
L 1503 0 
L 191 3500 
z
" transform="scale(0.015625)"/>
      <path id="DejaVuSans-72" d="M 2631 2963 
Q 2534 3019 2420 3045 
Q 2306 3072 2169 3072 
Q 1681 3072 1420 2755 
Q 1159 2438 1159 1844 
L 1159 0 
L 581 0 
L 581 3500 
L 1159 3500 
L 1159 2956 
Q 1341 3275 1631 3429 
Q 1922 3584 2338 3584 
Q 2397 3584 2469 3576 
Q 2541 3569 2628 3553 
L 2631 2963 
z
" transform="scale(0.015625)"/>
      <path id="DejaVuSans-79" d="M 2059 -325 
Q 1816 -950 1584 -1140 
Q 1353 -1331 966 -1331 
L 506 -1331 
L 506 -850 
L 844 -850 
Q 1081 -850 1212 -737 
Q 1344 -625 1503 -206 
L 1606 56 
L 191 3500 
L 800 3500 
L 1894 763 
L 2988 3500 
L 3597 3500 
L 2059 -325 
z
" transform="scale(0.015625)"/>
      <path id="DejaVuSans-42" d="M 1259 2228 
L 1259 519 
L 2272 519 
Q 2781 519 3026 730 
Q 3272 941 3272 1375 
Q 3272 1813 3026 2020 
Q 2781 2228 2272 2228 
L 1259 2228 
z
M 1259 4147 
L 1259 2741 
L 2194 2741 
Q 2656 2741 2882 2914 
Q 3109 3088 3109 3444 
Q 3109 3797 2882 3972 
Q 2656 4147 2194 4147 
L 1259 4147 
z
M 628 4666 
L 2241 4666 
Q 2963 4666 3353 4366 
Q 3744 4066 3744 3513 
Q 3744 3084 3544 2831 
Q 3344 2578 2956 2516 
Q 3422 2416 3680 2098 
Q 3938 1781 3938 1306 
Q 3938 681 3513 340 
Q 3088 0 2303 0 
L 628 0 
L 628 4666 
z
" transform="scale(0.015625)"/>
      <path id="DejaVuSans-78" d="M 3513 3500 
L 2247 1797 
L 3578 0 
L 2900 0 
L 1881 1375 
L 863 0 
L 184 0 
L 1544 1831 
L 300 3500 
L 978 3500 
L 1906 2253 
L 2834 3500 
L 3513 3500 
z
" transform="scale(0.015625)"/>
      <path id="DejaVuSans-53" d="M 3425 4513 
L 3425 3897 
Q 3066 4069 2747 4153 
Q 2428 4238 2131 4238 
Q 1616 4238 1336 4038 
Q 1056 3838 1056 3469 
Q 1056 3159 1242 3001 
Q 1428 2844 1947 2747 
L 2328 2669 
Q 3034 2534 3370 2195 
Q 3706 1856 3706 1288 
Q 3706 609 3251 259 
Q 2797 -91 1919 -91 
Q 1588 -91 1214 -16 
Q 841 59 441 206 
L 441 856 
Q 825 641 1194 531 
Q 1563 422 1919 422 
Q 2459 422 2753 634 
Q 3047 847 3047 1241 
Q 3047 1584 2836 1778 
Q 2625 1972 2144 2069 
L 1759 2144 
Q 1053 2284 737 2584 
Q 422 2884 422 3419 
Q 422 4038 858 4394 
Q 1294 4750 2059 4750 
Q 2388 4750 2728 4690 
Q 3069 4631 3425 4513 
z
" transform="scale(0.015625)"/>
      <path id="DejaVuSans-70" d="M 1159 525 
L 1159 -1331 
L 581 -1331 
L 581 3500 
L 1159 3500 
L 1159 2969 
Q 1341 3281 1617 3432 
Q 1894 3584 2278 3584 
Q 2916 3584 3314 3078 
Q 3713 2572 3713 1747 
Q 3713 922 3314 415 
Q 2916 -91 2278 -91 
Q 1894 -91 1617 61 
Q 1341 213 1159 525 
z
M 3116 1747 
Q 3116 2381 2855 2742 
Q 2594 3103 2138 3103 
Q 1681 3103 1420 2742 
Q 1159 2381 1159 1747 
Q 1159 1113 1420 752 
Q 1681 391 2138 391 
Q 2594 391 2855 752 
Q 3116 1113 3116 1747 
z
" transform="scale(0.015625)"/>
      <path id="DejaVuSans-73" d="M 2834 3397 
L 2834 2853 
Q 2591 2978 2328 3040 
Q 2066 3103 1784 3103 
Q 1356 3103 1142 2972 
Q 928 2841 928 2578 
Q 928 2378 1081 2264 
Q 1234 2150 1697 2047 
L 1894 2003 
Q 2506 1872 2764 1633 
Q 3022 1394 3022 966 
Q 3022 478 2636 193 
Q 2250 -91 1575 -91 
Q 1294 -91 989 -36 
Q 684 19 347 128 
L 347 722 
Q 666 556 975 473 
Q 1284 391 1588 391 
Q 1994 391 2212 530 
Q 2431 669 2431 922 
Q 2431 1156 2273 1281 
Q 2116 1406 1581 1522 
L 1381 1569 
Q 847 1681 609 1914 
Q 372 2147 372 2553 
Q 372 3047 722 3315 
Q 1072 3584 1716 3584 
Q 2034 3584 2315 3537 
Q 2597 3491 2834 3397 
z
" transform="scale(0.015625)"/>
     </defs>
     <use xlink:href="#DejaVuSans-56"/>
     <use xlink:href="#DejaVuSans-69" x="66.158203"/>
     <use xlink:href="#DejaVuSans-6f" x="93.941406"/>
     <use xlink:href="#DejaVuSans-6c" x="155.123047"/>
     <use xlink:href="#DejaVuSans-69" x="182.90625"/>
     <use xlink:href="#DejaVuSans-6e" x="210.689453"/>
     <use xlink:href="#DejaVuSans-20" x="274.068359"/>
     <use xlink:href="#DejaVuSans-50" x="305.855469"/>
     <use xlink:href="#DejaVuSans-6c" x="366.158203"/>
     <use xlink:href="#DejaVuSans-6f" x="393.941406"/>
     <use xlink:href="#DejaVuSans-74" x="455.123047"/>
     <use xlink:href="#DejaVuSans-20" x="494.332031"/>
     <use xlink:href="#DejaVuSans-77" x="526.119141"/>
     <use xlink:href="#DejaVuSans-69" x="607.90625"/>
     <use xlink:href="#DejaVuSans-74" x="635.689453"/>
     <use xlink:href="#DejaVuSans-68" x="674.898438"/>
     <use xlink:href="#DejaVuSans-20" x="738.277344"/>
     <use xlink:href="#DejaVuSans-4f" x="770.064453"/>
     <use xlink:href="#DejaVuSans-76" x="848.775391"/>
     <use xlink:href="#DejaVuSans-65" x="907.955078"/>
     <use xlink:href="#DejaVuSans-72" x="969.478516"/>
     <use xlink:href="#DejaVuSans-6c" x="1010.591797"/>
     <use xlink:href="#DejaVuSans-61" x="1038.375"/>
     <use xlink:href="#DejaVuSans-79" x="1099.654297"/>
     <use xlink:href="#DejaVuSans-65" x="1158.833984"/>
     <use xlink:href="#DejaVuSans-64" x="1220.357422"/>
     <use xlink:href="#DejaVuSans-20" x="1283.833984"/>
     <use xlink:href="#DejaVuSans-42" x="1315.621094"/>
     <use xlink:href="#DejaVuSans-6f" x="1384.224609"/>
     <use xlink:href="#DejaVuSans-78" x="1442.28125"/>
     <use xlink:href="#DejaVuSans-20" x="1501.460938"/>
     <use xlink:href="#DejaVuSans-61" x="1533.248047"/>
     <use xlink:href="#DejaVuSans-6e" x="1594.527344"/>
     <use xlink:href="#DejaVuSans-64" x="1657.90625"/>
     <use xlink:href="#DejaVuSans-20" x="1721.382812"/>
     <use xlink:href="#DejaVuSans-53" x="1753.169922"/>
     <use xlink:href="#DejaVuSans-74" x="1816.646484"/>
     <use xlink:href="#DejaVuSans-72" x="1855.855469"/>
     <use xlink:href="#DejaVuSans-69" x="1896.96875"/>
     <use xlink:href="#DejaVuSans-70" x="1924.751953"/>
     <use xlink:href="#DejaVuSans-20" x="1988.228516"/>
     <use xlink:href="#DejaVuSans-50" x="2020.015625"/>
     <use xlink:href="#DejaVuSans-6c" x="2080.318359"/>
     <use xlink:href="#DejaVuSans-6f" x="2108.101562"/>
     <use xlink:href="#DejaVuSans-74" x="2169.283203"/>
     <use xlink:href="#DejaVuSans-73" x="2208.492188"/>
    </g>
   </g>
  </g>
 </g>
 <defs>
  <clipPath id="p5a6bf8b0ab">
   <rect x="73.408685" y="143.959587" width="13.951315" height="61.243271"/>
  </clipPath>
  <clipPath id="p9afef6b3fc">
   <rect x="136.871267" y="130.845129" width="10.008733" height="87.265951"/>
  </clipPath>
  <clipPath id="p7bc3e6f566">
   <rect x="192.806362" y="118.396039" width="13.593638" height="101.619442"/>
  </clipPath>
  <clipPath id="p63cf3ae1e5">
   <rect x="252.840025" y="149.143652" width="13.079975" height="88.237266"/>
  </clipPath>
  <clipPath id="pf42b48908e">
   <rect x="308.469689" y="128.085837" width="16.970311" height="72.440272"/>
  </clipPath>
  <clipPath id="p699b8fe8f0">
   <rect x="361.152" y="150.854648" width="23.808" height="51.338385"/>
  </clipPath>
  <clipPath id="p66f242e3c9">
   <rect x="57.6" y="41.472" width="357.12" height="266.112"/>
  </clipPath>
 </defs>
</svg>
