<?xml version="1.0" encoding="utf-8" standalone="no"?>
<!DOCTYPE svg PUBLIC "-//W3C//DTD SVG 1.1//EN"
  "http://www.w3.org/Graphics/SVG/1.1/DTD/svg11.dtd">
<svg xmlns:xlink="http://www.w3.org/1999/xlink" width="460.8pt" height="345.6pt" viewBox="0 0 460.8 345.6" xmlns="http://www.w3.org/2000/svg" version="1.1">
 <metadata>
  <rdf:RDF xmlns:dc="http://purl.org/dc/elements/1.1/" xmlns:cc="http://creativecommons.org/ns#" xmlns:rdf="http://www.w3.org/1999/02/22-rdf-syntax-ns#">
   <cc:Work>
    <dc:type rdf:resource="http://purl.org/dc/dcmitype/StillImage"/>
    <dc:date>2024-09-05T08:51:34.305966</dc:date>
    <dc:format>image/svg+xml</dc:format>
    <dc:creator>
     <cc:Agent>
      <dc:title>Matplotlib v3.7.2, https://matplotlib.org/</dc:title>
     </cc:Agent>
    </dc:creator>
   </cc:Work>
  </rdf:RDF>
 </metadata>
 <defs>
  <style type="text/css">*{stroke-linejoin: round; stroke-linecap: butt}</style>
 </defs>
 <g id="figure_1">
  <g id="patch_1">
   <path d="M 0 345.6 
L 460.8 345.6 
L 460.8 0 
L 0 0 
z
" style="fill: #ffffff"/>
  </g>
  <g id="axes_1">
   <g id="patch_2">
    <path d="M 57.6 307.584 
L 414.72 307.584 
L 414.72 41.472 
L 57.6 41.472 
z
" style="fill: #ffffff"/>
   </g>
   <g id="matplotlib.axis_1">
    <g id="xtick_1">
     <g id="text_1">
      <!-- 1 -->
      <g style="fill: #262626" transform="translate(79.927321 322.182437) scale(0.1 -0.1)">
       <defs>
        <path id="DejaVuSans-31" d="M 794 531 
L 1825 531 
L 1825 4091 
L 703 3866 
L 703 4441 
L 1819 4666 
L 2450 4666 
L 2450 531 
L 3481 531 
L 3481 0 
L 794 0 
L 794 531 
z
" transform="scale(0.015625)"/>
       </defs>
       <use xlink:href="#DejaVuSans-31"/>
      </g>
     </g>
    </g>
    <g id="xtick_2">
     <g id="text_2">
      <!-- 2 -->
      <g style="fill: #262626" transform="translate(130.944464 322.182437) scale(0.1 -0.1)">
       <defs>
        <path id="DejaVuSans-32" d="M 1228 531 
L 3431 531 
L 3431 0 
L 469 0 
L 469 531 
Q 828 903 1448 1529 
Q 2069 2156 2228 2338 
Q 2531 2678 2651 2914 
Q 2772 3150 2772 3378 
Q 2772 3750 2511 3984 
Q 2250 4219 1831 4219 
Q 1534 4219 1204 4116 
Q 875 4013 500 3803 
L 500 4441 
Q 881 4594 1212 4672 
Q 1544 4750 1819 4750 
Q 2544 4750 2975 4387 
Q 3406 4025 3406 3419 
Q 3406 3131 3298 2873 
Q 3191 2616 2906 2266 
Q 2828 2175 2409 1742 
Q 1991 1309 1228 531 
z
" transform="scale(0.015625)"/>
       </defs>
       <use xlink:href="#DejaVuSans-32"/>
      </g>
     </g>
    </g>
    <g id="xtick_3">
     <g id="text_3">
      <!-- 3 -->
      <g style="fill: #262626" transform="translate(181.961607 322.182437) scale(0.1 -0.1)">
       <defs>
        <path id="DejaVuSans-33" d="M 2597 2516 
Q 3050 2419 3304 2112 
Q 3559 1806 3559 1356 
Q 3559 666 3084 287 
Q 2609 -91 1734 -91 
Q 1441 -91 1130 -33 
Q 819 25 488 141 
L 488 750 
Q 750 597 1062 519 
Q 1375 441 1716 441 
Q 2309 441 2620 675 
Q 2931 909 2931 1356 
Q 2931 1769 2642 2001 
Q 2353 2234 1838 2234 
L 1294 2234 
L 1294 2753 
L 1863 2753 
Q 2328 2753 2575 2939 
Q 2822 3125 2822 3475 
Q 2822 3834 2567 4026 
Q 2313 4219 1838 4219 
Q 1578 4219 1281 4162 
Q 984 4106 628 3988 
L 628 4550 
Q 988 4650 1302 4700 
Q 1616 4750 1894 4750 
Q 2613 4750 3031 4423 
Q 3450 4097 3450 3541 
Q 3450 3153 3228 2886 
Q 3006 2619 2597 2516 
z
" transform="scale(0.015625)"/>
       </defs>
       <use xlink:href="#DejaVuSans-33"/>
      </g>
     </g>
    </g>
    <g id="xtick_4">
     <g id="text_4">
      <!-- 4 -->
      <g style="fill: #262626" transform="translate(232.97875 322.182437) scale(0.1 -0.1)">
       <defs>
        <path id="DejaVuSans-34" d="M 2419 4116 
L 825 1625 
L 2419 1625 
L 2419 4116 
z
M 2253 4666 
L 3047 4666 
L 3047 1625 
L 3713 1625 
L 3713 1100 
L 3047 1100 
L 3047 0 
L 2419 0 
L 2419 1100 
L 313 1100 
L 313 1709 
L 2253 4666 
z
" transform="scale(0.015625)"/>
       </defs>
       <use xlink:href="#DejaVuSans-34"/>
      </g>
     </g>
    </g>
    <g id="xtick_5">
     <g id="text_5">
      <!-- 5 -->
      <g style="fill: #262626" transform="translate(283.995893 322.182437) scale(0.1 -0.1)">
       <defs>
        <path id="DejaVuSans-35" d="M 691 4666 
L 3169 4666 
L 3169 4134 
L 1269 4134 
L 1269 2991 
Q 1406 3038 1543 3061 
Q 1681 3084 1819 3084 
Q 2600 3084 3056 2656 
Q 3513 2228 3513 1497 
Q 3513 744 3044 326 
Q 2575 -91 1722 -91 
Q 1428 -91 1123 -41 
Q 819 9 494 109 
L 494 744 
Q 775 591 1075 516 
Q 1375 441 1709 441 
Q 2250 441 2565 725 
Q 2881 1009 2881 1497 
Q 2881 1984 2565 2268 
Q 2250 2553 1709 2553 
Q 1456 2553 1204 2497 
Q 953 2441 691 2322 
L 691 4666 
z
" transform="scale(0.015625)"/>
       </defs>
       <use xlink:href="#DejaVuSans-35"/>
      </g>
     </g>
    </g>
    <g id="xtick_6">
     <g id="text_6">
      <!-- 6 -->
      <g style="fill: #262626" transform="translate(335.013036 322.182437) scale(0.1 -0.1)">
       <defs>
        <path id="DejaVuSans-36" d="M 2113 2584 
Q 1688 2584 1439 2293 
Q 1191 2003 1191 1497 
Q 1191 994 1439 701 
Q 1688 409 2113 409 
Q 2538 409 2786 701 
Q 3034 994 3034 1497 
Q 3034 2003 2786 2293 
Q 2538 2584 2113 2584 
z
M 3366 4563 
L 3366 3988 
Q 3128 4100 2886 4159 
Q 2644 4219 2406 4219 
Q 1781 4219 1451 3797 
Q 1122 3375 1075 2522 
Q 1259 2794 1537 2939 
Q 1816 3084 2150 3084 
Q 2853 3084 3261 2657 
Q 3669 2231 3669 1497 
Q 3669 778 3244 343 
Q 2819 -91 2113 -91 
Q 1303 -91 875 529 
Q 447 1150 447 2328 
Q 447 3434 972 4092 
Q 1497 4750 2381 4750 
Q 2619 4750 2861 4703 
Q 3103 4656 3366 4563 
z
" transform="scale(0.015625)"/>
       </defs>
       <use xlink:href="#DejaVuSans-36"/>
      </g>
     </g>
    </g>
    <g id="xtick_7">
     <g id="text_7">
      <!-- 7 -->
      <g style="fill: #262626" transform="translate(386.030179 322.182437) scale(0.1 -0.1)">
       <defs>
        <path id="DejaVuSans-37" d="M 525 4666 
L 3525 4666 
L 3525 4397 
L 1831 0 
L 1172 0 
L 2766 4134 
L 525 4134 
L 525 4666 
z
" transform="scale(0.015625)"/>
       </defs>
       <use xlink:href="#DejaVuSans-37"/>
      </g>
     </g>
    </g>
    <g id="text_8">
     <!-- Model -->
     <g style="fill: #262626" transform="translate(221.146719 335.860562) scale(0.1 -0.1)">
      <defs>
       <path id="DejaVuSans-4d" d="M 628 4666 
L 1569 4666 
L 2759 1491 
L 3956 4666 
L 4897 4666 
L 4897 0 
L 4281 0 
L 4281 4097 
L 3078 897 
L 2444 897 
L 1241 4097 
L 1241 0 
L 628 0 
L 628 4666 
z
" transform="scale(0.015625)"/>
       <path id="DejaVuSans-6f" d="M 1959 3097 
Q 1497 3097 1228 2736 
Q 959 2375 959 1747 
Q 959 1119 1226 758 
Q 1494 397 1959 397 
Q 2419 397 2687 759 
Q 2956 1122 2956 1747 
Q 2956 2369 2687 2733 
Q 2419 3097 1959 3097 
z
M 1959 3584 
Q 2709 3584 3137 3096 
Q 3566 2609 3566 1747 
Q 3566 888 3137 398 
Q 2709 -91 1959 -91 
Q 1206 -91 779 398 
Q 353 888 353 1747 
Q 353 2609 779 3096 
Q 1206 3584 1959 3584 
z
" transform="scale(0.015625)"/>
       <path id="DejaVuSans-64" d="M 2906 2969 
L 2906 4863 
L 3481 4863 
L 3481 0 
L 2906 0 
L 2906 525 
Q 2725 213 2448 61 
Q 2172 -91 1784 -91 
Q 1150 -91 751 415 
Q 353 922 353 1747 
Q 353 2572 751 3078 
Q 1150 3584 1784 3584 
Q 2172 3584 2448 3432 
Q 2725 3281 2906 2969 
z
M 947 1747 
Q 947 1113 1208 752 
Q 1469 391 1925 391 
Q 2381 391 2643 752 
Q 2906 1113 2906 1747 
Q 2906 2381 2643 2742 
Q 2381 3103 1925 3103 
Q 1469 3103 1208 2742 
Q 947 2381 947 1747 
z
" transform="scale(0.015625)"/>
       <path id="DejaVuSans-65" d="M 3597 1894 
L 3597 1613 
L 953 1613 
Q 991 1019 1311 708 
Q 1631 397 2203 397 
Q 2534 397 2845 478 
Q 3156 559 3463 722 
L 3463 178 
Q 3153 47 2828 -22 
Q 2503 -91 2169 -91 
Q 1331 -91 842 396 
Q 353 884 353 1716 
Q 353 2575 817 3079 
Q 1281 3584 2069 3584 
Q 2775 3584 3186 3129 
Q 3597 2675 3597 1894 
z
M 3022 2063 
Q 3016 2534 2758 2815 
Q 2500 3097 2075 3097 
Q 1594 3097 1305 2825 
Q 1016 2553 972 2059 
L 3022 2063 
z
" transform="scale(0.015625)"/>
       <path id="DejaVuSans-6c" d="M 603 4863 
L 1178 4863 
L 1178 0 
L 603 0 
L 603 4863 
z
" transform="scale(0.015625)"/>
      </defs>
      <use xlink:href="#DejaVuSans-4d"/>
      <use xlink:href="#DejaVuSans-6f" x="86.279297"/>
      <use xlink:href="#DejaVuSans-64" x="147.460938"/>
      <use xlink:href="#DejaVuSans-65" x="210.9375"/>
      <use xlink:href="#DejaVuSans-6c" x="272.460938"/>
     </g>
    </g>
   </g>
   <g id="matplotlib.axis_2">
    <g id="ytick_1">
     <g id="text_9">
      <!-- 0.00 -->
      <g style="fill: #262626" transform="translate(28.334375 311.383219) scale(0.1 -0.1)">
       <defs>
        <path id="DejaVuSans-30" d="M 2034 4250 
Q 1547 4250 1301 3770 
Q 1056 3291 1056 2328 
Q 1056 1369 1301 889 
Q 1547 409 2034 409 
Q 2525 409 2770 889 
Q 3016 1369 3016 2328 
Q 3016 3291 2770 3770 
Q 2525 4250 2034 4250 
z
M 2034 4750 
Q 2819 4750 3233 4129 
Q 3647 3509 3647 2328 
Q 3647 1150 3233 529 
Q 2819 -91 2034 -91 
Q 1250 -91 836 529 
Q 422 1150 422 2328 
Q 422 3509 836 4129 
Q 1250 4750 2034 4750 
z
" transform="scale(0.015625)"/>
        <path id="DejaVuSans-2e" d="M 684 794 
L 1344 794 
L 1344 0 
L 684 0 
L 684 794 
z
" transform="scale(0.015625)"/>
       </defs>
       <use xlink:href="#DejaVuSans-30"/>
       <use xlink:href="#DejaVuSans-2e" x="63.623047"/>
       <use xlink:href="#DejaVuSans-30" x="95.410156"/>
       <use xlink:href="#DejaVuSans-30" x="159.033203"/>
      </g>
     </g>
    </g>
    <g id="ytick_2">
     <g id="text_10">
      <!-- 0.05 -->
      <g style="fill: #262626" transform="translate(28.334375 278.119219) scale(0.1 -0.1)">
       <use xlink:href="#DejaVuSans-30"/>
       <use xlink:href="#DejaVuSans-2e" x="63.623047"/>
       <use xlink:href="#DejaVuSans-30" x="95.410156"/>
       <use xlink:href="#DejaVuSans-35" x="159.033203"/>
      </g>
     </g>
    </g>
    <g id="ytick_3">
     <g id="text_11">
      <!-- 0.10 -->
      <g style="fill: #262626" transform="translate(28.334375 244.855219) scale(0.1 -0.1)">
       <use xlink:href="#DejaVuSans-30"/>
       <use xlink:href="#DejaVuSans-2e" x="63.623047"/>
       <use xlink:href="#DejaVuSans-31" x="95.410156"/>
       <use xlink:href="#DejaVuSans-30" x="159.033203"/>
      </g>
     </g>
    </g>
    <g id="ytick_4">
     <g id="text_12">
      <!-- 0.15 -->
      <g style="fill: #262626" transform="translate(28.334375 211.591219) scale(0.1 -0.1)">
       <use xlink:href="#DejaVuSans-30"/>
       <use xlink:href="#DejaVuSans-2e" x="63.623047"/>
       <use xlink:href="#DejaVuSans-31" x="95.410156"/>
       <use xlink:href="#DejaVuSans-35" x="159.033203"/>
      </g>
     </g>
    </g>
    <g id="ytick_5">
     <g id="text_13">
      <!-- 0.20 -->
      <g style="fill: #262626" transform="translate(28.334375 178.327219) scale(0.1 -0.1)">
       <use xlink:href="#DejaVuSans-30"/>
       <use xlink:href="#DejaVuSans-2e" x="63.623047"/>
       <use xlink:href="#DejaVuSans-32" x="95.410156"/>
       <use xlink:href="#DejaVuSans-30" x="159.033203"/>
      </g>
     </g>
    </g>
    <g id="ytick_6">
     <g id="text_14">
      <!-- 0.25 -->
      <g style="fill: #262626" transform="translate(28.334375 145.063219) scale(0.1 -0.1)">
       <use xlink:href="#DejaVuSans-30"/>
       <use xlink:href="#DejaVuSans-2e" x="63.623047"/>
       <use xlink:href="#DejaVuSans-32" x="95.410156"/>
       <use xlink:href="#DejaVuSans-35" x="159.033203"/>
      </g>
     </g>
    </g>
    <g id="ytick_7">
     <g id="text_15">
      <!-- 0.30 -->
      <g style="fill: #262626" transform="translate(28.334375 111.799219) scale(0.1 -0.1)">
       <use xlink:href="#DejaVuSans-30"/>
       <use xlink:href="#DejaVuSans-2e" x="63.623047"/>
       <use xlink:href="#DejaVuSans-33" x="95.410156"/>
       <use xlink:href="#DejaVuSans-30" x="159.033203"/>
      </g>
     </g>
    </g>
    <g id="ytick_8">
     <g id="text_16">
      <!-- 0.35 -->
      <g style="fill: #262626" transform="translate(28.334375 78.535219) scale(0.1 -0.1)">
       <use xlink:href="#DejaVuSans-30"/>
       <use xlink:href="#DejaVuSans-2e" x="63.623047"/>
       <use xlink:href="#DejaVuSans-33" x="95.410156"/>
       <use xlink:href="#DejaVuSans-35" x="159.033203"/>
      </g>
     </g>
    </g>
    <g id="ytick_9">
     <g id="text_17">
      <!-- 0.40 -->
      <g style="fill: #262626" transform="translate(28.334375 45.271219) scale(0.1 -0.1)">
       <use xlink:href="#DejaVuSans-30"/>
       <use xlink:href="#DejaVuSans-2e" x="63.623047"/>
       <use xlink:href="#DejaVuSans-34" x="95.410156"/>
       <use xlink:href="#DejaVuSans-30" x="159.033203"/>
      </g>
     </g>
    </g>
    <g id="text_18">
     <!-- auROC -->
     <g style="fill: #262626" transform="translate(22.254687 191.662375) rotate(-90) scale(0.1 -0.1)">
      <defs>
       <path id="DejaVuSans-61" d="M 2194 1759 
Q 1497 1759 1228 1600 
Q 959 1441 959 1056 
Q 959 750 1161 570 
Q 1363 391 1709 391 
Q 2188 391 2477 730 
Q 2766 1069 2766 1631 
L 2766 1759 
L 2194 1759 
z
M 3341 1997 
L 3341 0 
L 2766 0 
L 2766 531 
Q 2569 213 2275 61 
Q 1981 -91 1556 -91 
Q 1019 -91 701 211 
Q 384 513 384 1019 
Q 384 1609 779 1909 
Q 1175 2209 1959 2209 
L 2766 2209 
L 2766 2266 
Q 2766 2663 2505 2880 
Q 2244 3097 1772 3097 
Q 1472 3097 1187 3025 
Q 903 2953 641 2809 
L 641 3341 
Q 956 3463 1253 3523 
Q 1550 3584 1831 3584 
Q 2591 3584 2966 3190 
Q 3341 2797 3341 1997 
z
" transform="scale(0.015625)"/>
       <path id="DejaVuSans-75" d="M 544 1381 
L 544 3500 
L 1119 3500 
L 1119 1403 
Q 1119 906 1312 657 
Q 1506 409 1894 409 
Q 2359 409 2629 706 
Q 2900 1003 2900 1516 
L 2900 3500 
L 3475 3500 
L 3475 0 
L 2900 0 
L 2900 538 
Q 2691 219 2414 64 
Q 2138 -91 1772 -91 
Q 1169 -91 856 284 
Q 544 659 544 1381 
z
M 1991 3584 
L 1991 3584 
z
" transform="scale(0.015625)"/>
       <path id="DejaVuSans-52" d="M 2841 2188 
Q 3044 2119 3236 1894 
Q 3428 1669 3622 1275 
L 4263 0 
L 3584 0 
L 2988 1197 
Q 2756 1666 2539 1819 
Q 2322 1972 1947 1972 
L 1259 1972 
L 1259 0 
L 628 0 
L 628 4666 
L 2053 4666 
Q 2853 4666 3247 4331 
Q 3641 3997 3641 3322 
Q 3641 2881 3436 2590 
Q 3231 2300 2841 2188 
z
M 1259 4147 
L 1259 2491 
L 2053 2491 
Q 2509 2491 2742 2702 
Q 2975 2913 2975 3322 
Q 2975 3731 2742 3939 
Q 2509 4147 2053 4147 
L 1259 4147 
z
" transform="scale(0.015625)"/>
       <path id="DejaVuSans-4f" d="M 2522 4238 
Q 1834 4238 1429 3725 
Q 1025 3213 1025 2328 
Q 1025 1447 1429 934 
Q 1834 422 2522 422 
Q 3209 422 3611 934 
Q 4013 1447 4013 2328 
Q 4013 3213 3611 3725 
Q 3209 4238 2522 4238 
z
M 2522 4750 
Q 3503 4750 4090 4092 
Q 4678 3434 4678 2328 
Q 4678 1225 4090 567 
Q 3503 -91 2522 -91 
Q 1538 -91 948 565 
Q 359 1222 359 2328 
Q 359 3434 948 4092 
Q 1538 4750 2522 4750 
z
" transform="scale(0.015625)"/>
       <path id="DejaVuSans-43" d="M 4122 4306 
L 4122 3641 
Q 3803 3938 3442 4084 
Q 3081 4231 2675 4231 
Q 1875 4231 1450 3742 
Q 1025 3253 1025 2328 
Q 1025 1406 1450 917 
Q 1875 428 2675 428 
Q 3081 428 3442 575 
Q 3803 722 4122 1019 
L 4122 359 
Q 3791 134 3420 21 
Q 3050 -91 2638 -91 
Q 1578 -91 968 557 
Q 359 1206 359 2328 
Q 359 3453 968 4101 
Q 1578 4750 2638 4750 
Q 3056 4750 3426 4639 
Q 3797 4528 4122 4306 
z
" transform="scale(0.015625)"/>
      </defs>
      <use xlink:href="#DejaVuSans-61"/>
      <use xlink:href="#DejaVuSans-75" x="61.279297"/>
      <use xlink:href="#DejaVuSans-52" x="124.658203"/>
      <use xlink:href="#DejaVuSans-4f" x="194.140625"/>
      <use xlink:href="#DejaVuSans-43" x="272.851562"/>
     </g>
    </g>
   </g>
   <g id="PolyCollection_1">
    <defs>
     <path id="md6c788456d" d="M 83.973968 -143.294031 
L 82.243175 -143.294031 
L 82.068916 -143.927845 
L 81.867212 -144.561659 
L 81.635418 -145.195474 
L 81.370981 -145.829288 
L 81.071511 -146.463102 
L 80.734879 -147.096917 
L 80.359305 -147.730731 
L 79.943464 -148.364545 
L 79.486587 -148.998359 
L 78.988553 -149.632174 
L 78.449986 -150.265988 
L 77.87233 -150.899802 
L 77.257914 -151.533617 
L 76.609987 -152.167431 
L 75.932739 -152.801245 
L 75.231283 -153.43506 
L 74.511609 -154.068874 
L 73.780501 -154.702688 
L 73.045425 -155.336502 
L 72.314374 -155.970317 
L 71.595697 -156.604131 
L 70.897885 -157.237945 
L 70.229352 -157.87176 
L 69.598194 -158.505574 
L 69.011947 -159.139388 
L 68.477355 -159.773202 
L 68.000148 -160.407017 
L 67.58485 -161.040831 
L 67.234622 -161.674645 
L 66.951148 -162.30846 
L 66.734568 -162.942274 
L 66.583477 -163.576088 
L 66.494967 -164.209903 
L 66.464735 -164.843717 
L 66.487242 -165.477531 
L 66.555919 -166.111345 
L 66.663415 -166.74516 
L 66.801869 -167.378974 
L 66.963205 -168.012788 
L 67.139427 -168.646603 
L 67.322908 -169.280417 
L 67.506655 -169.914231 
L 67.684545 -170.548045 
L 67.851518 -171.18186 
L 68.003712 -171.815674 
L 68.138555 -172.449488 
L 68.254795 -173.083303 
L 68.352466 -173.717117 
L 68.432816 -174.350931 
L 68.498179 -174.984746 
L 68.55181 -175.61856 
L 68.597693 -176.252374 
L 68.640334 -176.886188 
L 68.684539 -177.520003 
L 68.735202 -178.153817 
L 68.797108 -178.787631 
L 68.874748 -179.421446 
L 68.972171 -180.05526 
L 69.092863 -180.689074 
L 69.239661 -181.322888 
L 69.414703 -181.956703 
L 69.619406 -182.590517 
L 69.854479 -183.224331 
L 70.119959 -183.858146 
L 70.415265 -184.49196 
L 70.739267 -185.125774 
L 71.090365 -185.759589 
L 71.466569 -186.393403 
L 71.865578 -187.027217 
L 72.284858 -187.661031 
L 72.721704 -188.294846 
L 73.173304 -188.92866 
L 73.636785 -189.562474 
L 74.109253 -190.196289 
L 74.587827 -190.830103 
L 75.069663 -191.463917 
L 75.551973 -192.097732 
L 76.03205 -192.731546 
L 76.507274 -193.36536 
L 76.97514 -193.999174 
L 77.433265 -194.632989 
L 77.879416 -195.266803 
L 78.311522 -195.900617 
L 78.727703 -196.534432 
L 79.126281 -197.168246 
L 79.505809 -197.80206 
L 79.86508 -198.435874 
L 80.203145 -199.069689 
L 80.519321 -199.703503 
L 80.813194 -200.337317 
L 81.084615 -200.971132 
L 81.333694 -201.604946 
L 81.560785 -202.23876 
L 81.766463 -202.872575 
L 81.951506 -203.506389 
L 82.116862 -204.140203 
L 82.263618 -204.774017 
L 82.392972 -205.407832 
L 82.506198 -206.041646 
L 83.710945 -206.041646 
L 83.710945 -206.041646 
L 83.824171 -205.407832 
L 83.953525 -204.774017 
L 84.100281 -204.140203 
L 84.265637 -203.506389 
L 84.45068 -202.872575 
L 84.656358 -202.23876 
L 84.883449 -201.604946 
L 85.132528 -200.971132 
L 85.403949 -200.337317 
L 85.697821 -199.703503 
L 86.013998 -199.069689 
L 86.352063 -198.435874 
L 86.711334 -197.80206 
L 87.090862 -197.168246 
L 87.48944 -196.534432 
L 87.90562 -195.900617 
L 88.337727 -195.266803 
L 88.783878 -194.632989 
L 89.242003 -193.999174 
L 89.709868 -193.36536 
L 90.185093 -192.731546 
L 90.665169 -192.097732 
L 91.14748 -191.463917 
L 91.629316 -190.830103 
L 92.10789 -190.196289 
L 92.580358 -189.562474 
L 93.043839 -188.92866 
L 93.495439 -188.294846 
L 93.932285 -187.661031 
L 94.351565 -187.027217 
L 94.750574 -186.393403 
L 95.126778 -185.759589 
L 95.477876 -185.125774 
L 95.801878 -184.49196 
L 96.097184 -183.858146 
L 96.362664 -183.224331 
L 96.597737 -182.590517 
L 96.80244 -181.956703 
L 96.977482 -181.322888 
L 97.12428 -180.689074 
L 97.244972 -180.05526 
L 97.342395 -179.421446 
L 97.420035 -178.787631 
L 97.481941 -178.153817 
L 97.532604 -177.520003 
L 97.576809 -176.886188 
L 97.619449 -176.252374 
L 97.665333 -175.61856 
L 97.718964 -174.984746 
L 97.784327 -174.350931 
L 97.864677 -173.717117 
L 97.962348 -173.083303 
L 98.078587 -172.449488 
L 98.213431 -171.815674 
L 98.365625 -171.18186 
L 98.532598 -170.548045 
L 98.710488 -169.914231 
L 98.894235 -169.280417 
L 99.077715 -168.646603 
L 99.253937 -168.012788 
L 99.415274 -167.378974 
L 99.553728 -166.74516 
L 99.661224 -166.111345 
L 99.729901 -165.477531 
L 99.752408 -164.843717 
L 99.722176 -164.209903 
L 99.633665 -163.576088 
L 99.482574 -162.942274 
L 99.265995 -162.30846 
L 98.982521 -161.674645 
L 98.632293 -161.040831 
L 98.216995 -160.407017 
L 97.739788 -159.773202 
L 97.205196 -159.139388 
L 96.618949 -158.505574 
L 95.98779 -157.87176 
L 95.319257 -157.237945 
L 94.621446 -156.604131 
L 93.902769 -155.970317 
L 93.171718 -155.336502 
L 92.436641 -154.702688 
L 91.705534 -154.068874 
L 90.98586 -153.43506 
L 90.284404 -152.801245 
L 89.607156 -152.167431 
L 88.959229 -151.533617 
L 88.344812 -150.899802 
L 87.767157 -150.265988 
L 87.22859 -149.632174 
L 86.730556 -148.998359 
L 86.273679 -148.364545 
L 85.857838 -147.730731 
L 85.482264 -147.096917 
L 85.145632 -146.463102 
L 84.846162 -145.829288 
L 84.581725 -145.195474 
L 84.349931 -144.561659 
L 84.148227 -143.927845 
L 83.973968 -143.294031 
z
" style="stroke: #595959; stroke-width: 1.5"/>
    </defs>
    <g clip-path="url(#pbb8b6e9ad0)">
     <use xlink:href="#md6c788456d" x="0" y="345.6" style="fill: #72b6a1; stroke: #595959; stroke-width: 1.5"/>
    </g>
   </g>
   <g id="PolyCollection_2">
    <defs>
     <path id="mfef1aa9123" d="M 134.740203 -126.79275 
L 133.511225 -126.79275 
L 133.390753 -127.80777 
L 133.252019 -128.82279 
L 133.093417 -129.83781 
L 132.913438 -130.85283 
L 132.710724 -131.86785 
L 132.484127 -132.88287 
L 132.232778 -133.89789 
L 131.956145 -134.912909 
L 131.654104 -135.927929 
L 131.326995 -136.942949 
L 130.975674 -137.957969 
L 130.601559 -138.972989 
L 130.206658 -139.988009 
L 129.793581 -141.003029 
L 129.365539 -142.018049 
L 128.926315 -143.033069 
L 128.480217 -144.048089 
L 128.032009 -145.063108 
L 127.586819 -146.078128 
L 127.150025 -147.093148 
L 126.727126 -148.108168 
L 126.323596 -149.123188 
L 125.944731 -150.138208 
L 125.595486 -151.153228 
L 125.280322 -152.168248 
L 125.003052 -153.183268 
L 124.766709 -154.198288 
L 124.573425 -155.213307 
L 124.424347 -156.228327 
L 124.319574 -157.243347 
L 124.258135 -158.258367 
L 124.237999 -159.273387 
L 124.256128 -160.288407 
L 124.308561 -161.303427 
L 124.39054 -162.318447 
L 124.496656 -163.333467 
L 124.621034 -164.348486 
L 124.757523 -165.363506 
L 124.899909 -166.378526 
L 125.042126 -167.393546 
L 125.178458 -168.408566 
L 125.303738 -169.423586 
L 125.413517 -170.438606 
L 125.504207 -171.453626 
L 125.573197 -172.468646 
L 125.618922 -173.483666 
L 125.640899 -174.498685 
L 125.639718 -175.513705 
L 125.616998 -176.528725 
L 125.575298 -177.543745 
L 125.518003 -178.558765 
L 125.449181 -179.573785 
L 125.373412 -180.588805 
L 125.295616 -181.603825 
L 125.220863 -182.618845 
L 125.154199 -183.633865 
L 125.100464 -184.648884 
L 125.064144 -185.663904 
L 125.049228 -186.678924 
L 125.059104 -187.693944 
L 125.096474 -188.708964 
L 125.163303 -189.723984 
L 125.260796 -190.739004 
L 125.389405 -191.754024 
L 125.548855 -192.769044 
L 125.738204 -193.784063 
L 125.955906 -194.799083 
L 126.199899 -195.814103 
L 126.467698 -196.829123 
L 126.756485 -197.844143 
L 127.063209 -198.859163 
L 127.384676 -199.874183 
L 127.717633 -200.889203 
L 128.058845 -201.904223 
L 128.405158 -202.919243 
L 128.753556 -203.934262 
L 129.101202 -204.949282 
L 129.445471 -205.964302 
L 129.783974 -206.979322 
L 130.114572 -207.994342 
L 130.435382 -209.009362 
L 130.74478 -210.024382 
L 131.041401 -211.039402 
L 131.324124 -212.054422 
L 131.592071 -213.069442 
L 131.84459 -214.084461 
L 132.081248 -215.099481 
L 132.301808 -216.114501 
L 132.506225 -217.129521 
L 132.694622 -218.144541 
L 132.867278 -219.159561 
L 133.024608 -220.174581 
L 133.16715 -221.189601 
L 133.295542 -222.204621 
L 133.410508 -223.21964 
L 133.512839 -224.23466 
L 133.603372 -225.24968 
L 133.682979 -226.2647 
L 133.752544 -227.27972 
L 134.498884 -227.27972 
L 134.498884 -227.27972 
L 134.56845 -226.2647 
L 134.648056 -225.24968 
L 134.73859 -224.23466 
L 134.84092 -223.21964 
L 134.955886 -222.204621 
L 135.084279 -221.189601 
L 135.22682 -220.174581 
L 135.384151 -219.159561 
L 135.556806 -218.144541 
L 135.745203 -217.129521 
L 135.94962 -216.114501 
L 136.170181 -215.099481 
L 136.406838 -214.084461 
L 136.659358 -213.069442 
L 136.927305 -212.054422 
L 137.210028 -211.039402 
L 137.506648 -210.024382 
L 137.816047 -209.009362 
L 138.136857 -207.994342 
L 138.467454 -206.979322 
L 138.805957 -205.964302 
L 139.150226 -204.949282 
L 139.497872 -203.934262 
L 139.846271 -202.919243 
L 140.192584 -201.904223 
L 140.533796 -200.889203 
L 140.866753 -199.874183 
L 141.18822 -198.859163 
L 141.494944 -197.844143 
L 141.78373 -196.829123 
L 142.051529 -195.814103 
L 142.295523 -194.799083 
L 142.513225 -193.784063 
L 142.702573 -192.769044 
L 142.862024 -191.754024 
L 142.990632 -190.739004 
L 143.088126 -189.723984 
L 143.154955 -188.708964 
L 143.192325 -187.693944 
L 143.202201 -186.678924 
L 143.187285 -185.663904 
L 143.150964 -184.648884 
L 143.09723 -183.633865 
L 143.030565 -182.618845 
L 142.955813 -181.603825 
L 142.878016 -180.588805 
L 142.802248 -179.573785 
L 142.733425 -178.558765 
L 142.676131 -177.543745 
L 142.634431 -176.528725 
L 142.611711 -175.513705 
L 142.61053 -174.498685 
L 142.632507 -173.483666 
L 142.678232 -172.468646 
L 142.747222 -171.453626 
L 142.837912 -170.438606 
L 142.94769 -169.423586 
L 143.072971 -168.408566 
L 143.209303 -167.393546 
L 143.351519 -166.378526 
L 143.493906 -165.363506 
L 143.630395 -164.348486 
L 143.754772 -163.333467 
L 143.860888 -162.318447 
L 143.942867 -161.303427 
L 143.995301 -160.288407 
L 144.01343 -159.273387 
L 143.993294 -158.258367 
L 143.931854 -157.243347 
L 143.827081 -156.228327 
L 143.678003 -155.213307 
L 143.48472 -154.198288 
L 143.248376 -153.183268 
L 142.971107 -152.168248 
L 142.655943 -151.153228 
L 142.306698 -150.138208 
L 141.927832 -149.123188 
L 141.524303 -148.108168 
L 141.101404 -147.093148 
L 140.66461 -146.078128 
L 140.21942 -145.063108 
L 139.771212 -144.048089 
L 139.325114 -143.033069 
L 138.885889 -142.018049 
L 138.457847 -141.003029 
L 138.044771 -139.988009 
L 137.649869 -138.972989 
L 137.275754 -137.957969 
L 136.924433 -136.942949 
L 136.597324 -135.927929 
L 136.295283 -134.912909 
L 136.018651 -133.89789 
L 135.767301 -132.88287 
L 135.540705 -131.86785 
L 135.337991 -130.85283 
L 135.158012 -129.83781 
L 134.99941 -128.82279 
L 134.860675 -127.80777 
L 134.740203 -126.79275 
z
" style="stroke: #595959; stroke-width: 1.5"/>
    </defs>
    <g clip-path="url(#p85291d3399)">
     <use xlink:href="#mfef1aa9123" x="0" y="345.6" style="fill: #e99675; stroke: #595959; stroke-width: 1.5"/>
    </g>
   </g>
   <g id="PolyCollection_3">
    <defs>
     <path id="m1420c11823" d="M 185.435497 -102.057924 
L 184.850217 -102.057924 
L 184.790024 -103.406452 
L 184.721311 -104.754979 
L 184.643781 -106.103507 
L 184.557339 -107.452035 
L 184.462124 -108.800563 
L 184.358549 -110.14909 
L 184.247317 -111.497618 
L 184.129431 -112.846146 
L 184.006194 -114.194674 
L 183.87918 -115.543201 
L 183.750194 -116.891729 
L 183.621213 -118.240257 
L 183.494301 -119.588785 
L 183.371515 -120.937312 
L 183.25479 -122.28584 
L 183.145827 -123.634368 
L 183.045962 -124.982896 
L 182.956053 -126.331424 
L 182.876368 -127.679951 
L 182.806495 -129.028479 
L 182.745272 -130.377007 
L 182.690752 -131.725535 
L 182.640193 -133.074062 
L 182.590098 -134.42259 
L 182.536277 -135.771118 
L 182.473964 -137.119646 
L 182.397956 -138.468173 
L 182.302793 -139.816701 
L 182.182959 -141.165229 
L 182.033106 -142.513757 
L 181.84829 -143.862284 
L 181.624205 -145.210812 
L 181.357414 -146.55934 
L 181.045567 -147.907868 
L 180.687587 -149.256395 
L 180.283825 -150.604923 
L 179.836172 -151.953451 
L 179.34812 -153.301979 
L 178.824768 -154.650507 
L 178.272771 -155.999034 
L 177.700222 -157.347562 
L 177.116478 -158.69609 
L 176.531928 -160.044618 
L 175.957708 -161.393145 
L 175.405374 -162.741673 
L 174.886542 -164.090201 
L 174.412511 -165.438729 
L 173.993878 -166.787256 
L 173.640171 -168.135784 
L 173.359503 -169.484312 
L 173.15828 -170.83284 
L 173.040953 -172.181367 
L 173.009858 -173.529895 
L 173.065122 -174.878423 
L 173.204663 -176.226951 
L 173.424275 -177.575478 
L 173.717794 -178.924006 
L 174.077346 -180.272534 
L 174.493662 -181.621062 
L 174.956435 -182.969589 
L 175.454722 -184.318117 
L 175.97735 -185.666645 
L 176.513329 -187.015173 
L 177.052226 -188.363701 
L 177.584509 -189.712228 
L 178.101829 -191.060756 
L 178.597231 -192.409284 
L 179.065295 -193.757812 
L 179.502195 -195.106339 
L 179.905682 -196.454867 
L 180.274994 -197.803395 
L 180.610709 -199.151923 
L 180.914543 -200.50045 
L 181.189115 -201.848978 
L 181.437697 -203.197506 
L 181.663952 -204.546034 
L 181.871688 -205.894561 
L 182.064635 -207.243089 
L 182.246247 -208.591617 
L 182.419561 -209.940145 
L 182.587079 -211.288672 
L 182.750716 -212.6372 
L 182.911773 -213.985728 
L 183.070965 -215.334256 
L 183.228474 -216.682784 
L 183.384023 -218.031311 
L 183.536975 -219.379839 
L 183.686439 -220.728367 
L 183.831369 -222.076895 
L 183.970668 -223.425422 
L 184.103275 -224.77395 
L 184.228235 -226.122478 
L 184.344756 -227.471006 
L 184.452244 -228.819533 
L 184.550326 -230.168061 
L 184.63885 -231.516589 
L 184.717874 -232.865117 
L 184.787651 -234.213644 
L 184.848593 -235.562172 
L 185.437121 -235.562172 
L 185.437121 -235.562172 
L 185.498063 -234.213644 
L 185.56784 -232.865117 
L 185.646865 -231.516589 
L 185.735388 -230.168061 
L 185.83347 -228.819533 
L 185.940958 -227.471006 
L 186.057479 -226.122478 
L 186.182439 -224.77395 
L 186.315046 -223.425422 
L 186.454346 -222.076895 
L 186.599276 -220.728367 
L 186.748739 -219.379839 
L 186.901691 -218.031311 
L 187.05724 -216.682784 
L 187.214749 -215.334256 
L 187.373942 -213.985728 
L 187.534999 -212.6372 
L 187.698635 -211.288672 
L 187.866153 -209.940145 
L 188.039467 -208.591617 
L 188.22108 -207.243089 
L 188.414026 -205.894561 
L 188.621762 -204.546034 
L 188.848017 -203.197506 
L 189.096599 -201.848978 
L 189.371172 -200.50045 
L 189.675005 -199.151923 
L 190.01072 -197.803395 
L 190.380032 -196.454867 
L 190.783519 -195.106339 
L 191.220419 -193.757812 
L 191.688483 -192.409284 
L 192.183885 -191.060756 
L 192.701205 -189.712228 
L 193.233488 -188.363701 
L 193.772385 -187.015173 
L 194.308364 -185.666645 
L 194.830993 -184.318117 
L 195.329279 -182.969589 
L 195.792052 -181.621062 
L 196.208368 -180.272534 
L 196.567921 -178.924006 
L 196.861439 -177.575478 
L 197.081051 -176.226951 
L 197.220592 -174.878423 
L 197.275857 -173.529895 
L 197.244761 -172.181367 
L 197.127435 -170.83284 
L 196.926211 -169.484312 
L 196.645544 -168.135784 
L 196.291836 -166.787256 
L 195.873203 -165.438729 
L 195.399172 -164.090201 
L 194.88034 -162.741673 
L 194.328006 -161.393145 
L 193.753786 -160.044618 
L 193.169236 -158.69609 
L 192.585492 -157.347562 
L 192.012943 -155.999034 
L 191.460946 -154.650507 
L 190.937595 -153.301979 
L 190.449542 -151.953451 
L 190.001889 -150.604923 
L 189.598127 -149.256395 
L 189.240147 -147.907868 
L 188.9283 -146.55934 
L 188.66151 -145.210812 
L 188.437424 -143.862284 
L 188.252608 -142.513757 
L 188.102755 -141.165229 
L 187.982921 -139.816701 
L 187.887758 -138.468173 
L 187.81175 -137.119646 
L 187.749437 -135.771118 
L 187.695616 -134.42259 
L 187.645521 -133.074062 
L 187.594963 -131.725535 
L 187.540442 -130.377007 
L 187.479219 -129.028479 
L 187.409346 -127.679951 
L 187.329661 -126.331424 
L 187.239752 -124.982896 
L 187.139888 -123.634368 
L 187.030924 -122.28584 
L 186.9142 -120.937312 
L 186.791413 -119.588785 
L 186.664501 -118.240257 
L 186.53552 -116.891729 
L 186.406534 -115.543201 
L 186.27952 -114.194674 
L 186.156283 -112.846146 
L 186.038397 -111.497618 
L 185.927165 -110.14909 
L 185.82359 -108.800563 
L 185.728376 -107.452035 
L 185.641933 -106.103507 
L 185.564403 -104.754979 
L 185.49569 -103.406452 
L 185.435497 -102.057924 
z
" style="stroke: #595959; stroke-width: 1.5"/>
    </defs>
    <g clip-path="url(#p5788368ed7)">
     <use xlink:href="#m1420c11823" x="0" y="345.6" style="fill: #95a3c3; stroke: #595959; stroke-width: 1.5"/>
    </g>
   </g>
   <g id="PolyCollection_4">
    <defs>
     <path id="mce2ac3afab" d="M 236.600624 -104.359706 
L 235.719376 -104.359706 
L 235.626144 -105.53795 
L 235.517894 -106.716195 
L 235.393262 -107.89444 
L 235.25097 -109.072685 
L 235.089863 -110.250929 
L 234.908958 -111.429174 
L 234.707483 -112.607419 
L 234.484911 -113.785663 
L 234.240995 -114.963908 
L 233.975784 -116.142153 
L 233.689639 -117.320398 
L 233.383228 -118.498642 
L 233.057518 -119.676887 
L 232.71375 -120.855132 
L 232.353405 -122.033376 
L 231.978164 -123.211621 
L 231.589865 -124.389866 
L 231.190449 -125.568111 
L 230.781926 -126.746355 
L 230.366329 -127.9246 
L 229.94569 -129.102845 
L 229.522023 -130.281089 
L 229.097325 -131.459334 
L 228.673587 -132.637579 
L 228.252824 -133.815824 
L 227.837109 -134.994068 
L 227.428625 -136.172313 
L 227.029707 -137.350558 
L 226.642894 -138.528802 
L 226.27096 -139.707047 
L 225.916939 -140.885292 
L 225.58413 -142.063537 
L 225.276073 -143.241781 
L 224.996505 -144.420026 
L 224.74929 -145.598271 
L 224.538322 -146.776516 
L 224.367405 -147.95476 
L 224.240129 -149.133005 
L 224.15972 -150.31125 
L 224.1289 -151.489494 
L 224.149751 -152.667739 
L 224.223593 -153.845984 
L 224.350875 -155.024229 
L 224.531108 -156.202473 
L 224.76282 -157.380718 
L 225.043544 -158.558963 
L 225.369848 -159.737207 
L 225.737397 -160.915452 
L 226.141048 -162.093697 
L 226.574975 -163.271942 
L 227.032811 -164.450186 
L 227.507818 -165.628431 
L 227.993063 -166.806676 
L 228.481596 -167.98492 
L 228.966632 -169.163165 
L 229.441724 -170.34141 
L 229.900917 -171.519655 
L 230.338898 -172.697899 
L 230.751106 -173.876144 
L 231.133831 -175.054389 
L 231.484282 -176.232633 
L 231.800623 -177.410878 
L 232.08198 -178.589123 
L 232.328428 -179.767368 
L 232.540933 -180.945612 
L 232.721286 -182.123857 
L 232.872004 -183.302102 
L 232.996208 -184.480346 
L 233.097498 -185.658591 
L 233.179805 -186.836836 
L 233.247244 -188.015081 
L 233.303966 -189.193325 
L 233.354014 -190.37157 
L 233.401192 -191.549815 
L 233.448946 -192.728059 
L 233.500268 -193.906304 
L 233.557624 -195.084549 
L 233.622902 -196.262794 
L 233.697386 -197.441038 
L 233.781765 -198.619283 
L 233.876154 -199.797528 
L 233.980141 -200.975773 
L 234.092856 -202.154017 
L 234.213046 -203.332262 
L 234.339168 -204.510507 
L 234.469474 -205.688751 
L 234.60211 -206.866996 
L 234.735198 -208.045241 
L 234.866919 -209.223486 
L 234.995575 -210.40173 
L 235.11965 -211.579975 
L 235.237844 -212.75822 
L 235.349104 -213.936464 
L 235.452633 -215.114709 
L 235.547889 -216.292954 
L 235.634576 -217.471199 
L 235.712621 -218.649443 
L 235.78215 -219.827688 
L 235.843454 -221.005933 
L 236.476546 -221.005933 
L 236.476546 -221.005933 
L 236.53785 -219.827688 
L 236.607379 -218.649443 
L 236.685424 -217.471199 
L 236.772111 -216.292954 
L 236.867367 -215.114709 
L 236.970896 -213.936464 
L 237.082156 -212.75822 
L 237.20035 -211.579975 
L 237.324425 -210.40173 
L 237.453081 -209.223486 
L 237.584802 -208.045241 
L 237.71789 -206.866996 
L 237.850526 -205.688751 
L 237.980832 -204.510507 
L 238.106954 -203.332262 
L 238.227144 -202.154017 
L 238.339859 -200.975773 
L 238.443846 -199.797528 
L 238.538235 -198.619283 
L 238.622614 -197.441038 
L 238.697098 -196.262794 
L 238.762376 -195.084549 
L 238.819732 -193.906304 
L 238.871054 -192.728059 
L 238.918808 -191.549815 
L 238.965986 -190.37157 
L 239.016034 -189.193325 
L 239.072756 -188.015081 
L 239.140195 -186.836836 
L 239.222502 -185.658591 
L 239.323792 -184.480346 
L 239.447996 -183.302102 
L 239.598714 -182.123857 
L 239.779067 -180.945612 
L 239.991572 -179.767368 
L 240.23802 -178.589123 
L 240.519377 -177.410878 
L 240.835718 -176.232633 
L 241.186169 -175.054389 
L 241.568894 -173.876144 
L 241.981102 -172.697899 
L 242.419083 -171.519655 
L 242.878276 -170.34141 
L 243.353368 -169.163165 
L 243.838404 -167.98492 
L 244.326937 -166.806676 
L 244.812182 -165.628431 
L 245.287189 -164.450186 
L 245.745025 -163.271942 
L 246.178952 -162.093697 
L 246.582603 -160.915452 
L 246.950152 -159.737207 
L 247.276456 -158.558963 
L 247.55718 -157.380718 
L 247.788892 -156.202473 
L 247.969125 -155.024229 
L 248.096407 -153.845984 
L 248.170249 -152.667739 
L 248.1911 -151.489494 
L 248.16028 -150.31125 
L 248.079871 -149.133005 
L 247.952595 -147.95476 
L 247.781678 -146.776516 
L 247.57071 -145.598271 
L 247.323495 -144.420026 
L 247.043927 -143.241781 
L 246.73587 -142.063537 
L 246.403061 -140.885292 
L 246.04904 -139.707047 
L 245.677106 -138.528802 
L 245.290293 -137.350558 
L 244.891375 -136.172313 
L 244.482891 -134.994068 
L 244.067176 -133.815824 
L 243.646413 -132.637579 
L 243.222675 -131.459334 
L 242.797977 -130.281089 
L 242.37431 -129.102845 
L 241.953671 -127.9246 
L 241.538074 -126.746355 
L 241.129551 -125.568111 
L 240.730135 -124.389866 
L 240.341836 -123.211621 
L 239.966595 -122.033376 
L 239.60625 -120.855132 
L 239.262482 -119.676887 
L 238.936772 -118.498642 
L 238.630361 -117.320398 
L 238.344216 -116.142153 
L 238.079005 -114.963908 
L 237.835089 -113.785663 
L 237.612517 -112.607419 
L 237.411042 -111.429174 
L 237.230137 -110.250929 
L 237.06903 -109.072685 
L 236.926738 -107.89444 
L 236.802106 -106.716195 
L 236.693856 -105.53795 
L 236.600624 -104.359706 
z
" style="stroke: #595959; stroke-width: 1.5"/>
    </defs>
    <g clip-path="url(#pb48e9ca75d)">
     <use xlink:href="#mce2ac3afab" x="0" y="345.6" style="fill: #db96c0; stroke: #595959; stroke-width: 1.5"/>
    </g>
   </g>
   <g id="PolyCollection_5">
    <defs>
     <path id="m6d2f76cc89" d="M 287.599987 -132.775568 
L 286.754299 -132.775568 
L 286.669585 -133.686053 
L 286.572759 -134.596537 
L 286.463141 -135.507022 
L 286.340212 -136.417506 
L 286.203644 -137.327991 
L 286.053322 -138.238475 
L 285.889353 -139.14896 
L 285.712062 -140.059444 
L 285.521974 -140.969929 
L 285.319781 -141.880413 
L 285.106283 -142.790898 
L 284.882329 -143.701382 
L 284.648726 -144.611867 
L 284.406155 -145.522351 
L 284.155074 -146.432836 
L 283.895628 -147.34332 
L 283.62757 -148.253805 
L 283.350201 -149.164289 
L 283.062336 -150.074774 
L 282.762301 -150.985258 
L 282.447979 -151.895743 
L 282.116885 -152.806227 
L 281.766291 -153.716712 
L 281.393393 -154.627196 
L 280.995503 -155.53768 
L 280.570278 -156.448165 
L 280.115953 -157.358649 
L 279.63158 -158.269134 
L 279.117248 -159.179618 
L 278.574274 -160.090103 
L 278.005346 -161.000587 
L 277.414615 -161.911072 
L 276.807706 -162.821556 
L 276.191662 -163.732041 
L 275.57481 -164.642525 
L 274.966544 -165.55301 
L 274.377049 -166.463494 
L 273.816963 -167.373979 
L 273.297 -168.284463 
L 272.827551 -169.194948 
L 272.418278 -170.105432 
L 272.077739 -171.015917 
L 271.813039 -171.926401 
L 271.629545 -172.836886 
L 271.530679 -173.74737 
L 271.517781 -174.657855 
L 271.590074 -175.568339 
L 271.744714 -176.478824 
L 271.976922 -177.389308 
L 272.280203 -178.299793 
L 272.646619 -179.210277 
L 273.067114 -180.120762 
L 273.531874 -181.031246 
L 274.030691 -181.941731 
L 274.553324 -182.852215 
L 275.089843 -183.7627 
L 275.630925 -184.673184 
L 276.168113 -185.583669 
L 276.694019 -186.494153 
L 277.202458 -187.404638 
L 277.688539 -188.315122 
L 278.148686 -189.225606 
L 278.580618 -190.136091 
L 278.983272 -191.046575 
L 279.356702 -191.95706 
L 279.701944 -192.867544 
L 280.020857 -193.778029 
L 280.315961 -194.688513 
L 280.590258 -195.598998 
L 280.847069 -196.509482 
L 281.089866 -197.419967 
L 281.322115 -198.330451 
L 281.547144 -199.240936 
L 281.768015 -200.15142 
L 281.987425 -201.061905 
L 282.207626 -201.972389 
L 282.430363 -202.882874 
L 282.656843 -203.793358 
L 282.88772 -204.703843 
L 283.123106 -205.614327 
L 283.362605 -206.524812 
L 283.605361 -207.435296 
L 283.850126 -208.345781 
L 284.095339 -209.256265 
L 284.339215 -210.16675 
L 284.579831 -211.077234 
L 284.815227 -211.987719 
L 285.043484 -212.898203 
L 285.262805 -213.808688 
L 285.471582 -214.719172 
L 285.668451 -215.629657 
L 285.852324 -216.540141 
L 286.022416 -217.450626 
L 286.178249 -218.36111 
L 286.319648 -219.271595 
L 286.446715 -220.182079 
L 286.559808 -221.092564 
L 286.659498 -222.003048 
L 286.746536 -222.913532 
L 287.607749 -222.913532 
L 287.607749 -222.913532 
L 287.694787 -222.003048 
L 287.794478 -221.092564 
L 287.907571 -220.182079 
L 288.034638 -219.271595 
L 288.176036 -218.36111 
L 288.33187 -217.450626 
L 288.501962 -216.540141 
L 288.685835 -215.629657 
L 288.882703 -214.719172 
L 289.091481 -213.808688 
L 289.310802 -212.898203 
L 289.539058 -211.987719 
L 289.774454 -211.077234 
L 290.015071 -210.16675 
L 290.258946 -209.256265 
L 290.50416 -208.345781 
L 290.748925 -207.435296 
L 290.991681 -206.524812 
L 291.231179 -205.614327 
L 291.466566 -204.703843 
L 291.697442 -203.793358 
L 291.923922 -202.882874 
L 292.14666 -201.972389 
L 292.366861 -201.061905 
L 292.586271 -200.15142 
L 292.807142 -199.240936 
L 293.032171 -198.330451 
L 293.26442 -197.419967 
L 293.507216 -196.509482 
L 293.764028 -195.598998 
L 294.038325 -194.688513 
L 294.333428 -193.778029 
L 294.652342 -192.867544 
L 294.997583 -191.95706 
L 295.371014 -191.046575 
L 295.773668 -190.136091 
L 296.205599 -189.225606 
L 296.665747 -188.315122 
L 297.151828 -187.404638 
L 297.660267 -186.494153 
L 298.186172 -185.583669 
L 298.723361 -184.673184 
L 299.264443 -183.7627 
L 299.800961 -182.852215 
L 300.323595 -181.941731 
L 300.822411 -181.031246 
L 301.287172 -180.120762 
L 301.707667 -179.210277 
L 302.074083 -178.299793 
L 302.377364 -177.389308 
L 302.609572 -176.478824 
L 302.764212 -175.568339 
L 302.836505 -174.657855 
L 302.823607 -173.74737 
L 302.724741 -172.836886 
L 302.541247 -171.926401 
L 302.276546 -171.015917 
L 301.936007 -170.105432 
L 301.526735 -169.194948 
L 301.057285 -168.284463 
L 300.537323 -167.373979 
L 299.977237 -166.463494 
L 299.387742 -165.55301 
L 298.779476 -164.642525 
L 298.162623 -163.732041 
L 297.54658 -162.821556 
L 296.939671 -161.911072 
L 296.34894 -161.000587 
L 295.780012 -160.090103 
L 295.237037 -159.179618 
L 294.722705 -158.269134 
L 294.238333 -157.358649 
L 293.784008 -156.448165 
L 293.358783 -155.53768 
L 292.960893 -154.627196 
L 292.587994 -153.716712 
L 292.237401 -152.806227 
L 291.906306 -151.895743 
L 291.591984 -150.985258 
L 291.29195 -150.074774 
L 291.004084 -149.164289 
L 290.726715 -148.253805 
L 290.458658 -147.34332 
L 290.199212 -146.432836 
L 289.94813 -145.522351 
L 289.705559 -144.611867 
L 289.471957 -143.701382 
L 289.248002 -142.790898 
L 289.034505 -141.880413 
L 288.832312 -140.969929 
L 288.642224 -140.059444 
L 288.464933 -139.14896 
L 288.300963 -138.238475 
L 288.150642 -137.327991 
L 288.014074 -136.417506 
L 287.891145 -135.507022 
L 287.781526 -134.596537 
L 287.6847 -133.686053 
L 287.599987 -132.775568 
z
" style="stroke: #595959; stroke-width: 1.5"/>
    </defs>
    <g clip-path="url(#p51abf80fab)">
     <use xlink:href="#m6d2f76cc89" x="0" y="345.6" style="fill: #a2c865; stroke: #595959; stroke-width: 1.5"/>
    </g>
   </g>
   <g id="PolyCollection_6">
    <defs>
     <path id="m893c89dda5" d="M 338.861761 -144.825388 
L 337.526811 -144.825388 
L 337.402788 -145.363687 
L 337.262203 -145.901985 
L 337.104161 -146.440284 
L 336.927955 -146.978582 
L 336.733109 -147.516881 
L 336.519401 -148.05518 
L 336.286891 -148.593478 
L 336.035928 -149.131777 
L 335.767149 -149.670075 
L 335.481459 -150.208374 
L 335.179999 -150.746672 
L 334.864098 -151.284971 
L 334.535209 -151.82327 
L 334.194834 -152.361568 
L 333.844442 -152.899867 
L 333.485383 -153.438165 
L 333.118801 -153.976464 
L 332.74556 -154.514763 
L 332.366175 -155.053061 
L 331.980772 -155.59136 
L 331.589066 -156.129658 
L 331.190367 -156.667957 
L 330.783619 -157.206255 
L 330.367466 -157.744554 
L 329.940348 -158.282853 
L 329.500626 -158.821151 
L 329.046718 -159.35945 
L 328.577249 -159.897748 
L 328.09121 -160.436047 
L 327.588101 -160.974346 
L 327.068057 -161.512644 
L 326.531955 -162.050943 
L 325.981476 -162.589241 
L 325.419134 -163.12754 
L 324.848251 -163.665839 
L 324.272897 -164.204137 
L 323.697772 -164.742436 
L 323.128054 -165.280734 
L 322.569218 -165.819033 
L 322.026818 -166.357331 
L 321.506274 -166.89563 
L 321.012641 -167.433929 
L 320.550407 -167.972227 
L 320.123306 -168.510526 
L 319.734168 -169.048824 
L 319.384824 -169.587123 
L 319.076046 -170.125422 
L 318.807563 -170.66372 
L 318.578113 -171.202019 
L 318.385568 -171.740317 
L 318.227091 -172.278616 
L 318.09934 -172.816914 
L 317.998702 -173.355213 
L 317.921537 -173.893512 
L 317.864428 -174.43181 
L 317.824419 -174.970109 
L 317.79923 -175.508407 
L 317.787429 -176.046706 
L 317.788561 -176.585005 
L 317.803225 -177.123303 
L 317.833084 -177.661602 
L 317.88082 -178.1999 
L 317.950025 -178.738199 
L 318.04504 -179.276497 
L 318.170743 -179.814796 
L 318.33231 -180.353095 
L 318.534936 -180.891393 
L 318.783566 -181.429692 
L 319.082608 -181.96799 
L 319.435685 -182.506289 
L 319.845404 -183.044588 
L 320.313171 -183.582886 
L 320.839062 -184.121185 
L 321.421749 -184.659483 
L 322.058482 -185.197782 
L 322.74514 -185.736081 
L 323.476335 -186.274379 
L 324.245565 -186.812678 
L 325.045413 -187.350976 
L 325.867779 -187.889275 
L 326.704129 -188.427573 
L 327.545753 -188.965872 
L 328.384022 -189.504171 
L 329.210628 -190.042469 
L 330.017804 -190.580768 
L 330.798506 -191.119066 
L 331.54656 -191.657365 
L 332.256774 -192.195664 
L 332.924999 -192.733962 
L 333.548151 -193.272261 
L 334.124205 -193.810559 
L 334.652139 -194.348858 
L 335.131863 -194.887156 
L 335.564119 -195.425455 
L 335.950368 -195.963754 
L 336.292668 -196.502052 
L 336.593547 -197.040351 
L 336.85588 -197.578649 
L 337.082769 -198.116948 
L 339.305802 -198.116948 
L 339.305802 -198.116948 
L 339.532692 -197.578649 
L 339.795024 -197.040351 
L 340.095903 -196.502052 
L 340.438203 -195.963754 
L 340.824452 -195.425455 
L 341.256708 -194.887156 
L 341.736432 -194.348858 
L 342.264366 -193.810559 
L 342.84042 -193.272261 
L 343.463573 -192.733962 
L 344.131797 -192.195664 
L 344.842011 -191.657365 
L 345.590066 -191.119066 
L 346.370767 -190.580768 
L 347.177943 -190.042469 
L 348.00455 -189.504171 
L 348.842819 -188.965872 
L 349.684442 -188.427573 
L 350.520792 -187.889275 
L 351.343159 -187.350976 
L 352.143007 -186.812678 
L 352.912237 -186.274379 
L 353.643431 -185.736081 
L 354.33009 -185.197782 
L 354.966823 -184.659483 
L 355.549509 -184.121185 
L 356.075401 -183.582886 
L 356.543168 -183.044588 
L 356.952886 -182.506289 
L 357.305963 -181.96799 
L 357.605006 -181.429692 
L 357.853635 -180.891393 
L 358.056262 -180.353095 
L 358.217828 -179.814796 
L 358.343532 -179.276497 
L 358.438546 -178.738199 
L 358.507751 -178.1999 
L 358.555487 -177.661602 
L 358.585347 -177.123303 
L 358.600011 -176.585005 
L 358.601143 -176.046706 
L 358.589341 -175.508407 
L 358.564152 -174.970109 
L 358.524144 -174.43181 
L 358.467035 -173.893512 
L 358.389869 -173.355213 
L 358.289231 -172.816914 
L 358.16148 -172.278616 
L 358.003003 -171.740317 
L 357.810458 -171.202019 
L 357.581009 -170.66372 
L 357.312525 -170.125422 
L 357.003748 -169.587123 
L 356.654403 -169.048824 
L 356.265266 -168.510526 
L 355.838164 -167.972227 
L 355.37593 -167.433929 
L 354.882298 -166.89563 
L 354.361753 -166.357331 
L 353.819354 -165.819033 
L 353.260517 -165.280734 
L 352.6908 -164.742436 
L 352.115674 -164.204137 
L 351.54032 -163.665839 
L 350.969438 -163.12754 
L 350.407095 -162.589241 
L 349.856616 -162.050943 
L 349.320514 -161.512644 
L 348.80047 -160.974346 
L 348.297361 -160.436047 
L 347.811323 -159.897748 
L 347.341854 -159.35945 
L 346.887945 -158.821151 
L 346.448223 -158.282853 
L 346.021106 -157.744554 
L 345.604952 -157.206255 
L 345.198204 -156.667957 
L 344.799505 -156.129658 
L 344.4078 -155.59136 
L 344.022397 -155.053061 
L 343.643012 -154.514763 
L 343.26977 -153.976464 
L 342.903188 -153.438165 
L 342.544129 -152.899867 
L 342.193738 -152.361568 
L 341.853362 -151.82327 
L 341.524473 -151.284971 
L 341.208572 -150.746672 
L 340.907112 -150.208374 
L 340.621422 -149.670075 
L 340.352643 -149.131777 
L 340.10168 -148.593478 
L 339.869171 -148.05518 
L 339.655463 -147.516881 
L 339.460616 -146.978582 
L 339.28441 -146.440284 
L 339.126368 -145.901985 
L 338.985783 -145.363687 
L 338.861761 -144.825388 
z
" style="stroke: #595959; stroke-width: 1.5"/>
    </defs>
    <g clip-path="url(#p31cf9a2d71)">
     <use xlink:href="#m893c89dda5" x="0" y="345.6" style="fill: #e5c849; stroke: #595959; stroke-width: 1.5"/>
    </g>
   </g>
   <g id="PolyCollection_7">
    <defs>
     <path id="m0f9f7820b3" d="M 389.724474 -138.63962 
L 388.698383 -138.63962 
L 388.601358 -139.350528 
L 388.491306 -140.061437 
L 388.367587 -140.772345 
L 388.229745 -141.483253 
L 388.077535 -142.194162 
L 387.910951 -142.90507 
L 387.730242 -143.615979 
L 387.535918 -144.326887 
L 387.328738 -145.037795 
L 387.109689 -145.748704 
L 386.879942 -146.459612 
L 386.640795 -147.170521 
L 386.393601 -147.881429 
L 386.139676 -148.592337 
L 385.880211 -149.303246 
L 385.616164 -150.014154 
L 385.348164 -150.725063 
L 385.076417 -151.435971 
L 384.800628 -152.146879 
L 384.519944 -152.857788 
L 384.232928 -153.568696 
L 383.937556 -154.279605 
L 383.631263 -154.990513 
L 383.311023 -155.701421 
L 382.973464 -156.41233 
L 382.615023 -157.123238 
L 382.23214 -157.834147 
L 381.821461 -158.545055 
L 381.380073 -159.255963 
L 380.905731 -159.966872 
L 380.397088 -160.67778 
L 379.853896 -161.388689 
L 379.277185 -162.099597 
L 378.669386 -162.810505 
L 378.034414 -163.521414 
L 377.377679 -164.232322 
L 376.706037 -164.943231 
L 376.027669 -165.654139 
L 375.351896 -166.365047 
L 374.68893 -167.075956 
L 374.049574 -167.786864 
L 373.444874 -168.497773 
L 372.885752 -169.208681 
L 372.382615 -169.919589 
L 371.944978 -170.630498 
L 371.5811 -171.341406 
L 371.297665 -172.052315 
L 371.099515 -172.763223 
L 370.989449 -173.474131 
L 370.968099 -174.18504 
L 371.033899 -174.895948 
L 371.18313 -175.606857 
L 371.410065 -176.317765 
L 371.707186 -177.028673 
L 372.065481 -177.739582 
L 372.474798 -178.45049 
L 372.924243 -179.161399 
L 373.402602 -179.872307 
L 373.898778 -180.583215 
L 374.402201 -181.294124 
L 374.903216 -182.005032 
L 375.393413 -182.715941 
L 375.865897 -183.426849 
L 376.315478 -184.137757 
L 376.738771 -184.848666 
L 377.134224 -185.559574 
L 377.502038 -186.270483 
L 377.84403 -186.981391 
L 378.163405 -187.692299 
L 378.464492 -188.403208 
L 378.752419 -189.114116 
L 379.032785 -189.825025 
L 379.311314 -190.535933 
L 379.593533 -191.246841 
L 379.884467 -191.95775 
L 380.188393 -192.668658 
L 380.508638 -193.379567 
L 380.847438 -194.090475 
L 381.205872 -194.801383 
L 381.583847 -195.512292 
L 381.980151 -196.2232 
L 382.392562 -196.934109 
L 382.817988 -197.645017 
L 383.252653 -198.355925 
L 383.692295 -199.066834 
L 384.132371 -199.777742 
L 384.568269 -200.488651 
L 384.99549 -201.199559 
L 385.409824 -201.910467 
L 385.807484 -202.621376 
L 386.185217 -203.332284 
L 386.540379 -204.043193 
L 386.870971 -204.754101 
L 387.175649 -205.465009 
L 387.453704 -206.175918 
L 387.70502 -206.886826 
L 387.930007 -207.597735 
L 388.129532 -208.308643 
L 388.304833 -209.019551 
L 390.118024 -209.019551 
L 390.118024 -209.019551 
L 390.293325 -208.308643 
L 390.49285 -207.597735 
L 390.717837 -206.886826 
L 390.969153 -206.175918 
L 391.247209 -205.465009 
L 391.551887 -204.754101 
L 391.882478 -204.043193 
L 392.23764 -203.332284 
L 392.615373 -202.621376 
L 393.013033 -201.910467 
L 393.427367 -201.199559 
L 393.854588 -200.488651 
L 394.290486 -199.777742 
L 394.730563 -199.066834 
L 395.170204 -198.355925 
L 395.604869 -197.645017 
L 396.030295 -196.934109 
L 396.442706 -196.2232 
L 396.839011 -195.512292 
L 397.216985 -194.801383 
L 397.575419 -194.090475 
L 397.914219 -193.379567 
L 398.234464 -192.668658 
L 398.53839 -191.95775 
L 398.829324 -191.246841 
L 399.111543 -190.535933 
L 399.390073 -189.825025 
L 399.670439 -189.114116 
L 399.958366 -188.403208 
L 400.259452 -187.692299 
L 400.578827 -186.981391 
L 400.920819 -186.270483 
L 401.288633 -185.559574 
L 401.684086 -184.848666 
L 402.107379 -184.137757 
L 402.55696 -183.426849 
L 403.029444 -182.715941 
L 403.519641 -182.005032 
L 404.020656 -181.294124 
L 404.524079 -180.583215 
L 405.020255 -179.872307 
L 405.498615 -179.161399 
L 405.948059 -178.45049 
L 406.357376 -177.739582 
L 406.715671 -177.028673 
L 407.012792 -176.317765 
L 407.239727 -175.606857 
L 407.388958 -174.895948 
L 407.454758 -174.18504 
L 407.433408 -173.474131 
L 407.323342 -172.763223 
L 407.125192 -172.052315 
L 406.841757 -171.341406 
L 406.477879 -170.630498 
L 406.040242 -169.919589 
L 405.537105 -169.208681 
L 404.977983 -168.497773 
L 404.373283 -167.786864 
L 403.733927 -167.075956 
L 403.070961 -166.365047 
L 402.395188 -165.654139 
L 401.71682 -164.943231 
L 401.045178 -164.232322 
L 400.388443 -163.521414 
L 399.753471 -162.810505 
L 399.145672 -162.099597 
L 398.568961 -161.388689 
L 398.025769 -160.67778 
L 397.517126 -159.966872 
L 397.042784 -159.255963 
L 396.601396 -158.545055 
L 396.190717 -157.834147 
L 395.807834 -157.123238 
L 395.449393 -156.41233 
L 395.111834 -155.701421 
L 394.791594 -154.990513 
L 394.485302 -154.279605 
L 394.18993 -153.568696 
L 393.902913 -152.857788 
L 393.62223 -152.146879 
L 393.34644 -151.435971 
L 393.074693 -150.725063 
L 392.806693 -150.014154 
L 392.542646 -149.303246 
L 392.283181 -148.592337 
L 392.029256 -147.881429 
L 391.782062 -147.170521 
L 391.542915 -146.459612 
L 391.313168 -145.748704 
L 391.094119 -145.037795 
L 390.886939 -144.326887 
L 390.692615 -143.615979 
L 390.511906 -142.90507 
L 390.345322 -142.194162 
L 390.193112 -141.483253 
L 390.05527 -140.772345 
L 389.931551 -140.061437 
L 389.821499 -139.350528 
L 389.724474 -138.63962 
z
" style="stroke: #595959; stroke-width: 1.5"/>
    </defs>
    <g clip-path="url(#p6550de4361)">
     <use xlink:href="#m0f9f7820b3" x="0" y="345.6" style="fill: #dbc29e; stroke: #595959; stroke-width: 1.5"/>
    </g>
   </g>
   <g id="line2d_1">
    <path d="M 83.108571 181.919261 
L 83.108571 187.055222 
" clip-path="url(#p2c09c77825)" style="fill: none; stroke: #3d3d3d; stroke-width: 1.5; stroke-linecap: round"/>
   </g>
   <g id="line2d_2">
    <path d="M 83.108571 165.431959 
L 83.108571 154.809101 
" clip-path="url(#p2c09c77825)" style="fill: none; stroke: #3d3d3d; stroke-width: 1.5; stroke-linecap: round"/>
   </g>
   <g id="line2d_3">
    <path d="M 79.282286 187.055222 
L 86.934857 187.055222 
" clip-path="url(#p2c09c77825)" style="fill: none; stroke: #3d3d3d; stroke-width: 1.5; stroke-linecap: round"/>
   </g>
   <g id="line2d_4">
    <path d="M 79.282286 154.809101 
L 86.934857 154.809101 
" clip-path="url(#p2c09c77825)" style="fill: none; stroke: #3d3d3d; stroke-width: 1.5; stroke-linecap: round"/>
   </g>
   <g id="line2d_5">
    <path d="M 134.125714 188.126323 
L 134.125714 193.847731 
" clip-path="url(#p2c09c77825)" style="fill: none; stroke: #3d3d3d; stroke-width: 1.5; stroke-linecap: round"/>
   </g>
   <g id="line2d_6">
    <path d="M 134.125714 157.747975 
L 134.125714 143.279798 
" clip-path="url(#p2c09c77825)" style="fill: none; stroke: #3d3d3d; stroke-width: 1.5; stroke-linecap: round"/>
   </g>
   <g id="line2d_7">
    <path d="M 130.299429 193.847731 
L 137.952 193.847731 
" clip-path="url(#p2c09c77825)" style="fill: none; stroke: #3d3d3d; stroke-width: 1.5; stroke-linecap: round"/>
   </g>
   <g id="line2d_8">
    <path d="M 130.299429 143.279798 
L 137.952 143.279798 
" clip-path="url(#p2c09c77825)" style="fill: none; stroke: #3d3d3d; stroke-width: 1.5; stroke-linecap: round"/>
   </g>
   <g id="line2d_9">
    <path d="M 185.142857 179.264794 
L 185.142857 181.001174 
" clip-path="url(#p2c09c77825)" style="fill: none; stroke: #3d3d3d; stroke-width: 1.5; stroke-linecap: round"/>
   </g>
   <g id="line2d_10">
    <path d="M 185.142857 166.409921 
L 185.142857 165.965846 
" clip-path="url(#p2c09c77825)" style="fill: none; stroke: #3d3d3d; stroke-width: 1.5; stroke-linecap: round"/>
   </g>
   <g id="line2d_11">
    <path d="M 181.316571 181.001174 
L 188.969143 181.001174 
" clip-path="url(#p2c09c77825)" style="fill: none; stroke: #3d3d3d; stroke-width: 1.5; stroke-linecap: round"/>
   </g>
   <g id="line2d_12">
    <path d="M 181.316571 165.965846 
L 188.969143 165.965846 
" clip-path="url(#p2c09c77825)" style="fill: none; stroke: #3d3d3d; stroke-width: 1.5; stroke-linecap: round"/>
   </g>
   <g id="line2d_13">
    <path d="M 236.16 199.836914 
L 236.16 215.183261 
" clip-path="url(#p2c09c77825)" style="fill: none; stroke: #3d3d3d; stroke-width: 1.5; stroke-linecap: round"/>
   </g>
   <g id="line2d_14">
    <path d="M 236.16 185.726326 
L 236.16 179.604086 
" clip-path="url(#p2c09c77825)" style="fill: none; stroke: #3d3d3d; stroke-width: 1.5; stroke-linecap: round"/>
   </g>
   <g id="line2d_15">
    <path d="M 232.333714 215.183261 
L 239.986286 215.183261 
" clip-path="url(#p2c09c77825)" style="fill: none; stroke: #3d3d3d; stroke-width: 1.5; stroke-linecap: round"/>
   </g>
   <g id="line2d_16">
    <path d="M 232.333714 179.604086 
L 239.986286 179.604086 
" clip-path="url(#p2c09c77825)" style="fill: none; stroke: #3d3d3d; stroke-width: 1.5; stroke-linecap: round"/>
   </g>
   <g id="line2d_17">
    <path d="M 287.177143 175.579142 
L 287.177143 175.798685 
" clip-path="url(#p2c09c77825)" style="fill: none; stroke: #3d3d3d; stroke-width: 1.5; stroke-linecap: round"/>
   </g>
   <g id="line2d_18">
    <path d="M 287.177143 164.55379 
L 287.177143 155.228227 
" clip-path="url(#p2c09c77825)" style="fill: none; stroke: #3d3d3d; stroke-width: 1.5; stroke-linecap: round"/>
   </g>
   <g id="line2d_19">
    <path d="M 283.350857 175.798685 
L 291.003429 175.798685 
" clip-path="url(#p2c09c77825)" style="fill: none; stroke: #3d3d3d; stroke-width: 1.5; stroke-linecap: round"/>
   </g>
   <g id="line2d_20">
    <path d="M 283.350857 155.228227 
L 291.003429 155.228227 
" clip-path="url(#p2c09c77825)" style="fill: none; stroke: #3d3d3d; stroke-width: 1.5; stroke-linecap: round"/>
   </g>
   <g id="line2d_21">
    <path d="M 338.194286 177.149203 
L 338.194286 188.21281 
" clip-path="url(#p2c09c77825)" style="fill: none; stroke: #3d3d3d; stroke-width: 1.5; stroke-linecap: round"/>
   </g>
   <g id="line2d_22">
    <path d="M 338.194286 163.313042 
L 338.194286 160.044854 
" clip-path="url(#p2c09c77825)" style="fill: none; stroke: #3d3d3d; stroke-width: 1.5; stroke-linecap: round"/>
   </g>
   <g id="line2d_23">
    <path d="M 334.368 188.21281 
L 342.020571 188.21281 
" clip-path="url(#p2c09c77825)" style="fill: none; stroke: #3d3d3d; stroke-width: 1.5; stroke-linecap: round"/>
   </g>
   <g id="line2d_24">
    <path d="M 334.368 160.044854 
L 342.020571 160.044854 
" clip-path="url(#p2c09c77825)" style="fill: none; stroke: #3d3d3d; stroke-width: 1.5; stroke-linecap: round"/>
   </g>
   <g id="line2d_25">
    <path d="M 389.211429 174.81407 
L 389.211429 176.80991 
" clip-path="url(#p2c09c77825)" style="fill: none; stroke: #3d3d3d; stroke-width: 1.5; stroke-linecap: round"/>
   </g>
   <g id="line2d_26">
    <path d="M 389.211429 164.503894 
L 389.211429 152.806608 
" clip-path="url(#p2c09c77825)" style="fill: none; stroke: #3d3d3d; stroke-width: 1.5; stroke-linecap: round"/>
   </g>
   <g id="line2d_27">
    <path d="M 385.385143 176.80991 
L 393.037714 176.80991 
" clip-path="url(#p2c09c77825)" style="fill: none; stroke: #3d3d3d; stroke-width: 1.5; stroke-linecap: round"/>
   </g>
   <g id="line2d_28">
    <path d="M 385.385143 152.806608 
L 393.037714 152.806608 
" clip-path="url(#p2c09c77825)" style="fill: none; stroke: #3d3d3d; stroke-width: 1.5; stroke-linecap: round"/>
   </g>
   <g id="line2d_29">
    <path d="M 75.456 174.40825 
L 90.761143 174.40825 
" clip-path="url(#p2c09c77825)" style="fill: none; stroke: #3d3d3d; stroke-width: 1.5; stroke-linecap: round"/>
   </g>
   <g id="line2d_30">
    <path d="M 126.473143 172.176235 
L 141.778286 172.176235 
" clip-path="url(#p2c09c77825)" style="fill: none; stroke: #3d3d3d; stroke-width: 1.5; stroke-linecap: round"/>
   </g>
   <g id="line2d_31">
    <path d="M 177.490286 171.953366 
L 192.795429 171.953366 
" clip-path="url(#p2c09c77825)" style="fill: none; stroke: #3d3d3d; stroke-width: 1.5; stroke-linecap: round"/>
   </g>
   <g id="line2d_32">
    <path d="M 228.507429 192.660206 
L 243.812571 192.660206 
" clip-path="url(#p2c09c77825)" style="fill: none; stroke: #3d3d3d; stroke-width: 1.5; stroke-linecap: round"/>
   </g>
   <g id="line2d_33">
    <path d="M 279.524571 170.330083 
L 294.829714 170.330083 
" clip-path="url(#p2c09c77825)" style="fill: none; stroke: #3d3d3d; stroke-width: 1.5; stroke-linecap: round"/>
   </g>
   <g id="line2d_34">
    <path d="M 330.541714 171.590789 
L 345.846857 171.590789 
" clip-path="url(#p2c09c77825)" style="fill: none; stroke: #3d3d3d; stroke-width: 1.5; stroke-linecap: round"/>
   </g>
   <g id="line2d_35">
    <path d="M 381.558857 170.686008 
L 396.864 170.686008 
" clip-path="url(#p2c09c77825)" style="fill: none; stroke: #3d3d3d; stroke-width: 1.5; stroke-linecap: round"/>
   </g>
   <g id="patch_3">
    <path d="M 57.6 307.584 
L 57.6 41.472 
" style="fill: none; stroke: #262626; stroke-width: 0.8; stroke-linejoin: miter; stroke-linecap: square"/>
   </g>
   <g id="patch_4">
    <path d="M 414.72 307.584 
L 414.72 41.472 
" style="fill: none; stroke: #262626; stroke-width: 0.8; stroke-linejoin: miter; stroke-linecap: square"/>
   </g>
   <g id="patch_5">
    <path d="M 57.6 307.584 
L 414.72 307.584 
" style="fill: none; stroke: #262626; stroke-width: 0.8; stroke-linejoin: miter; stroke-linecap: square"/>
   </g>
   <g id="patch_6">
    <path d="M 57.6 41.472 
L 414.72 41.472 
" style="fill: none; stroke: #262626; stroke-width: 0.8; stroke-linejoin: miter; stroke-linecap: square"/>
   </g>
   <g id="patch_7">
    <path d="M 75.456 181.919261 
L 90.761143 181.919261 
L 90.761143 165.431959 
L 75.456 165.431959 
L 75.456 181.919261 
L 75.456 181.919261 
z
" clip-path="url(#p2c09c77825)" style="fill: none; stroke: #3d3d3d; stroke-width: 1.5; stroke-linejoin: miter"/>
   </g>
   <g id="patch_8">
    <path d="M 126.473143 188.126323 
L 141.778286 188.126323 
L 141.778286 157.747975 
L 126.473143 157.747975 
L 126.473143 188.126323 
L 126.473143 188.126323 
z
" clip-path="url(#p2c09c77825)" style="fill: none; stroke: #3d3d3d; stroke-width: 1.5; stroke-linejoin: miter"/>
   </g>
   <g id="patch_9">
    <path d="M 177.490286 179.264794 
L 192.795429 179.264794 
L 192.795429 166.409921 
L 177.490286 166.409921 
L 177.490286 179.264794 
L 177.490286 179.264794 
z
" clip-path="url(#p2c09c77825)" style="fill: none; stroke: #3d3d3d; stroke-width: 1.5; stroke-linejoin: miter"/>
   </g>
   <g id="patch_10">
    <path d="M 228.507429 199.836914 
L 243.812571 199.836914 
L 243.812571 185.726326 
L 228.507429 185.726326 
L 228.507429 199.836914 
L 228.507429 199.836914 
z
" clip-path="url(#p2c09c77825)" style="fill: none; stroke: #3d3d3d; stroke-width: 1.5; stroke-linejoin: miter"/>
   </g>
   <g id="patch_11">
    <path d="M 279.524571 175.579142 
L 294.829714 175.579142 
L 294.829714 164.55379 
L 279.524571 164.55379 
L 279.524571 175.579142 
L 279.524571 175.579142 
z
" clip-path="url(#p2c09c77825)" style="fill: none; stroke: #3d3d3d; stroke-width: 1.5; stroke-linejoin: miter"/>
   </g>
   <g id="patch_12">
    <path d="M 330.541714 177.149203 
L 345.846857 177.149203 
L 345.846857 163.313042 
L 330.541714 163.313042 
L 330.541714 177.149203 
L 330.541714 177.149203 
z
" clip-path="url(#p2c09c77825)" style="fill: none; stroke: #3d3d3d; stroke-width: 1.5; stroke-linejoin: miter"/>
   </g>
   <g id="patch_13">
    <path d="M 381.558857 174.81407 
L 396.864 174.81407 
L 396.864 164.503894 
L 381.558857 164.503894 
L 381.558857 174.81407 
L 381.558857 174.81407 
z
" clip-path="url(#p2c09c77825)" style="fill: none; stroke: #3d3d3d; stroke-width: 1.5; stroke-linejoin: miter"/>
   </g>
   <g id="PathCollection_1">
    <defs>
     <path id="C0_0_8199cef107" d="M 0 2.5 
C 0.663008 2.5 1.29895 2.236584 1.767767 1.767767 
C 2.236584 1.29895 2.5 0.663008 2.5 -0 
C 2.5 -0.663008 2.236584 -1.29895 1.767767 -1.767767 
C 1.29895 -2.236584 0.663008 -2.5 0 -2.5 
C -0.663008 -2.5 -1.29895 -2.236584 -1.767767 -1.767767 
C -2.236584 -1.29895 -2.5 -0.663008 -2.5 0 
C -2.5 0.663008 -2.236584 1.29895 -1.767767 1.767767 
C -1.29895 2.236584 -0.663008 2.5 0 2.5 
z
"/>
    </defs>
    <g clip-path="url(#p2c09c77825)">
     <use xlink:href="#C0_0_8199cef107" x="91.235288" y="162.034042" style="fill: #66c2a5; stroke: #000000; stroke-width: 0.5"/>
    </g>
    <g clip-path="url(#p2c09c77825)">
     <use xlink:href="#C0_0_8199cef107" x="87.048517" y="180.142963" style="fill: #66c2a5; stroke: #000000; stroke-width: 0.5"/>
    </g>
    <g clip-path="url(#p2c09c77825)">
     <use xlink:href="#C0_0_8199cef107" x="86.443577" y="187.055222" style="fill: #66c2a5; stroke: #000000; stroke-width: 0.5"/>
    </g>
    <g clip-path="url(#p2c09c77825)">
     <use xlink:href="#C0_0_8199cef107" x="89.754215" y="154.809101" style="fill: #66c2a5; stroke: #000000; stroke-width: 0.5"/>
    </g>
    <g clip-path="url(#p2c09c77825)">
     <use xlink:href="#C0_0_8199cef107" x="91.469965" y="181.51344" style="fill: #66c2a5; stroke: #000000; stroke-width: 0.5"/>
    </g>
    <g clip-path="url(#p2c09c77825)">
     <use xlink:href="#C0_0_8199cef107" x="88.446051" y="183.136723" style="fill: #66c2a5; stroke: #000000; stroke-width: 0.5"/>
    </g>
    <g clip-path="url(#p2c09c77825)">
     <use xlink:href="#C0_0_8199cef107" x="94.136072" y="166.564598" style="fill: #66c2a5; stroke: #000000; stroke-width: 0.5"/>
    </g>
    <g clip-path="url(#p2c09c77825)">
     <use xlink:href="#C0_0_8199cef107" x="91.116526" y="168.673536" style="fill: #66c2a5; stroke: #000000; stroke-width: 0.5"/>
    </g>
   </g>
   <g id="PathCollection_2">
    <defs>
     <path id="C1_0_bf4d964abd" d="M 0 2.5 
C 0.663008 2.5 1.29895 2.236584 1.767767 1.767767 
C 2.236584 1.29895 2.5 0.663008 2.5 -0 
C 2.5 -0.663008 2.236584 -1.29895 1.767767 -1.767767 
C 1.29895 -2.236584 0.663008 -2.5 0 -2.5 
C -0.663008 -2.5 -1.29895 -2.236584 -1.767767 -1.767767 
C -2.236584 -1.29895 -2.5 -0.663008 -2.5 0 
C -2.5 0.663008 -2.236584 1.29895 -1.767767 1.767767 
C -1.29895 2.236584 -0.663008 2.5 0 2.5 
z
"/>
    </defs>
    <g clip-path="url(#p2c09c77825)">
     <use xlink:href="#C1_0_bf4d964abd" x="140.053211" y="157.989139" style="fill: #fc8d62; stroke: #000000; stroke-width: 0.5"/>
    </g>
    <g clip-path="url(#p2c09c77825)">
     <use xlink:href="#C1_0_bf4d964abd" x="139.147" y="183.615725" style="fill: #fc8d62; stroke: #000000; stroke-width: 0.5"/>
    </g>
    <g clip-path="url(#p2c09c77825)">
     <use xlink:href="#C1_0_bf4d964abd" x="138.64765" y="188.106365" style="fill: #fc8d62; stroke: #000000; stroke-width: 0.5"/>
    </g>
    <g clip-path="url(#p2c09c77825)">
     <use xlink:href="#C1_0_bf4d964abd" x="142.584864" y="143.279798" style="fill: #fc8d62; stroke: #000000; stroke-width: 0.5"/>
    </g>
    <g clip-path="url(#p2c09c77825)">
     <use xlink:href="#C1_0_bf4d964abd" x="139.620998" y="188.186198" style="fill: #fc8d62; stroke: #000000; stroke-width: 0.5"/>
    </g>
    <g clip-path="url(#p2c09c77825)">
     <use xlink:href="#C1_0_bf4d964abd" x="135.754976" y="193.847731" style="fill: #fc8d62; stroke: #000000; stroke-width: 0.5"/>
    </g>
    <g clip-path="url(#p2c09c77825)">
     <use xlink:href="#C1_0_bf4d964abd" x="139.207473" y="157.024483" style="fill: #fc8d62; stroke: #000000; stroke-width: 0.5"/>
    </g>
    <g clip-path="url(#p2c09c77825)">
     <use xlink:href="#C1_0_bf4d964abd" x="142.676141" y="160.736746" style="fill: #fc8d62; stroke: #000000; stroke-width: 0.5"/>
    </g>
   </g>
   <g id="PathCollection_3">
    <defs>
     <path id="C2_0_4df2f12c82" d="M 0 2.5 
C 0.663008 2.5 1.29895 2.236584 1.767767 1.767767 
C 2.236584 1.29895 2.5 0.663008 2.5 -0 
C 2.5 -0.663008 2.236584 -1.29895 1.767767 -1.767767 
C 1.29895 -2.236584 0.663008 -2.5 0 -2.5 
C -0.663008 -2.5 -1.29895 -2.236584 -1.767767 -1.767767 
C -2.236584 -1.29895 -2.5 -0.663008 -2.5 0 
C -2.5 0.663008 -2.236584 1.29895 -1.767767 1.767767 
C -1.29895 2.236584 -0.663008 2.5 0 2.5 
z
"/>
    </defs>
    <g clip-path="url(#p2c09c77825)">
     <use xlink:href="#C2_0_4df2f12c82" x="188.025241" y="166.557946" style="fill: #8da0cb; stroke: #000000; stroke-width: 0.5"/>
    </g>
    <g clip-path="url(#p2c09c77825)">
     <use xlink:href="#C2_0_4df2f12c82" x="187.953409" y="215.369539" style="fill: #8da0cb; stroke: #000000; stroke-width: 0.5"/>
    </g>
    <g clip-path="url(#p2c09c77825)">
     <use xlink:href="#C2_0_4df2f12c82" x="191.586846" y="181.001174" style="fill: #8da0cb; stroke: #000000; stroke-width: 0.5"/>
    </g>
    <g clip-path="url(#p2c09c77825)">
     <use xlink:href="#C2_0_4df2f12c82" x="191.589665" y="138.210365" style="fill: #8da0cb; stroke: #000000; stroke-width: 0.5"/>
    </g>
    <g clip-path="url(#p2c09c77825)">
     <use xlink:href="#C2_0_4df2f12c82" x="192.636265" y="172.086422" style="fill: #8da0cb; stroke: #000000; stroke-width: 0.5"/>
    </g>
    <g clip-path="url(#p2c09c77825)">
     <use xlink:href="#C2_0_4df2f12c82" x="194.830317" y="178.686" style="fill: #8da0cb; stroke: #000000; stroke-width: 0.5"/>
    </g>
    <g clip-path="url(#p2c09c77825)">
     <use xlink:href="#C2_0_4df2f12c82" x="193.555128" y="165.965846" style="fill: #8da0cb; stroke: #000000; stroke-width: 0.5"/>
    </g>
    <g clip-path="url(#p2c09c77825)">
     <use xlink:href="#C2_0_4df2f12c82" x="192.397735" y="171.82031" style="fill: #8da0cb; stroke: #000000; stroke-width: 0.5"/>
    </g>
   </g>
   <g id="PathCollection_4">
    <defs>
     <path id="C3_0_0b9225d104" d="M 0 2.5 
C 0.663008 2.5 1.29895 2.236584 1.767767 1.767767 
C 2.236584 1.29895 2.5 0.663008 2.5 -0 
C 2.5 -0.663008 2.236584 -1.29895 1.767767 -1.767767 
C 1.29895 -2.236584 0.663008 -2.5 0 -2.5 
C -0.663008 -2.5 -1.29895 -2.236584 -1.767767 -1.767767 
C -2.236584 -1.29895 -2.5 -0.663008 -2.5 0 
C -2.5 0.663008 -2.236584 1.29895 -1.767767 1.767767 
C -1.29895 2.236584 -0.663008 2.5 0 2.5 
z
"/>
    </defs>
    <g clip-path="url(#p2c09c77825)">
     <use xlink:href="#C3_0_0b9225d104" x="244.551742" y="196.748352" style="fill: #e78ac3; stroke: #000000; stroke-width: 0.5"/>
    </g>
    <g clip-path="url(#p2c09c77825)">
     <use xlink:href="#C3_0_0b9225d104" x="240.475631" y="215.183261" style="fill: #e78ac3; stroke: #000000; stroke-width: 0.5"/>
    </g>
    <g clip-path="url(#p2c09c77825)">
     <use xlink:href="#C3_0_0b9225d104" x="240.871828" y="195.10511" style="fill: #e78ac3; stroke: #000000; stroke-width: 0.5"/>
    </g>
    <g clip-path="url(#p2c09c77825)">
     <use xlink:href="#C3_0_0b9225d104" x="239.50941" y="150.651101" style="fill: #e78ac3; stroke: #000000; stroke-width: 0.5"/>
    </g>
    <g clip-path="url(#p2c09c77825)">
     <use xlink:href="#C3_0_0b9225d104" x="240.177233" y="179.604086" style="fill: #e78ac3; stroke: #000000; stroke-width: 0.5"/>
    </g>
    <g clip-path="url(#p2c09c77825)">
     <use xlink:href="#C3_0_0b9225d104" x="243.618463" y="209.102602" style="fill: #e78ac3; stroke: #000000; stroke-width: 0.5"/>
    </g>
    <g clip-path="url(#p2c09c77825)">
     <use xlink:href="#C3_0_0b9225d104" x="238.120129" y="187.767072" style="fill: #e78ac3; stroke: #000000; stroke-width: 0.5"/>
    </g>
    <g clip-path="url(#p2c09c77825)">
     <use xlink:href="#C3_0_0b9225d104" x="241.605582" y="190.215302" style="fill: #e78ac3; stroke: #000000; stroke-width: 0.5"/>
    </g>
   </g>
   <g id="PathCollection_5">
    <defs>
     <path id="C4_0_d6318d9f39" d="M 0 2.5 
C 0.663008 2.5 1.29895 2.236584 1.767767 1.767767 
C 2.236584 1.29895 2.5 0.663008 2.5 -0 
C 2.5 -0.663008 2.236584 -1.29895 1.767767 -1.767767 
C 1.29895 -2.236584 0.663008 -2.5 0 -2.5 
C -0.663008 -2.5 -1.29895 -2.236584 -1.767767 -1.767767 
C -2.236584 -1.29895 -2.5 -0.663008 -2.5 0 
C -2.5 0.663008 -2.236584 1.29895 -1.767767 1.767767 
C -1.29895 2.236584 -0.663008 2.5 0 2.5 
z
"/>
    </defs>
    <g clip-path="url(#p2c09c77825)">
     <use xlink:href="#C4_0_d6318d9f39" x="292.593763" y="155.228227" style="fill: #a6d854; stroke: #000000; stroke-width: 0.5"/>
    </g>
    <g clip-path="url(#p2c09c77825)">
     <use xlink:href="#C4_0_d6318d9f39" x="293.234766" y="193.056048" style="fill: #a6d854; stroke: #000000; stroke-width: 0.5"/>
    </g>
    <g clip-path="url(#p2c09c77825)">
     <use xlink:href="#C4_0_d6318d9f39" x="292.542415" y="167.66231" style="fill: #a6d854; stroke: #000000; stroke-width: 0.5"/>
    </g>
    <g clip-path="url(#p2c09c77825)">
     <use xlink:href="#C4_0_d6318d9f39" x="291.383621" y="142.454851" style="fill: #a6d854; stroke: #000000; stroke-width: 0.5"/>
    </g>
    <g clip-path="url(#p2c09c77825)">
     <use xlink:href="#C4_0_d6318d9f39" x="292.547731" y="168.813245" style="fill: #a6d854; stroke: #000000; stroke-width: 0.5"/>
    </g>
    <g clip-path="url(#p2c09c77825)">
     <use xlink:href="#C4_0_d6318d9f39" x="297.313118" y="175.505962" style="fill: #a6d854; stroke: #000000; stroke-width: 0.5"/>
    </g>
    <g clip-path="url(#p2c09c77825)">
     <use xlink:href="#C4_0_d6318d9f39" x="297.831155" y="171.846922" style="fill: #a6d854; stroke: #000000; stroke-width: 0.5"/>
    </g>
    <g clip-path="url(#p2c09c77825)">
     <use xlink:href="#C4_0_d6318d9f39" x="293.31794" y="175.798685" style="fill: #a6d854; stroke: #000000; stroke-width: 0.5"/>
    </g>
   </g>
   <g id="PathCollection_6">
    <defs>
     <path id="C5_0_81ed632d62" d="M 0 2.5 
C 0.663008 2.5 1.29895 2.236584 1.767767 1.767767 
C 2.236584 1.29895 2.5 0.663008 2.5 -0 
C 2.5 -0.663008 2.236584 -1.29895 1.767767 -1.767767 
C 1.29895 -2.236584 0.663008 -2.5 0 -2.5 
C -0.663008 -2.5 -1.29895 -2.236584 -1.767767 -1.767767 
C -2.236584 -1.29895 -2.5 -0.663008 -2.5 0 
C -2.5 0.663008 -2.236584 1.29895 -1.767767 1.767767 
C -1.29895 2.236584 -0.663008 2.5 0 2.5 
z
"/>
    </defs>
    <g clip-path="url(#p2c09c77825)">
     <use xlink:href="#C5_0_81ed632d62" x="345.581088" y="160.044854" style="fill: #ffd92f; stroke: #000000; stroke-width: 0.5"/>
    </g>
    <g clip-path="url(#p2c09c77825)">
     <use xlink:href="#C5_0_81ed632d62" x="340.394333" y="188.21281" style="fill: #ffd92f; stroke: #000000; stroke-width: 0.5"/>
    </g>
    <g clip-path="url(#p2c09c77825)">
     <use xlink:href="#C5_0_81ed632d62" x="342.452028" y="173.749622" style="fill: #ffd92f; stroke: #000000; stroke-width: 0.5"/>
    </g>
    <g clip-path="url(#p2c09c77825)">
     <use xlink:href="#C5_0_81ed632d62" x="343.447278" y="176.783299" style="fill: #ffd92f; stroke: #000000; stroke-width: 0.5"/>
    </g>
    <g clip-path="url(#p2c09c77825)">
     <use xlink:href="#C5_0_81ed632d62" x="348.053952" y="162.699322" style="fill: #ffd92f; stroke: #000000; stroke-width: 0.5"/>
    </g>
    <g clip-path="url(#p2c09c77825)">
     <use xlink:href="#C5_0_81ed632d62" x="341.770132" y="178.246915" style="fill: #ffd92f; stroke: #000000; stroke-width: 0.5"/>
    </g>
    <g clip-path="url(#p2c09c77825)">
     <use xlink:href="#C5_0_81ed632d62" x="344.143234" y="163.517616" style="fill: #ffd92f; stroke: #000000; stroke-width: 0.5"/>
    </g>
    <g clip-path="url(#p2c09c77825)">
     <use xlink:href="#C5_0_81ed632d62" x="349.270717" y="169.431955" style="fill: #ffd92f; stroke: #000000; stroke-width: 0.5"/>
    </g>
   </g>
   <g id="PathCollection_7">
    <defs>
     <path id="C6_0_768aefda70" d="M 0 2.5 
C 0.663008 2.5 1.29895 2.236584 1.767767 1.767767 
C 2.236584 1.29895 2.5 0.663008 2.5 -0 
C 2.5 -0.663008 2.236584 -1.29895 1.767767 -1.767767 
C 1.29895 -2.236584 0.663008 -2.5 0 -2.5 
C -0.663008 -2.5 -1.29895 -2.236584 -1.767767 -1.767767 
C -2.236584 -1.29895 -2.5 -0.663008 -2.5 0 
C -2.5 0.663008 -2.236584 1.29895 -1.767767 1.767767 
C -1.29895 2.236584 -0.663008 2.5 0 2.5 
z
"/>
    </defs>
    <g clip-path="url(#p2c09c77825)">
     <use xlink:href="#C6_0_768aefda70" x="395.532301" y="153.791222" style="fill: #e5c494; stroke: #000000; stroke-width: 0.5"/>
    </g>
    <g clip-path="url(#p2c09c77825)">
     <use xlink:href="#C6_0_768aefda70" x="396.485397" y="190.734221" style="fill: #e5c494; stroke: #000000; stroke-width: 0.5"/>
    </g>
    <g clip-path="url(#p2c09c77825)">
     <use xlink:href="#C6_0_768aefda70" x="391.462597" y="176.80991" style="fill: #e5c494; stroke: #000000; stroke-width: 0.5"/>
    </g>
    <g clip-path="url(#p2c09c77825)">
     <use xlink:href="#C6_0_768aefda70" x="398.663281" y="152.806608" style="fill: #e5c494; stroke: #000000; stroke-width: 0.5"/>
    </g>
    <g clip-path="url(#p2c09c77825)">
     <use xlink:href="#C6_0_768aefda70" x="396.385052" y="169.525094" style="fill: #e5c494; stroke: #000000; stroke-width: 0.5"/>
    </g>
    <g clip-path="url(#p2c09c77825)">
     <use xlink:href="#C6_0_768aefda70" x="395.793334" y="174.14879" style="fill: #e5c494; stroke: #000000; stroke-width: 0.5"/>
    </g>
    <g clip-path="url(#p2c09c77825)">
     <use xlink:href="#C6_0_768aefda70" x="393.729138" y="168.074784" style="fill: #e5c494; stroke: #000000; stroke-width: 0.5"/>
    </g>
    <g clip-path="url(#p2c09c77825)">
     <use xlink:href="#C6_0_768aefda70" x="393.334846" y="171.846922" style="fill: #e5c494; stroke: #000000; stroke-width: 0.5"/>
    </g>
   </g>
   <g id="text_19">
    <!-- Violin Plot with Overlayed Box and Strip Plots -->
    <g style="fill: #262626" transform="translate(100.525313 35.472) scale(0.12 -0.12)">
     <defs>
      <path id="DejaVuSans-56" d="M 1831 0 
L 50 4666 
L 709 4666 
L 2188 738 
L 3669 4666 
L 4325 4666 
L 2547 0 
L 1831 0 
z
" transform="scale(0.015625)"/>
      <path id="DejaVuSans-69" d="M 603 3500 
L 1178 3500 
L 1178 0 
L 603 0 
L 603 3500 
z
M 603 4863 
L 1178 4863 
L 1178 4134 
L 603 4134 
L 603 4863 
z
" transform="scale(0.015625)"/>
      <path id="DejaVuSans-6e" d="M 3513 2113 
L 3513 0 
L 2938 0 
L 2938 2094 
Q 2938 2591 2744 2837 
Q 2550 3084 2163 3084 
Q 1697 3084 1428 2787 
Q 1159 2491 1159 1978 
L 1159 0 
L 581 0 
L 581 3500 
L 1159 3500 
L 1159 2956 
Q 1366 3272 1645 3428 
Q 1925 3584 2291 3584 
Q 2894 3584 3203 3211 
Q 3513 2838 3513 2113 
z
" transform="scale(0.015625)"/>
      <path id="DejaVuSans-20" transform="scale(0.015625)"/>
      <path id="DejaVuSans-50" d="M 1259 4147 
L 1259 2394 
L 2053 2394 
Q 2494 2394 2734 2622 
Q 2975 2850 2975 3272 
Q 2975 3691 2734 3919 
Q 2494 4147 2053 4147 
L 1259 4147 
z
M 628 4666 
L 2053 4666 
Q 2838 4666 3239 4311 
Q 3641 3956 3641 3272 
Q 3641 2581 3239 2228 
Q 2838 1875 2053 1875 
L 1259 1875 
L 1259 0 
L 628 0 
L 628 4666 
z
" transform="scale(0.015625)"/>
      <path id="DejaVuSans-74" d="M 1172 4494 
L 1172 3500 
L 2356 3500 
L 2356 3053 
L 1172 3053 
L 1172 1153 
Q 1172 725 1289 603 
Q 1406 481 1766 481 
L 2356 481 
L 2356 0 
L 1766 0 
Q 1100 0 847 248 
Q 594 497 594 1153 
L 594 3053 
L 172 3053 
L 172 3500 
L 594 3500 
L 594 4494 
L 1172 4494 
z
" transform="scale(0.015625)"/>
      <path id="DejaVuSans-77" d="M 269 3500 
L 844 3500 
L 1563 769 
L 2278 3500 
L 2956 3500 
L 3675 769 
L 4391 3500 
L 4966 3500 
L 4050 0 
L 3372 0 
L 2619 2869 
L 1863 0 
L 1184 0 
L 269 3500 
z
" transform="scale(0.015625)"/>
      <path id="DejaVuSans-68" d="M 3513 2113 
L 3513 0 
L 2938 0 
L 2938 2094 
Q 2938 2591 2744 2837 
Q 2550 3084 2163 3084 
Q 1697 3084 1428 2787 
Q 1159 2491 1159 1978 
L 1159 0 
L 581 0 
L 581 4863 
L 1159 4863 
L 1159 2956 
Q 1366 3272 1645 3428 
Q 1925 3584 2291 3584 
Q 2894 3584 3203 3211 
Q 3513 2838 3513 2113 
z
" transform="scale(0.015625)"/>
      <path id="DejaVuSans-76" d="M 191 3500 
L 800 3500 
L 1894 563 
L 2988 3500 
L 3597 3500 
L 2284 0 
L 1503 0 
L 191 3500 
z
" transform="scale(0.015625)"/>
      <path id="DejaVuSans-72" d="M 2631 2963 
Q 2534 3019 2420 3045 
Q 2306 3072 2169 3072 
Q 1681 3072 1420 2755 
Q 1159 2438 1159 1844 
L 1159 0 
L 581 0 
L 581 3500 
L 1159 3500 
L 1159 2956 
Q 1341 3275 1631 3429 
Q 1922 3584 2338 3584 
Q 2397 3584 2469 3576 
Q 2541 3569 2628 3553 
L 2631 2963 
z
" transform="scale(0.015625)"/>
      <path id="DejaVuSans-79" d="M 2059 -325 
Q 1816 -950 1584 -1140 
Q 1353 -1331 966 -1331 
L 506 -1331 
L 506 -850 
L 844 -850 
Q 1081 -850 1212 -737 
Q 1344 -625 1503 -206 
L 1606 56 
L 191 3500 
L 800 3500 
L 1894 763 
L 2988 3500 
L 3597 3500 
L 2059 -325 
z
" transform="scale(0.015625)"/>
      <path id="DejaVuSans-42" d="M 1259 2228 
L 1259 519 
L 2272 519 
Q 2781 519 3026 730 
Q 3272 941 3272 1375 
Q 3272 1813 3026 2020 
Q 2781 2228 2272 2228 
L 1259 2228 
z
M 1259 4147 
L 1259 2741 
L 2194 2741 
Q 2656 2741 2882 2914 
Q 3109 3088 3109 3444 
Q 3109 3797 2882 3972 
Q 2656 4147 2194 4147 
L 1259 4147 
z
M 628 4666 
L 2241 4666 
Q 2963 4666 3353 4366 
Q 3744 4066 3744 3513 
Q 3744 3084 3544 2831 
Q 3344 2578 2956 2516 
Q 3422 2416 3680 2098 
Q 3938 1781 3938 1306 
Q 3938 681 3513 340 
Q 3088 0 2303 0 
L 628 0 
L 628 4666 
z
" transform="scale(0.015625)"/>
      <path id="DejaVuSans-78" d="M 3513 3500 
L 2247 1797 
L 3578 0 
L 2900 0 
L 1881 1375 
L 863 0 
L 184 0 
L 1544 1831 
L 300 3500 
L 978 3500 
L 1906 2253 
L 2834 3500 
L 3513 3500 
z
" transform="scale(0.015625)"/>
      <path id="DejaVuSans-53" d="M 3425 4513 
L 3425 3897 
Q 3066 4069 2747 4153 
Q 2428 4238 2131 4238 
Q 1616 4238 1336 4038 
Q 1056 3838 1056 3469 
Q 1056 3159 1242 3001 
Q 1428 2844 1947 2747 
L 2328 2669 
Q 3034 2534 3370 2195 
Q 3706 1856 3706 1288 
Q 3706 609 3251 259 
Q 2797 -91 1919 -91 
Q 1588 -91 1214 -16 
Q 841 59 441 206 
L 441 856 
Q 825 641 1194 531 
Q 1563 422 1919 422 
Q 2459 422 2753 634 
Q 3047 847 3047 1241 
Q 3047 1584 2836 1778 
Q 2625 1972 2144 2069 
L 1759 2144 
Q 1053 2284 737 2584 
Q 422 2884 422 3419 
Q 422 4038 858 4394 
Q 1294 4750 2059 4750 
Q 2388 4750 2728 4690 
Q 3069 4631 3425 4513 
z
" transform="scale(0.015625)"/>
      <path id="DejaVuSans-70" d="M 1159 525 
L 1159 -1331 
L 581 -1331 
L 581 3500 
L 1159 3500 
L 1159 2969 
Q 1341 3281 1617 3432 
Q 1894 3584 2278 3584 
Q 2916 3584 3314 3078 
Q 3713 2572 3713 1747 
Q 3713 922 3314 415 
Q 2916 -91 2278 -91 
Q 1894 -91 1617 61 
Q 1341 213 1159 525 
z
M 3116 1747 
Q 3116 2381 2855 2742 
Q 2594 3103 2138 3103 
Q 1681 3103 1420 2742 
Q 1159 2381 1159 1747 
Q 1159 1113 1420 752 
Q 1681 391 2138 391 
Q 2594 391 2855 752 
Q 3116 1113 3116 1747 
z
" transform="scale(0.015625)"/>
      <path id="DejaVuSans-73" d="M 2834 3397 
L 2834 2853 
Q 2591 2978 2328 3040 
Q 2066 3103 1784 3103 
Q 1356 3103 1142 2972 
Q 928 2841 928 2578 
Q 928 2378 1081 2264 
Q 1234 2150 1697 2047 
L 1894 2003 
Q 2506 1872 2764 1633 
Q 3022 1394 3022 966 
Q 3022 478 2636 193 
Q 2250 -91 1575 -91 
Q 1294 -91 989 -36 
Q 684 19 347 128 
L 347 722 
Q 666 556 975 473 
Q 1284 391 1588 391 
Q 1994 391 2212 530 
Q 2431 669 2431 922 
Q 2431 1156 2273 1281 
Q 2116 1406 1581 1522 
L 1381 1569 
Q 847 1681 609 1914 
Q 372 2147 372 2553 
Q 372 3047 722 3315 
Q 1072 3584 1716 3584 
Q 2034 3584 2315 3537 
Q 2597 3491 2834 3397 
z
" transform="scale(0.015625)"/>
     </defs>
     <use xlink:href="#DejaVuSans-56"/>
     <use xlink:href="#DejaVuSans-69" x="66.158203"/>
     <use xlink:href="#DejaVuSans-6f" x="93.941406"/>
     <use xlink:href="#DejaVuSans-6c" x="155.123047"/>
     <use xlink:href="#DejaVuSans-69" x="182.90625"/>
     <use xlink:href="#DejaVuSans-6e" x="210.689453"/>
     <use xlink:href="#DejaVuSans-20" x="274.068359"/>
     <use xlink:href="#DejaVuSans-50" x="305.855469"/>
     <use xlink:href="#DejaVuSans-6c" x="366.158203"/>
     <use xlink:href="#DejaVuSans-6f" x="393.941406"/>
     <use xlink:href="#DejaVuSans-74" x="455.123047"/>
     <use xlink:href="#DejaVuSans-20" x="494.332031"/>
     <use xlink:href="#DejaVuSans-77" x="526.119141"/>
     <use xlink:href="#DejaVuSans-69" x="607.90625"/>
     <use xlink:href="#DejaVuSans-74" x="635.689453"/>
     <use xlink:href="#DejaVuSans-68" x="674.898438"/>
     <use xlink:href="#DejaVuSans-20" x="738.277344"/>
     <use xlink:href="#DejaVuSans-4f" x="770.064453"/>
     <use xlink:href="#DejaVuSans-76" x="848.775391"/>
     <use xlink:href="#DejaVuSans-65" x="907.955078"/>
     <use xlink:href="#DejaVuSans-72" x="969.478516"/>
     <use xlink:href="#DejaVuSans-6c" x="1010.591797"/>
     <use xlink:href="#DejaVuSans-61" x="1038.375"/>
     <use xlink:href="#DejaVuSans-79" x="1099.654297"/>
     <use xlink:href="#DejaVuSans-65" x="1158.833984"/>
     <use xlink:href="#DejaVuSans-64" x="1220.357422"/>
     <use xlink:href="#DejaVuSans-20" x="1283.833984"/>
     <use xlink:href="#DejaVuSans-42" x="1315.621094"/>
     <use xlink:href="#DejaVuSans-6f" x="1384.224609"/>
     <use xlink:href="#DejaVuSans-78" x="1442.28125"/>
     <use xlink:href="#DejaVuSans-20" x="1501.460938"/>
     <use xlink:href="#DejaVuSans-61" x="1533.248047"/>
     <use xlink:href="#DejaVuSans-6e" x="1594.527344"/>
     <use xlink:href="#DejaVuSans-64" x="1657.90625"/>
     <use xlink:href="#DejaVuSans-20" x="1721.382812"/>
     <use xlink:href="#DejaVuSans-53" x="1753.169922"/>
     <use xlink:href="#DejaVuSans-74" x="1816.646484"/>
     <use xlink:href="#DejaVuSans-72" x="1855.855469"/>
     <use xlink:href="#DejaVuSans-69" x="1896.96875"/>
     <use xlink:href="#DejaVuSans-70" x="1924.751953"/>
     <use xlink:href="#DejaVuSans-20" x="1988.228516"/>
     <use xlink:href="#DejaVuSans-50" x="2020.015625"/>
     <use xlink:href="#DejaVuSans-6c" x="2080.318359"/>
     <use xlink:href="#DejaVuSans-6f" x="2108.101562"/>
     <use xlink:href="#DejaVuSans-74" x="2169.283203"/>
     <use xlink:href="#DejaVuSans-73" x="2208.492188"/>
    </g>
   </g>
  </g>
 </g>
 <defs>
  <clipPath id="pbb8b6e9ad0">
   <rect x="66.464735" y="139.558354" width="16.643837" height="62.747615"/>
  </clipPath>
  <clipPath id="p85291d3399">
   <rect x="124.237999" y="118.32028" width="9.887715" height="100.48697"/>
  </clipPath>
  <clipPath id="p5788368ed7">
   <rect x="173.009858" y="110.037828" width="12.132999" height="133.504248"/>
  </clipPath>
  <clipPath id="pb48e9ca75d">
   <rect x="224.1289" y="124.594067" width="12.0311" height="116.646227"/>
  </clipPath>
  <clipPath id="p51abf80fab">
   <rect x="271.517781" y="122.686468" width="15.659362" height="90.137964"/>
  </clipPath>
  <clipPath id="p31cf9a2d71">
   <rect x="317.787429" y="147.483052" width="20.406857" height="53.29156"/>
  </clipPath>
  <clipPath id="p6550de4361">
   <rect x="370.968099" y="136.580449" width="18.243329" height="70.379932"/>
  </clipPath>
  <clipPath id="p2c09c77825">
   <rect x="57.6" y="41.472" width="357.12" height="266.112"/>
  </clipPath>
 </defs>
</svg>
