<?xml version="1.0" encoding="utf-8" standalone="no"?>
<!DOCTYPE svg PUBLIC "-//W3C//DTD SVG 1.1//EN"
  "http://www.w3.org/Graphics/SVG/1.1/DTD/svg11.dtd">
<svg height="345.6pt" version="1.1" viewBox="0 0 460.8 345.6" width="460.8pt" xmlns="http://www.w3.org/2000/svg" xmlns:xlink="http://www.w3.org/1999/xlink">
 <metadata>
  <rdf:RDF xmlns:cc="http://creativecommons.org/ns#" xmlns:dc="http://purl.org/dc/elements/1.1/" xmlns:rdf="http://www.w3.org/1999/02/22-rdf-syntax-ns#">
   <cc:Work>
    <dc:type rdf:resource="http://purl.org/dc/dcmitype/StillImage"/>
    <dc:date>2024-05-15T17:44:02.022461</dc:date>
    <dc:format>image/svg+xml</dc:format>
    <dc:creator>
     <cc:Agent>
      <dc:title>Matplotlib v3.4.3, https://matplotlib.org/</dc:title>
     </cc:Agent>
    </dc:creator>
   </cc:Work>
  </rdf:RDF>
 </metadata>
 <defs>
  <style type="text/css">*{stroke-linecap:butt;stroke-linejoin:round;}</style>
 </defs>
 <g id="figure_1">
  <g id="patch_1">
   <path d="M 0 345.6 
L 460.8 345.6 
L 460.8 0 
L 0 0 
z
" style="fill:#ffffff;"/>
  </g>
  <g id="axes_1">
   <g id="patch_2">
    <path d="M 57.6 307.584 
L 414.72 307.584 
L 414.72 41.472 
L 57.6 41.472 
z
" style="fill:#ffffff;"/>
   </g>
   <g id="matplotlib.axis_1">
    <g id="xtick_1">
     <g id="text_1">
      <!-- 1 -->
      <g style="fill:#262626;" transform="translate(84.17875 322.182437)scale(0.1 -0.1)">
       <defs>
        <path d="M 794 531 
L 1825 531 
L 1825 4091 
L 703 3866 
L 703 4441 
L 1819 4666 
L 2450 4666 
L 2450 531 
L 3481 531 
L 3481 0 
L 794 0 
L 794 531 
z
" id="DejaVuSans-31" transform="scale(0.015625)"/>
       </defs>
       <use xlink:href="#DejaVuSans-31"/>
      </g>
     </g>
    </g>
    <g id="xtick_2">
     <g id="text_2">
      <!-- 2 -->
      <g style="fill:#262626;" transform="translate(143.69875 322.182437)scale(0.1 -0.1)">
       <defs>
        <path d="M 1228 531 
L 3431 531 
L 3431 0 
L 469 0 
L 469 531 
Q 828 903 1448 1529 
Q 2069 2156 2228 2338 
Q 2531 2678 2651 2914 
Q 2772 3150 2772 3378 
Q 2772 3750 2511 3984 
Q 2250 4219 1831 4219 
Q 1534 4219 1204 4116 
Q 875 4013 500 3803 
L 500 4441 
Q 881 4594 1212 4672 
Q 1544 4750 1819 4750 
Q 2544 4750 2975 4387 
Q 3406 4025 3406 3419 
Q 3406 3131 3298 2873 
Q 3191 2616 2906 2266 
Q 2828 2175 2409 1742 
Q 1991 1309 1228 531 
z
" id="DejaVuSans-32" transform="scale(0.015625)"/>
       </defs>
       <use xlink:href="#DejaVuSans-32"/>
      </g>
     </g>
    </g>
    <g id="xtick_3">
     <g id="text_3">
      <!-- 3 -->
      <g style="fill:#262626;" transform="translate(203.21875 322.182437)scale(0.1 -0.1)">
       <defs>
        <path d="M 2597 2516 
Q 3050 2419 3304 2112 
Q 3559 1806 3559 1356 
Q 3559 666 3084 287 
Q 2609 -91 1734 -91 
Q 1441 -91 1130 -33 
Q 819 25 488 141 
L 488 750 
Q 750 597 1062 519 
Q 1375 441 1716 441 
Q 2309 441 2620 675 
Q 2931 909 2931 1356 
Q 2931 1769 2642 2001 
Q 2353 2234 1838 2234 
L 1294 2234 
L 1294 2753 
L 1863 2753 
Q 2328 2753 2575 2939 
Q 2822 3125 2822 3475 
Q 2822 3834 2567 4026 
Q 2313 4219 1838 4219 
Q 1578 4219 1281 4162 
Q 984 4106 628 3988 
L 628 4550 
Q 988 4650 1302 4700 
Q 1616 4750 1894 4750 
Q 2613 4750 3031 4423 
Q 3450 4097 3450 3541 
Q 3450 3153 3228 2886 
Q 3006 2619 2597 2516 
z
" id="DejaVuSans-33" transform="scale(0.015625)"/>
       </defs>
       <use xlink:href="#DejaVuSans-33"/>
      </g>
     </g>
    </g>
    <g id="xtick_4">
     <g id="text_4">
      <!-- 4 -->
      <g style="fill:#262626;" transform="translate(262.73875 322.182437)scale(0.1 -0.1)">
       <defs>
        <path d="M 2419 4116 
L 825 1625 
L 2419 1625 
L 2419 4116 
z
M 2253 4666 
L 3047 4666 
L 3047 1625 
L 3713 1625 
L 3713 1100 
L 3047 1100 
L 3047 0 
L 2419 0 
L 2419 1100 
L 313 1100 
L 313 1709 
L 2253 4666 
z
" id="DejaVuSans-34" transform="scale(0.015625)"/>
       </defs>
       <use xlink:href="#DejaVuSans-34"/>
      </g>
     </g>
    </g>
    <g id="xtick_5">
     <g id="text_5">
      <!-- 5 -->
      <g style="fill:#262626;" transform="translate(322.25875 322.182437)scale(0.1 -0.1)">
       <defs>
        <path d="M 691 4666 
L 3169 4666 
L 3169 4134 
L 1269 4134 
L 1269 2991 
Q 1406 3038 1543 3061 
Q 1681 3084 1819 3084 
Q 2600 3084 3056 2656 
Q 3513 2228 3513 1497 
Q 3513 744 3044 326 
Q 2575 -91 1722 -91 
Q 1428 -91 1123 -41 
Q 819 9 494 109 
L 494 744 
Q 775 591 1075 516 
Q 1375 441 1709 441 
Q 2250 441 2565 725 
Q 2881 1009 2881 1497 
Q 2881 1984 2565 2268 
Q 2250 2553 1709 2553 
Q 1456 2553 1204 2497 
Q 953 2441 691 2322 
L 691 4666 
z
" id="DejaVuSans-35" transform="scale(0.015625)"/>
       </defs>
       <use xlink:href="#DejaVuSans-35"/>
      </g>
     </g>
    </g>
    <g id="xtick_6">
     <g id="text_6">
      <!-- 6 -->
      <g style="fill:#262626;" transform="translate(381.77875 322.182437)scale(0.1 -0.1)">
       <defs>
        <path d="M 2113 2584 
Q 1688 2584 1439 2293 
Q 1191 2003 1191 1497 
Q 1191 994 1439 701 
Q 1688 409 2113 409 
Q 2538 409 2786 701 
Q 3034 994 3034 1497 
Q 3034 2003 2786 2293 
Q 2538 2584 2113 2584 
z
M 3366 4563 
L 3366 3988 
Q 3128 4100 2886 4159 
Q 2644 4219 2406 4219 
Q 1781 4219 1451 3797 
Q 1122 3375 1075 2522 
Q 1259 2794 1537 2939 
Q 1816 3084 2150 3084 
Q 2853 3084 3261 2657 
Q 3669 2231 3669 1497 
Q 3669 778 3244 343 
Q 2819 -91 2113 -91 
Q 1303 -91 875 529 
Q 447 1150 447 2328 
Q 447 3434 972 4092 
Q 1497 4750 2381 4750 
Q 2619 4750 2861 4703 
Q 3103 4656 3366 4563 
z
" id="DejaVuSans-36" transform="scale(0.015625)"/>
       </defs>
       <use xlink:href="#DejaVuSans-36"/>
      </g>
     </g>
    </g>
    <g id="text_7">
     <!-- Model -->
     <g style="fill:#262626;" transform="translate(221.146719 335.860562)scale(0.1 -0.1)">
      <defs>
       <path d="M 628 4666 
L 1569 4666 
L 2759 1491 
L 3956 4666 
L 4897 4666 
L 4897 0 
L 4281 0 
L 4281 4097 
L 3078 897 
L 2444 897 
L 1241 4097 
L 1241 0 
L 628 0 
L 628 4666 
z
" id="DejaVuSans-4d" transform="scale(0.015625)"/>
       <path d="M 1959 3097 
Q 1497 3097 1228 2736 
Q 959 2375 959 1747 
Q 959 1119 1226 758 
Q 1494 397 1959 397 
Q 2419 397 2687 759 
Q 2956 1122 2956 1747 
Q 2956 2369 2687 2733 
Q 2419 3097 1959 3097 
z
M 1959 3584 
Q 2709 3584 3137 3096 
Q 3566 2609 3566 1747 
Q 3566 888 3137 398 
Q 2709 -91 1959 -91 
Q 1206 -91 779 398 
Q 353 888 353 1747 
Q 353 2609 779 3096 
Q 1206 3584 1959 3584 
z
" id="DejaVuSans-6f" transform="scale(0.015625)"/>
       <path d="M 2906 2969 
L 2906 4863 
L 3481 4863 
L 3481 0 
L 2906 0 
L 2906 525 
Q 2725 213 2448 61 
Q 2172 -91 1784 -91 
Q 1150 -91 751 415 
Q 353 922 353 1747 
Q 353 2572 751 3078 
Q 1150 3584 1784 3584 
Q 2172 3584 2448 3432 
Q 2725 3281 2906 2969 
z
M 947 1747 
Q 947 1113 1208 752 
Q 1469 391 1925 391 
Q 2381 391 2643 752 
Q 2906 1113 2906 1747 
Q 2906 2381 2643 2742 
Q 2381 3103 1925 3103 
Q 1469 3103 1208 2742 
Q 947 2381 947 1747 
z
" id="DejaVuSans-64" transform="scale(0.015625)"/>
       <path d="M 3597 1894 
L 3597 1613 
L 953 1613 
Q 991 1019 1311 708 
Q 1631 397 2203 397 
Q 2534 397 2845 478 
Q 3156 559 3463 722 
L 3463 178 
Q 3153 47 2828 -22 
Q 2503 -91 2169 -91 
Q 1331 -91 842 396 
Q 353 884 353 1716 
Q 353 2575 817 3079 
Q 1281 3584 2069 3584 
Q 2775 3584 3186 3129 
Q 3597 2675 3597 1894 
z
M 3022 2063 
Q 3016 2534 2758 2815 
Q 2500 3097 2075 3097 
Q 1594 3097 1305 2825 
Q 1016 2553 972 2059 
L 3022 2063 
z
" id="DejaVuSans-65" transform="scale(0.015625)"/>
       <path d="M 603 4863 
L 1178 4863 
L 1178 0 
L 603 0 
L 603 4863 
z
" id="DejaVuSans-6c" transform="scale(0.015625)"/>
      </defs>
      <use xlink:href="#DejaVuSans-4d"/>
      <use x="86.279297" xlink:href="#DejaVuSans-6f"/>
      <use x="147.460938" xlink:href="#DejaVuSans-64"/>
      <use x="210.9375" xlink:href="#DejaVuSans-65"/>
      <use x="272.460938" xlink:href="#DejaVuSans-6c"/>
     </g>
    </g>
   </g>
   <g id="matplotlib.axis_2">
    <g id="ytick_1">
     <g id="text_8">
      <!-- 0.00 -->
      <g style="fill:#262626;" transform="translate(28.334375 311.383219)scale(0.1 -0.1)">
       <defs>
        <path d="M 2034 4250 
Q 1547 4250 1301 3770 
Q 1056 3291 1056 2328 
Q 1056 1369 1301 889 
Q 1547 409 2034 409 
Q 2525 409 2770 889 
Q 3016 1369 3016 2328 
Q 3016 3291 2770 3770 
Q 2525 4250 2034 4250 
z
M 2034 4750 
Q 2819 4750 3233 4129 
Q 3647 3509 3647 2328 
Q 3647 1150 3233 529 
Q 2819 -91 2034 -91 
Q 1250 -91 836 529 
Q 422 1150 422 2328 
Q 422 3509 836 4129 
Q 1250 4750 2034 4750 
z
" id="DejaVuSans-30" transform="scale(0.015625)"/>
        <path d="M 684 794 
L 1344 794 
L 1344 0 
L 684 0 
L 684 794 
z
" id="DejaVuSans-2e" transform="scale(0.015625)"/>
       </defs>
       <use xlink:href="#DejaVuSans-30"/>
       <use x="63.623047" xlink:href="#DejaVuSans-2e"/>
       <use x="95.410156" xlink:href="#DejaVuSans-30"/>
       <use x="159.033203" xlink:href="#DejaVuSans-30"/>
      </g>
     </g>
    </g>
    <g id="ytick_2">
     <g id="text_9">
      <!-- 0.05 -->
      <g style="fill:#262626;" transform="translate(28.334375 278.119219)scale(0.1 -0.1)">
       <use xlink:href="#DejaVuSans-30"/>
       <use x="63.623047" xlink:href="#DejaVuSans-2e"/>
       <use x="95.410156" xlink:href="#DejaVuSans-30"/>
       <use x="159.033203" xlink:href="#DejaVuSans-35"/>
      </g>
     </g>
    </g>
    <g id="ytick_3">
     <g id="text_10">
      <!-- 0.10 -->
      <g style="fill:#262626;" transform="translate(28.334375 244.855219)scale(0.1 -0.1)">
       <use xlink:href="#DejaVuSans-30"/>
       <use x="63.623047" xlink:href="#DejaVuSans-2e"/>
       <use x="95.410156" xlink:href="#DejaVuSans-31"/>
       <use x="159.033203" xlink:href="#DejaVuSans-30"/>
      </g>
     </g>
    </g>
    <g id="ytick_4">
     <g id="text_11">
      <!-- 0.15 -->
      <g style="fill:#262626;" transform="translate(28.334375 211.591219)scale(0.1 -0.1)">
       <use xlink:href="#DejaVuSans-30"/>
       <use x="63.623047" xlink:href="#DejaVuSans-2e"/>
       <use x="95.410156" xlink:href="#DejaVuSans-31"/>
       <use x="159.033203" xlink:href="#DejaVuSans-35"/>
      </g>
     </g>
    </g>
    <g id="ytick_5">
     <g id="text_12">
      <!-- 0.20 -->
      <g style="fill:#262626;" transform="translate(28.334375 178.327219)scale(0.1 -0.1)">
       <use xlink:href="#DejaVuSans-30"/>
       <use x="63.623047" xlink:href="#DejaVuSans-2e"/>
       <use x="95.410156" xlink:href="#DejaVuSans-32"/>
       <use x="159.033203" xlink:href="#DejaVuSans-30"/>
      </g>
     </g>
    </g>
    <g id="ytick_6">
     <g id="text_13">
      <!-- 0.25 -->
      <g style="fill:#262626;" transform="translate(28.334375 145.063219)scale(0.1 -0.1)">
       <use xlink:href="#DejaVuSans-30"/>
       <use x="63.623047" xlink:href="#DejaVuSans-2e"/>
       <use x="95.410156" xlink:href="#DejaVuSans-32"/>
       <use x="159.033203" xlink:href="#DejaVuSans-35"/>
      </g>
     </g>
    </g>
    <g id="ytick_7">
     <g id="text_14">
      <!-- 0.30 -->
      <g style="fill:#262626;" transform="translate(28.334375 111.799219)scale(0.1 -0.1)">
       <use xlink:href="#DejaVuSans-30"/>
       <use x="63.623047" xlink:href="#DejaVuSans-2e"/>
       <use x="95.410156" xlink:href="#DejaVuSans-33"/>
       <use x="159.033203" xlink:href="#DejaVuSans-30"/>
      </g>
     </g>
    </g>
    <g id="ytick_8">
     <g id="text_15">
      <!-- 0.35 -->
      <g style="fill:#262626;" transform="translate(28.334375 78.535219)scale(0.1 -0.1)">
       <use xlink:href="#DejaVuSans-30"/>
       <use x="63.623047" xlink:href="#DejaVuSans-2e"/>
       <use x="95.410156" xlink:href="#DejaVuSans-33"/>
       <use x="159.033203" xlink:href="#DejaVuSans-35"/>
      </g>
     </g>
    </g>
    <g id="ytick_9">
     <g id="text_16">
      <!-- 0.40 -->
      <g style="fill:#262626;" transform="translate(28.334375 45.271219)scale(0.1 -0.1)">
       <use xlink:href="#DejaVuSans-30"/>
       <use x="63.623047" xlink:href="#DejaVuSans-2e"/>
       <use x="95.410156" xlink:href="#DejaVuSans-34"/>
       <use x="159.033203" xlink:href="#DejaVuSans-30"/>
      </g>
     </g>
    </g>
    <g id="text_17">
     <!-- auROC -->
     <g style="fill:#262626;" transform="translate(22.254687 191.662375)rotate(-90)scale(0.1 -0.1)">
      <defs>
       <path d="M 2194 1759 
Q 1497 1759 1228 1600 
Q 959 1441 959 1056 
Q 959 750 1161 570 
Q 1363 391 1709 391 
Q 2188 391 2477 730 
Q 2766 1069 2766 1631 
L 2766 1759 
L 2194 1759 
z
M 3341 1997 
L 3341 0 
L 2766 0 
L 2766 531 
Q 2569 213 2275 61 
Q 1981 -91 1556 -91 
Q 1019 -91 701 211 
Q 384 513 384 1019 
Q 384 1609 779 1909 
Q 1175 2209 1959 2209 
L 2766 2209 
L 2766 2266 
Q 2766 2663 2505 2880 
Q 2244 3097 1772 3097 
Q 1472 3097 1187 3025 
Q 903 2953 641 2809 
L 641 3341 
Q 956 3463 1253 3523 
Q 1550 3584 1831 3584 
Q 2591 3584 2966 3190 
Q 3341 2797 3341 1997 
z
" id="DejaVuSans-61" transform="scale(0.015625)"/>
       <path d="M 544 1381 
L 544 3500 
L 1119 3500 
L 1119 1403 
Q 1119 906 1312 657 
Q 1506 409 1894 409 
Q 2359 409 2629 706 
Q 2900 1003 2900 1516 
L 2900 3500 
L 3475 3500 
L 3475 0 
L 2900 0 
L 2900 538 
Q 2691 219 2414 64 
Q 2138 -91 1772 -91 
Q 1169 -91 856 284 
Q 544 659 544 1381 
z
M 1991 3584 
L 1991 3584 
z
" id="DejaVuSans-75" transform="scale(0.015625)"/>
       <path d="M 2841 2188 
Q 3044 2119 3236 1894 
Q 3428 1669 3622 1275 
L 4263 0 
L 3584 0 
L 2988 1197 
Q 2756 1666 2539 1819 
Q 2322 1972 1947 1972 
L 1259 1972 
L 1259 0 
L 628 0 
L 628 4666 
L 2053 4666 
Q 2853 4666 3247 4331 
Q 3641 3997 3641 3322 
Q 3641 2881 3436 2590 
Q 3231 2300 2841 2188 
z
M 1259 4147 
L 1259 2491 
L 2053 2491 
Q 2509 2491 2742 2702 
Q 2975 2913 2975 3322 
Q 2975 3731 2742 3939 
Q 2509 4147 2053 4147 
L 1259 4147 
z
" id="DejaVuSans-52" transform="scale(0.015625)"/>
       <path d="M 2522 4238 
Q 1834 4238 1429 3725 
Q 1025 3213 1025 2328 
Q 1025 1447 1429 934 
Q 1834 422 2522 422 
Q 3209 422 3611 934 
Q 4013 1447 4013 2328 
Q 4013 3213 3611 3725 
Q 3209 4238 2522 4238 
z
M 2522 4750 
Q 3503 4750 4090 4092 
Q 4678 3434 4678 2328 
Q 4678 1225 4090 567 
Q 3503 -91 2522 -91 
Q 1538 -91 948 565 
Q 359 1222 359 2328 
Q 359 3434 948 4092 
Q 1538 4750 2522 4750 
z
" id="DejaVuSans-4f" transform="scale(0.015625)"/>
       <path d="M 4122 4306 
L 4122 3641 
Q 3803 3938 3442 4084 
Q 3081 4231 2675 4231 
Q 1875 4231 1450 3742 
Q 1025 3253 1025 2328 
Q 1025 1406 1450 917 
Q 1875 428 2675 428 
Q 3081 428 3442 575 
Q 3803 722 4122 1019 
L 4122 359 
Q 3791 134 3420 21 
Q 3050 -91 2638 -91 
Q 1578 -91 968 557 
Q 359 1206 359 2328 
Q 359 3453 968 4101 
Q 1578 4750 2638 4750 
Q 3056 4750 3426 4639 
Q 3797 4528 4122 4306 
z
" id="DejaVuSans-43" transform="scale(0.015625)"/>
      </defs>
      <use xlink:href="#DejaVuSans-61"/>
      <use x="61.279297" xlink:href="#DejaVuSans-75"/>
      <use x="124.658203" xlink:href="#DejaVuSans-52"/>
      <use x="194.140625" xlink:href="#DejaVuSans-4f"/>
      <use x="272.851562" xlink:href="#DejaVuSans-43"/>
     </g>
    </g>
   </g>
   <g id="PolyCollection_1">
    <defs>
     <path d="M 88.600897 -140.397142 
L 86.119103 -140.397142 
L 85.880343 -141.015761 
L 85.605735 -141.63438 
L 85.292002 -142.252999 
L 84.935976 -142.871617 
L 84.53468 -143.490236 
L 84.085432 -144.108855 
L 83.585948 -144.727474 
L 83.034452 -145.346093 
L 82.429786 -145.964712 
L 81.77152 -146.583331 
L 81.060049 -147.20195 
L 80.296691 -147.820569 
L 79.483758 -148.439188 
L 78.624612 -149.057807 
L 77.723702 -149.676425 
L 76.786567 -150.295044 
L 75.819812 -150.913663 
L 74.83105 -151.532282 
L 73.828808 -152.150901 
L 72.822407 -152.76952 
L 71.821796 -153.388139 
L 70.837364 -154.006758 
L 69.879722 -154.625377 
L 68.959462 -155.243996 
L 68.0869 -155.862614 
L 67.271808 -156.481233 
L 66.523151 -157.099852 
L 65.848826 -157.718471 
L 65.255418 -158.33709 
L 64.747988 -158.955709 
L 64.329893 -159.574328 
L 64.002644 -160.192947 
L 63.765822 -160.811566 
L 63.617046 -161.430185 
L 63.552 -162.048803 
L 63.564518 -162.667422 
L 63.646736 -163.286041 
L 63.789293 -163.90466 
L 63.981593 -164.523279 
L 64.212103 -165.141898 
L 64.468694 -165.760517 
L 64.739004 -166.379136 
L 65.010813 -166.997755 
L 65.272418 -167.616374 
L 65.513004 -168.234993 
L 65.722971 -168.853611 
L 65.894245 -169.47223 
L 66.020523 -170.090849 
L 66.097472 -170.709468 
L 66.122857 -171.328087 
L 66.096608 -171.946706 
L 66.02081 -172.565325 
L 65.899623 -173.183944 
L 65.739145 -173.802563 
L 65.547201 -174.421182 
L 65.333088 -175.0398 
L 65.107277 -175.658419 
L 64.881073 -176.277038 
L 64.666266 -176.895657 
L 64.474763 -177.514276 
L 64.318233 -178.132895 
L 64.207756 -178.751514 
L 64.153512 -179.370133 
L 64.164487 -179.988752 
L 64.248246 -180.607371 
L 64.410729 -181.22599 
L 64.656124 -181.844608 
L 64.986781 -182.463227 
L 65.403191 -183.081846 
L 65.904013 -183.700465 
L 66.486155 -184.319084 
L 67.144905 -184.937703 
L 67.874095 -185.556322 
L 68.666305 -186.174941 
L 69.513085 -186.79356 
L 70.405201 -187.412179 
L 71.332882 -188.030797 
L 72.286074 -188.649416 
L 73.254683 -189.268035 
L 74.228802 -189.886654 
L 75.198923 -190.505273 
L 76.156121 -191.123892 
L 77.092206 -191.742511 
L 77.999851 -192.36113 
L 78.872682 -192.979749 
L 79.705337 -193.598368 
L 80.493493 -194.216986 
L 81.233866 -194.835605 
L 81.924182 -195.454224 
L 82.563128 -196.072843 
L 83.150275 -196.691462 
L 83.685999 -197.310081 
L 84.171383 -197.9287 
L 84.60811 -198.547319 
L 84.998362 -199.165938 
L 85.344712 -199.784557 
L 85.650019 -200.403176 
L 85.91734 -201.021794 
L 86.149836 -201.640413 
L 88.570164 -201.640413 
L 88.570164 -201.640413 
L 88.80266 -201.021794 
L 89.069981 -200.403176 
L 89.375288 -199.784557 
L 89.721638 -199.165938 
L 90.11189 -198.547319 
L 90.548617 -197.9287 
L 91.034001 -197.310081 
L 91.569725 -196.691462 
L 92.156872 -196.072843 
L 92.795818 -195.454224 
L 93.486134 -194.835605 
L 94.226507 -194.216986 
L 95.014663 -193.598368 
L 95.847318 -192.979749 
L 96.720149 -192.36113 
L 97.627794 -191.742511 
L 98.563879 -191.123892 
L 99.521077 -190.505273 
L 100.491198 -189.886654 
L 101.465317 -189.268035 
L 102.433926 -188.649416 
L 103.387118 -188.030797 
L 104.314799 -187.412179 
L 105.206915 -186.79356 
L 106.053695 -186.174941 
L 106.845905 -185.556322 
L 107.575095 -184.937703 
L 108.233845 -184.319084 
L 108.815987 -183.700465 
L 109.316809 -183.081846 
L 109.733219 -182.463227 
L 110.063876 -181.844608 
L 110.309271 -181.22599 
L 110.471754 -180.607371 
L 110.555513 -179.988752 
L 110.566488 -179.370133 
L 110.512244 -178.751514 
L 110.401767 -178.132895 
L 110.245237 -177.514276 
L 110.053734 -176.895657 
L 109.838927 -176.277038 
L 109.612723 -175.658419 
L 109.386912 -175.0398 
L 109.172799 -174.421182 
L 108.980855 -173.802563 
L 108.820377 -173.183944 
L 108.69919 -172.565325 
L 108.623392 -171.946706 
L 108.597143 -171.328087 
L 108.622528 -170.709468 
L 108.699477 -170.090849 
L 108.825755 -169.47223 
L 108.997029 -168.853611 
L 109.206996 -168.234993 
L 109.447582 -167.616374 
L 109.709187 -166.997755 
L 109.980996 -166.379136 
L 110.251306 -165.760517 
L 110.507897 -165.141898 
L 110.738407 -164.523279 
L 110.930707 -163.90466 
L 111.073264 -163.286041 
L 111.155482 -162.667422 
L 111.168 -162.048803 
L 111.102954 -161.430185 
L 110.954178 -160.811566 
L 110.717356 -160.192947 
L 110.390107 -159.574328 
L 109.972012 -158.955709 
L 109.464582 -158.33709 
L 108.871174 -157.718471 
L 108.196849 -157.099852 
L 107.448192 -156.481233 
L 106.6331 -155.862614 
L 105.760538 -155.243996 
L 104.840278 -154.625377 
L 103.882636 -154.006758 
L 102.898204 -153.388139 
L 101.897593 -152.76952 
L 100.891192 -152.150901 
L 99.88895 -151.532282 
L 98.900188 -150.913663 
L 97.933433 -150.295044 
L 96.996298 -149.676425 
L 96.095388 -149.057807 
L 95.236242 -148.439188 
L 94.423309 -147.820569 
L 93.659951 -147.20195 
L 92.94848 -146.583331 
L 92.290214 -145.964712 
L 91.685548 -145.346093 
L 91.134052 -144.727474 
L 90.634568 -144.108855 
L 90.18532 -143.490236 
L 89.784024 -142.871617 
L 89.427998 -142.252999 
L 89.114265 -141.63438 
L 88.839657 -141.015761 
L 88.600897 -140.397142 
z
" id="m395df2f81d" style="stroke:#595959;stroke-width:1.5;"/>
    </defs>
    <g clip-path="url(#p2b73fdf915)">
     <use style="fill:#72b6a1;stroke:#595959;stroke-width:1.5;" x="0" xlink:href="#m395df2f81d" y="345.6"/>
    </g>
   </g>
   <g id="PolyCollection_2">
    <defs>
     <path d="M 147.628086 -127.488921 
L 146.131914 -127.488921 
L 145.992358 -128.370395 
L 145.832346 -129.251869 
L 145.649989 -130.133343 
L 145.443427 -131.014818 
L 145.21087 -131.896292 
L 144.95064 -132.777766 
L 144.661225 -133.65924 
L 144.34133 -134.540715 
L 143.989933 -135.422189 
L 143.606338 -136.303663 
L 143.190237 -137.185137 
L 142.741755 -138.066612 
L 142.261505 -138.948086 
L 141.750629 -139.82956 
L 141.210834 -140.711034 
L 140.644422 -141.592509 
L 140.0543 -142.473983 
L 139.443985 -143.355457 
L 138.817592 -144.236931 
L 138.179804 -145.118406 
L 137.535829 -145.99988 
L 136.891334 -146.881354 
L 136.252366 -147.762828 
L 135.625252 -148.644303 
L 135.016487 -149.525777 
L 134.432598 -150.407251 
L 133.880005 -151.288725 
L 133.364869 -152.1702 
L 132.89293 -153.051674 
L 132.469346 -153.933148 
L 132.09854 -154.814622 
L 131.784044 -155.696097 
L 131.528368 -156.577571 
L 131.332881 -157.459045 
L 131.19772 -158.340519 
L 131.121729 -159.221994 
L 131.10243 -160.103468 
L 131.136033 -160.984942 
L 131.217488 -161.866416 
L 131.340574 -162.747891 
L 131.498033 -163.629365 
L 131.681737 -164.510839 
L 131.8829 -165.392313 
L 132.092311 -166.273788 
L 132.300597 -167.155262 
L 132.498497 -168.036736 
L 132.677147 -168.91821 
L 132.828365 -169.799685 
L 132.944918 -170.681159 
L 133.020772 -171.562633 
L 133.051312 -172.444107 
L 133.033512 -173.325582 
L 132.966076 -174.207056 
L 132.849509 -175.08853 
L 132.686136 -175.970004 
L 132.480069 -176.851479 
L 132.237104 -177.732953 
L 131.964569 -178.614427 
L 131.671114 -179.495901 
L 131.366459 -180.377376 
L 131.061108 -181.25885 
L 130.766025 -182.140324 
L 130.492305 -183.021798 
L 130.250834 -183.903273 
L 130.051962 -184.784747 
L 129.905187 -185.666221 
L 129.81888 -186.547695 
L 129.800039 -187.42917 
L 129.854096 -188.310644 
L 129.984784 -189.192118 
L 130.194047 -190.073592 
L 130.48202 -190.955067 
L 130.847066 -191.836541 
L 131.285865 -192.718015 
L 131.793552 -193.599489 
L 132.363901 -194.480964 
L 132.989543 -195.362438 
L 133.662204 -196.243912 
L 134.372967 -197.125386 
L 135.112527 -198.006861 
L 135.871457 -198.888335 
L 136.640444 -199.769809 
L 137.410521 -200.651283 
L 138.173258 -201.532758 
L 138.920927 -202.414232 
L 139.646638 -203.295706 
L 140.344427 -204.17718 
L 141.009319 -205.058655 
L 141.63735 -205.940129 
L 142.225555 -206.821603 
L 142.77194 -207.703077 
L 143.275416 -208.584552 
L 143.735721 -209.466026 
L 144.153329 -210.3475 
L 144.529348 -211.228974 
L 144.86541 -212.110449 
L 145.16357 -212.991923 
L 145.426198 -213.873397 
L 145.655882 -214.754871 
L 148.104118 -214.754871 
L 148.104118 -214.754871 
L 148.333802 -213.873397 
L 148.59643 -212.991923 
L 148.89459 -212.110449 
L 149.230652 -211.228974 
L 149.606671 -210.3475 
L 150.024279 -209.466026 
L 150.484584 -208.584552 
L 150.98806 -207.703077 
L 151.534445 -206.821603 
L 152.12265 -205.940129 
L 152.750681 -205.058655 
L 153.415573 -204.17718 
L 154.113362 -203.295706 
L 154.839073 -202.414232 
L 155.586742 -201.532758 
L 156.349479 -200.651283 
L 157.119556 -199.769809 
L 157.888543 -198.888335 
L 158.647473 -198.006861 
L 159.387033 -197.125386 
L 160.097796 -196.243912 
L 160.770457 -195.362438 
L 161.396099 -194.480964 
L 161.966448 -193.599489 
L 162.474135 -192.718015 
L 162.912934 -191.836541 
L 163.27798 -190.955067 
L 163.565953 -190.073592 
L 163.775216 -189.192118 
L 163.905904 -188.310644 
L 163.959961 -187.42917 
L 163.94112 -186.547695 
L 163.854813 -185.666221 
L 163.708038 -184.784747 
L 163.509166 -183.903273 
L 163.267695 -183.021798 
L 162.993975 -182.140324 
L 162.698892 -181.25885 
L 162.393541 -180.377376 
L 162.088886 -179.495901 
L 161.795431 -178.614427 
L 161.522896 -177.732953 
L 161.279931 -176.851479 
L 161.073864 -175.970004 
L 160.910491 -175.08853 
L 160.793924 -174.207056 
L 160.726488 -173.325582 
L 160.708688 -172.444107 
L 160.739228 -171.562633 
L 160.815082 -170.681159 
L 160.931635 -169.799685 
L 161.082853 -168.91821 
L 161.261503 -168.036736 
L 161.459403 -167.155262 
L 161.667689 -166.273788 
L 161.8771 -165.392313 
L 162.078263 -164.510839 
L 162.261967 -163.629365 
L 162.419426 -162.747891 
L 162.542512 -161.866416 
L 162.623967 -160.984942 
L 162.65757 -160.103468 
L 162.638271 -159.221994 
L 162.56228 -158.340519 
L 162.427119 -157.459045 
L 162.231632 -156.577571 
L 161.975956 -155.696097 
L 161.66146 -154.814622 
L 161.290654 -153.933148 
L 160.86707 -153.051674 
L 160.395131 -152.1702 
L 159.879995 -151.288725 
L 159.327402 -150.407251 
L 158.743513 -149.525777 
L 158.134748 -148.644303 
L 157.507634 -147.762828 
L 156.868666 -146.881354 
L 156.224171 -145.99988 
L 155.580196 -145.118406 
L 154.942408 -144.236931 
L 154.316015 -143.355457 
L 153.7057 -142.473983 
L 153.115578 -141.592509 
L 152.549166 -140.711034 
L 152.009371 -139.82956 
L 151.498495 -138.948086 
L 151.018245 -138.066612 
L 150.569763 -137.185137 
L 150.153662 -136.303663 
L 149.770067 -135.422189 
L 149.41867 -134.540715 
L 149.098775 -133.65924 
L 148.80936 -132.777766 
L 148.54913 -131.896292 
L 148.316573 -131.014818 
L 148.110011 -130.133343 
L 147.927654 -129.251869 
L 147.767642 -128.370395 
L 147.628086 -127.488921 
z
" id="mf42e221945" style="stroke:#595959;stroke-width:1.5;"/>
    </defs>
    <g clip-path="url(#p710cdf198e)">
     <use style="fill:#e99675;stroke:#595959;stroke-width:1.5;" x="0" xlink:href="#mf42e221945" y="345.6"/>
    </g>
   </g>
   <g id="PolyCollection_3">
    <defs>
     <path d="M 207.013137 -125.584519 
L 205.786863 -125.584519 
L 205.658335 -126.610978 
L 205.50995 -127.637437 
L 205.340187 -128.663896 
L 205.147702 -129.690355 
L 204.931365 -130.716814 
L 204.690305 -131.743273 
L 204.423933 -132.769732 
L 204.131954 -133.796191 
L 203.814364 -134.82265 
L 203.471424 -135.849109 
L 203.103612 -136.875568 
L 202.711567 -137.902027 
L 202.296002 -138.928486 
L 201.857626 -139.954945 
L 201.39704 -140.981404 
L 200.914657 -142.007863 
L 200.410624 -143.034322 
L 199.884762 -144.060781 
L 199.336543 -145.08724 
L 198.765097 -146.113699 
L 198.169265 -147.140158 
L 197.547692 -148.166617 
L 196.898963 -149.193076 
L 196.221782 -150.219535 
L 195.515181 -151.245994 
L 194.778757 -152.272453 
L 194.012914 -153.298912 
L 193.219103 -154.325371 
L 192.400049 -155.35183 
L 191.559933 -156.378289 
L 190.704532 -157.404748 
L 189.841289 -158.431207 
L 188.979312 -159.457666 
L 188.129291 -160.484125 
L 187.303325 -161.510584 
L 186.514666 -162.537043 
L 185.777384 -163.563502 
L 185.105962 -164.589961 
L 184.514836 -165.61642 
L 184.017895 -166.642879 
L 183.627971 -167.669338 
L 183.356334 -168.695797 
L 183.212212 -169.722256 
L 183.202378 -170.748715 
L 183.3308 -171.775174 
L 183.598397 -172.801633 
L 184.002894 -173.828092 
L 184.538803 -174.854551 
L 185.197521 -175.88101 
L 185.967554 -176.90747 
L 186.834839 -177.933929 
L 187.783182 -178.960388 
L 188.79476 -179.986847 
L 189.850684 -181.013306 
L 190.9316 -182.039765 
L 192.01829 -183.066224 
L 193.092256 -184.092683 
L 194.136262 -185.119142 
L 195.134817 -186.145601 
L 196.074574 -187.17206 
L 196.944637 -188.198519 
L 197.736768 -189.224978 
L 198.445493 -190.251437 
L 199.068104 -191.277896 
L 199.604564 -192.304355 
L 200.057322 -193.330814 
L 200.431058 -194.357273 
L 200.732359 -195.383732 
L 200.969354 -196.410191 
L 201.151316 -197.43665 
L 201.288248 -198.463109 
L 201.390476 -199.489568 
L 201.468256 -200.516027 
L 201.53141 -201.542486 
L 201.589008 -202.568945 
L 201.649103 -203.595404 
L 201.718523 -204.621863 
L 201.802727 -205.648322 
L 201.905729 -206.674781 
L 202.030082 -207.70124 
L 202.176933 -208.727699 
L 202.346117 -209.754158 
L 202.536308 -210.780617 
L 202.7452 -211.807076 
L 202.969715 -212.833535 
L 203.20622 -213.859994 
L 203.450744 -214.886453 
L 203.699193 -215.912912 
L 203.947537 -216.939371 
L 204.191975 -217.96583 
L 204.429074 -218.992289 
L 204.655863 -220.018748 
L 204.869907 -221.045207 
L 205.069332 -222.071666 
L 205.252834 -223.098125 
L 205.419653 -224.124584 
L 205.569528 -225.151043 
L 205.702641 -226.177502 
L 205.819542 -227.203961 
L 206.980458 -227.203961 
L 206.980458 -227.203961 
L 207.097359 -226.177502 
L 207.230472 -225.151043 
L 207.380347 -224.124584 
L 207.547166 -223.098125 
L 207.730668 -222.071666 
L 207.930093 -221.045207 
L 208.144137 -220.018748 
L 208.370926 -218.992289 
L 208.608025 -217.96583 
L 208.852463 -216.939371 
L 209.100807 -215.912912 
L 209.349256 -214.886453 
L 209.59378 -213.859994 
L 209.830285 -212.833535 
L 210.0548 -211.807076 
L 210.263692 -210.780617 
L 210.453883 -209.754158 
L 210.623067 -208.727699 
L 210.769918 -207.70124 
L 210.894271 -206.674781 
L 210.997273 -205.648322 
L 211.081477 -204.621863 
L 211.150897 -203.595404 
L 211.210992 -202.568945 
L 211.26859 -201.542486 
L 211.331744 -200.516027 
L 211.409524 -199.489568 
L 211.511752 -198.463109 
L 211.648684 -197.43665 
L 211.830646 -196.410191 
L 212.067641 -195.383732 
L 212.368942 -194.357273 
L 212.742678 -193.330814 
L 213.195436 -192.304355 
L 213.731896 -191.277896 
L 214.354507 -190.251437 
L 215.063232 -189.224978 
L 215.855363 -188.198519 
L 216.725426 -187.17206 
L 217.665183 -186.145601 
L 218.663738 -185.119142 
L 219.707744 -184.092683 
L 220.78171 -183.066224 
L 221.8684 -182.039765 
L 222.949316 -181.013306 
L 224.00524 -179.986847 
L 225.016818 -178.960388 
L 225.965161 -177.933929 
L 226.832446 -176.90747 
L 227.602479 -175.88101 
L 228.261197 -174.854551 
L 228.797106 -173.828092 
L 229.201603 -172.801633 
L 229.4692 -171.775174 
L 229.597622 -170.748715 
L 229.587788 -169.722256 
L 229.443666 -168.695797 
L 229.172029 -167.669338 
L 228.782105 -166.642879 
L 228.285164 -165.61642 
L 227.694038 -164.589961 
L 227.022616 -163.563502 
L 226.285334 -162.537043 
L 225.496675 -161.510584 
L 224.670709 -160.484125 
L 223.820688 -159.457666 
L 222.958711 -158.431207 
L 222.095468 -157.404748 
L 221.240067 -156.378289 
L 220.399951 -155.35183 
L 219.580897 -154.325371 
L 218.787086 -153.298912 
L 218.021243 -152.272453 
L 217.284819 -151.245994 
L 216.578218 -150.219535 
L 215.901037 -149.193076 
L 215.252308 -148.166617 
L 214.630735 -147.140158 
L 214.034903 -146.113699 
L 213.463457 -145.08724 
L 212.915238 -144.060781 
L 212.389376 -143.034322 
L 211.885343 -142.007863 
L 211.40296 -140.981404 
L 210.942374 -139.954945 
L 210.503998 -138.928486 
L 210.088433 -137.902027 
L 209.696388 -136.875568 
L 209.328576 -135.849109 
L 208.985636 -134.82265 
L 208.668046 -133.796191 
L 208.376067 -132.769732 
L 208.109695 -131.743273 
L 207.868635 -130.716814 
L 207.652298 -129.690355 
L 207.459813 -128.663896 
L 207.29005 -127.637437 
L 207.141665 -126.610978 
L 207.013137 -125.584519 
z
" id="m8825f6710d" style="stroke:#595959;stroke-width:1.5;"/>
    </defs>
    <g clip-path="url(#pca21113f38)">
     <use style="fill:#95a3c3;stroke:#595959;stroke-width:1.5;" x="0" xlink:href="#m8825f6710d" y="345.6"/>
    </g>
   </g>
   <g id="PolyCollection_4">
    <defs>
     <path d="M 266.568982 -108.219082 
L 265.271018 -108.219082 
L 265.145023 -109.110368 
L 265.001528 -110.001653 
L 264.839589 -110.892939 
L 264.658503 -111.784224 
L 264.457861 -112.67551 
L 264.237589 -113.566795 
L 263.997983 -114.458081 
L 263.739731 -115.349366 
L 263.463919 -116.240652 
L 263.172018 -117.131937 
L 262.865852 -118.023223 
L 262.547546 -118.914508 
L 262.219453 -119.805794 
L 261.88407 -120.697079 
L 261.543931 -121.588365 
L 261.2015 -122.479651 
L 260.859054 -123.370936 
L 260.518568 -124.262222 
L 260.181615 -125.153507 
L 259.849273 -126.044793 
L 259.522056 -126.936078 
L 259.199864 -127.827364 
L 258.881971 -128.718649 
L 258.56703 -129.609935 
L 258.253113 -130.50122 
L 257.937784 -131.392506 
L 257.618182 -132.283791 
L 257.291142 -133.175077 
L 256.953322 -134.066362 
L 256.60134 -134.957648 
L 256.231917 -135.848933 
L 255.842023 -136.740219 
L 255.429011 -137.631504 
L 254.99074 -138.52279 
L 254.525691 -139.414075 
L 254.033052 -140.305361 
L 253.512801 -141.196646 
L 252.965749 -142.087932 
L 252.393576 -142.979217 
L 251.798834 -143.870503 
L 251.184937 -144.761788 
L 250.556119 -145.653074 
L 249.91738 -146.544359 
L 249.274406 -147.435645 
L 248.633472 -148.32693 
L 248.00133 -149.218216 
L 247.385079 -150.109501 
L 246.792026 -151.000787 
L 246.229539 -151.892072 
L 245.704894 -152.783358 
L 245.225122 -153.674643 
L 244.796859 -154.565929 
L 244.426212 -155.457214 
L 244.118623 -156.3485 
L 243.878763 -157.239786 
L 243.710442 -158.131071 
L 243.616536 -159.022357 
L 243.598947 -159.913642 
L 243.658579 -160.804928 
L 243.795345 -161.696213 
L 244.008194 -162.587499 
L 244.295159 -163.478784 
L 244.653427 -164.37007 
L 245.079421 -165.261355 
L 245.568896 -166.152641 
L 246.117037 -167.043926 
L 246.718569 -167.935212 
L 247.367863 -168.826497 
L 248.059035 -169.717783 
L 248.786046 -170.609068 
L 249.542792 -171.500354 
L 250.323176 -172.391639 
L 251.121187 -173.282925 
L 251.930949 -174.17421 
L 252.746778 -175.065496 
L 253.563215 -175.956781 
L 254.375067 -176.848067 
L 255.177431 -177.739352 
L 255.965719 -178.630638 
L 256.735682 -179.521923 
L 257.483428 -180.413209 
L 258.205444 -181.304494 
L 258.898612 -182.19578 
L 259.560233 -183.087065 
L 260.188036 -183.978351 
L 260.780197 -184.869636 
L 261.335345 -185.760922 
L 261.852565 -186.652207 
L 262.331396 -187.543493 
L 262.77182 -188.434778 
L 263.174243 -189.326064 
L 263.539465 -190.21735 
L 263.868648 -191.108635 
L 264.163273 -191.999921 
L 264.425091 -192.891206 
L 264.656074 -193.782492 
L 264.858358 -194.673777 
L 265.034193 -195.565063 
L 265.185887 -196.456348 
L 266.654113 -196.456348 
L 266.654113 -196.456348 
L 266.805807 -195.565063 
L 266.981642 -194.673777 
L 267.183926 -193.782492 
L 267.414909 -192.891206 
L 267.676727 -191.999921 
L 267.971352 -191.108635 
L 268.300535 -190.21735 
L 268.665757 -189.326064 
L 269.06818 -188.434778 
L 269.508604 -187.543493 
L 269.987435 -186.652207 
L 270.504655 -185.760922 
L 271.059803 -184.869636 
L 271.651964 -183.978351 
L 272.279767 -183.087065 
L 272.941388 -182.19578 
L 273.634556 -181.304494 
L 274.356572 -180.413209 
L 275.104318 -179.521923 
L 275.874281 -178.630638 
L 276.662569 -177.739352 
L 277.464933 -176.848067 
L 278.276785 -175.956781 
L 279.093222 -175.065496 
L 279.909051 -174.17421 
L 280.718813 -173.282925 
L 281.516824 -172.391639 
L 282.297208 -171.500354 
L 283.053954 -170.609068 
L 283.780965 -169.717783 
L 284.472137 -168.826497 
L 285.121431 -167.935212 
L 285.722963 -167.043926 
L 286.271104 -166.152641 
L 286.760579 -165.261355 
L 287.186573 -164.37007 
L 287.544841 -163.478784 
L 287.831806 -162.587499 
L 288.044655 -161.696213 
L 288.181421 -160.804928 
L 288.241053 -159.913642 
L 288.223464 -159.022357 
L 288.129558 -158.131071 
L 287.961237 -157.239786 
L 287.721377 -156.3485 
L 287.413788 -155.457214 
L 287.043141 -154.565929 
L 286.614878 -153.674643 
L 286.135106 -152.783358 
L 285.610461 -151.892072 
L 285.047974 -151.000787 
L 284.454921 -150.109501 
L 283.83867 -149.218216 
L 283.206528 -148.32693 
L 282.565594 -147.435645 
L 281.92262 -146.544359 
L 281.283881 -145.653074 
L 280.655063 -144.761788 
L 280.041166 -143.870503 
L 279.446424 -142.979217 
L 278.874251 -142.087932 
L 278.327199 -141.196646 
L 277.806948 -140.305361 
L 277.314309 -139.414075 
L 276.84926 -138.52279 
L 276.410989 -137.631504 
L 275.997977 -136.740219 
L 275.608083 -135.848933 
L 275.23866 -134.957648 
L 274.886678 -134.066362 
L 274.548858 -133.175077 
L 274.221818 -132.283791 
L 273.902216 -131.392506 
L 273.586887 -130.50122 
L 273.27297 -129.609935 
L 272.958029 -128.718649 
L 272.640136 -127.827364 
L 272.317944 -126.936078 
L 271.990727 -126.044793 
L 271.658385 -125.153507 
L 271.321432 -124.262222 
L 270.980946 -123.370936 
L 270.6385 -122.479651 
L 270.296069 -121.588365 
L 269.95593 -120.697079 
L 269.620547 -119.805794 
L 269.292454 -118.914508 
L 268.974148 -118.023223 
L 268.667982 -117.131937 
L 268.376081 -116.240652 
L 268.100269 -115.349366 
L 267.842017 -114.458081 
L 267.602411 -113.566795 
L 267.382139 -112.67551 
L 267.181497 -111.784224 
L 267.000411 -110.892939 
L 266.838472 -110.001653 
L 266.694977 -109.110368 
L 266.568982 -108.219082 
z
" id="mb46a74d048" style="stroke:#595959;stroke-width:1.5;"/>
    </defs>
    <g clip-path="url(#p8c0b5da264)">
     <use style="fill:#db96c0;stroke:#595959;stroke-width:1.5;" x="0" xlink:href="#mb46a74d048" y="345.6"/>
    </g>
   </g>
   <g id="PolyCollection_5">
    <defs>
     <path d="M 326.119793 -120.53785 
L 324.760207 -120.53785 
L 324.618007 -121.764709 
L 324.452883 -122.991569 
L 324.262642 -124.218429 
L 324.04517 -125.445289 
L 323.798493 -126.672149 
L 323.520842 -127.899009 
L 323.21071 -129.125869 
L 322.866916 -130.352729 
L 322.488662 -131.579589 
L 322.075577 -132.806449 
L 321.627759 -134.033309 
L 321.145804 -135.260169 
L 320.630822 -136.487029 
L 320.084439 -137.713889 
L 319.508796 -138.940748 
L 318.906527 -140.167608 
L 318.280736 -141.394468 
L 317.634963 -142.621328 
L 316.973147 -143.848188 
L 316.299593 -145.075048 
L 315.618925 -146.301908 
L 314.936058 -147.528768 
L 314.256156 -148.755628 
L 313.584605 -149.982488 
L 312.926971 -151.209348 
L 312.288971 -152.436208 
L 311.676426 -153.663068 
L 311.095216 -154.889928 
L 310.551213 -156.116787 
L 310.050213 -157.343647 
L 309.597841 -158.570507 
L 309.199445 -159.797367 
L 308.859985 -161.024227 
L 308.583895 -162.251087 
L 308.374957 -163.477947 
L 308.236163 -164.704807 
L 308.169592 -165.931667 
L 308.176303 -167.158527 
L 308.256252 -168.385387 
L 308.408234 -169.612247 
L 308.629871 -170.839107 
L 308.917632 -172.065967 
L 309.266898 -173.292826 
L 309.672064 -174.519686 
L 310.126676 -175.746546 
L 310.6236 -176.973406 
L 311.155211 -178.200266 
L 311.713598 -179.427126 
L 312.290764 -180.653986 
L 312.878828 -181.880846 
L 313.470211 -183.107706 
L 314.057801 -184.334566 
L 314.635083 -185.561426 
L 315.196259 -186.788286 
L 315.736315 -188.015146 
L 316.251075 -189.242006 
L 316.73722 -190.468865 
L 317.192288 -191.695725 
L 317.614649 -192.922585 
L 318.00347 -194.149445 
L 318.358664 -195.376305 
L 318.680837 -196.603165 
L 318.971224 -197.830025 
L 319.23162 -199.056885 
L 319.464316 -200.283745 
L 319.67202 -201.510605 
L 319.857781 -202.737465 
L 320.024911 -203.964325 
L 320.176892 -205.191185 
L 320.317292 -206.418045 
L 320.449666 -207.644904 
L 320.577464 -208.871764 
L 320.703935 -210.098624 
L 320.83204 -211.325484 
L 320.964365 -212.552344 
L 321.103056 -213.779204 
L 321.249765 -215.006064 
L 321.405607 -216.232924 
L 321.571148 -217.459784 
L 321.746412 -218.686644 
L 321.930901 -219.913504 
L 322.123644 -221.140364 
L 322.323261 -222.367224 
L 322.528036 -223.594084 
L 322.736008 -224.820943 
L 322.945058 -226.047803 
L 323.153005 -227.274663 
L 323.357692 -228.501523 
L 323.557068 -229.728383 
L 323.749256 -230.955243 
L 323.932609 -232.182103 
L 324.105751 -233.408963 
L 324.267606 -234.635823 
L 324.417401 -235.862683 
L 324.554671 -237.089543 
L 324.679239 -238.316403 
L 324.791193 -239.543263 
L 324.890851 -240.770123 
L 324.978729 -241.996982 
L 325.901271 -241.996982 
L 325.901271 -241.996982 
L 325.989149 -240.770123 
L 326.088807 -239.543263 
L 326.200761 -238.316403 
L 326.325329 -237.089543 
L 326.462599 -235.862683 
L 326.612394 -234.635823 
L 326.774249 -233.408963 
L 326.947391 -232.182103 
L 327.130744 -230.955243 
L 327.322932 -229.728383 
L 327.522308 -228.501523 
L 327.726995 -227.274663 
L 327.934942 -226.047803 
L 328.143992 -224.820943 
L 328.351964 -223.594084 
L 328.556739 -222.367224 
L 328.756356 -221.140364 
L 328.949099 -219.913504 
L 329.133588 -218.686644 
L 329.308852 -217.459784 
L 329.474393 -216.232924 
L 329.630235 -215.006064 
L 329.776944 -213.779204 
L 329.915635 -212.552344 
L 330.04796 -211.325484 
L 330.176065 -210.098624 
L 330.302536 -208.871764 
L 330.430334 -207.644904 
L 330.562708 -206.418045 
L 330.703108 -205.191185 
L 330.855089 -203.964325 
L 331.022219 -202.737465 
L 331.20798 -201.510605 
L 331.415684 -200.283745 
L 331.64838 -199.056885 
L 331.908776 -197.830025 
L 332.199163 -196.603165 
L 332.521336 -195.376305 
L 332.87653 -194.149445 
L 333.265351 -192.922585 
L 333.687712 -191.695725 
L 334.14278 -190.468865 
L 334.628925 -189.242006 
L 335.143685 -188.015146 
L 335.683741 -186.788286 
L 336.244917 -185.561426 
L 336.822199 -184.334566 
L 337.409789 -183.107706 
L 338.001172 -181.880846 
L 338.589236 -180.653986 
L 339.166402 -179.427126 
L 339.724789 -178.200266 
L 340.2564 -176.973406 
L 340.753324 -175.746546 
L 341.207936 -174.519686 
L 341.613102 -173.292826 
L 341.962368 -172.065967 
L 342.250129 -170.839107 
L 342.471766 -169.612247 
L 342.623748 -168.385387 
L 342.703697 -167.158527 
L 342.710408 -165.931667 
L 342.643837 -164.704807 
L 342.505043 -163.477947 
L 342.296105 -162.251087 
L 342.020015 -161.024227 
L 341.680555 -159.797367 
L 341.282159 -158.570507 
L 340.829787 -157.343647 
L 340.328787 -156.116787 
L 339.784784 -154.889928 
L 339.203574 -153.663068 
L 338.591029 -152.436208 
L 337.953029 -151.209348 
L 337.295395 -149.982488 
L 336.623844 -148.755628 
L 335.943942 -147.528768 
L 335.261075 -146.301908 
L 334.580407 -145.075048 
L 333.906853 -143.848188 
L 333.245037 -142.621328 
L 332.599264 -141.394468 
L 331.973473 -140.167608 
L 331.371204 -138.940748 
L 330.795561 -137.713889 
L 330.249178 -136.487029 
L 329.734196 -135.260169 
L 329.252241 -134.033309 
L 328.804423 -132.806449 
L 328.391338 -131.579589 
L 328.013084 -130.352729 
L 327.66929 -129.125869 
L 327.359158 -127.899009 
L 327.081507 -126.672149 
L 326.83483 -125.445289 
L 326.617358 -124.218429 
L 326.427117 -122.991569 
L 326.261993 -121.764709 
L 326.119793 -120.53785 
z
" id="m60b3e64e9e" style="stroke:#595959;stroke-width:1.5;"/>
    </defs>
    <g clip-path="url(#p1cecd36d81)">
     <use style="fill:#a2c865;stroke:#595959;stroke-width:1.5;" x="0" xlink:href="#m60b3e64e9e" y="345.6"/>
    </g>
   </g>
   <g id="PolyCollection_6">
    <defs>
     <path d="M 385.672089 -131.757006 
L 384.247911 -131.757006 
L 384.116028 -132.547216 
L 383.9659 -133.337426 
L 383.79621 -134.127637 
L 383.60575 -134.917847 
L 383.393454 -135.708057 
L 383.158429 -136.498268 
L 382.89998 -137.288478 
L 382.617631 -138.078688 
L 382.311141 -138.868899 
L 381.980509 -139.659109 
L 381.625976 -140.449319 
L 381.248007 -141.239529 
L 380.847282 -142.02974 
L 380.424666 -142.81995 
L 379.98118 -143.61016 
L 379.51797 -144.400371 
L 379.036271 -145.190581 
L 378.53738 -145.980791 
L 378.022629 -146.771002 
L 377.493365 -147.561212 
L 376.950946 -148.351422 
L 376.396739 -149.141633 
L 375.832135 -149.931843 
L 375.258577 -150.722053 
L 374.677587 -151.512263 
L 374.090816 -152.302474 
L 373.500078 -153.092684 
L 372.907403 -153.882894 
L 372.31507 -154.673105 
L 371.725638 -155.463315 
L 371.14196 -156.253525 
L 370.567184 -157.043736 
L 370.004724 -157.833946 
L 369.45822 -158.624156 
L 368.931467 -159.414367 
L 368.428326 -160.204577 
L 367.952616 -160.994787 
L 367.507992 -161.784997 
L 367.097813 -162.575208 
L 366.725008 -163.365418 
L 366.391949 -164.155628 
L 366.100334 -164.945839 
L 365.851085 -165.736049 
L 365.644286 -166.526259 
L 365.479135 -167.31647 
L 365.353947 -168.10668 
L 365.266188 -168.89689 
L 365.21255 -169.687101 
L 365.189066 -170.477311 
L 365.191259 -171.267521 
L 365.214321 -172.057731 
L 365.253315 -172.847942 
L 365.303396 -173.638152 
L 365.360026 -174.428362 
L 365.419198 -175.218573 
L 365.477635 -176.008783 
L 365.532966 -176.798993 
L 365.58387 -177.589204 
L 365.63017 -178.379414 
L 365.672885 -179.169624 
L 365.714229 -179.959835 
L 365.757546 -180.750045 
L 365.807203 -181.540255 
L 365.868424 -182.330465 
L 365.947084 -183.120676 
L 366.049468 -183.910886 
L 366.182005 -184.701096 
L 366.350984 -185.491307 
L 366.562276 -186.281517 
L 366.821069 -187.071727 
L 367.13162 -187.861938 
L 367.49705 -188.652148 
L 367.919186 -189.442358 
L 368.398447 -190.232569 
L 368.933797 -191.022779 
L 369.522748 -191.812989 
L 370.161428 -192.603199 
L 370.844696 -193.39341 
L 371.566309 -194.18362 
L 372.31912 -194.97383 
L 373.095312 -195.764041 
L 373.886642 -196.554251 
L 374.684697 -197.344461 
L 375.481135 -198.134672 
L 376.267924 -198.924882 
L 377.037542 -199.715092 
L 377.783157 -200.505303 
L 378.498768 -201.295513 
L 379.179302 -202.085723 
L 379.82068 -202.875933 
L 380.419839 -203.666144 
L 380.974716 -204.456354 
L 381.484208 -205.246564 
L 381.948102 -206.036775 
L 382.366979 -206.826985 
L 382.742112 -207.617195 
L 383.07535 -208.407406 
L 383.369001 -209.197616 
L 383.625714 -209.987826 
L 386.294286 -209.987826 
L 386.294286 -209.987826 
L 386.550999 -209.197616 
L 386.84465 -208.407406 
L 387.177888 -207.617195 
L 387.553021 -206.826985 
L 387.971898 -206.036775 
L 388.435792 -205.246564 
L 388.945284 -204.456354 
L 389.500161 -203.666144 
L 390.09932 -202.875933 
L 390.740698 -202.085723 
L 391.421232 -201.295513 
L 392.136843 -200.505303 
L 392.882458 -199.715092 
L 393.652076 -198.924882 
L 394.438865 -198.134672 
L 395.235303 -197.344461 
L 396.033358 -196.554251 
L 396.824688 -195.764041 
L 397.60088 -194.97383 
L 398.353691 -194.18362 
L 399.075304 -193.39341 
L 399.758572 -192.603199 
L 400.397252 -191.812989 
L 400.986203 -191.022779 
L 401.521553 -190.232569 
L 402.000814 -189.442358 
L 402.42295 -188.652148 
L 402.78838 -187.861938 
L 403.098931 -187.071727 
L 403.357724 -186.281517 
L 403.569016 -185.491307 
L 403.737995 -184.701096 
L 403.870532 -183.910886 
L 403.972916 -183.120676 
L 404.051576 -182.330465 
L 404.112797 -181.540255 
L 404.162454 -180.750045 
L 404.205771 -179.959835 
L 404.247115 -179.169624 
L 404.28983 -178.379414 
L 404.33613 -177.589204 
L 404.387034 -176.798993 
L 404.442365 -176.008783 
L 404.500802 -175.218573 
L 404.559974 -174.428362 
L 404.616604 -173.638152 
L 404.666685 -172.847942 
L 404.705679 -172.057731 
L 404.728741 -171.267521 
L 404.730934 -170.477311 
L 404.70745 -169.687101 
L 404.653812 -168.89689 
L 404.566053 -168.10668 
L 404.440865 -167.31647 
L 404.275714 -166.526259 
L 404.068915 -165.736049 
L 403.819666 -164.945839 
L 403.528051 -164.155628 
L 403.194992 -163.365418 
L 402.822187 -162.575208 
L 402.412008 -161.784997 
L 401.967384 -160.994787 
L 401.491674 -160.204577 
L 400.988533 -159.414367 
L 400.46178 -158.624156 
L 399.915276 -157.833946 
L 399.352816 -157.043736 
L 398.77804 -156.253525 
L 398.194362 -155.463315 
L 397.60493 -154.673105 
L 397.012597 -153.882894 
L 396.419922 -153.092684 
L 395.829184 -152.302474 
L 395.242413 -151.512263 
L 394.661423 -150.722053 
L 394.087865 -149.931843 
L 393.523261 -149.141633 
L 392.969054 -148.351422 
L 392.426635 -147.561212 
L 391.897371 -146.771002 
L 391.38262 -145.980791 
L 390.883729 -145.190581 
L 390.40203 -144.400371 
L 389.93882 -143.61016 
L 389.495334 -142.81995 
L 389.072718 -142.02974 
L 388.671993 -141.239529 
L 388.294024 -140.449319 
L 387.939491 -139.659109 
L 387.608859 -138.868899 
L 387.302369 -138.078688 
L 387.02002 -137.288478 
L 386.761571 -136.498268 
L 386.526546 -135.708057 
L 386.31425 -134.917847 
L 386.12379 -134.127637 
L 385.9541 -133.337426 
L 385.803972 -132.547216 
L 385.672089 -131.757006 
z
" id="mdcba3f942a" style="stroke:#595959;stroke-width:1.5;"/>
    </defs>
    <g clip-path="url(#pd64faa1de1)">
     <use style="fill:#e5c849;stroke:#595959;stroke-width:1.5;" x="0" xlink:href="#mdcba3f942a" y="345.6"/>
    </g>
   </g>
   <g id="line2d_1">
    <path clip-path="url(#p3518b3ace3)" d="M 87.36 183.871858 
L 87.36 189.856051 
" style="fill:none;stroke:#3d3d3d;stroke-linecap:round;stroke-width:1.5;"/>
   </g>
   <g id="line2d_2">
    <path clip-path="url(#p3518b3ace3)" d="M 87.36 164.901398 
L 87.36 159.306394 
" style="fill:none;stroke:#3d3d3d;stroke-linecap:round;stroke-width:1.5;"/>
   </g>
   <g id="line2d_3">
    <path clip-path="url(#p3518b3ace3)" d="M 82.896 189.856051 
L 91.824 189.856051 
" style="fill:none;stroke:#3d3d3d;stroke-linecap:round;stroke-width:1.5;"/>
   </g>
   <g id="line2d_4">
    <path clip-path="url(#p3518b3ace3)" d="M 82.896 159.306394 
L 91.824 159.306394 
" style="fill:none;stroke:#3d3d3d;stroke-linecap:round;stroke-width:1.5;"/>
   </g>
   <g id="line2d_5">
    <path clip-path="url(#p3518b3ace3)" d="M 146.88 185.059382 
L 146.88 195.750432 
" style="fill:none;stroke:#3d3d3d;stroke-linecap:round;stroke-width:1.5;"/>
   </g>
   <g id="line2d_6">
    <path clip-path="url(#p3518b3ace3)" d="M 146.88 158.014087 
L 146.88 153.205776 
" style="fill:none;stroke:#3d3d3d;stroke-linecap:round;stroke-width:1.5;"/>
   </g>
   <g id="line2d_7">
    <path clip-path="url(#p3518b3ace3)" d="M 142.416 195.750432 
L 151.344 195.750432 
" style="fill:none;stroke:#3d3d3d;stroke-linecap:round;stroke-width:1.5;"/>
   </g>
   <g id="line2d_8">
    <path clip-path="url(#p3518b3ace3)" d="M 142.416 153.205776 
L 151.344 153.205776 
" style="fill:none;stroke:#3d3d3d;stroke-linecap:round;stroke-width:1.5;"/>
   </g>
   <g id="line2d_9">
    <path clip-path="url(#p3518b3ace3)" d="M 206.4 180.247745 
L 206.4 185.29223 
" style="fill:none;stroke:#3d3d3d;stroke-linecap:round;stroke-width:1.5;"/>
   </g>
   <g id="line2d_10">
    <path clip-path="url(#p3518b3ace3)" d="M 206.4 169.613244 
L 206.4 168.959606 
" style="fill:none;stroke:#3d3d3d;stroke-linecap:round;stroke-width:1.5;"/>
   </g>
   <g id="line2d_11">
    <path clip-path="url(#p3518b3ace3)" d="M 201.936 185.29223 
L 210.864 185.29223 
" style="fill:none;stroke:#3d3d3d;stroke-linecap:round;stroke-width:1.5;"/>
   </g>
   <g id="line2d_12">
    <path clip-path="url(#p3518b3ace3)" d="M 201.936 168.959606 
L 210.864 168.959606 
" style="fill:none;stroke:#3d3d3d;stroke-linecap:round;stroke-width:1.5;"/>
   </g>
   <g id="line2d_13">
    <path clip-path="url(#p3518b3ace3)" d="M 265.92 196.156253 
L 265.92 217.398643 
" style="fill:none;stroke:#3d3d3d;stroke-linecap:round;stroke-width:1.5;"/>
   </g>
   <g id="line2d_14">
    <path clip-path="url(#p3518b3ace3)" d="M 265.92 180.06313 
L 265.92 169.125926 
" style="fill:none;stroke:#3d3d3d;stroke-linecap:round;stroke-width:1.5;"/>
   </g>
   <g id="line2d_15">
    <path clip-path="url(#p3518b3ace3)" d="M 261.456 217.398643 
L 270.384 217.398643 
" style="fill:none;stroke:#3d3d3d;stroke-linecap:round;stroke-width:1.5;"/>
   </g>
   <g id="line2d_16">
    <path clip-path="url(#p3518b3ace3)" d="M 261.456 169.125926 
L 270.384 169.125926 
" style="fill:none;stroke:#3d3d3d;stroke-linecap:round;stroke-width:1.5;"/>
   </g>
   <g id="line2d_17">
    <path clip-path="url(#p3518b3ace3)" d="M 325.44 183.840257 
L 325.44 197.333798 
" style="fill:none;stroke:#3d3d3d;stroke-linecap:round;stroke-width:1.5;"/>
   </g>
   <g id="line2d_18">
    <path clip-path="url(#p3518b3ace3)" d="M 325.44 168.389129 
L 325.44 154.78249 
" style="fill:none;stroke:#3d3d3d;stroke-linecap:round;stroke-width:1.5;"/>
   </g>
   <g id="line2d_19">
    <path clip-path="url(#p3518b3ace3)" d="M 320.976 197.333798 
L 329.904 197.333798 
" style="fill:none;stroke:#3d3d3d;stroke-linecap:round;stroke-width:1.5;"/>
   </g>
   <g id="line2d_20">
    <path clip-path="url(#p3518b3ace3)" d="M 320.976 154.78249 
L 329.904 154.78249 
" style="fill:none;stroke:#3d3d3d;stroke-linecap:round;stroke-width:1.5;"/>
   </g>
   <g id="line2d_21">
    <path clip-path="url(#p3518b3ace3)" d="M 384.96 180.781632 
L 384.96 194.86561 
" style="fill:none;stroke:#3d3d3d;stroke-linecap:round;stroke-width:1.5;"/>
   </g>
   <g id="line2d_22">
    <path clip-path="url(#p3518b3ace3)" d="M 384.96 158.799118 
L 384.96 154.589558 
" style="fill:none;stroke:#3d3d3d;stroke-linecap:round;stroke-width:1.5;"/>
   </g>
   <g id="line2d_23">
    <path clip-path="url(#p3518b3ace3)" d="M 380.496 194.86561 
L 389.424 194.86561 
" style="fill:none;stroke:#3d3d3d;stroke-linecap:round;stroke-width:1.5;"/>
   </g>
   <g id="line2d_24">
    <path clip-path="url(#p3518b3ace3)" d="M 380.496 154.589558 
L 389.424 154.589558 
" style="fill:none;stroke:#3d3d3d;stroke-linecap:round;stroke-width:1.5;"/>
   </g>
   <g id="line2d_25">
    <path clip-path="url(#p3518b3ace3)" d="M 78.432 175.299725 
L 96.288 175.299725 
" style="fill:none;stroke:#3d3d3d;stroke-linecap:round;stroke-width:1.5;"/>
   </g>
   <g id="line2d_26">
    <path clip-path="url(#p3518b3ace3)" d="M 137.952 171.15503 
L 155.808 171.15503 
" style="fill:none;stroke:#3d3d3d;stroke-linecap:round;stroke-width:1.5;"/>
   </g>
   <g id="line2d_27">
    <path clip-path="url(#p3518b3ace3)" d="M 197.472 174.275194 
L 215.328 174.275194 
" style="fill:none;stroke:#3d3d3d;stroke-linecap:round;stroke-width:1.5;"/>
   </g>
   <g id="line2d_28">
    <path clip-path="url(#p3518b3ace3)" d="M 256.992 188.319254 
L 274.848 188.319254 
" style="fill:none;stroke:#3d3d3d;stroke-linecap:round;stroke-width:1.5;"/>
   </g>
   <g id="line2d_29">
    <path clip-path="url(#p3518b3ace3)" d="M 316.512 175.372906 
L 334.368 175.372906 
" style="fill:none;stroke:#3d3d3d;stroke-linecap:round;stroke-width:1.5;"/>
   </g>
   <g id="line2d_30">
    <path clip-path="url(#p3518b3ace3)" d="M 376.032 172.918022 
L 393.888 172.918022 
" style="fill:none;stroke:#3d3d3d;stroke-linecap:round;stroke-width:1.5;"/>
   </g>
   <g id="patch_3">
    <path d="M 57.6 307.584 
L 57.6 41.472 
" style="fill:none;stroke:#262626;stroke-linecap:square;stroke-linejoin:miter;stroke-width:0.8;"/>
   </g>
   <g id="patch_4">
    <path d="M 414.72 307.584 
L 414.72 41.472 
" style="fill:none;stroke:#262626;stroke-linecap:square;stroke-linejoin:miter;stroke-width:0.8;"/>
   </g>
   <g id="patch_5">
    <path d="M 57.6 307.584 
L 414.72 307.584 
" style="fill:none;stroke:#262626;stroke-linecap:square;stroke-linejoin:miter;stroke-width:0.8;"/>
   </g>
   <g id="patch_6">
    <path d="M 57.6 41.472 
L 414.72 41.472 
" style="fill:none;stroke:#262626;stroke-linecap:square;stroke-linejoin:miter;stroke-width:0.8;"/>
   </g>
   <g id="PathCollection_1">
    <defs>
     <path d="M 0 2.5 
C 0.663008 2.5 1.29895 2.236584 1.767767 1.767767 
C 2.236584 1.29895 2.5 0.663008 2.5 -0 
C 2.5 -0.663008 2.236584 -1.29895 1.767767 -1.767767 
C 1.29895 -2.236584 0.663008 -2.5 0 -2.5 
C -0.663008 -2.5 -1.29895 -2.236584 -1.767767 -1.767767 
C -2.236584 -1.29895 -2.5 -0.663008 -2.5 0 
C -2.5 0.663008 -2.236584 1.29895 -1.767767 1.767767 
C -1.29895 2.236584 -0.663008 2.5 0 2.5 
z
" id="C0_0_f9619f22c1"/>
    </defs>
    <g clip-path="url(#p3518b3ace3)">
     <use style="fill:#66c2a5;stroke:#000000;stroke-width:0.5;" x="91.300576" xlink:href="#C0_0_f9619f22c1" y="163.564186"/>
    </g>
    <g clip-path="url(#p3518b3ace3)">
     <use style="fill:#66c2a5;stroke:#000000;stroke-width:0.5;" x="97.640319" xlink:href="#C0_0_f9619f22c1" y="186.057302"/>
    </g>
    <g clip-path="url(#p3518b3ace3)">
     <use style="fill:#66c2a5;stroke:#000000;stroke-width:0.5;" x="94.434122" xlink:href="#C0_0_f9619f22c1" y="189.856051"/>
    </g>
    <g clip-path="url(#p3518b3ace3)">
     <use style="fill:#66c2a5;stroke:#000000;stroke-width:0.5;" x="98.837114" xlink:href="#C0_0_f9619f22c1" y="159.306394"/>
    </g>
    <g clip-path="url(#p3518b3ace3)">
     <use style="fill:#66c2a5;stroke:#000000;stroke-width:0.5;" x="90.617471" xlink:href="#C0_0_f9619f22c1" y="181.120925"/>
    </g>
    <g clip-path="url(#p3518b3ace3)">
     <use style="fill:#66c2a5;stroke:#000000;stroke-width:0.5;" x="91.007549" xlink:href="#C0_0_f9619f22c1" y="183.143376"/>
    </g>
    <g clip-path="url(#p3518b3ace3)">
     <use style="fill:#66c2a5;stroke:#000000;stroke-width:0.5;" x="94.450778" xlink:href="#C0_0_f9619f22c1" y="165.347136"/>
    </g>
    <g clip-path="url(#p3518b3ace3)">
     <use style="fill:#66c2a5;stroke:#000000;stroke-width:0.5;" x="93.704321" xlink:href="#C0_0_f9619f22c1" y="169.478525"/>
    </g>
   </g>
   <g id="PathCollection_2">
    <defs>
     <path d="M 0 2.5 
C 0.663008 2.5 1.29895 2.236584 1.767767 1.767767 
C 2.236584 1.29895 2.5 0.663008 2.5 -0 
C 2.5 -0.663008 2.236584 -1.29895 1.767767 -1.767767 
C 1.29895 -2.236584 0.663008 -2.5 0 -2.5 
C -0.663008 -2.5 -1.29895 -2.236584 -1.767767 -1.767767 
C -2.236584 -1.29895 -2.5 -0.663008 -2.5 0 
C -2.5 0.663008 -2.236584 1.29895 -1.767767 1.767767 
C -1.29895 2.236584 -0.663008 2.5 0 2.5 
z
" id="C1_0_baf88c8d95"/>
    </defs>
    <g clip-path="url(#p3518b3ace3)">
     <use style="fill:#fc8d62;stroke:#000000;stroke-width:0.5;" x="154.506079" xlink:href="#C1_0_baf88c8d95" y="156.312634"/>
    </g>
    <g clip-path="url(#p3518b3ace3)">
     <use style="fill:#fc8d62;stroke:#000000;stroke-width:0.5;" x="149.078846" xlink:href="#C1_0_baf88c8d95" y="182.617805"/>
    </g>
    <g clip-path="url(#p3518b3ace3)">
     <use style="fill:#fc8d62;stroke:#000000;stroke-width:0.5;" x="152.7128" xlink:href="#C1_0_baf88c8d95" y="188.053142"/>
    </g>
    <g clip-path="url(#p3518b3ace3)">
     <use style="fill:#fc8d62;stroke:#000000;stroke-width:0.5;" x="149.334702" xlink:href="#C1_0_baf88c8d95" y="153.205776"/>
    </g>
    <g clip-path="url(#p3518b3ace3)">
     <use style="fill:#fc8d62;stroke:#000000;stroke-width:0.5;" x="156.343559" xlink:href="#C1_0_baf88c8d95" y="184.061462"/>
    </g>
    <g clip-path="url(#p3518b3ace3)">
     <use style="fill:#fc8d62;stroke:#000000;stroke-width:0.5;" x="148.552215" xlink:href="#C1_0_baf88c8d95" y="195.750432"/>
    </g>
    <g clip-path="url(#p3518b3ace3)">
     <use style="fill:#fc8d62;stroke:#000000;stroke-width:0.5;" x="149.180003" xlink:href="#C1_0_baf88c8d95" y="159.692256"/>
    </g>
    <g clip-path="url(#p3518b3ace3)">
     <use style="fill:#fc8d62;stroke:#000000;stroke-width:0.5;" x="153.185716" xlink:href="#C1_0_baf88c8d95" y="158.581238"/>
    </g>
   </g>
   <g id="PathCollection_3">
    <defs>
     <path d="M 0 2.5 
C 0.663008 2.5 1.29895 2.236584 1.767767 1.767767 
C 2.236584 1.29895 2.5 0.663008 2.5 -0 
C 2.5 -0.663008 2.236584 -1.29895 1.767767 -1.767767 
C 1.29895 -2.236584 0.663008 -2.5 0 -2.5 
C -0.663008 -2.5 -1.29895 -2.236584 -1.767767 -1.767767 
C -2.236584 -1.29895 -2.5 -0.663008 -2.5 0 
C -2.5 0.663008 -2.236584 1.29895 -1.767767 1.767767 
C -1.29895 2.236584 -0.663008 2.5 0 2.5 
z
" id="C2_0_f412bc6952"/>
    </defs>
    <g clip-path="url(#p3518b3ace3)">
     <use style="fill:#8da0cb;stroke:#000000;stroke-width:0.5;" x="214.404273" xlink:href="#C2_0_f412bc6952" y="172.099728"/>
    </g>
    <g clip-path="url(#p3518b3ace3)">
     <use style="fill:#8da0cb;stroke:#000000;stroke-width:0.5;" x="207.763818" xlink:href="#C2_0_f412bc6952" y="198.152093"/>
    </g>
    <g clip-path="url(#p3518b3ace3)">
     <use style="fill:#8da0cb;stroke:#000000;stroke-width:0.5;" x="218.305576" xlink:href="#C2_0_f412bc6952" y="185.29223"/>
    </g>
    <g clip-path="url(#p3518b3ace3)">
     <use style="fill:#8da0cb;stroke:#000000;stroke-width:0.5;" x="219.259269" xlink:href="#C2_0_f412bc6952" y="140.259427"/>
    </g>
    <g clip-path="url(#p3518b3ace3)">
     <use style="fill:#8da0cb;stroke:#000000;stroke-width:0.5;" x="218.945441" xlink:href="#C2_0_f412bc6952" y="178.56625"/>
    </g>
    <g clip-path="url(#p3518b3ace3)">
     <use style="fill:#8da0cb;stroke:#000000;stroke-width:0.5;" x="211.271853" xlink:href="#C2_0_f412bc6952" y="176.450659"/>
    </g>
    <g clip-path="url(#p3518b3ace3)">
     <use style="fill:#8da0cb;stroke:#000000;stroke-width:0.5;" x="214.641527" xlink:href="#C2_0_f412bc6952" y="168.959606"/>
    </g>
    <g clip-path="url(#p3518b3ace3)">
     <use style="fill:#8da0cb;stroke:#000000;stroke-width:0.5;" x="215.695716" xlink:href="#C2_0_f412bc6952" y="169.831123"/>
    </g>
   </g>
   <g id="PathCollection_4">
    <defs>
     <path d="M 0 2.5 
C 0.663008 2.5 1.29895 2.236584 1.767767 1.767767 
C 2.236584 1.29895 2.5 0.663008 2.5 -0 
C 2.5 -0.663008 2.236584 -1.29895 1.767767 -1.767767 
C 1.29895 -2.236584 0.663008 -2.5 0 -2.5 
C -0.663008 -2.5 -1.29895 -2.236584 -1.767767 -1.767767 
C -2.236584 -1.29895 -2.5 -0.663008 -2.5 0 
C -2.5 0.663008 -2.236584 1.29895 -1.767767 1.767767 
C -1.29895 2.236584 -0.663008 2.5 0 2.5 
z
" id="C3_0_644d4e90b4"/>
    </defs>
    <g clip-path="url(#p3518b3ace3)">
     <use style="fill:#e78ac3;stroke:#000000;stroke-width:0.5;" x="269.113467" xlink:href="#C3_0_644d4e90b4" y="186.775805"/>
    </g>
    <g clip-path="url(#p3518b3ace3)">
     <use style="fill:#e78ac3;stroke:#000000;stroke-width:0.5;" x="271.984356" xlink:href="#C3_0_644d4e90b4" y="217.398643"/>
    </g>
    <g clip-path="url(#p3518b3ace3)">
     <use style="fill:#e78ac3;stroke:#000000;stroke-width:0.5;" x="273.074203" xlink:href="#C3_0_644d4e90b4" y="203.241485"/>
    </g>
    <g clip-path="url(#p3518b3ace3)">
     <use style="fill:#e78ac3;stroke:#000000;stroke-width:0.5;" x="276.220461" xlink:href="#C3_0_644d4e90b4" y="169.125926"/>
    </g>
    <g clip-path="url(#p3518b3ace3)">
     <use style="fill:#e78ac3;stroke:#000000;stroke-width:0.5;" x="274.642673" xlink:href="#C3_0_644d4e90b4" y="178.626125"/>
    </g>
    <g clip-path="url(#p3518b3ace3)">
     <use style="fill:#e78ac3;stroke:#000000;stroke-width:0.5;" x="275.342778" xlink:href="#C3_0_644d4e90b4" y="193.794509"/>
    </g>
    <g clip-path="url(#p3518b3ace3)">
     <use style="fill:#e78ac3;stroke:#000000;stroke-width:0.5;" x="277.215918" xlink:href="#C3_0_644d4e90b4" y="180.542131"/>
    </g>
    <g clip-path="url(#p3518b3ace3)">
     <use style="fill:#e78ac3;stroke:#000000;stroke-width:0.5;" x="269.375445" xlink:href="#C3_0_644d4e90b4" y="189.862704"/>
    </g>
   </g>
   <g id="PathCollection_5">
    <defs>
     <path d="M 0 2.5 
C 0.663008 2.5 1.29895 2.236584 1.767767 1.767767 
C 2.236584 1.29895 2.5 0.663008 2.5 -0 
C 2.5 -0.663008 2.236584 -1.29895 1.767767 -1.767767 
C 1.29895 -2.236584 0.663008 -2.5 0 -2.5 
C -0.663008 -2.5 -1.29895 -2.236584 -1.767767 -1.767767 
C -2.236584 -1.29895 -2.5 -0.663008 -2.5 0 
C -2.5 0.663008 -2.236584 1.29895 -1.767767 1.767767 
C -1.29895 2.236584 -0.663008 2.5 0 2.5 
z
" id="C4_0_3c3514decf"/>
    </defs>
    <g clip-path="url(#p3518b3ace3)">
     <use style="fill:#a6d854;stroke:#000000;stroke-width:0.5;" x="332.887676" xlink:href="#C4_0_3c3514decf" y="154.78249"/>
    </g>
    <g clip-path="url(#p3518b3ace3)">
     <use style="fill:#a6d854;stroke:#000000;stroke-width:0.5;" x="335.457493" xlink:href="#C4_0_3c3514decf" y="181.247328"/>
    </g>
    <g clip-path="url(#p3518b3ace3)">
     <use style="fill:#a6d854;stroke:#000000;stroke-width:0.5;" x="330.663433" xlink:href="#C4_0_3c3514decf" y="177.23569"/>
    </g>
    <g clip-path="url(#p3518b3ace3)">
     <use style="fill:#a6d854;stroke:#000000;stroke-width:0.5;" x="327.086745" xlink:href="#C4_0_3c3514decf" y="131.33137"/>
    </g>
    <g clip-path="url(#p3518b3ace3)">
     <use style="fill:#a6d854;stroke:#000000;stroke-width:0.5;" x="338.37672" xlink:href="#C4_0_3c3514decf" y="197.333798"/>
    </g>
    <g clip-path="url(#p3518b3ace3)">
     <use style="fill:#a6d854;stroke:#000000;stroke-width:0.5;" x="337.524618" xlink:href="#C4_0_3c3514decf" y="191.619043"/>
    </g>
    <g clip-path="url(#p3518b3ace3)">
     <use style="fill:#a6d854;stroke:#000000;stroke-width:0.5;" x="337.34037" xlink:href="#C4_0_3c3514decf" y="172.924675"/>
    </g>
    <g clip-path="url(#p3518b3ace3)">
     <use style="fill:#a6d854;stroke:#000000;stroke-width:0.5;" x="335.860374" xlink:href="#C4_0_3c3514decf" y="173.510122"/>
    </g>
   </g>
   <g id="PathCollection_6">
    <defs>
     <path d="M 0 2.5 
C 0.663008 2.5 1.29895 2.236584 1.767767 1.767767 
C 2.236584 1.29895 2.5 0.663008 2.5 -0 
C 2.5 -0.663008 2.236584 -1.29895 1.767767 -1.767767 
C 1.29895 -2.236584 0.663008 -2.5 0 -2.5 
C -0.663008 -2.5 -1.29895 -2.236584 -1.767767 -1.767767 
C -2.236584 -1.29895 -2.5 -0.663008 -2.5 0 
C -2.5 0.663008 -2.236584 1.29895 -1.767767 1.767767 
C -1.29895 2.236584 -0.663008 2.5 0 2.5 
z
" id="C5_0_7a9e819da2"/>
    </defs>
    <g clip-path="url(#p3518b3ace3)">
     <use style="fill:#ffd92f;stroke:#000000;stroke-width:0.5;" x="396.883729" xlink:href="#C5_0_7a9e819da2" y="159.625728"/>
    </g>
    <g clip-path="url(#p3518b3ace3)">
     <use style="fill:#ffd92f;stroke:#000000;stroke-width:0.5;" x="396.416198" xlink:href="#C5_0_7a9e819da2" y="179.743795"/>
    </g>
    <g clip-path="url(#p3518b3ace3)">
     <use style="fill:#ffd92f;stroke:#000000;stroke-width:0.5;" x="397.807396" xlink:href="#C5_0_7a9e819da2" y="183.895142"/>
    </g>
    <g clip-path="url(#p3518b3ace3)">
     <use style="fill:#ffd92f;stroke:#000000;stroke-width:0.5;" x="393.656634" xlink:href="#C5_0_7a9e819da2" y="154.589558"/>
    </g>
    <g clip-path="url(#p3518b3ace3)">
     <use style="fill:#ffd92f;stroke:#000000;stroke-width:0.5;" x="392.934698" xlink:href="#C5_0_7a9e819da2" y="156.319286"/>
    </g>
    <g clip-path="url(#p3518b3ace3)">
     <use style="fill:#ffd92f;stroke:#000000;stroke-width:0.5;" x="395.222934" xlink:href="#C5_0_7a9e819da2" y="194.86561"/>
    </g>
    <g clip-path="url(#p3518b3ace3)">
     <use style="fill:#ffd92f;stroke:#000000;stroke-width:0.5;" x="389.759002" xlink:href="#C5_0_7a9e819da2" y="169.757942"/>
    </g>
    <g clip-path="url(#p3518b3ace3)">
     <use style="fill:#ffd92f;stroke:#000000;stroke-width:0.5;" x="393.821736" xlink:href="#C5_0_7a9e819da2" y="176.078102"/>
    </g>
   </g>
   <g id="patch_7">
    <path clip-path="url(#p3518b3ace3)" d="M 78.432 183.871858 
L 96.288 183.871858 
L 96.288 164.901398 
L 78.432 164.901398 
L 78.432 183.871858 
z
" style="fill:none;stroke:#3d3d3d;stroke-linejoin:miter;stroke-width:1.5;"/>
   </g>
   <g id="patch_8">
    <path clip-path="url(#p3518b3ace3)" d="M 137.952 185.059382 
L 155.808 185.059382 
L 155.808 158.014087 
L 137.952 158.014087 
L 137.952 185.059382 
z
" style="fill:none;stroke:#3d3d3d;stroke-linejoin:miter;stroke-width:1.5;"/>
   </g>
   <g id="patch_9">
    <path clip-path="url(#p3518b3ace3)" d="M 197.472 180.247745 
L 215.328 180.247745 
L 215.328 169.613244 
L 197.472 169.613244 
L 197.472 180.247745 
z
" style="fill:none;stroke:#3d3d3d;stroke-linejoin:miter;stroke-width:1.5;"/>
   </g>
   <g id="patch_10">
    <path clip-path="url(#p3518b3ace3)" d="M 256.992 196.156253 
L 274.848 196.156253 
L 274.848 180.06313 
L 256.992 180.06313 
L 256.992 196.156253 
z
" style="fill:none;stroke:#3d3d3d;stroke-linejoin:miter;stroke-width:1.5;"/>
   </g>
   <g id="patch_11">
    <path clip-path="url(#p3518b3ace3)" d="M 316.512 183.840257 
L 334.368 183.840257 
L 334.368 168.389129 
L 316.512 168.389129 
L 316.512 183.840257 
z
" style="fill:none;stroke:#3d3d3d;stroke-linejoin:miter;stroke-width:1.5;"/>
   </g>
   <g id="patch_12">
    <path clip-path="url(#p3518b3ace3)" d="M 376.032 180.781632 
L 393.888 180.781632 
L 393.888 158.799118 
L 376.032 158.799118 
L 376.032 180.781632 
z
" style="fill:none;stroke:#3d3d3d;stroke-linejoin:miter;stroke-width:1.5;"/>
   </g>
   <g id="text_18">
    <!-- Violin Plot with Overlayed Box and Strip Plots -->
    <g style="fill:#262626;" transform="translate(100.525313 35.472)scale(0.12 -0.12)">
     <defs>
      <path d="M 1831 0 
L 50 4666 
L 709 4666 
L 2188 738 
L 3669 4666 
L 4325 4666 
L 2547 0 
L 1831 0 
z
" id="DejaVuSans-56" transform="scale(0.015625)"/>
      <path d="M 603 3500 
L 1178 3500 
L 1178 0 
L 603 0 
L 603 3500 
z
M 603 4863 
L 1178 4863 
L 1178 4134 
L 603 4134 
L 603 4863 
z
" id="DejaVuSans-69" transform="scale(0.015625)"/>
      <path d="M 3513 2113 
L 3513 0 
L 2938 0 
L 2938 2094 
Q 2938 2591 2744 2837 
Q 2550 3084 2163 3084 
Q 1697 3084 1428 2787 
Q 1159 2491 1159 1978 
L 1159 0 
L 581 0 
L 581 3500 
L 1159 3500 
L 1159 2956 
Q 1366 3272 1645 3428 
Q 1925 3584 2291 3584 
Q 2894 3584 3203 3211 
Q 3513 2838 3513 2113 
z
" id="DejaVuSans-6e" transform="scale(0.015625)"/>
      <path id="DejaVuSans-20" transform="scale(0.015625)"/>
      <path d="M 1259 4147 
L 1259 2394 
L 2053 2394 
Q 2494 2394 2734 2622 
Q 2975 2850 2975 3272 
Q 2975 3691 2734 3919 
Q 2494 4147 2053 4147 
L 1259 4147 
z
M 628 4666 
L 2053 4666 
Q 2838 4666 3239 4311 
Q 3641 3956 3641 3272 
Q 3641 2581 3239 2228 
Q 2838 1875 2053 1875 
L 1259 1875 
L 1259 0 
L 628 0 
L 628 4666 
z
" id="DejaVuSans-50" transform="scale(0.015625)"/>
      <path d="M 1172 4494 
L 1172 3500 
L 2356 3500 
L 2356 3053 
L 1172 3053 
L 1172 1153 
Q 1172 725 1289 603 
Q 1406 481 1766 481 
L 2356 481 
L 2356 0 
L 1766 0 
Q 1100 0 847 248 
Q 594 497 594 1153 
L 594 3053 
L 172 3053 
L 172 3500 
L 594 3500 
L 594 4494 
L 1172 4494 
z
" id="DejaVuSans-74" transform="scale(0.015625)"/>
      <path d="M 269 3500 
L 844 3500 
L 1563 769 
L 2278 3500 
L 2956 3500 
L 3675 769 
L 4391 3500 
L 4966 3500 
L 4050 0 
L 3372 0 
L 2619 2869 
L 1863 0 
L 1184 0 
L 269 3500 
z
" id="DejaVuSans-77" transform="scale(0.015625)"/>
      <path d="M 3513 2113 
L 3513 0 
L 2938 0 
L 2938 2094 
Q 2938 2591 2744 2837 
Q 2550 3084 2163 3084 
Q 1697 3084 1428 2787 
Q 1159 2491 1159 1978 
L 1159 0 
L 581 0 
L 581 4863 
L 1159 4863 
L 1159 2956 
Q 1366 3272 1645 3428 
Q 1925 3584 2291 3584 
Q 2894 3584 3203 3211 
Q 3513 2838 3513 2113 
z
" id="DejaVuSans-68" transform="scale(0.015625)"/>
      <path d="M 191 3500 
L 800 3500 
L 1894 563 
L 2988 3500 
L 3597 3500 
L 2284 0 
L 1503 0 
L 191 3500 
z
" id="DejaVuSans-76" transform="scale(0.015625)"/>
      <path d="M 2631 2963 
Q 2534 3019 2420 3045 
Q 2306 3072 2169 3072 
Q 1681 3072 1420 2755 
Q 1159 2438 1159 1844 
L 1159 0 
L 581 0 
L 581 3500 
L 1159 3500 
L 1159 2956 
Q 1341 3275 1631 3429 
Q 1922 3584 2338 3584 
Q 2397 3584 2469 3576 
Q 2541 3569 2628 3553 
L 2631 2963 
z
" id="DejaVuSans-72" transform="scale(0.015625)"/>
      <path d="M 2059 -325 
Q 1816 -950 1584 -1140 
Q 1353 -1331 966 -1331 
L 506 -1331 
L 506 -850 
L 844 -850 
Q 1081 -850 1212 -737 
Q 1344 -625 1503 -206 
L 1606 56 
L 191 3500 
L 800 3500 
L 1894 763 
L 2988 3500 
L 3597 3500 
L 2059 -325 
z
" id="DejaVuSans-79" transform="scale(0.015625)"/>
      <path d="M 1259 2228 
L 1259 519 
L 2272 519 
Q 2781 519 3026 730 
Q 3272 941 3272 1375 
Q 3272 1813 3026 2020 
Q 2781 2228 2272 2228 
L 1259 2228 
z
M 1259 4147 
L 1259 2741 
L 2194 2741 
Q 2656 2741 2882 2914 
Q 3109 3088 3109 3444 
Q 3109 3797 2882 3972 
Q 2656 4147 2194 4147 
L 1259 4147 
z
M 628 4666 
L 2241 4666 
Q 2963 4666 3353 4366 
Q 3744 4066 3744 3513 
Q 3744 3084 3544 2831 
Q 3344 2578 2956 2516 
Q 3422 2416 3680 2098 
Q 3938 1781 3938 1306 
Q 3938 681 3513 340 
Q 3088 0 2303 0 
L 628 0 
L 628 4666 
z
" id="DejaVuSans-42" transform="scale(0.015625)"/>
      <path d="M 3513 3500 
L 2247 1797 
L 3578 0 
L 2900 0 
L 1881 1375 
L 863 0 
L 184 0 
L 1544 1831 
L 300 3500 
L 978 3500 
L 1906 2253 
L 2834 3500 
L 3513 3500 
z
" id="DejaVuSans-78" transform="scale(0.015625)"/>
      <path d="M 3425 4513 
L 3425 3897 
Q 3066 4069 2747 4153 
Q 2428 4238 2131 4238 
Q 1616 4238 1336 4038 
Q 1056 3838 1056 3469 
Q 1056 3159 1242 3001 
Q 1428 2844 1947 2747 
L 2328 2669 
Q 3034 2534 3370 2195 
Q 3706 1856 3706 1288 
Q 3706 609 3251 259 
Q 2797 -91 1919 -91 
Q 1588 -91 1214 -16 
Q 841 59 441 206 
L 441 856 
Q 825 641 1194 531 
Q 1563 422 1919 422 
Q 2459 422 2753 634 
Q 3047 847 3047 1241 
Q 3047 1584 2836 1778 
Q 2625 1972 2144 2069 
L 1759 2144 
Q 1053 2284 737 2584 
Q 422 2884 422 3419 
Q 422 4038 858 4394 
Q 1294 4750 2059 4750 
Q 2388 4750 2728 4690 
Q 3069 4631 3425 4513 
z
" id="DejaVuSans-53" transform="scale(0.015625)"/>
      <path d="M 1159 525 
L 1159 -1331 
L 581 -1331 
L 581 3500 
L 1159 3500 
L 1159 2969 
Q 1341 3281 1617 3432 
Q 1894 3584 2278 3584 
Q 2916 3584 3314 3078 
Q 3713 2572 3713 1747 
Q 3713 922 3314 415 
Q 2916 -91 2278 -91 
Q 1894 -91 1617 61 
Q 1341 213 1159 525 
z
M 3116 1747 
Q 3116 2381 2855 2742 
Q 2594 3103 2138 3103 
Q 1681 3103 1420 2742 
Q 1159 2381 1159 1747 
Q 1159 1113 1420 752 
Q 1681 391 2138 391 
Q 2594 391 2855 752 
Q 3116 1113 3116 1747 
z
" id="DejaVuSans-70" transform="scale(0.015625)"/>
      <path d="M 2834 3397 
L 2834 2853 
Q 2591 2978 2328 3040 
Q 2066 3103 1784 3103 
Q 1356 3103 1142 2972 
Q 928 2841 928 2578 
Q 928 2378 1081 2264 
Q 1234 2150 1697 2047 
L 1894 2003 
Q 2506 1872 2764 1633 
Q 3022 1394 3022 966 
Q 3022 478 2636 193 
Q 2250 -91 1575 -91 
Q 1294 -91 989 -36 
Q 684 19 347 128 
L 347 722 
Q 666 556 975 473 
Q 1284 391 1588 391 
Q 1994 391 2212 530 
Q 2431 669 2431 922 
Q 2431 1156 2273 1281 
Q 2116 1406 1581 1522 
L 1381 1569 
Q 847 1681 609 1914 
Q 372 2147 372 2553 
Q 372 3047 722 3315 
Q 1072 3584 1716 3584 
Q 2034 3584 2315 3537 
Q 2597 3491 2834 3397 
z
" id="DejaVuSans-73" transform="scale(0.015625)"/>
     </defs>
     <use xlink:href="#DejaVuSans-56"/>
     <use x="66.158203" xlink:href="#DejaVuSans-69"/>
     <use x="93.941406" xlink:href="#DejaVuSans-6f"/>
     <use x="155.123047" xlink:href="#DejaVuSans-6c"/>
     <use x="182.90625" xlink:href="#DejaVuSans-69"/>
     <use x="210.689453" xlink:href="#DejaVuSans-6e"/>
     <use x="274.068359" xlink:href="#DejaVuSans-20"/>
     <use x="305.855469" xlink:href="#DejaVuSans-50"/>
     <use x="366.158203" xlink:href="#DejaVuSans-6c"/>
     <use x="393.941406" xlink:href="#DejaVuSans-6f"/>
     <use x="455.123047" xlink:href="#DejaVuSans-74"/>
     <use x="494.332031" xlink:href="#DejaVuSans-20"/>
     <use x="526.119141" xlink:href="#DejaVuSans-77"/>
     <use x="607.90625" xlink:href="#DejaVuSans-69"/>
     <use x="635.689453" xlink:href="#DejaVuSans-74"/>
     <use x="674.898438" xlink:href="#DejaVuSans-68"/>
     <use x="738.277344" xlink:href="#DejaVuSans-20"/>
     <use x="770.064453" xlink:href="#DejaVuSans-4f"/>
     <use x="848.775391" xlink:href="#DejaVuSans-76"/>
     <use x="907.955078" xlink:href="#DejaVuSans-65"/>
     <use x="969.478516" xlink:href="#DejaVuSans-72"/>
     <use x="1010.591797" xlink:href="#DejaVuSans-6c"/>
     <use x="1038.375" xlink:href="#DejaVuSans-61"/>
     <use x="1099.654297" xlink:href="#DejaVuSans-79"/>
     <use x="1158.833984" xlink:href="#DejaVuSans-65"/>
     <use x="1220.357422" xlink:href="#DejaVuSans-64"/>
     <use x="1283.833984" xlink:href="#DejaVuSans-20"/>
     <use x="1315.621094" xlink:href="#DejaVuSans-42"/>
     <use x="1384.224609" xlink:href="#DejaVuSans-6f"/>
     <use x="1442.28125" xlink:href="#DejaVuSans-78"/>
     <use x="1501.460938" xlink:href="#DejaVuSans-20"/>
     <use x="1533.248047" xlink:href="#DejaVuSans-61"/>
     <use x="1594.527344" xlink:href="#DejaVuSans-6e"/>
     <use x="1657.90625" xlink:href="#DejaVuSans-64"/>
     <use x="1721.382812" xlink:href="#DejaVuSans-20"/>
     <use x="1753.169922" xlink:href="#DejaVuSans-53"/>
     <use x="1816.646484" xlink:href="#DejaVuSans-74"/>
     <use x="1855.855469" xlink:href="#DejaVuSans-72"/>
     <use x="1896.96875" xlink:href="#DejaVuSans-69"/>
     <use x="1924.751953" xlink:href="#DejaVuSans-70"/>
     <use x="1988.228516" xlink:href="#DejaVuSans-20"/>
     <use x="2020.015625" xlink:href="#DejaVuSans-50"/>
     <use x="2080.318359" xlink:href="#DejaVuSans-6c"/>
     <use x="2108.101562" xlink:href="#DejaVuSans-6f"/>
     <use x="2169.283203" xlink:href="#DejaVuSans-74"/>
     <use x="2208.492188" xlink:href="#DejaVuSans-73"/>
    </g>
   </g>
  </g>
 </g>
 <defs>
  <clipPath id="p2b73fdf915">
   <rect height="61.243271" width="23.808" x="63.552" y="143.959587"/>
  </clipPath>
  <clipPath id="p710cdf198e">
   <rect height="87.265951" width="17.079961" x="129.800039" y="130.845129"/>
  </clipPath>
  <clipPath id="pca21113f38">
   <rect height="101.619442" width="23.197622" x="183.202378" y="118.396039"/>
  </clipPath>
  <clipPath id="p8c0b5da264">
   <rect height="88.237266" width="22.321053" x="243.598947" y="149.143652"/>
  </clipPath>
  <clipPath id="p1cecd36d81">
   <rect height="121.459133" width="17.270408" x="308.169592" y="103.603018"/>
  </clipPath>
  <clipPath id="pd64faa1de1">
   <rect height="78.230821" width="19.770934" x="365.189066" y="135.612174"/>
  </clipPath>
  <clipPath id="p3518b3ace3">
   <rect height="266.112" width="357.12" x="57.6" y="41.472"/>
  </clipPath>
 </defs>
</svg>
