<?xml version="1.0" encoding="utf-8" standalone="no"?>
<!DOCTYPE svg PUBLIC "-//W3C//DTD SVG 1.1//EN"
  "http://www.w3.org/Graphics/SVG/1.1/DTD/svg11.dtd">
<svg xmlns:xlink="http://www.w3.org/1999/xlink" width="460.8pt" height="345.6pt" viewBox="0 0 460.8 345.6" xmlns="http://www.w3.org/2000/svg" version="1.1">
 <metadata>
  <rdf:RDF xmlns:dc="http://purl.org/dc/elements/1.1/" xmlns:cc="http://creativecommons.org/ns#" xmlns:rdf="http://www.w3.org/1999/02/22-rdf-syntax-ns#">
   <cc:Work>
    <dc:type rdf:resource="http://purl.org/dc/dcmitype/StillImage"/>
    <dc:date>2024-09-05T08:51:27.197195</dc:date>
    <dc:format>image/svg+xml</dc:format>
    <dc:creator>
     <cc:Agent>
      <dc:title>Matplotlib v3.7.2, https://matplotlib.org/</dc:title>
     </cc:Agent>
    </dc:creator>
   </cc:Work>
  </rdf:RDF>
 </metadata>
 <defs>
  <style type="text/css">*{stroke-linejoin: round; stroke-linecap: butt}</style>
 </defs>
 <g id="figure_1">
  <g id="patch_1">
   <path d="M 0 345.6 
L 460.8 345.6 
L 460.8 0 
L 0 0 
z
" style="fill: #ffffff"/>
  </g>
  <g id="axes_1">
   <g id="patch_2">
    <path d="M 57.6 307.584 
L 414.72 307.584 
L 414.72 41.472 
L 57.6 41.472 
z
" style="fill: #ffffff"/>
   </g>
   <g id="matplotlib.axis_1">
    <g id="xtick_1">
     <g id="text_1">
      <!-- 1 -->
      <g style="fill: #262626" transform="translate(79.927321 322.182437) scale(0.1 -0.1)">
       <defs>
        <path id="DejaVuSans-31" d="M 794 531 
L 1825 531 
L 1825 4091 
L 703 3866 
L 703 4441 
L 1819 4666 
L 2450 4666 
L 2450 531 
L 3481 531 
L 3481 0 
L 794 0 
L 794 531 
z
" transform="scale(0.015625)"/>
       </defs>
       <use xlink:href="#DejaVuSans-31"/>
      </g>
     </g>
    </g>
    <g id="xtick_2">
     <g id="text_2">
      <!-- 2 -->
      <g style="fill: #262626" transform="translate(130.944464 322.182437) scale(0.1 -0.1)">
       <defs>
        <path id="DejaVuSans-32" d="M 1228 531 
L 3431 531 
L 3431 0 
L 469 0 
L 469 531 
Q 828 903 1448 1529 
Q 2069 2156 2228 2338 
Q 2531 2678 2651 2914 
Q 2772 3150 2772 3378 
Q 2772 3750 2511 3984 
Q 2250 4219 1831 4219 
Q 1534 4219 1204 4116 
Q 875 4013 500 3803 
L 500 4441 
Q 881 4594 1212 4672 
Q 1544 4750 1819 4750 
Q 2544 4750 2975 4387 
Q 3406 4025 3406 3419 
Q 3406 3131 3298 2873 
Q 3191 2616 2906 2266 
Q 2828 2175 2409 1742 
Q 1991 1309 1228 531 
z
" transform="scale(0.015625)"/>
       </defs>
       <use xlink:href="#DejaVuSans-32"/>
      </g>
     </g>
    </g>
    <g id="xtick_3">
     <g id="text_3">
      <!-- 3 -->
      <g style="fill: #262626" transform="translate(181.961607 322.182437) scale(0.1 -0.1)">
       <defs>
        <path id="DejaVuSans-33" d="M 2597 2516 
Q 3050 2419 3304 2112 
Q 3559 1806 3559 1356 
Q 3559 666 3084 287 
Q 2609 -91 1734 -91 
Q 1441 -91 1130 -33 
Q 819 25 488 141 
L 488 750 
Q 750 597 1062 519 
Q 1375 441 1716 441 
Q 2309 441 2620 675 
Q 2931 909 2931 1356 
Q 2931 1769 2642 2001 
Q 2353 2234 1838 2234 
L 1294 2234 
L 1294 2753 
L 1863 2753 
Q 2328 2753 2575 2939 
Q 2822 3125 2822 3475 
Q 2822 3834 2567 4026 
Q 2313 4219 1838 4219 
Q 1578 4219 1281 4162 
Q 984 4106 628 3988 
L 628 4550 
Q 988 4650 1302 4700 
Q 1616 4750 1894 4750 
Q 2613 4750 3031 4423 
Q 3450 4097 3450 3541 
Q 3450 3153 3228 2886 
Q 3006 2619 2597 2516 
z
" transform="scale(0.015625)"/>
       </defs>
       <use xlink:href="#DejaVuSans-33"/>
      </g>
     </g>
    </g>
    <g id="xtick_4">
     <g id="text_4">
      <!-- 4 -->
      <g style="fill: #262626" transform="translate(232.97875 322.182437) scale(0.1 -0.1)">
       <defs>
        <path id="DejaVuSans-34" d="M 2419 4116 
L 825 1625 
L 2419 1625 
L 2419 4116 
z
M 2253 4666 
L 3047 4666 
L 3047 1625 
L 3713 1625 
L 3713 1100 
L 3047 1100 
L 3047 0 
L 2419 0 
L 2419 1100 
L 313 1100 
L 313 1709 
L 2253 4666 
z
" transform="scale(0.015625)"/>
       </defs>
       <use xlink:href="#DejaVuSans-34"/>
      </g>
     </g>
    </g>
    <g id="xtick_5">
     <g id="text_5">
      <!-- 5 -->
      <g style="fill: #262626" transform="translate(283.995893 322.182437) scale(0.1 -0.1)">
       <defs>
        <path id="DejaVuSans-35" d="M 691 4666 
L 3169 4666 
L 3169 4134 
L 1269 4134 
L 1269 2991 
Q 1406 3038 1543 3061 
Q 1681 3084 1819 3084 
Q 2600 3084 3056 2656 
Q 3513 2228 3513 1497 
Q 3513 744 3044 326 
Q 2575 -91 1722 -91 
Q 1428 -91 1123 -41 
Q 819 9 494 109 
L 494 744 
Q 775 591 1075 516 
Q 1375 441 1709 441 
Q 2250 441 2565 725 
Q 2881 1009 2881 1497 
Q 2881 1984 2565 2268 
Q 2250 2553 1709 2553 
Q 1456 2553 1204 2497 
Q 953 2441 691 2322 
L 691 4666 
z
" transform="scale(0.015625)"/>
       </defs>
       <use xlink:href="#DejaVuSans-35"/>
      </g>
     </g>
    </g>
    <g id="xtick_6">
     <g id="text_6">
      <!-- 6 -->
      <g style="fill: #262626" transform="translate(335.013036 322.182437) scale(0.1 -0.1)">
       <defs>
        <path id="DejaVuSans-36" d="M 2113 2584 
Q 1688 2584 1439 2293 
Q 1191 2003 1191 1497 
Q 1191 994 1439 701 
Q 1688 409 2113 409 
Q 2538 409 2786 701 
Q 3034 994 3034 1497 
Q 3034 2003 2786 2293 
Q 2538 2584 2113 2584 
z
M 3366 4563 
L 3366 3988 
Q 3128 4100 2886 4159 
Q 2644 4219 2406 4219 
Q 1781 4219 1451 3797 
Q 1122 3375 1075 2522 
Q 1259 2794 1537 2939 
Q 1816 3084 2150 3084 
Q 2853 3084 3261 2657 
Q 3669 2231 3669 1497 
Q 3669 778 3244 343 
Q 2819 -91 2113 -91 
Q 1303 -91 875 529 
Q 447 1150 447 2328 
Q 447 3434 972 4092 
Q 1497 4750 2381 4750 
Q 2619 4750 2861 4703 
Q 3103 4656 3366 4563 
z
" transform="scale(0.015625)"/>
       </defs>
       <use xlink:href="#DejaVuSans-36"/>
      </g>
     </g>
    </g>
    <g id="xtick_7">
     <g id="text_7">
      <!-- 7 -->
      <g style="fill: #262626" transform="translate(386.030179 322.182437) scale(0.1 -0.1)">
       <defs>
        <path id="DejaVuSans-37" d="M 525 4666 
L 3525 4666 
L 3525 4397 
L 1831 0 
L 1172 0 
L 2766 4134 
L 525 4134 
L 525 4666 
z
" transform="scale(0.015625)"/>
       </defs>
       <use xlink:href="#DejaVuSans-37"/>
      </g>
     </g>
    </g>
    <g id="text_8">
     <!-- Model -->
     <g style="fill: #262626" transform="translate(221.146719 335.860562) scale(0.1 -0.1)">
      <defs>
       <path id="DejaVuSans-4d" d="M 628 4666 
L 1569 4666 
L 2759 1491 
L 3956 4666 
L 4897 4666 
L 4897 0 
L 4281 0 
L 4281 4097 
L 3078 897 
L 2444 897 
L 1241 4097 
L 1241 0 
L 628 0 
L 628 4666 
z
" transform="scale(0.015625)"/>
       <path id="DejaVuSans-6f" d="M 1959 3097 
Q 1497 3097 1228 2736 
Q 959 2375 959 1747 
Q 959 1119 1226 758 
Q 1494 397 1959 397 
Q 2419 397 2687 759 
Q 2956 1122 2956 1747 
Q 2956 2369 2687 2733 
Q 2419 3097 1959 3097 
z
M 1959 3584 
Q 2709 3584 3137 3096 
Q 3566 2609 3566 1747 
Q 3566 888 3137 398 
Q 2709 -91 1959 -91 
Q 1206 -91 779 398 
Q 353 888 353 1747 
Q 353 2609 779 3096 
Q 1206 3584 1959 3584 
z
" transform="scale(0.015625)"/>
       <path id="DejaVuSans-64" d="M 2906 2969 
L 2906 4863 
L 3481 4863 
L 3481 0 
L 2906 0 
L 2906 525 
Q 2725 213 2448 61 
Q 2172 -91 1784 -91 
Q 1150 -91 751 415 
Q 353 922 353 1747 
Q 353 2572 751 3078 
Q 1150 3584 1784 3584 
Q 2172 3584 2448 3432 
Q 2725 3281 2906 2969 
z
M 947 1747 
Q 947 1113 1208 752 
Q 1469 391 1925 391 
Q 2381 391 2643 752 
Q 2906 1113 2906 1747 
Q 2906 2381 2643 2742 
Q 2381 3103 1925 3103 
Q 1469 3103 1208 2742 
Q 947 2381 947 1747 
z
" transform="scale(0.015625)"/>
       <path id="DejaVuSans-65" d="M 3597 1894 
L 3597 1613 
L 953 1613 
Q 991 1019 1311 708 
Q 1631 397 2203 397 
Q 2534 397 2845 478 
Q 3156 559 3463 722 
L 3463 178 
Q 3153 47 2828 -22 
Q 2503 -91 2169 -91 
Q 1331 -91 842 396 
Q 353 884 353 1716 
Q 353 2575 817 3079 
Q 1281 3584 2069 3584 
Q 2775 3584 3186 3129 
Q 3597 2675 3597 1894 
z
M 3022 2063 
Q 3016 2534 2758 2815 
Q 2500 3097 2075 3097 
Q 1594 3097 1305 2825 
Q 1016 2553 972 2059 
L 3022 2063 
z
" transform="scale(0.015625)"/>
       <path id="DejaVuSans-6c" d="M 603 4863 
L 1178 4863 
L 1178 0 
L 603 0 
L 603 4863 
z
" transform="scale(0.015625)"/>
      </defs>
      <use xlink:href="#DejaVuSans-4d"/>
      <use xlink:href="#DejaVuSans-6f" x="86.279297"/>
      <use xlink:href="#DejaVuSans-64" x="147.460938"/>
      <use xlink:href="#DejaVuSans-65" x="210.9375"/>
      <use xlink:href="#DejaVuSans-6c" x="272.460938"/>
     </g>
    </g>
   </g>
   <g id="matplotlib.axis_2">
    <g id="ytick_1">
     <g id="text_9">
      <!-- 0.75 -->
      <g style="fill: #262626" transform="translate(28.334375 311.383219) scale(0.1 -0.1)">
       <defs>
        <path id="DejaVuSans-30" d="M 2034 4250 
Q 1547 4250 1301 3770 
Q 1056 3291 1056 2328 
Q 1056 1369 1301 889 
Q 1547 409 2034 409 
Q 2525 409 2770 889 
Q 3016 1369 3016 2328 
Q 3016 3291 2770 3770 
Q 2525 4250 2034 4250 
z
M 2034 4750 
Q 2819 4750 3233 4129 
Q 3647 3509 3647 2328 
Q 3647 1150 3233 529 
Q 2819 -91 2034 -91 
Q 1250 -91 836 529 
Q 422 1150 422 2328 
Q 422 3509 836 4129 
Q 1250 4750 2034 4750 
z
" transform="scale(0.015625)"/>
        <path id="DejaVuSans-2e" d="M 684 794 
L 1344 794 
L 1344 0 
L 684 0 
L 684 794 
z
" transform="scale(0.015625)"/>
       </defs>
       <use xlink:href="#DejaVuSans-30"/>
       <use xlink:href="#DejaVuSans-2e" x="63.623047"/>
       <use xlink:href="#DejaVuSans-37" x="95.410156"/>
       <use xlink:href="#DejaVuSans-35" x="159.033203"/>
      </g>
     </g>
    </g>
    <g id="ytick_2">
     <g id="text_10">
      <!-- 0.80 -->
      <g style="fill: #262626" transform="translate(28.334375 258.160819) scale(0.1 -0.1)">
       <defs>
        <path id="DejaVuSans-38" d="M 2034 2216 
Q 1584 2216 1326 1975 
Q 1069 1734 1069 1313 
Q 1069 891 1326 650 
Q 1584 409 2034 409 
Q 2484 409 2743 651 
Q 3003 894 3003 1313 
Q 3003 1734 2745 1975 
Q 2488 2216 2034 2216 
z
M 1403 2484 
Q 997 2584 770 2862 
Q 544 3141 544 3541 
Q 544 4100 942 4425 
Q 1341 4750 2034 4750 
Q 2731 4750 3128 4425 
Q 3525 4100 3525 3541 
Q 3525 3141 3298 2862 
Q 3072 2584 2669 2484 
Q 3125 2378 3379 2068 
Q 3634 1759 3634 1313 
Q 3634 634 3220 271 
Q 2806 -91 2034 -91 
Q 1263 -91 848 271 
Q 434 634 434 1313 
Q 434 1759 690 2068 
Q 947 2378 1403 2484 
z
M 1172 3481 
Q 1172 3119 1398 2916 
Q 1625 2713 2034 2713 
Q 2441 2713 2670 2916 
Q 2900 3119 2900 3481 
Q 2900 3844 2670 4047 
Q 2441 4250 2034 4250 
Q 1625 4250 1398 4047 
Q 1172 3844 1172 3481 
z
" transform="scale(0.015625)"/>
       </defs>
       <use xlink:href="#DejaVuSans-30"/>
       <use xlink:href="#DejaVuSans-2e" x="63.623047"/>
       <use xlink:href="#DejaVuSans-38" x="95.410156"/>
       <use xlink:href="#DejaVuSans-30" x="159.033203"/>
      </g>
     </g>
    </g>
    <g id="ytick_3">
     <g id="text_11">
      <!-- 0.85 -->
      <g style="fill: #262626" transform="translate(28.334375 204.938419) scale(0.1 -0.1)">
       <use xlink:href="#DejaVuSans-30"/>
       <use xlink:href="#DejaVuSans-2e" x="63.623047"/>
       <use xlink:href="#DejaVuSans-38" x="95.410156"/>
       <use xlink:href="#DejaVuSans-35" x="159.033203"/>
      </g>
     </g>
    </g>
    <g id="ytick_4">
     <g id="text_12">
      <!-- 0.90 -->
      <g style="fill: #262626" transform="translate(28.334375 151.716019) scale(0.1 -0.1)">
       <defs>
        <path id="DejaVuSans-39" d="M 703 97 
L 703 672 
Q 941 559 1184 500 
Q 1428 441 1663 441 
Q 2288 441 2617 861 
Q 2947 1281 2994 2138 
Q 2813 1869 2534 1725 
Q 2256 1581 1919 1581 
Q 1219 1581 811 2004 
Q 403 2428 403 3163 
Q 403 3881 828 4315 
Q 1253 4750 1959 4750 
Q 2769 4750 3195 4129 
Q 3622 3509 3622 2328 
Q 3622 1225 3098 567 
Q 2575 -91 1691 -91 
Q 1453 -91 1209 -44 
Q 966 3 703 97 
z
M 1959 2075 
Q 2384 2075 2632 2365 
Q 2881 2656 2881 3163 
Q 2881 3666 2632 3958 
Q 2384 4250 1959 4250 
Q 1534 4250 1286 3958 
Q 1038 3666 1038 3163 
Q 1038 2656 1286 2365 
Q 1534 2075 1959 2075 
z
" transform="scale(0.015625)"/>
       </defs>
       <use xlink:href="#DejaVuSans-30"/>
       <use xlink:href="#DejaVuSans-2e" x="63.623047"/>
       <use xlink:href="#DejaVuSans-39" x="95.410156"/>
       <use xlink:href="#DejaVuSans-30" x="159.033203"/>
      </g>
     </g>
    </g>
    <g id="ytick_5">
     <g id="text_13">
      <!-- 0.95 -->
      <g style="fill: #262626" transform="translate(28.334375 98.493619) scale(0.1 -0.1)">
       <use xlink:href="#DejaVuSans-30"/>
       <use xlink:href="#DejaVuSans-2e" x="63.623047"/>
       <use xlink:href="#DejaVuSans-39" x="95.410156"/>
       <use xlink:href="#DejaVuSans-35" x="159.033203"/>
      </g>
     </g>
    </g>
    <g id="ytick_6">
     <g id="text_14">
      <!-- 1.00 -->
      <g style="fill: #262626" transform="translate(28.334375 45.271219) scale(0.1 -0.1)">
       <use xlink:href="#DejaVuSans-31"/>
       <use xlink:href="#DejaVuSans-2e" x="63.623047"/>
       <use xlink:href="#DejaVuSans-30" x="95.410156"/>
       <use xlink:href="#DejaVuSans-30" x="159.033203"/>
      </g>
     </g>
    </g>
    <g id="text_15">
     <!-- auROC -->
     <g style="fill: #262626" transform="translate(22.254687 191.662375) rotate(-90) scale(0.1 -0.1)">
      <defs>
       <path id="DejaVuSans-61" d="M 2194 1759 
Q 1497 1759 1228 1600 
Q 959 1441 959 1056 
Q 959 750 1161 570 
Q 1363 391 1709 391 
Q 2188 391 2477 730 
Q 2766 1069 2766 1631 
L 2766 1759 
L 2194 1759 
z
M 3341 1997 
L 3341 0 
L 2766 0 
L 2766 531 
Q 2569 213 2275 61 
Q 1981 -91 1556 -91 
Q 1019 -91 701 211 
Q 384 513 384 1019 
Q 384 1609 779 1909 
Q 1175 2209 1959 2209 
L 2766 2209 
L 2766 2266 
Q 2766 2663 2505 2880 
Q 2244 3097 1772 3097 
Q 1472 3097 1187 3025 
Q 903 2953 641 2809 
L 641 3341 
Q 956 3463 1253 3523 
Q 1550 3584 1831 3584 
Q 2591 3584 2966 3190 
Q 3341 2797 3341 1997 
z
" transform="scale(0.015625)"/>
       <path id="DejaVuSans-75" d="M 544 1381 
L 544 3500 
L 1119 3500 
L 1119 1403 
Q 1119 906 1312 657 
Q 1506 409 1894 409 
Q 2359 409 2629 706 
Q 2900 1003 2900 1516 
L 2900 3500 
L 3475 3500 
L 3475 0 
L 2900 0 
L 2900 538 
Q 2691 219 2414 64 
Q 2138 -91 1772 -91 
Q 1169 -91 856 284 
Q 544 659 544 1381 
z
M 1991 3584 
L 1991 3584 
z
" transform="scale(0.015625)"/>
       <path id="DejaVuSans-52" d="M 2841 2188 
Q 3044 2119 3236 1894 
Q 3428 1669 3622 1275 
L 4263 0 
L 3584 0 
L 2988 1197 
Q 2756 1666 2539 1819 
Q 2322 1972 1947 1972 
L 1259 1972 
L 1259 0 
L 628 0 
L 628 4666 
L 2053 4666 
Q 2853 4666 3247 4331 
Q 3641 3997 3641 3322 
Q 3641 2881 3436 2590 
Q 3231 2300 2841 2188 
z
M 1259 4147 
L 1259 2491 
L 2053 2491 
Q 2509 2491 2742 2702 
Q 2975 2913 2975 3322 
Q 2975 3731 2742 3939 
Q 2509 4147 2053 4147 
L 1259 4147 
z
" transform="scale(0.015625)"/>
       <path id="DejaVuSans-4f" d="M 2522 4238 
Q 1834 4238 1429 3725 
Q 1025 3213 1025 2328 
Q 1025 1447 1429 934 
Q 1834 422 2522 422 
Q 3209 422 3611 934 
Q 4013 1447 4013 2328 
Q 4013 3213 3611 3725 
Q 3209 4238 2522 4238 
z
M 2522 4750 
Q 3503 4750 4090 4092 
Q 4678 3434 4678 2328 
Q 4678 1225 4090 567 
Q 3503 -91 2522 -91 
Q 1538 -91 948 565 
Q 359 1222 359 2328 
Q 359 3434 948 4092 
Q 1538 4750 2522 4750 
z
" transform="scale(0.015625)"/>
       <path id="DejaVuSans-43" d="M 4122 4306 
L 4122 3641 
Q 3803 3938 3442 4084 
Q 3081 4231 2675 4231 
Q 1875 4231 1450 3742 
Q 1025 3253 1025 2328 
Q 1025 1406 1450 917 
Q 1875 428 2675 428 
Q 3081 428 3442 575 
Q 3803 722 4122 1019 
L 4122 359 
Q 3791 134 3420 21 
Q 3050 -91 2638 -91 
Q 1578 -91 968 557 
Q 359 1206 359 2328 
Q 359 3453 968 4101 
Q 1578 4750 2638 4750 
Q 3056 4750 3426 4639 
Q 3797 4528 4122 4306 
z
" transform="scale(0.015625)"/>
      </defs>
      <use xlink:href="#DejaVuSans-61"/>
      <use xlink:href="#DejaVuSans-75" x="61.279297"/>
      <use xlink:href="#DejaVuSans-52" x="124.658203"/>
      <use xlink:href="#DejaVuSans-4f" x="194.140625"/>
      <use xlink:href="#DejaVuSans-43" x="272.851562"/>
     </g>
    </g>
   </g>
   <g id="PolyCollection_1">
    <defs>
     <path id="m1436157c19" d="M 83.647495 -183.010391 
L 82.569647 -183.010391 
L 82.46869 -183.663993 
L 82.353374 -184.317595 
L 82.222566 -184.971196 
L 82.075209 -185.624798 
L 81.910352 -186.2784 
L 81.727181 -186.932002 
L 81.525054 -187.585604 
L 81.303532 -188.239206 
L 81.06241 -188.892807 
L 80.801739 -189.546409 
L 80.521849 -190.200011 
L 80.223369 -190.853613 
L 79.907229 -191.507215 
L 79.57467 -192.160816 
L 79.227235 -192.814418 
L 78.86676 -193.46802 
L 78.495351 -194.121622 
L 78.115357 -194.775224 
L 77.72934 -195.428826 
L 77.340024 -196.082427 
L 76.950254 -196.736029 
L 76.562939 -197.389631 
L 76.180991 -198.043233 
L 75.807262 -198.696835 
L 75.44448 -199.350437 
L 75.095174 -200.004038 
L 74.761611 -200.65764 
L 74.445726 -201.311242 
L 74.149056 -201.964844 
L 73.872682 -202.618446 
L 73.617184 -203.272048 
L 73.382593 -203.925649 
L 73.168374 -204.579251 
L 72.97341 -205.232853 
L 72.796018 -205.886455 
L 72.633972 -206.540057 
L 72.484559 -207.193658 
L 72.344652 -207.84726 
L 72.210802 -208.500862 
L 72.079351 -209.154464 
L 71.946564 -209.808066 
L 71.808769 -210.461668 
L 71.662503 -211.115269 
L 71.504663 -211.768871 
L 71.33265 -212.422473 
L 71.144499 -213.076075 
L 70.938991 -213.729677 
L 70.715745 -214.383279 
L 70.475274 -215.03688 
L 70.219016 -215.690482 
L 69.949325 -216.344084 
L 69.66943 -216.997686 
L 69.383362 -217.651288 
L 69.095846 -218.304889 
L 68.812176 -218.958491 
L 68.538057 -219.612093 
L 68.279447 -220.265695 
L 68.042383 -220.919297 
L 67.832811 -221.572899 
L 67.656421 -222.2265 
L 67.518493 -222.880102 
L 67.423766 -223.533704 
L 67.37632 -224.187306 
L 67.379488 -224.840908 
L 67.435786 -225.49451 
L 67.546874 -226.148111 
L 67.713535 -226.801713 
L 67.935676 -227.455315 
L 68.212356 -228.108917 
L 68.541821 -228.762519 
L 68.921557 -229.416121 
L 69.348359 -230.069722 
L 69.818402 -230.723324 
L 70.327325 -231.376926 
L 70.87032 -232.030528 
L 71.442222 -232.68413 
L 72.037605 -233.337731 
L 72.650873 -233.991333 
L 73.276365 -234.644935 
L 73.908441 -235.298537 
L 74.541579 -235.952139 
L 75.170462 -236.605741 
L 75.790059 -237.259342 
L 76.395701 -237.912944 
L 76.983147 -238.566546 
L 77.548633 -239.220148 
L 78.088924 -239.87375 
L 78.601334 -240.527352 
L 79.083746 -241.180953 
L 79.534614 -241.834555 
L 79.95295 -242.488157 
L 80.3383 -243.141759 
L 80.690708 -243.795361 
L 81.010673 -244.448963 
L 81.299094 -245.102564 
L 81.557213 -245.756166 
L 81.786554 -246.409768 
L 81.988864 -247.06337 
L 82.166046 -247.716972 
L 84.051097 -247.716972 
L 84.051097 -247.716972 
L 84.228279 -247.06337 
L 84.430589 -246.409768 
L 84.65993 -245.756166 
L 84.918049 -245.102564 
L 85.20647 -244.448963 
L 85.526435 -243.795361 
L 85.878843 -243.141759 
L 86.264193 -242.488157 
L 86.682529 -241.834555 
L 87.133397 -241.180953 
L 87.615809 -240.527352 
L 88.128219 -239.87375 
L 88.668509 -239.220148 
L 89.233996 -238.566546 
L 89.821441 -237.912944 
L 90.427084 -237.259342 
L 91.046681 -236.605741 
L 91.675564 -235.952139 
L 92.308702 -235.298537 
L 92.940778 -234.644935 
L 93.56627 -233.991333 
L 94.179538 -233.337731 
L 94.77492 -232.68413 
L 95.346823 -232.030528 
L 95.889818 -231.376926 
L 96.398741 -230.723324 
L 96.868784 -230.069722 
L 97.295585 -229.416121 
L 97.675322 -228.762519 
L 98.004786 -228.108917 
L 98.281467 -227.455315 
L 98.503608 -226.801713 
L 98.670269 -226.148111 
L 98.781357 -225.49451 
L 98.837655 -224.840908 
L 98.840823 -224.187306 
L 98.793377 -223.533704 
L 98.69865 -222.880102 
L 98.560722 -222.2265 
L 98.384332 -221.572899 
L 98.17476 -220.919297 
L 97.937696 -220.265695 
L 97.679086 -219.612093 
L 97.404967 -218.958491 
L 97.121297 -218.304889 
L 96.833781 -217.651288 
L 96.547713 -216.997686 
L 96.267818 -216.344084 
L 95.998127 -215.690482 
L 95.741868 -215.03688 
L 95.501398 -214.383279 
L 95.278152 -213.729677 
L 95.072644 -213.076075 
L 94.884493 -212.422473 
L 94.71248 -211.768871 
L 94.55464 -211.115269 
L 94.408374 -210.461668 
L 94.270578 -209.808066 
L 94.137792 -209.154464 
L 94.006341 -208.500862 
L 93.872491 -207.84726 
L 93.732584 -207.193658 
L 93.583171 -206.540057 
L 93.421125 -205.886455 
L 93.243732 -205.232853 
L 93.048769 -204.579251 
L 92.83455 -203.925649 
L 92.599959 -203.272048 
L 92.34446 -202.618446 
L 92.068087 -201.964844 
L 91.771417 -201.311242 
L 91.455531 -200.65764 
L 91.121969 -200.004038 
L 90.772663 -199.350437 
L 90.409881 -198.696835 
L 90.036152 -198.043233 
L 89.654204 -197.389631 
L 89.266889 -196.736029 
L 88.877119 -196.082427 
L 88.487803 -195.428826 
L 88.101785 -194.775224 
L 87.721792 -194.121622 
L 87.350383 -193.46802 
L 86.989907 -192.814418 
L 86.642473 -192.160816 
L 86.309914 -191.507215 
L 85.993774 -190.853613 
L 85.695293 -190.200011 
L 85.415404 -189.546409 
L 85.154733 -188.892807 
L 84.913611 -188.239206 
L 84.692089 -187.585604 
L 84.489962 -186.932002 
L 84.306791 -186.2784 
L 84.141933 -185.624798 
L 83.994577 -184.971196 
L 83.863769 -184.317595 
L 83.748452 -183.663993 
L 83.647495 -183.010391 
z
" style="stroke: #595959; stroke-width: 1.5"/>
    </defs>
    <g clip-path="url(#p1f77cd4c22)">
     <use xlink:href="#m1436157c19" x="0" y="345.6" style="fill: #72b6a1; stroke: #595959; stroke-width: 1.5"/>
    </g>
   </g>
   <g id="PolyCollection_2">
    <defs>
     <path id="mc78df1a25f" d="M 134.656428 -177.909914 
L 133.595 -177.909914 
L 133.491992 -178.599464 
L 133.374093 -179.289013 
L 133.240231 -179.978562 
L 133.089464 -180.668112 
L 132.921023 -181.357661 
L 132.73436 -182.04721 
L 132.529181 -182.736759 
L 132.305489 -183.426309 
L 132.06361 -184.115858 
L 131.804218 -184.805407 
L 131.528345 -185.494956 
L 131.237381 -186.184506 
L 130.933061 -186.874055 
L 130.617437 -187.563604 
L 130.29284 -188.253154 
L 129.961822 -188.942703 
L 129.627094 -189.632252 
L 129.291444 -190.321801 
L 128.957658 -191.011351 
L 128.628427 -191.7009 
L 128.306258 -192.390449 
L 127.993385 -193.079998 
L 127.691683 -193.769548 
L 127.402599 -194.459097 
L 127.127085 -195.148646 
L 126.865556 -195.838196 
L 126.617859 -196.527745 
L 126.383265 -197.217294 
L 126.160482 -197.906843 
L 125.947686 -198.596393 
L 125.742576 -199.285942 
L 125.542448 -199.975491 
L 125.344283 -200.66504 
L 125.144853 -201.35459 
L 124.940837 -202.044139 
L 124.72895 -202.733688 
L 124.506067 -203.423238 
L 124.269355 -204.112787 
L 124.016396 -204.802336 
L 123.745305 -205.491885 
L 123.454831 -206.181435 
L 123.144443 -206.870984 
L 122.814398 -207.560533 
L 122.465781 -208.250083 
L 122.100528 -208.939632 
L 121.721412 -209.629181 
L 121.332012 -210.31873 
L 120.936648 -211.00828 
L 120.540295 -211.697829 
L 120.148473 -212.387378 
L 119.767117 -213.076927 
L 119.402431 -213.766477 
L 119.060733 -214.456026 
L 118.748293 -215.145575 
L 118.471171 -215.835125 
L 118.235061 -216.524674 
L 118.045145 -217.214223 
L 117.905963 -217.903772 
L 117.821304 -218.593322 
L 117.794119 -219.282871 
L 117.826459 -219.97242 
L 117.919439 -220.661969 
L 118.073233 -221.351519 
L 118.287085 -222.041068 
L 118.559357 -222.730617 
L 118.887584 -223.420167 
L 119.268555 -224.109716 
L 119.698401 -224.799265 
L 120.172702 -225.488814 
L 120.686585 -226.178364 
L 121.234836 -226.867913 
L 121.812007 -227.557462 
L 122.412514 -228.247011 
L 123.030736 -228.936561 
L 123.661103 -229.62611 
L 124.298174 -230.315659 
L 124.936712 -231.005209 
L 125.571739 -231.694758 
L 126.198596 -232.384307 
L 126.812986 -233.073856 
L 127.411007 -233.763406 
L 127.989184 -234.452955 
L 128.544491 -235.142504 
L 129.074362 -235.832053 
L 129.576701 -236.521603 
L 130.049879 -237.211152 
L 130.492728 -237.900701 
L 130.904527 -238.590251 
L 131.284981 -239.2798 
L 131.634191 -239.969349 
L 131.952627 -240.658898 
L 132.241087 -241.348448 
L 132.500653 -242.037997 
L 132.732654 -242.727546 
L 132.938613 -243.417096 
L 133.120205 -244.106645 
L 133.279209 -244.796194 
L 133.417469 -245.485743 
L 133.536849 -246.175293 
L 134.71458 -246.175293 
L 134.71458 -246.175293 
L 134.83396 -245.485743 
L 134.97222 -244.796194 
L 135.131224 -244.106645 
L 135.312815 -243.417096 
L 135.518774 -242.727546 
L 135.750775 -242.037997 
L 136.010342 -241.348448 
L 136.298801 -240.658898 
L 136.617238 -239.969349 
L 136.966448 -239.2798 
L 137.346901 -238.590251 
L 137.7587 -237.900701 
L 138.201549 -237.211152 
L 138.674727 -236.521603 
L 139.177066 -235.832053 
L 139.706938 -235.142504 
L 140.262245 -234.452955 
L 140.840422 -233.763406 
L 141.438443 -233.073856 
L 142.052832 -232.384307 
L 142.67969 -231.694758 
L 143.314717 -231.005209 
L 143.953254 -230.315659 
L 144.590326 -229.62611 
L 145.220693 -228.936561 
L 145.838915 -228.247011 
L 146.439422 -227.557462 
L 147.016592 -226.867913 
L 147.564844 -226.178364 
L 148.078727 -225.488814 
L 148.553027 -224.799265 
L 148.982874 -224.109716 
L 149.363844 -223.420167 
L 149.692071 -222.730617 
L 149.964343 -222.041068 
L 150.178196 -221.351519 
L 150.331989 -220.661969 
L 150.42497 -219.97242 
L 150.45731 -219.282871 
L 150.430125 -218.593322 
L 150.345466 -217.903772 
L 150.206284 -217.214223 
L 150.016367 -216.524674 
L 149.780257 -215.835125 
L 149.503135 -215.145575 
L 149.190695 -214.456026 
L 148.848998 -213.766477 
L 148.484312 -213.076927 
L 148.102956 -212.387378 
L 147.711134 -211.697829 
L 147.314781 -211.00828 
L 146.919417 -210.31873 
L 146.530017 -209.629181 
L 146.150901 -208.939632 
L 145.785648 -208.250083 
L 145.437031 -207.560533 
L 145.106985 -206.870984 
L 144.796597 -206.181435 
L 144.506123 -205.491885 
L 144.235033 -204.802336 
L 143.982074 -204.112787 
L 143.745362 -203.423238 
L 143.522479 -202.733688 
L 143.310592 -202.044139 
L 143.106576 -201.35459 
L 142.907145 -200.66504 
L 142.70898 -199.975491 
L 142.508852 -199.285942 
L 142.303743 -198.596393 
L 142.090947 -197.906843 
L 141.868163 -197.217294 
L 141.63357 -196.527745 
L 141.385872 -195.838196 
L 141.124343 -195.148646 
L 140.84883 -194.459097 
L 140.559745 -193.769548 
L 140.258044 -193.079998 
L 139.94517 -192.390449 
L 139.623001 -191.7009 
L 139.293771 -191.011351 
L 138.959985 -190.321801 
L 138.624335 -189.632252 
L 138.289606 -188.942703 
L 137.958589 -188.253154 
L 137.633992 -187.563604 
L 137.318368 -186.874055 
L 137.014048 -186.184506 
L 136.723083 -185.494956 
L 136.44721 -184.805407 
L 136.187818 -184.115858 
L 135.94594 -183.426309 
L 135.722247 -182.736759 
L 135.517069 -182.04721 
L 135.330405 -181.357661 
L 135.161965 -180.668112 
L 135.011197 -179.978562 
L 134.877335 -179.289013 
L 134.759437 -178.599464 
L 134.656428 -177.909914 
z
" style="stroke: #595959; stroke-width: 1.5"/>
    </defs>
    <g clip-path="url(#p929a68cb8b)">
     <use xlink:href="#mc78df1a25f" x="0" y="345.6" style="fill: #e99675; stroke: #595959; stroke-width: 1.5"/>
    </g>
   </g>
   <g id="PolyCollection_3">
    <defs>
     <path id="m7a0fd07c71" d="M 185.579302 -172.922858 
L 184.706413 -172.922858 
L 184.620302 -173.747777 
L 184.521298 -174.572697 
L 184.408305 -175.397616 
L 184.280276 -176.222535 
L 184.136239 -177.047455 
L 183.975321 -177.872374 
L 183.796767 -178.697293 
L 183.599959 -179.522213 
L 183.38443 -180.347132 
L 183.149876 -181.172051 
L 182.89616 -181.996971 
L 182.623315 -182.82189 
L 182.33154 -183.646809 
L 182.021196 -184.471729 
L 181.692796 -185.296648 
L 181.347002 -186.121567 
L 180.984611 -186.946487 
L 180.606555 -187.771406 
L 180.213898 -188.596325 
L 179.807839 -189.421245 
L 179.38972 -190.246164 
L 178.961036 -191.071083 
L 178.523455 -191.896003 
L 178.078833 -192.720922 
L 177.629233 -193.545841 
L 177.176941 -194.370761 
L 176.724476 -195.19568 
L 176.274595 -196.020599 
L 175.830285 -196.845519 
L 175.394745 -197.670438 
L 174.971351 -198.495357 
L 174.56361 -199.320277 
L 174.1751 -200.145196 
L 173.809398 -200.970115 
L 173.469991 -201.795034 
L 173.160194 -202.619954 
L 172.88305 -203.444873 
L 172.641241 -204.269792 
L 172.437003 -205.094712 
L 172.272047 -205.919631 
L 172.147499 -206.74455 
L 172.063854 -207.56947 
L 172.020952 -208.394389 
L 172.017976 -209.219308 
L 172.053468 -210.044228 
L 172.125371 -210.869147 
L 172.23109 -211.694066 
L 172.367572 -212.518986 
L 172.531396 -213.343905 
L 172.71888 -214.168824 
L 172.926193 -214.993744 
L 173.149469 -215.818663 
L 173.384922 -216.643582 
L 173.628952 -217.468502 
L 173.878249 -218.293421 
L 174.129872 -219.11834 
L 174.381329 -219.94326 
L 174.630624 -220.768179 
L 174.876295 -221.593098 
L 175.117428 -222.418018 
L 175.35365 -223.242937 
L 175.585106 -224.067856 
L 175.812409 -224.892776 
L 176.036585 -225.717695 
L 176.258996 -226.542614 
L 176.481249 -227.367534 
L 176.705108 -228.192453 
L 176.932395 -229.017372 
L 177.164887 -229.842292 
L 177.404226 -230.667211 
L 177.651834 -231.49213 
L 177.908834 -232.31705 
L 178.17599 -233.141969 
L 178.453664 -233.966888 
L 178.741785 -234.791808 
L 179.039848 -235.616727 
L 179.346917 -236.441646 
L 179.661657 -237.266566 
L 179.98238 -238.091485 
L 180.307097 -238.916404 
L 180.633592 -239.741324 
L 180.959493 -240.566243 
L 181.282356 -241.391162 
L 181.599736 -242.216082 
L 181.909272 -243.041001 
L 182.208749 -243.86592 
L 182.49616 -244.69084 
L 182.769758 -245.515759 
L 183.028089 -246.340678 
L 183.270017 -247.165598 
L 183.494738 -247.990517 
L 183.701774 -248.815436 
L 183.890962 -249.640356 
L 184.062437 -250.465275 
L 184.216594 -251.290194 
L 184.354059 -252.115114 
L 184.475649 -252.940033 
L 184.582328 -253.764952 
L 184.67517 -254.589872 
L 185.610544 -254.589872 
L 185.610544 -254.589872 
L 185.703387 -253.764952 
L 185.810066 -252.940033 
L 185.931655 -252.115114 
L 186.06912 -251.290194 
L 186.223277 -250.465275 
L 186.394752 -249.640356 
L 186.583941 -248.815436 
L 186.790976 -247.990517 
L 187.015697 -247.165598 
L 187.257626 -246.340678 
L 187.515956 -245.515759 
L 187.789554 -244.69084 
L 188.076966 -243.86592 
L 188.376442 -243.041001 
L 188.685978 -242.216082 
L 189.003359 -241.391162 
L 189.326221 -240.566243 
L 189.652123 -239.741324 
L 189.978617 -238.916404 
L 190.303334 -238.091485 
L 190.624057 -237.266566 
L 190.938797 -236.441646 
L 191.245866 -235.616727 
L 191.543929 -234.791808 
L 191.832051 -233.966888 
L 192.109724 -233.141969 
L 192.37688 -232.31705 
L 192.63388 -231.49213 
L 192.881488 -230.667211 
L 193.120828 -229.842292 
L 193.353319 -229.017372 
L 193.580606 -228.192453 
L 193.804466 -227.367534 
L 194.026719 -226.542614 
L 194.249129 -225.717695 
L 194.473305 -224.892776 
L 194.700609 -224.067856 
L 194.932064 -223.242937 
L 195.168287 -222.418018 
L 195.40942 -221.593098 
L 195.655091 -220.768179 
L 195.904385 -219.94326 
L 196.155842 -219.11834 
L 196.407465 -218.293421 
L 196.656762 -217.468502 
L 196.900793 -216.643582 
L 197.136246 -215.818663 
L 197.359522 -214.993744 
L 197.566835 -214.168824 
L 197.754318 -213.343905 
L 197.918142 -212.518986 
L 198.054624 -211.694066 
L 198.160343 -210.869147 
L 198.232246 -210.044228 
L 198.267738 -209.219308 
L 198.264762 -208.394389 
L 198.22186 -207.56947 
L 198.138215 -206.74455 
L 198.013667 -205.919631 
L 197.848711 -205.094712 
L 197.644473 -204.269792 
L 197.402664 -203.444873 
L 197.12552 -202.619954 
L 196.815723 -201.795034 
L 196.476316 -200.970115 
L 196.110614 -200.145196 
L 195.722105 -199.320277 
L 195.314364 -198.495357 
L 194.890969 -197.670438 
L 194.455429 -196.845519 
L 194.01112 -196.020599 
L 193.561239 -195.19568 
L 193.108774 -194.370761 
L 192.656481 -193.545841 
L 192.206881 -192.720922 
L 191.762259 -191.896003 
L 191.324679 -191.071083 
L 190.895995 -190.246164 
L 190.477875 -189.421245 
L 190.071816 -188.596325 
L 189.679159 -187.771406 
L 189.301103 -186.946487 
L 188.938712 -186.121567 
L 188.592918 -185.296648 
L 188.264519 -184.471729 
L 187.954174 -183.646809 
L 187.662399 -182.82189 
L 187.389554 -181.996971 
L 187.135838 -181.172051 
L 186.901284 -180.347132 
L 186.685755 -179.522213 
L 186.488947 -178.697293 
L 186.310393 -177.872374 
L 186.149475 -177.047455 
L 186.005439 -176.222535 
L 185.877409 -175.397616 
L 185.764416 -174.572697 
L 185.665412 -173.747777 
L 185.579302 -172.922858 
z
" style="stroke: #595959; stroke-width: 1.5"/>
    </defs>
    <g clip-path="url(#pebfd534e9a)">
     <use xlink:href="#m7a0fd07c71" x="0" y="345.6" style="fill: #95a3c3; stroke: #595959; stroke-width: 1.5"/>
    </g>
   </g>
   <g id="PolyCollection_4">
    <defs>
     <path id="m701b8cba8d" d="M 236.804279 -153.696103 
L 235.515721 -153.696103 
L 235.387622 -154.566346 
L 235.23971 -155.436588 
L 235.070146 -156.30683 
L 234.87716 -157.177073 
L 234.659112 -158.047315 
L 234.414547 -158.917557 
L 234.142266 -159.787799 
L 233.841385 -160.658042 
L 233.511403 -161.528284 
L 233.152265 -162.398526 
L 232.764419 -163.268769 
L 232.348865 -164.139011 
L 231.90719 -165.009253 
L 231.441596 -165.879495 
L 230.954907 -166.749738 
L 230.45056 -167.61998 
L 229.932577 -168.490222 
L 229.405521 -169.360465 
L 228.874426 -170.230707 
L 228.344713 -171.100949 
L 227.82209 -171.971192 
L 227.312437 -172.841434 
L 226.821674 -173.711676 
L 226.355629 -174.581918 
L 225.919897 -175.452161 
L 225.519701 -176.322403 
L 225.159758 -177.192645 
L 224.844151 -178.062888 
L 224.576222 -178.93313 
L 224.358473 -179.803372 
L 224.192496 -180.673614 
L 224.078921 -181.543857 
L 224.017397 -182.414099 
L 224.006589 -183.284341 
L 224.044217 -184.154584 
L 224.127111 -185.024826 
L 224.251298 -185.895068 
L 224.412111 -186.765311 
L 224.604318 -187.635553 
L 224.822272 -188.505795 
L 225.060065 -189.376037 
L 225.311698 -190.24628 
L 225.57125 -191.116522 
L 225.833038 -191.986764 
L 226.091773 -192.857007 
L 226.342702 -193.727249 
L 226.581725 -194.597491 
L 226.805493 -195.467734 
L 227.011479 -196.337976 
L 227.198013 -197.208218 
L 227.364299 -198.07846 
L 227.510393 -198.948703 
L 227.637155 -199.818945 
L 227.746175 -200.689187 
L 227.839684 -201.55943 
L 227.920435 -202.429672 
L 227.991581 -203.299914 
L 228.056547 -204.170156 
L 228.118891 -205.040399 
L 228.182177 -205.910641 
L 228.249855 -206.780883 
L 228.325149 -207.651126 
L 228.410968 -208.521368 
L 228.509825 -209.39161 
L 228.623783 -210.261853 
L 228.754418 -211.132095 
L 228.9028 -212.002337 
L 229.069489 -212.872579 
L 229.254555 -213.742822 
L 229.457601 -214.613064 
L 229.677804 -215.483306 
L 229.91396 -216.353549 
L 230.164541 -217.223791 
L 230.427744 -218.094033 
L 230.701558 -218.964275 
L 230.983813 -219.834518 
L 231.272239 -220.70476 
L 231.56452 -221.575002 
L 231.858339 -222.445245 
L 232.151428 -223.315487 
L 232.441604 -224.185729 
L 232.726808 -225.055972 
L 233.005134 -225.926214 
L 233.274852 -226.796456 
L 233.534432 -227.666698 
L 233.782559 -228.536941 
L 234.01814 -229.407183 
L 234.240311 -230.277425 
L 234.448435 -231.147668 
L 234.642103 -232.01791 
L 234.821116 -232.888152 
L 234.985478 -233.758395 
L 235.13538 -234.628637 
L 235.271175 -235.498879 
L 235.393363 -236.369121 
L 235.502565 -237.239364 
L 235.599499 -238.109606 
L 235.684956 -238.979848 
L 235.759781 -239.850091 
L 236.560219 -239.850091 
L 236.560219 -239.850091 
L 236.635044 -238.979848 
L 236.720501 -238.109606 
L 236.817435 -237.239364 
L 236.926637 -236.369121 
L 237.048825 -235.498879 
L 237.18462 -234.628637 
L 237.334522 -233.758395 
L 237.498884 -232.888152 
L 237.677897 -232.01791 
L 237.871565 -231.147668 
L 238.079689 -230.277425 
L 238.30186 -229.407183 
L 238.537441 -228.536941 
L 238.785568 -227.666698 
L 239.045148 -226.796456 
L 239.314866 -225.926214 
L 239.593192 -225.055972 
L 239.878396 -224.185729 
L 240.168572 -223.315487 
L 240.461661 -222.445245 
L 240.75548 -221.575002 
L 241.047761 -220.70476 
L 241.336187 -219.834518 
L 241.618442 -218.964275 
L 241.892256 -218.094033 
L 242.155459 -217.223791 
L 242.40604 -216.353549 
L 242.642196 -215.483306 
L 242.862399 -214.613064 
L 243.065445 -213.742822 
L 243.250511 -212.872579 
L 243.4172 -212.002337 
L 243.565582 -211.132095 
L 243.696217 -210.261853 
L 243.810175 -209.39161 
L 243.909032 -208.521368 
L 243.994851 -207.651126 
L 244.070145 -206.780883 
L 244.137823 -205.910641 
L 244.201109 -205.040399 
L 244.263453 -204.170156 
L 244.328419 -203.299914 
L 244.399565 -202.429672 
L 244.480316 -201.55943 
L 244.573825 -200.689187 
L 244.682845 -199.818945 
L 244.809607 -198.948703 
L 244.955701 -198.07846 
L 245.121987 -197.208218 
L 245.308521 -196.337976 
L 245.514507 -195.467734 
L 245.738275 -194.597491 
L 245.977298 -193.727249 
L 246.228227 -192.857007 
L 246.486962 -191.986764 
L 246.74875 -191.116522 
L 247.008302 -190.24628 
L 247.259935 -189.376037 
L 247.497728 -188.505795 
L 247.715682 -187.635553 
L 247.907889 -186.765311 
L 248.068702 -185.895068 
L 248.192889 -185.024826 
L 248.275783 -184.154584 
L 248.313411 -183.284341 
L 248.302603 -182.414099 
L 248.241079 -181.543857 
L 248.127504 -180.673614 
L 247.961527 -179.803372 
L 247.743778 -178.93313 
L 247.475849 -178.062888 
L 247.160242 -177.192645 
L 246.800299 -176.322403 
L 246.400103 -175.452161 
L 245.964371 -174.581918 
L 245.498326 -173.711676 
L 245.007563 -172.841434 
L 244.49791 -171.971192 
L 243.975287 -171.100949 
L 243.445574 -170.230707 
L 242.914479 -169.360465 
L 242.387423 -168.490222 
L 241.86944 -167.61998 
L 241.365093 -166.749738 
L 240.878404 -165.879495 
L 240.41281 -165.009253 
L 239.971135 -164.139011 
L 239.555581 -163.268769 
L 239.167735 -162.398526 
L 238.808597 -161.528284 
L 238.478615 -160.658042 
L 238.177734 -159.787799 
L 237.905453 -158.917557 
L 237.660888 -158.047315 
L 237.44284 -157.177073 
L 237.249854 -156.30683 
L 237.08029 -155.436588 
L 236.932378 -154.566346 
L 236.804279 -153.696103 
z
" style="stroke: #595959; stroke-width: 1.5"/>
    </defs>
    <g clip-path="url(#p624934e607)">
     <use xlink:href="#m701b8cba8d" x="0" y="345.6" style="fill: #db96c0; stroke: #595959; stroke-width: 1.5"/>
    </g>
   </g>
   <g id="PolyCollection_5">
    <defs>
     <path id="m76964b673b" d="M 288.235736 -197.133614 
L 286.11855 -197.133614 
L 285.921738 -197.655759 
L 285.69734 -198.177904 
L 285.443345 -198.70005 
L 285.157951 -199.222195 
L 284.83964 -199.74434 
L 284.487254 -200.266485 
L 284.100071 -200.788631 
L 283.677879 -201.310776 
L 283.221034 -201.832921 
L 282.730519 -202.355067 
L 282.207976 -202.877212 
L 281.655729 -203.399357 
L 281.076777 -203.921503 
L 280.474772 -204.443648 
L 279.85397 -204.965793 
L 279.219155 -205.487939 
L 278.575541 -206.010084 
L 277.928657 -206.532229 
L 277.284209 -207.054375 
L 276.647932 -207.57652 
L 276.025435 -208.098665 
L 275.422047 -208.620811 
L 274.842661 -209.142956 
L 274.291608 -209.665101 
L 273.772528 -210.187246 
L 273.28829 -210.709392 
L 272.840924 -211.231537 
L 272.431598 -211.753682 
L 272.060628 -212.275828 
L 271.727517 -212.797973 
L 271.43104 -213.320118 
L 271.169348 -213.842264 
L 270.940102 -214.364409 
L 270.740618 -214.886554 
L 270.568029 -215.4087 
L 270.419443 -215.930845 
L 270.292091 -216.45299 
L 270.183465 -216.975136 
L 270.091423 -217.497281 
L 270.01428 -218.019426 
L 269.950847 -218.541572 
L 269.900451 -219.063717 
L 269.862913 -219.585862 
L 269.838498 -220.108007 
L 269.827832 -220.630153 
L 269.831804 -221.152298 
L 269.851451 -221.674443 
L 269.887841 -222.196589 
L 269.941954 -222.718734 
L 270.014583 -223.240879 
L 270.106241 -223.763025 
L 270.217109 -224.28517 
L 270.346996 -224.807315 
L 270.495343 -225.329461 
L 270.661246 -225.851606 
L 270.843516 -226.373751 
L 271.040756 -226.895897 
L 271.251459 -227.418042 
L 271.47411 -227.940187 
L 271.707302 -228.462333 
L 271.949828 -228.984478 
L 272.200779 -229.506623 
L 272.459603 -230.028768 
L 272.726156 -230.550914 
L 273.000709 -231.073059 
L 273.283934 -231.595204 
L 273.576857 -232.11735 
L 273.880785 -232.639495 
L 274.197211 -233.16164 
L 274.527701 -233.683786 
L 274.873772 -234.205931 
L 275.236768 -234.728076 
L 275.617745 -235.250222 
L 276.01736 -235.772367 
L 276.43579 -236.294512 
L 276.872666 -236.816658 
L 277.327035 -237.338803 
L 277.797356 -237.860948 
L 278.281521 -238.383094 
L 278.776902 -238.905239 
L 279.280423 -239.427384 
L 279.788652 -239.949529 
L 280.297909 -240.471675 
L 280.804378 -240.99382 
L 281.304224 -241.515965 
L 281.793708 -242.038111 
L 282.269295 -242.560256 
L 282.727745 -243.082401 
L 283.166192 -243.604547 
L 283.582206 -244.126692 
L 283.973831 -244.648837 
L 284.339609 -245.170983 
L 284.67858 -245.693128 
L 284.990272 -246.215273 
L 285.27467 -246.737419 
L 285.532171 -247.259564 
L 285.763544 -247.781709 
L 285.969863 -248.303855 
L 286.152458 -248.826 
L 288.201828 -248.826 
L 288.201828 -248.826 
L 288.384422 -248.303855 
L 288.590742 -247.781709 
L 288.822115 -247.259564 
L 289.079616 -246.737419 
L 289.364013 -246.215273 
L 289.675706 -245.693128 
L 290.014677 -245.170983 
L 290.380455 -244.648837 
L 290.77208 -244.126692 
L 291.188094 -243.604547 
L 291.626541 -243.082401 
L 292.084991 -242.560256 
L 292.560578 -242.038111 
L 293.050062 -241.515965 
L 293.549908 -240.99382 
L 294.056376 -240.471675 
L 294.565634 -239.949529 
L 295.073863 -239.427384 
L 295.577384 -238.905239 
L 296.072765 -238.383094 
L 296.55693 -237.860948 
L 297.027251 -237.338803 
L 297.48162 -236.816658 
L 297.918495 -236.294512 
L 298.336926 -235.772367 
L 298.736541 -235.250222 
L 299.117518 -234.728076 
L 299.480514 -234.205931 
L 299.826584 -233.683786 
L 300.157074 -233.16164 
L 300.4735 -232.639495 
L 300.777429 -232.11735 
L 301.070352 -231.595204 
L 301.353576 -231.073059 
L 301.628129 -230.550914 
L 301.894682 -230.028768 
L 302.153507 -229.506623 
L 302.404457 -228.984478 
L 302.646984 -228.462333 
L 302.880175 -227.940187 
L 303.102827 -227.418042 
L 303.31353 -226.895897 
L 303.51077 -226.373751 
L 303.69304 -225.851606 
L 303.858943 -225.329461 
L 304.007289 -224.807315 
L 304.137177 -224.28517 
L 304.248045 -223.763025 
L 304.339703 -223.240879 
L 304.412331 -222.718734 
L 304.466445 -222.196589 
L 304.502835 -221.674443 
L 304.522482 -221.152298 
L 304.526454 -220.630153 
L 304.515787 -220.108007 
L 304.491372 -219.585862 
L 304.453835 -219.063717 
L 304.403439 -218.541572 
L 304.340006 -218.019426 
L 304.262862 -217.497281 
L 304.170821 -216.975136 
L 304.062194 -216.45299 
L 303.934843 -215.930845 
L 303.786257 -215.4087 
L 303.613668 -214.886554 
L 303.414184 -214.364409 
L 303.184937 -213.842264 
L 302.923246 -213.320118 
L 302.626769 -212.797973 
L 302.293658 -212.275828 
L 301.922687 -211.753682 
L 301.513362 -211.231537 
L 301.065996 -210.709392 
L 300.581758 -210.187246 
L 300.062678 -209.665101 
L 299.511624 -209.142956 
L 298.932239 -208.620811 
L 298.32885 -208.098665 
L 297.706354 -207.57652 
L 297.070077 -207.054375 
L 296.425629 -206.532229 
L 295.778745 -206.010084 
L 295.135131 -205.487939 
L 294.500315 -204.965793 
L 293.879513 -204.443648 
L 293.277509 -203.921503 
L 292.698557 -203.399357 
L 292.146309 -202.877212 
L 291.623767 -202.355067 
L 291.133252 -201.832921 
L 290.676407 -201.310776 
L 290.254214 -200.788631 
L 289.867032 -200.266485 
L 289.514646 -199.74434 
L 289.196335 -199.222195 
L 288.910941 -198.70005 
L 288.656946 -198.177904 
L 288.432548 -197.655759 
L 288.235736 -197.133614 
z
" style="stroke: #595959; stroke-width: 1.5"/>
    </defs>
    <g clip-path="url(#p50fde4896e)">
     <use xlink:href="#m76964b673b" x="0" y="345.6" style="fill: #a2c865; stroke: #595959; stroke-width: 1.5"/>
    </g>
   </g>
   <g id="PolyCollection_6">
    <defs>
     <path id="m49fb1773a7" d="M 338.945975 -197.043943 
L 337.442596 -197.043943 
L 337.295118 -197.540375 
L 337.125241 -198.036807 
L 336.930898 -198.533238 
L 336.710065 -199.02967 
L 336.460813 -199.526102 
L 336.181348 -200.022534 
L 335.870063 -200.518965 
L 335.52559 -201.015397 
L 335.146841 -201.511829 
L 334.733057 -202.00826 
L 334.283849 -202.504692 
L 333.799232 -203.001124 
L 333.279656 -203.497556 
L 332.726032 -203.993987 
L 332.139744 -204.490419 
L 331.522659 -204.986851 
L 330.877131 -205.483282 
L 330.205985 -205.979714 
L 329.512509 -206.476146 
L 328.800427 -206.972578 
L 328.073862 -207.469009 
L 327.337304 -207.965441 
L 326.595551 -208.461873 
L 325.853662 -208.958305 
L 325.116884 -209.454736 
L 324.390585 -209.951168 
L 323.680178 -210.4476 
L 322.991033 -210.944031 
L 322.328392 -211.440463 
L 321.697286 -211.936895 
L 321.102439 -212.433327 
L 320.548189 -212.929758 
L 320.038406 -213.42619 
L 319.57642 -213.922622 
L 319.164962 -214.419053 
L 318.806112 -214.915485 
L 318.50127 -215.411917 
L 318.251134 -215.908349 
L 318.0557 -216.40478 
L 317.914274 -216.901212 
L 317.825506 -217.397644 
L 317.787429 -217.894075 
L 317.797517 -218.390507 
L 317.852753 -218.886939 
L 317.9497 -219.383371 
L 318.084584 -219.879802 
L 318.253377 -220.376234 
L 318.451887 -220.872666 
L 318.67584 -221.369097 
L 318.920972 -221.865529 
L 319.183114 -222.361961 
L 319.458276 -222.858393 
L 319.742732 -223.354824 
L 320.033091 -223.851256 
L 320.326381 -224.347688 
L 320.620104 -224.844119 
L 320.912306 -225.340551 
L 321.201614 -225.836983 
L 321.487279 -226.333415 
L 321.769186 -226.829846 
L 322.047857 -227.326278 
L 322.324427 -227.82271 
L 322.6006 -228.319141 
L 322.878578 -228.815573 
L 323.160974 -229.312005 
L 323.4507 -229.808437 
L 323.750838 -230.304868 
L 324.064502 -230.8013 
L 324.394688 -231.297732 
L 324.744129 -231.794163 
L 325.115153 -232.290595 
L 325.509557 -232.787027 
L 325.928495 -233.283459 
L 326.372399 -233.77989 
L 326.840925 -234.276322 
L 327.332933 -234.772754 
L 327.8465 -235.269185 
L 328.378966 -235.765617 
L 328.927008 -236.262049 
L 329.486749 -236.758481 
L 330.053877 -237.254912 
L 330.623783 -237.751344 
L 331.191716 -238.247776 
L 331.75292 -238.744208 
L 332.302787 -239.240639 
L 332.83698 -239.737071 
L 333.351552 -240.233503 
L 333.843038 -240.729934 
L 334.308523 -241.226366 
L 334.745693 -241.722798 
L 335.152852 -242.21923 
L 335.528921 -242.715661 
L 335.873417 -243.212093 
L 336.186411 -243.708525 
L 336.468473 -244.204956 
L 336.720608 -244.701388 
L 336.944182 -245.19782 
L 337.140849 -245.694252 
L 337.312474 -246.190683 
L 339.076097 -246.190683 
L 339.076097 -246.190683 
L 339.247722 -245.694252 
L 339.444389 -245.19782 
L 339.667963 -244.701388 
L 339.920098 -244.204956 
L 340.202161 -243.708525 
L 340.515154 -243.212093 
L 340.85965 -242.715661 
L 341.23572 -242.21923 
L 341.642878 -241.722798 
L 342.080048 -241.226366 
L 342.545534 -240.729934 
L 343.037019 -240.233503 
L 343.551591 -239.737071 
L 344.085784 -239.240639 
L 344.635651 -238.744208 
L 345.196856 -238.247776 
L 345.764788 -237.751344 
L 346.334695 -237.254912 
L 346.901822 -236.758481 
L 347.461563 -236.262049 
L 348.009606 -235.765617 
L 348.542071 -235.269185 
L 349.055638 -234.772754 
L 349.547647 -234.276322 
L 350.016173 -233.77989 
L 350.460077 -233.283459 
L 350.879014 -232.787027 
L 351.273418 -232.290595 
L 351.644443 -231.794163 
L 351.993884 -231.297732 
L 352.32407 -230.8013 
L 352.637733 -230.304868 
L 352.937872 -229.808437 
L 353.227597 -229.312005 
L 353.509994 -228.815573 
L 353.787972 -228.319141 
L 354.064144 -227.82271 
L 354.340714 -227.326278 
L 354.619385 -226.829846 
L 354.901292 -226.333415 
L 355.186957 -225.836983 
L 355.476266 -225.340551 
L 355.768467 -224.844119 
L 356.062191 -224.347688 
L 356.35548 -223.851256 
L 356.64584 -223.354824 
L 356.930295 -222.858393 
L 357.205458 -222.361961 
L 357.4676 -221.865529 
L 357.712732 -221.369097 
L 357.936684 -220.872666 
L 358.135194 -220.376234 
L 358.303988 -219.879802 
L 358.438872 -219.383371 
L 358.535819 -218.886939 
L 358.591054 -218.390507 
L 358.601143 -217.894075 
L 358.563066 -217.397644 
L 358.474298 -216.901212 
L 358.332872 -216.40478 
L 358.137437 -215.908349 
L 357.887301 -215.411917 
L 357.582459 -214.915485 
L 357.223609 -214.419053 
L 356.812151 -213.922622 
L 356.350165 -213.42619 
L 355.840382 -212.929758 
L 355.286132 -212.433327 
L 354.691286 -211.936895 
L 354.060179 -211.440463 
L 353.397539 -210.944031 
L 352.708393 -210.4476 
L 351.997986 -209.951168 
L 351.271688 -209.454736 
L 350.53491 -208.958305 
L 349.79302 -208.461873 
L 349.051268 -207.965441 
L 348.314709 -207.469009 
L 347.588145 -206.972578 
L 346.876062 -206.476146 
L 346.182587 -205.979714 
L 345.511441 -205.483282 
L 344.865912 -204.986851 
L 344.248828 -204.490419 
L 343.66254 -203.993987 
L 343.108915 -203.497556 
L 342.58934 -203.001124 
L 342.104722 -202.504692 
L 341.655514 -202.00826 
L 341.24173 -201.511829 
L 340.862981 -201.015397 
L 340.518508 -200.518965 
L 340.207224 -200.022534 
L 339.927759 -199.526102 
L 339.678506 -199.02967 
L 339.457674 -198.533238 
L 339.26333 -198.036807 
L 339.093454 -197.540375 
L 338.945975 -197.043943 
z
" style="stroke: #595959; stroke-width: 1.5"/>
    </defs>
    <g clip-path="url(#p1380fb67fd)">
     <use xlink:href="#m49fb1773a7" x="0" y="345.6" style="fill: #e5c849; stroke: #595959; stroke-width: 1.5"/>
    </g>
   </g>
   <g id="PolyCollection_7">
    <defs>
     <path id="m7acf608513" d="M 389.74741 -176.257576 
L 388.675447 -176.257576 
L 388.576444 -176.984162 
L 388.463818 -177.710747 
L 388.336661 -178.437333 
L 388.194192 -179.163918 
L 388.035801 -179.890504 
L 387.861088 -180.617089 
L 387.669902 -181.343675 
L 387.462383 -182.07026 
L 387.238989 -182.796846 
L 387.000528 -183.523431 
L 386.748172 -184.250017 
L 386.483463 -184.976602 
L 386.208312 -185.703188 
L 385.924975 -186.429774 
L 385.636022 -187.156359 
L 385.34429 -187.882945 
L 385.052815 -188.60953 
L 384.764763 -189.336116 
L 384.483337 -190.062701 
L 384.211682 -190.789287 
L 383.952781 -191.515872 
L 383.70935 -192.242458 
L 383.483735 -192.969043 
L 383.27781 -193.695629 
L 383.092888 -194.422214 
L 382.92965 -195.1488 
L 382.788084 -195.875385 
L 382.667451 -196.601971 
L 382.566269 -197.328556 
L 382.482333 -198.055142 
L 382.412746 -198.781727 
L 382.353988 -199.508313 
L 382.302004 -200.234898 
L 382.252313 -200.961484 
L 382.200137 -201.68807 
L 382.140545 -202.414655 
L 382.068604 -203.141241 
L 381.979535 -203.867826 
L 381.868866 -204.594412 
L 381.732578 -205.320997 
L 381.567246 -206.047583 
L 381.370149 -206.774168 
L 381.139373 -207.500754 
L 380.873883 -208.227339 
L 380.573575 -208.953925 
L 380.239291 -209.68051 
L 379.872823 -210.407096 
L 379.476877 -211.133681 
L 379.055023 -211.860267 
L 378.611622 -212.586852 
L 378.151728 -213.313438 
L 377.680992 -214.040023 
L 377.205536 -214.766609 
L 376.731835 -215.493195 
L 376.266589 -216.21978 
L 375.816592 -216.946366 
L 375.388609 -217.672951 
L 374.989257 -218.399537 
L 374.624881 -219.126122 
L 374.301455 -219.852708 
L 374.024475 -220.579293 
L 373.798873 -221.305879 
L 373.628934 -222.032464 
L 373.518221 -222.75905 
L 373.469525 -223.485635 
L 373.484806 -224.212221 
L 373.565163 -224.938806 
L 373.71081 -225.665392 
L 373.921069 -226.391977 
L 374.194372 -227.118563 
L 374.528292 -227.845148 
L 374.919572 -228.571734 
L 375.36419 -229.29832 
L 375.857422 -230.024905 
L 376.393936 -230.751491 
L 376.967887 -231.478076 
L 377.573033 -232.204662 
L 378.202851 -232.931247 
L 378.85067 -233.657833 
L 379.509793 -234.384418 
L 380.17363 -235.111004 
L 380.835814 -235.837589 
L 381.490321 -236.564175 
L 382.131566 -237.29076 
L 382.754491 -238.017346 
L 383.354634 -238.743931 
L 383.928182 -239.470517 
L 384.471997 -240.197102 
L 384.983635 -240.923688 
L 385.461334 -241.650273 
L 385.903994 -242.376859 
L 386.31114 -243.103445 
L 386.682867 -243.83003 
L 387.019781 -244.556616 
L 387.322935 -245.283201 
L 387.59375 -246.009787 
L 387.833948 -246.736372 
L 388.045477 -247.462958 
L 388.230441 -248.189543 
L 390.192417 -248.189543 
L 390.192417 -248.189543 
L 390.37738 -247.462958 
L 390.588909 -246.736372 
L 390.829107 -246.009787 
L 391.099922 -245.283201 
L 391.403076 -244.556616 
L 391.73999 -243.83003 
L 392.111717 -243.103445 
L 392.518863 -242.376859 
L 392.961523 -241.650273 
L 393.439222 -240.923688 
L 393.95086 -240.197102 
L 394.494675 -239.470517 
L 395.068223 -238.743931 
L 395.668366 -238.017346 
L 396.291291 -237.29076 
L 396.932536 -236.564175 
L 397.587043 -235.837589 
L 398.249228 -235.111004 
L 398.913064 -234.384418 
L 399.572187 -233.657833 
L 400.220006 -232.931247 
L 400.849825 -232.204662 
L 401.45497 -231.478076 
L 402.028921 -230.751491 
L 402.565435 -230.024905 
L 403.058667 -229.29832 
L 403.503285 -228.571734 
L 403.894565 -227.845148 
L 404.228485 -227.118563 
L 404.501789 -226.391977 
L 404.712047 -225.665392 
L 404.857694 -224.938806 
L 404.938051 -224.212221 
L 404.953332 -223.485635 
L 404.904636 -222.75905 
L 404.793924 -222.032464 
L 404.623984 -221.305879 
L 404.398382 -220.579293 
L 404.121402 -219.852708 
L 403.797976 -219.126122 
L 403.4336 -218.399537 
L 403.034248 -217.672951 
L 402.606266 -216.946366 
L 402.156269 -216.21978 
L 401.691022 -215.493195 
L 401.217321 -214.766609 
L 400.741865 -214.040023 
L 400.271129 -213.313438 
L 399.811236 -212.586852 
L 399.367834 -211.860267 
L 398.94598 -211.133681 
L 398.550034 -210.407096 
L 398.183566 -209.68051 
L 397.849282 -208.953925 
L 397.548974 -208.227339 
L 397.283485 -207.500754 
L 397.052708 -206.774168 
L 396.855611 -206.047583 
L 396.690279 -205.320997 
L 396.553991 -204.594412 
L 396.443322 -203.867826 
L 396.354253 -203.141241 
L 396.282312 -202.414655 
L 396.222721 -201.68807 
L 396.170545 -200.961484 
L 396.120853 -200.234898 
L 396.068869 -199.508313 
L 396.010111 -198.781727 
L 395.940524 -198.055142 
L 395.856588 -197.328556 
L 395.755407 -196.601971 
L 395.634773 -195.875385 
L 395.493207 -195.1488 
L 395.329969 -194.422214 
L 395.145047 -193.695629 
L 394.939122 -192.969043 
L 394.713507 -192.242458 
L 394.470076 -191.515872 
L 394.211176 -190.789287 
L 393.93952 -190.062701 
L 393.658094 -189.336116 
L 393.370042 -188.60953 
L 393.078567 -187.882945 
L 392.786835 -187.156359 
L 392.497882 -186.429774 
L 392.214545 -185.703188 
L 391.939394 -184.976602 
L 391.674686 -184.250017 
L 391.422329 -183.523431 
L 391.183868 -182.796846 
L 390.960474 -182.07026 
L 390.752955 -181.343675 
L 390.561769 -180.617089 
L 390.387056 -179.890504 
L 390.228665 -179.163918 
L 390.086196 -178.437333 
L 389.959039 -177.710747 
L 389.846413 -176.984162 
L 389.74741 -176.257576 
z
" style="stroke: #595959; stroke-width: 1.5"/>
    </defs>
    <g clip-path="url(#p17e737fb6d)">
     <use xlink:href="#m7acf608513" x="0" y="345.6" style="fill: #dbc29e; stroke: #595959; stroke-width: 1.5"/>
    </g>
   </g>
   <g id="line2d_1">
    <path d="M 83.108571 136.968952 
L 83.108571 146.745907 
" clip-path="url(#pd330af10a5)" style="fill: none; stroke: #3d3d3d; stroke-width: 1.5; stroke-linecap: round"/>
   </g>
   <g id="line2d_2">
    <path d="M 83.108571 119.977701 
L 83.108571 113.72673 
" clip-path="url(#pd330af10a5)" style="fill: none; stroke: #3d3d3d; stroke-width: 1.5; stroke-linecap: round"/>
   </g>
   <g id="line2d_3">
    <path d="M 79.282286 146.745907 
L 86.934857 146.745907 
" clip-path="url(#pd330af10a5)" style="fill: none; stroke: #3d3d3d; stroke-width: 1.5; stroke-linecap: round"/>
   </g>
   <g id="line2d_4">
    <path d="M 79.282286 113.72673 
L 86.934857 113.72673 
" clip-path="url(#pd330af10a5)" style="fill: none; stroke: #3d3d3d; stroke-width: 1.5; stroke-linecap: round"/>
   </g>
   <g id="line2d_5">
    <path d="M 134.125714 138.097267 
L 134.125714 151.674301 
" clip-path="url(#pd330af10a5)" style="fill: none; stroke: #3d3d3d; stroke-width: 1.5; stroke-linecap: round"/>
   </g>
   <g id="line2d_6">
    <path d="M 134.125714 123.647386 
L 134.125714 115.440492 
" clip-path="url(#pd330af10a5)" style="fill: none; stroke: #3d3d3d; stroke-width: 1.5; stroke-linecap: round"/>
   </g>
   <g id="line2d_7">
    <path d="M 130.299429 151.674301 
L 137.952 151.674301 
" clip-path="url(#pd330af10a5)" style="fill: none; stroke: #3d3d3d; stroke-width: 1.5; stroke-linecap: round"/>
   </g>
   <g id="line2d_8">
    <path d="M 130.299429 115.440492 
L 137.952 115.440492 
" clip-path="url(#pd330af10a5)" style="fill: none; stroke: #3d3d3d; stroke-width: 1.5; stroke-linecap: round"/>
   </g>
   <g id="line2d_9">
    <path d="M 185.142857 141.559384 
L 185.142857 153.728686 
" clip-path="url(#pd330af10a5)" style="fill: none; stroke: #3d3d3d; stroke-width: 1.5; stroke-linecap: round"/>
   </g>
   <g id="line2d_10">
    <path d="M 185.142857 123.825681 
L 185.142857 109.958584 
" clip-path="url(#pd330af10a5)" style="fill: none; stroke: #3d3d3d; stroke-width: 1.5; stroke-linecap: round"/>
   </g>
   <g id="line2d_11">
    <path d="M 181.316571 153.728686 
L 188.969143 153.728686 
" clip-path="url(#pd330af10a5)" style="fill: none; stroke: #3d3d3d; stroke-width: 1.5; stroke-linecap: round"/>
   </g>
   <g id="line2d_12">
    <path d="M 181.316571 109.958584 
L 188.969143 109.958584 
" clip-path="url(#pd330af10a5)" style="fill: none; stroke: #3d3d3d; stroke-width: 1.5; stroke-linecap: round"/>
   </g>
   <g id="line2d_13">
    <path d="M 236.16 165.655826 
L 236.16 170.791788 
" clip-path="url(#pd330af10a5)" style="fill: none; stroke: #3d3d3d; stroke-width: 1.5; stroke-linecap: round"/>
   </g>
   <g id="line2d_14">
    <path d="M 236.16 139.41186 
L 236.16 126.862019 
" clip-path="url(#pd330af10a5)" style="fill: none; stroke: #3d3d3d; stroke-width: 1.5; stroke-linecap: round"/>
   </g>
   <g id="line2d_15">
    <path d="M 232.333714 170.791788 
L 239.986286 170.791788 
" clip-path="url(#pd330af10a5)" style="fill: none; stroke: #3d3d3d; stroke-width: 1.5; stroke-linecap: round"/>
   </g>
   <g id="line2d_16">
    <path d="M 232.333714 126.862019 
L 239.986286 126.862019 
" clip-path="url(#pd330af10a5)" style="fill: none; stroke: #3d3d3d; stroke-width: 1.5; stroke-linecap: round"/>
   </g>
   <g id="line2d_17">
    <path d="M 287.177143 131.742513 
L 287.177143 135.473403 
" clip-path="url(#pd330af10a5)" style="fill: none; stroke: #3d3d3d; stroke-width: 1.5; stroke-linecap: round"/>
   </g>
   <g id="line2d_18">
    <path d="M 287.177143 117.478909 
L 287.177143 109.766984 
" clip-path="url(#pd330af10a5)" style="fill: none; stroke: #3d3d3d; stroke-width: 1.5; stroke-linecap: round"/>
   </g>
   <g id="line2d_19">
    <path d="M 283.350857 135.473403 
L 291.003429 135.473403 
" clip-path="url(#pd330af10a5)" style="fill: none; stroke: #3d3d3d; stroke-width: 1.5; stroke-linecap: round"/>
   </g>
   <g id="line2d_20">
    <path d="M 283.350857 109.766984 
L 291.003429 109.766984 
" clip-path="url(#pd330af10a5)" style="fill: none; stroke: #3d3d3d; stroke-width: 1.5; stroke-linecap: round"/>
   </g>
   <g id="line2d_21">
    <path d="M 338.194286 130.787171 
L 338.194286 136.835896 
" clip-path="url(#pd330af10a5)" style="fill: none; stroke: #3d3d3d; stroke-width: 1.5; stroke-linecap: round"/>
   </g>
   <g id="line2d_22">
    <path d="M 338.194286 118.604563 
L 338.194286 111.129477 
" clip-path="url(#pd330af10a5)" style="fill: none; stroke: #3d3d3d; stroke-width: 1.5; stroke-linecap: round"/>
   </g>
   <g id="line2d_23">
    <path d="M 334.368 136.835896 
L 342.020571 136.835896 
" clip-path="url(#pd330af10a5)" style="fill: none; stroke: #3d3d3d; stroke-width: 1.5; stroke-linecap: round"/>
   </g>
   <g id="line2d_24">
    <path d="M 334.368 111.129477 
L 342.020571 111.129477 
" clip-path="url(#pd330af10a5)" style="fill: none; stroke: #3d3d3d; stroke-width: 1.5; stroke-linecap: round"/>
   </g>
   <g id="line2d_25">
    <path d="M 389.211429 133.37644 
L 389.211429 151.472056 
" clip-path="url(#pd330af10a5)" style="fill: none; stroke: #3d3d3d; stroke-width: 1.5; stroke-linecap: round"/>
   </g>
   <g id="line2d_26">
    <path d="M 389.211429 119.820695 
L 389.211429 115.280824 
" clip-path="url(#pd330af10a5)" style="fill: none; stroke: #3d3d3d; stroke-width: 1.5; stroke-linecap: round"/>
   </g>
   <g id="line2d_27">
    <path d="M 385.385143 151.472056 
L 393.037714 151.472056 
" clip-path="url(#pd330af10a5)" style="fill: none; stroke: #3d3d3d; stroke-width: 1.5; stroke-linecap: round"/>
   </g>
   <g id="line2d_28">
    <path d="M 385.385143 115.280824 
L 393.037714 115.280824 
" clip-path="url(#pd330af10a5)" style="fill: none; stroke: #3d3d3d; stroke-width: 1.5; stroke-linecap: round"/>
   </g>
   <g id="line2d_29">
    <path d="M 75.456 123.732541 
L 90.761143 123.732541 
" clip-path="url(#pd330af10a5)" style="fill: none; stroke: #3d3d3d; stroke-width: 1.5; stroke-linecap: round"/>
   </g>
   <g id="line2d_30">
    <path d="M 126.473143 128.485302 
L 141.778286 128.485302 
" clip-path="url(#pd330af10a5)" style="fill: none; stroke: #3d3d3d; stroke-width: 1.5; stroke-linecap: round"/>
   </g>
   <g id="line2d_31">
    <path d="M 177.490286 134.5633 
L 192.795429 134.5633 
" clip-path="url(#pd330af10a5)" style="fill: none; stroke: #3d3d3d; stroke-width: 1.5; stroke-linecap: round"/>
   </g>
   <g id="line2d_32">
    <path d="M 228.507429 157.794877 
L 243.812571 157.794877 
" clip-path="url(#pd330af10a5)" style="fill: none; stroke: #3d3d3d; stroke-width: 1.5; stroke-linecap: round"/>
   </g>
   <g id="line2d_33">
    <path d="M 279.524571 122.662771 
L 294.829714 122.662771 
" clip-path="url(#pd330af10a5)" style="fill: none; stroke: #3d3d3d; stroke-width: 1.5; stroke-linecap: round"/>
   </g>
   <g id="line2d_34">
    <path d="M 330.541714 125.196157 
L 345.846857 125.196157 
" clip-path="url(#pd330af10a5)" style="fill: none; stroke: #3d3d3d; stroke-width: 1.5; stroke-linecap: round"/>
   </g>
   <g id="line2d_35">
    <path d="M 381.558857 125.164224 
L 396.864 125.164224 
" clip-path="url(#pd330af10a5)" style="fill: none; stroke: #3d3d3d; stroke-width: 1.5; stroke-linecap: round"/>
   </g>
   <g id="patch_3">
    <path d="M 57.6 307.584 
L 57.6 41.472 
" style="fill: none; stroke: #262626; stroke-width: 0.8; stroke-linejoin: miter; stroke-linecap: square"/>
   </g>
   <g id="patch_4">
    <path d="M 414.72 307.584 
L 414.72 41.472 
" style="fill: none; stroke: #262626; stroke-width: 0.8; stroke-linejoin: miter; stroke-linecap: square"/>
   </g>
   <g id="patch_5">
    <path d="M 57.6 307.584 
L 414.72 307.584 
" style="fill: none; stroke: #262626; stroke-width: 0.8; stroke-linejoin: miter; stroke-linecap: square"/>
   </g>
   <g id="patch_6">
    <path d="M 57.6 41.472 
L 414.72 41.472 
" style="fill: none; stroke: #262626; stroke-width: 0.8; stroke-linejoin: miter; stroke-linecap: square"/>
   </g>
   <g id="patch_7">
    <path d="M 75.456 136.968952 
L 90.761143 136.968952 
L 90.761143 119.977701 
L 75.456 119.977701 
L 75.456 136.968952 
L 75.456 136.968952 
z
" clip-path="url(#pd330af10a5)" style="fill: none; stroke: #3d3d3d; stroke-width: 1.5; stroke-linejoin: miter"/>
   </g>
   <g id="patch_8">
    <path d="M 126.473143 138.097267 
L 141.778286 138.097267 
L 141.778286 123.647386 
L 126.473143 123.647386 
L 126.473143 138.097267 
L 126.473143 138.097267 
z
" clip-path="url(#pd330af10a5)" style="fill: none; stroke: #3d3d3d; stroke-width: 1.5; stroke-linejoin: miter"/>
   </g>
   <g id="patch_9">
    <path d="M 177.490286 141.559384 
L 192.795429 141.559384 
L 192.795429 123.825681 
L 177.490286 123.825681 
L 177.490286 141.559384 
L 177.490286 141.559384 
z
" clip-path="url(#pd330af10a5)" style="fill: none; stroke: #3d3d3d; stroke-width: 1.5; stroke-linejoin: miter"/>
   </g>
   <g id="patch_10">
    <path d="M 228.507429 165.655826 
L 243.812571 165.655826 
L 243.812571 139.41186 
L 228.507429 139.41186 
L 228.507429 165.655826 
L 228.507429 165.655826 
z
" clip-path="url(#pd330af10a5)" style="fill: none; stroke: #3d3d3d; stroke-width: 1.5; stroke-linejoin: miter"/>
   </g>
   <g id="patch_11">
    <path d="M 279.524571 131.742513 
L 294.829714 131.742513 
L 294.829714 117.478909 
L 279.524571 117.478909 
L 279.524571 131.742513 
L 279.524571 131.742513 
z
" clip-path="url(#pd330af10a5)" style="fill: none; stroke: #3d3d3d; stroke-width: 1.5; stroke-linejoin: miter"/>
   </g>
   <g id="patch_12">
    <path d="M 330.541714 130.787171 
L 345.846857 130.787171 
L 345.846857 118.604563 
L 330.541714 118.604563 
L 330.541714 130.787171 
L 330.541714 130.787171 
z
" clip-path="url(#pd330af10a5)" style="fill: none; stroke: #3d3d3d; stroke-width: 1.5; stroke-linejoin: miter"/>
   </g>
   <g id="patch_13">
    <path d="M 381.558857 133.37644 
L 396.864 133.37644 
L 396.864 119.820695 
L 381.558857 119.820695 
L 381.558857 133.37644 
L 381.558857 133.37644 
z
" clip-path="url(#pd330af10a5)" style="fill: none; stroke: #3d3d3d; stroke-width: 1.5; stroke-linejoin: miter"/>
   </g>
   <g id="PathCollection_1">
    <defs>
     <path id="C0_0_61080cd9ee" d="M 0 2.5 
C 0.663008 2.5 1.29895 2.236584 1.767767 1.767767 
C 2.236584 1.29895 2.5 0.663008 2.5 -0 
C 2.5 -0.663008 2.236584 -1.29895 1.767767 -1.767767 
C 1.29895 -2.236584 0.663008 -2.5 0 -2.5 
C -0.663008 -2.5 -1.29895 -2.236584 -1.767767 -1.767767 
C -2.236584 -1.29895 -2.5 -0.663008 -2.5 0 
C -2.5 0.663008 -2.236584 1.29895 -1.767767 1.767767 
C -1.29895 2.236584 -0.663008 2.5 0 2.5 
z
"/>
    </defs>
    <g clip-path="url(#pd330af10a5)">
     <use xlink:href="#C0_0_61080cd9ee" x="91.235288" y="136.144005" style="fill: #66c2a5; stroke: #000000; stroke-width: 0.5"/>
    </g>
    <g clip-path="url(#pd330af10a5)">
     <use xlink:href="#C0_0_61080cd9ee" x="87.048517" y="139.443794" style="fill: #66c2a5; stroke: #000000; stroke-width: 0.5"/>
    </g>
    <g clip-path="url(#pd330af10a5)">
     <use xlink:href="#C0_0_61080cd9ee" x="86.443577" y="114.461199" style="fill: #66c2a5; stroke: #000000; stroke-width: 0.5"/>
    </g>
    <g clip-path="url(#pd330af10a5)">
     <use xlink:href="#C0_0_61080cd9ee" x="89.754215" y="113.72673" style="fill: #66c2a5; stroke: #000000; stroke-width: 0.5"/>
    </g>
    <g clip-path="url(#pd330af10a5)">
     <use xlink:href="#C0_0_61080cd9ee" x="91.469965" y="146.745907" style="fill: #66c2a5; stroke: #000000; stroke-width: 0.5"/>
    </g>
    <g clip-path="url(#pd330af10a5)">
     <use xlink:href="#C0_0_61080cd9ee" x="88.446051" y="121.816535" style="fill: #66c2a5; stroke: #000000; stroke-width: 0.5"/>
    </g>
    <g clip-path="url(#pd330af10a5)">
     <use xlink:href="#C0_0_61080cd9ee" x="94.136072" y="123.008717" style="fill: #66c2a5; stroke: #000000; stroke-width: 0.5"/>
    </g>
    <g clip-path="url(#pd330af10a5)">
     <use xlink:href="#C0_0_61080cd9ee" x="91.116526" y="124.456366" style="fill: #66c2a5; stroke: #000000; stroke-width: 0.5"/>
    </g>
   </g>
   <g id="PathCollection_2">
    <defs>
     <path id="C1_0_b824f5c8ca" d="M 0 2.5 
C 0.663008 2.5 1.29895 2.236584 1.767767 1.767767 
C 2.236584 1.29895 2.5 0.663008 2.5 -0 
C 2.5 -0.663008 2.236584 -1.29895 1.767767 -1.767767 
C 1.29895 -2.236584 0.663008 -2.5 0 -2.5 
C -0.663008 -2.5 -1.29895 -2.236584 -1.767767 -1.767767 
C -2.236584 -1.29895 -2.5 -0.663008 -2.5 0 
C -2.5 0.663008 -2.236584 1.29895 -1.767767 1.767767 
C -1.29895 2.236584 -0.663008 2.5 0 2.5 
z
"/>
    </defs>
    <g clip-path="url(#pd330af10a5)">
     <use xlink:href="#C1_0_b824f5c8ca" x="140.053211" y="128.330957" style="fill: #fc8d62; stroke: #000000; stroke-width: 0.5"/>
    </g>
    <g clip-path="url(#pd330af10a5)">
     <use xlink:href="#C1_0_b824f5c8ca" x="139.147" y="151.674301" style="fill: #fc8d62; stroke: #000000; stroke-width: 0.5"/>
    </g>
    <g clip-path="url(#pd330af10a5)">
     <use xlink:href="#C1_0_b824f5c8ca" x="138.64765" y="121.380111" style="fill: #fc8d62; stroke: #000000; stroke-width: 0.5"/>
    </g>
    <g clip-path="url(#pd330af10a5)">
     <use xlink:href="#C1_0_b824f5c8ca" x="142.584864" y="115.440492" style="fill: #fc8d62; stroke: #000000; stroke-width: 0.5"/>
    </g>
    <g clip-path="url(#pd330af10a5)">
     <use xlink:href="#C1_0_b824f5c8ca" x="139.620998" y="144.787323" style="fill: #fc8d62; stroke: #000000; stroke-width: 0.5"/>
    </g>
    <g clip-path="url(#pd330af10a5)">
     <use xlink:href="#C1_0_b824f5c8ca" x="135.754976" y="135.867249" style="fill: #fc8d62; stroke: #000000; stroke-width: 0.5"/>
    </g>
    <g clip-path="url(#pd330af10a5)">
     <use xlink:href="#C1_0_b824f5c8ca" x="139.207473" y="128.639647" style="fill: #fc8d62; stroke: #000000; stroke-width: 0.5"/>
    </g>
    <g clip-path="url(#pd330af10a5)">
     <use xlink:href="#C1_0_b824f5c8ca" x="142.676141" y="124.403144" style="fill: #fc8d62; stroke: #000000; stroke-width: 0.5"/>
    </g>
   </g>
   <g id="PathCollection_3">
    <defs>
     <path id="C2_0_2a4be21d5a" d="M 0 2.5 
C 0.663008 2.5 1.29895 2.236584 1.767767 1.767767 
C 2.236584 1.29895 2.5 0.663008 2.5 -0 
C 2.5 -0.663008 2.236584 -1.29895 1.767767 -1.767767 
C 1.29895 -2.236584 0.663008 -2.5 0 -2.5 
C -0.663008 -2.5 -1.29895 -2.236584 -1.767767 -1.767767 
C -2.236584 -1.29895 -2.5 -0.663008 -2.5 0 
C -2.5 0.663008 -2.236584 1.29895 -1.767767 1.767767 
C -1.29895 2.236584 -0.663008 2.5 0 2.5 
z
"/>
    </defs>
    <g clip-path="url(#pd330af10a5)">
     <use xlink:href="#C2_0_2a4be21d5a" x="188.025241" y="140.934021" style="fill: #8da0cb; stroke: #000000; stroke-width: 0.5"/>
    </g>
    <g clip-path="url(#pd330af10a5)">
     <use xlink:href="#C2_0_2a4be21d5a" x="187.953409" y="153.728686" style="fill: #8da0cb; stroke: #000000; stroke-width: 0.5"/>
    </g>
    <g clip-path="url(#pd330af10a5)">
     <use xlink:href="#C2_0_2a4be21d5a" x="191.586846" y="117.111675" style="fill: #8da0cb; stroke: #000000; stroke-width: 0.5"/>
    </g>
    <g clip-path="url(#pd330af10a5)">
     <use xlink:href="#C2_0_2a4be21d5a" x="191.589665" y="109.958584" style="fill: #8da0cb; stroke: #000000; stroke-width: 0.5"/>
    </g>
    <g clip-path="url(#pd330af10a5)">
     <use xlink:href="#C2_0_2a4be21d5a" x="192.636265" y="136.473984" style="fill: #8da0cb; stroke: #000000; stroke-width: 0.5"/>
    </g>
    <g clip-path="url(#pd330af10a5)">
     <use xlink:href="#C2_0_2a4be21d5a" x="194.830317" y="126.063683" style="fill: #8da0cb; stroke: #000000; stroke-width: 0.5"/>
    </g>
    <g clip-path="url(#pd330af10a5)">
     <use xlink:href="#C2_0_2a4be21d5a" x="193.555128" y="132.652616" style="fill: #8da0cb; stroke: #000000; stroke-width: 0.5"/>
    </g>
    <g clip-path="url(#pd330af10a5)">
     <use xlink:href="#C2_0_2a4be21d5a" x="192.397735" y="143.435474" style="fill: #8da0cb; stroke: #000000; stroke-width: 0.5"/>
    </g>
   </g>
   <g id="PathCollection_4">
    <defs>
     <path id="C3_0_da3f56cd8a" d="M 0 2.5 
C 0.663008 2.5 1.29895 2.236584 1.767767 1.767767 
C 2.236584 1.29895 2.5 0.663008 2.5 -0 
C 2.5 -0.663008 2.236584 -1.29895 1.767767 -1.767767 
C 1.29895 -2.236584 0.663008 -2.5 0 -2.5 
C -0.663008 -2.5 -1.29895 -2.236584 -1.767767 -1.767767 
C -2.236584 -1.29895 -2.5 -0.663008 -2.5 0 
C -2.5 0.663008 -2.236584 1.29895 -1.767767 1.767767 
C -1.29895 2.236584 -0.663008 2.5 0 2.5 
z
"/>
    </defs>
    <g clip-path="url(#pd330af10a5)">
     <use xlink:href="#C3_0_da3f56cd8a" x="244.551742" y="158.65708" style="fill: #e78ac3; stroke: #000000; stroke-width: 0.5"/>
    </g>
    <g clip-path="url(#pd330af10a5)">
     <use xlink:href="#C3_0_da3f56cd8a" x="240.475631" y="170.791788" style="fill: #e78ac3; stroke: #000000; stroke-width: 0.5"/>
    </g>
    <g clip-path="url(#pd330af10a5)">
     <use xlink:href="#C3_0_da3f56cd8a" x="240.871828" y="126.862019" style="fill: #e78ac3; stroke: #000000; stroke-width: 0.5"/>
    </g>
    <g clip-path="url(#pd330af10a5)">
     <use xlink:href="#C3_0_da3f56cd8a" x="239.50941" y="137.400054" style="fill: #e78ac3; stroke: #000000; stroke-width: 0.5"/>
    </g>
    <g clip-path="url(#pd330af10a5)">
     <use xlink:href="#C3_0_da3f56cd8a" x="240.177233" y="165.384392" style="fill: #e78ac3; stroke: #000000; stroke-width: 0.5"/>
    </g>
    <g clip-path="url(#pd330af10a5)">
     <use xlink:href="#C3_0_da3f56cd8a" x="243.618463" y="166.470129" style="fill: #e78ac3; stroke: #000000; stroke-width: 0.5"/>
    </g>
    <g clip-path="url(#pd330af10a5)">
     <use xlink:href="#C3_0_da3f56cd8a" x="238.120129" y="140.082463" style="fill: #e78ac3; stroke: #000000; stroke-width: 0.5"/>
    </g>
    <g clip-path="url(#pd330af10a5)">
     <use xlink:href="#C3_0_da3f56cd8a" x="241.605582" y="156.932675" style="fill: #e78ac3; stroke: #000000; stroke-width: 0.5"/>
    </g>
   </g>
   <g id="PathCollection_5">
    <defs>
     <path id="C4_0_577694e9e1" d="M 0 2.5 
C 0.663008 2.5 1.29895 2.236584 1.767767 1.767767 
C 2.236584 1.29895 2.5 0.663008 2.5 -0 
C 2.5 -0.663008 2.236584 -1.29895 1.767767 -1.767767 
C 1.29895 -2.236584 0.663008 -2.5 0 -2.5 
C -0.663008 -2.5 -1.29895 -2.236584 -1.767767 -1.767767 
C -2.236584 -1.29895 -2.5 -0.663008 -2.5 0 
C -2.5 0.663008 -2.236584 1.29895 -1.767767 1.767767 
C -1.29895 2.236584 -0.663008 2.5 0 2.5 
z
"/>
    </defs>
    <g clip-path="url(#pd330af10a5)">
     <use xlink:href="#C4_0_577694e9e1" x="292.593763" y="130.992077" style="fill: #a6d854; stroke: #000000; stroke-width: 0.5"/>
    </g>
    <g clip-path="url(#pd330af10a5)">
     <use xlink:href="#C4_0_577694e9e1" x="293.234766" y="135.473403" style="fill: #a6d854; stroke: #000000; stroke-width: 0.5"/>
    </g>
    <g clip-path="url(#pd330af10a5)">
     <use xlink:href="#C4_0_577694e9e1" x="292.542415" y="110.693053" style="fill: #a6d854; stroke: #000000; stroke-width: 0.5"/>
    </g>
    <g clip-path="url(#pd330af10a5)">
     <use xlink:href="#C4_0_577694e9e1" x="291.383621" y="109.766984" style="fill: #a6d854; stroke: #000000; stroke-width: 0.5"/>
    </g>
    <g clip-path="url(#pd330af10a5)">
     <use xlink:href="#C4_0_577694e9e1" x="292.547731" y="133.99382" style="fill: #a6d854; stroke: #000000; stroke-width: 0.5"/>
    </g>
    <g clip-path="url(#pd330af10a5)">
     <use xlink:href="#C4_0_577694e9e1" x="297.313118" y="119.740861" style="fill: #a6d854; stroke: #000000; stroke-width: 0.5"/>
    </g>
    <g clip-path="url(#pd330af10a5)">
     <use xlink:href="#C4_0_577694e9e1" x="297.831155" y="121.805891" style="fill: #a6d854; stroke: #000000; stroke-width: 0.5"/>
    </g>
    <g clip-path="url(#pd330af10a5)">
     <use xlink:href="#C4_0_577694e9e1" x="293.31794" y="123.519652" style="fill: #a6d854; stroke: #000000; stroke-width: 0.5"/>
    </g>
   </g>
   <g id="PathCollection_6">
    <defs>
     <path id="C5_0_dcfc96b2ec" d="M 0 2.5 
C 0.663008 2.5 1.29895 2.236584 1.767767 1.767767 
C 2.236584 1.29895 2.5 0.663008 2.5 -0 
C 2.5 -0.663008 2.236584 -1.29895 1.767767 -1.767767 
C 1.29895 -2.236584 0.663008 -2.5 0 -2.5 
C -0.663008 -2.5 -1.29895 -2.236584 -1.767767 -1.767767 
C -2.236584 -1.29895 -2.5 -0.663008 -2.5 0 
C -2.5 0.663008 -2.236584 1.29895 -1.767767 1.767767 
C -1.29895 2.236584 -0.663008 2.5 0 2.5 
z
"/>
    </defs>
    <g clip-path="url(#pd330af10a5)">
     <use xlink:href="#C5_0_dcfc96b2ec" x="345.581088" y="131.098522" style="fill: #ffd92f; stroke: #000000; stroke-width: 0.5"/>
    </g>
    <g clip-path="url(#pd330af10a5)">
     <use xlink:href="#C5_0_dcfc96b2ec" x="340.394333" y="130.683387" style="fill: #ffd92f; stroke: #000000; stroke-width: 0.5"/>
    </g>
    <g clip-path="url(#pd330af10a5)">
     <use xlink:href="#C5_0_dcfc96b2ec" x="342.452028" y="113.854464" style="fill: #ffd92f; stroke: #000000; stroke-width: 0.5"/>
    </g>
    <g clip-path="url(#pd330af10a5)">
     <use xlink:href="#C5_0_dcfc96b2ec" x="343.447278" y="111.129477" style="fill: #ffd92f; stroke: #000000; stroke-width: 0.5"/>
    </g>
    <g clip-path="url(#pd330af10a5)">
     <use xlink:href="#C5_0_dcfc96b2ec" x="348.053952" y="136.835896" style="fill: #ffd92f; stroke: #000000; stroke-width: 0.5"/>
    </g>
    <g clip-path="url(#pd330af10a5)">
     <use xlink:href="#C5_0_dcfc96b2ec" x="341.770132" y="120.18793" style="fill: #ffd92f; stroke: #000000; stroke-width: 0.5"/>
    </g>
    <g clip-path="url(#pd330af10a5)">
     <use xlink:href="#C5_0_dcfc96b2ec" x="344.143234" y="123.317407" style="fill: #ffd92f; stroke: #000000; stroke-width: 0.5"/>
    </g>
    <g clip-path="url(#pd330af10a5)">
     <use xlink:href="#C5_0_dcfc96b2ec" x="349.270717" y="127.074908" style="fill: #ffd92f; stroke: #000000; stroke-width: 0.5"/>
    </g>
   </g>
   <g id="PathCollection_7">
    <defs>
     <path id="C6_0_bef0d0b758" d="M 0 2.5 
C 0.663008 2.5 1.29895 2.236584 1.767767 1.767767 
C 2.236584 1.29895 2.5 0.663008 2.5 -0 
C 2.5 -0.663008 2.236584 -1.29895 1.767767 -1.767767 
C 1.29895 -2.236584 0.663008 -2.5 0 -2.5 
C -0.663008 -2.5 -1.29895 -2.236584 -1.767767 -1.767767 
C -2.236584 -1.29895 -2.5 -0.663008 -2.5 0 
C -2.5 0.663008 -2.236584 1.29895 -1.767767 1.767767 
C -1.29895 2.236584 -0.663008 2.5 0 2.5 
z
"/>
    </defs>
    <g clip-path="url(#pd330af10a5)">
     <use xlink:href="#C6_0_bef0d0b758" x="395.532301" y="128.76738" style="fill: #e5c494; stroke: #000000; stroke-width: 0.5"/>
    </g>
    <g clip-path="url(#pd330af10a5)">
     <use xlink:href="#C6_0_bef0d0b758" x="396.485397" y="151.472056" style="fill: #e5c494; stroke: #000000; stroke-width: 0.5"/>
    </g>
    <g clip-path="url(#pd330af10a5)">
     <use xlink:href="#C6_0_bef0d0b758" x="391.462597" y="115.280824" style="fill: #e5c494; stroke: #000000; stroke-width: 0.5"/>
    </g>
    <g clip-path="url(#pd330af10a5)">
     <use xlink:href="#C6_0_bef0d0b758" x="398.663281" y="115.813048" style="fill: #e5c494; stroke: #000000; stroke-width: 0.5"/>
    </g>
    <g clip-path="url(#pd330af10a5)">
     <use xlink:href="#C6_0_bef0d0b758" x="396.385052" y="146.341417" style="fill: #e5c494; stroke: #000000; stroke-width: 0.5"/>
    </g>
    <g clip-path="url(#pd330af10a5)">
     <use xlink:href="#C6_0_bef0d0b758" x="395.793334" y="121.561068" style="fill: #e5c494; stroke: #000000; stroke-width: 0.5"/>
    </g>
    <g clip-path="url(#pd330af10a5)">
     <use xlink:href="#C6_0_bef0d0b758" x="393.729138" y="121.156577" style="fill: #e5c494; stroke: #000000; stroke-width: 0.5"/>
    </g>
    <g clip-path="url(#pd330af10a5)">
     <use xlink:href="#C6_0_bef0d0b758" x="393.334846" y="129.054781" style="fill: #e5c494; stroke: #000000; stroke-width: 0.5"/>
    </g>
   </g>
   <g id="text_16">
    <!-- Violin Plot with Overlayed Box and Strip Plots -->
    <g style="fill: #262626" transform="translate(100.525313 35.472) scale(0.12 -0.12)">
     <defs>
      <path id="DejaVuSans-56" d="M 1831 0 
L 50 4666 
L 709 4666 
L 2188 738 
L 3669 4666 
L 4325 4666 
L 2547 0 
L 1831 0 
z
" transform="scale(0.015625)"/>
      <path id="DejaVuSans-69" d="M 603 3500 
L 1178 3500 
L 1178 0 
L 603 0 
L 603 3500 
z
M 603 4863 
L 1178 4863 
L 1178 4134 
L 603 4134 
L 603 4863 
z
" transform="scale(0.015625)"/>
      <path id="DejaVuSans-6e" d="M 3513 2113 
L 3513 0 
L 2938 0 
L 2938 2094 
Q 2938 2591 2744 2837 
Q 2550 3084 2163 3084 
Q 1697 3084 1428 2787 
Q 1159 2491 1159 1978 
L 1159 0 
L 581 0 
L 581 3500 
L 1159 3500 
L 1159 2956 
Q 1366 3272 1645 3428 
Q 1925 3584 2291 3584 
Q 2894 3584 3203 3211 
Q 3513 2838 3513 2113 
z
" transform="scale(0.015625)"/>
      <path id="DejaVuSans-20" transform="scale(0.015625)"/>
      <path id="DejaVuSans-50" d="M 1259 4147 
L 1259 2394 
L 2053 2394 
Q 2494 2394 2734 2622 
Q 2975 2850 2975 3272 
Q 2975 3691 2734 3919 
Q 2494 4147 2053 4147 
L 1259 4147 
z
M 628 4666 
L 2053 4666 
Q 2838 4666 3239 4311 
Q 3641 3956 3641 3272 
Q 3641 2581 3239 2228 
Q 2838 1875 2053 1875 
L 1259 1875 
L 1259 0 
L 628 0 
L 628 4666 
z
" transform="scale(0.015625)"/>
      <path id="DejaVuSans-74" d="M 1172 4494 
L 1172 3500 
L 2356 3500 
L 2356 3053 
L 1172 3053 
L 1172 1153 
Q 1172 725 1289 603 
Q 1406 481 1766 481 
L 2356 481 
L 2356 0 
L 1766 0 
Q 1100 0 847 248 
Q 594 497 594 1153 
L 594 3053 
L 172 3053 
L 172 3500 
L 594 3500 
L 594 4494 
L 1172 4494 
z
" transform="scale(0.015625)"/>
      <path id="DejaVuSans-77" d="M 269 3500 
L 844 3500 
L 1563 769 
L 2278 3500 
L 2956 3500 
L 3675 769 
L 4391 3500 
L 4966 3500 
L 4050 0 
L 3372 0 
L 2619 2869 
L 1863 0 
L 1184 0 
L 269 3500 
z
" transform="scale(0.015625)"/>
      <path id="DejaVuSans-68" d="M 3513 2113 
L 3513 0 
L 2938 0 
L 2938 2094 
Q 2938 2591 2744 2837 
Q 2550 3084 2163 3084 
Q 1697 3084 1428 2787 
Q 1159 2491 1159 1978 
L 1159 0 
L 581 0 
L 581 4863 
L 1159 4863 
L 1159 2956 
Q 1366 3272 1645 3428 
Q 1925 3584 2291 3584 
Q 2894 3584 3203 3211 
Q 3513 2838 3513 2113 
z
" transform="scale(0.015625)"/>
      <path id="DejaVuSans-76" d="M 191 3500 
L 800 3500 
L 1894 563 
L 2988 3500 
L 3597 3500 
L 2284 0 
L 1503 0 
L 191 3500 
z
" transform="scale(0.015625)"/>
      <path id="DejaVuSans-72" d="M 2631 2963 
Q 2534 3019 2420 3045 
Q 2306 3072 2169 3072 
Q 1681 3072 1420 2755 
Q 1159 2438 1159 1844 
L 1159 0 
L 581 0 
L 581 3500 
L 1159 3500 
L 1159 2956 
Q 1341 3275 1631 3429 
Q 1922 3584 2338 3584 
Q 2397 3584 2469 3576 
Q 2541 3569 2628 3553 
L 2631 2963 
z
" transform="scale(0.015625)"/>
      <path id="DejaVuSans-79" d="M 2059 -325 
Q 1816 -950 1584 -1140 
Q 1353 -1331 966 -1331 
L 506 -1331 
L 506 -850 
L 844 -850 
Q 1081 -850 1212 -737 
Q 1344 -625 1503 -206 
L 1606 56 
L 191 3500 
L 800 3500 
L 1894 763 
L 2988 3500 
L 3597 3500 
L 2059 -325 
z
" transform="scale(0.015625)"/>
      <path id="DejaVuSans-42" d="M 1259 2228 
L 1259 519 
L 2272 519 
Q 2781 519 3026 730 
Q 3272 941 3272 1375 
Q 3272 1813 3026 2020 
Q 2781 2228 2272 2228 
L 1259 2228 
z
M 1259 4147 
L 1259 2741 
L 2194 2741 
Q 2656 2741 2882 2914 
Q 3109 3088 3109 3444 
Q 3109 3797 2882 3972 
Q 2656 4147 2194 4147 
L 1259 4147 
z
M 628 4666 
L 2241 4666 
Q 2963 4666 3353 4366 
Q 3744 4066 3744 3513 
Q 3744 3084 3544 2831 
Q 3344 2578 2956 2516 
Q 3422 2416 3680 2098 
Q 3938 1781 3938 1306 
Q 3938 681 3513 340 
Q 3088 0 2303 0 
L 628 0 
L 628 4666 
z
" transform="scale(0.015625)"/>
      <path id="DejaVuSans-78" d="M 3513 3500 
L 2247 1797 
L 3578 0 
L 2900 0 
L 1881 1375 
L 863 0 
L 184 0 
L 1544 1831 
L 300 3500 
L 978 3500 
L 1906 2253 
L 2834 3500 
L 3513 3500 
z
" transform="scale(0.015625)"/>
      <path id="DejaVuSans-53" d="M 3425 4513 
L 3425 3897 
Q 3066 4069 2747 4153 
Q 2428 4238 2131 4238 
Q 1616 4238 1336 4038 
Q 1056 3838 1056 3469 
Q 1056 3159 1242 3001 
Q 1428 2844 1947 2747 
L 2328 2669 
Q 3034 2534 3370 2195 
Q 3706 1856 3706 1288 
Q 3706 609 3251 259 
Q 2797 -91 1919 -91 
Q 1588 -91 1214 -16 
Q 841 59 441 206 
L 441 856 
Q 825 641 1194 531 
Q 1563 422 1919 422 
Q 2459 422 2753 634 
Q 3047 847 3047 1241 
Q 3047 1584 2836 1778 
Q 2625 1972 2144 2069 
L 1759 2144 
Q 1053 2284 737 2584 
Q 422 2884 422 3419 
Q 422 4038 858 4394 
Q 1294 4750 2059 4750 
Q 2388 4750 2728 4690 
Q 3069 4631 3425 4513 
z
" transform="scale(0.015625)"/>
      <path id="DejaVuSans-70" d="M 1159 525 
L 1159 -1331 
L 581 -1331 
L 581 3500 
L 1159 3500 
L 1159 2969 
Q 1341 3281 1617 3432 
Q 1894 3584 2278 3584 
Q 2916 3584 3314 3078 
Q 3713 2572 3713 1747 
Q 3713 922 3314 415 
Q 2916 -91 2278 -91 
Q 1894 -91 1617 61 
Q 1341 213 1159 525 
z
M 3116 1747 
Q 3116 2381 2855 2742 
Q 2594 3103 2138 3103 
Q 1681 3103 1420 2742 
Q 1159 2381 1159 1747 
Q 1159 1113 1420 752 
Q 1681 391 2138 391 
Q 2594 391 2855 752 
Q 3116 1113 3116 1747 
z
" transform="scale(0.015625)"/>
      <path id="DejaVuSans-73" d="M 2834 3397 
L 2834 2853 
Q 2591 2978 2328 3040 
Q 2066 3103 1784 3103 
Q 1356 3103 1142 2972 
Q 928 2841 928 2578 
Q 928 2378 1081 2264 
Q 1234 2150 1697 2047 
L 1894 2003 
Q 2506 1872 2764 1633 
Q 3022 1394 3022 966 
Q 3022 478 2636 193 
Q 2250 -91 1575 -91 
Q 1294 -91 989 -36 
Q 684 19 347 128 
L 347 722 
Q 666 556 975 473 
Q 1284 391 1588 391 
Q 1994 391 2212 530 
Q 2431 669 2431 922 
Q 2431 1156 2273 1281 
Q 2116 1406 1581 1522 
L 1381 1569 
Q 847 1681 609 1914 
Q 372 2147 372 2553 
Q 372 3047 722 3315 
Q 1072 3584 1716 3584 
Q 2034 3584 2315 3537 
Q 2597 3491 2834 3397 
z
" transform="scale(0.015625)"/>
     </defs>
     <use xlink:href="#DejaVuSans-56"/>
     <use xlink:href="#DejaVuSans-69" x="66.158203"/>
     <use xlink:href="#DejaVuSans-6f" x="93.941406"/>
     <use xlink:href="#DejaVuSans-6c" x="155.123047"/>
     <use xlink:href="#DejaVuSans-69" x="182.90625"/>
     <use xlink:href="#DejaVuSans-6e" x="210.689453"/>
     <use xlink:href="#DejaVuSans-20" x="274.068359"/>
     <use xlink:href="#DejaVuSans-50" x="305.855469"/>
     <use xlink:href="#DejaVuSans-6c" x="366.158203"/>
     <use xlink:href="#DejaVuSans-6f" x="393.941406"/>
     <use xlink:href="#DejaVuSans-74" x="455.123047"/>
     <use xlink:href="#DejaVuSans-20" x="494.332031"/>
     <use xlink:href="#DejaVuSans-77" x="526.119141"/>
     <use xlink:href="#DejaVuSans-69" x="607.90625"/>
     <use xlink:href="#DejaVuSans-74" x="635.689453"/>
     <use xlink:href="#DejaVuSans-68" x="674.898438"/>
     <use xlink:href="#DejaVuSans-20" x="738.277344"/>
     <use xlink:href="#DejaVuSans-4f" x="770.064453"/>
     <use xlink:href="#DejaVuSans-76" x="848.775391"/>
     <use xlink:href="#DejaVuSans-65" x="907.955078"/>
     <use xlink:href="#DejaVuSans-72" x="969.478516"/>
     <use xlink:href="#DejaVuSans-6c" x="1010.591797"/>
     <use xlink:href="#DejaVuSans-61" x="1038.375"/>
     <use xlink:href="#DejaVuSans-79" x="1099.654297"/>
     <use xlink:href="#DejaVuSans-65" x="1158.833984"/>
     <use xlink:href="#DejaVuSans-64" x="1220.357422"/>
     <use xlink:href="#DejaVuSans-20" x="1283.833984"/>
     <use xlink:href="#DejaVuSans-42" x="1315.621094"/>
     <use xlink:href="#DejaVuSans-6f" x="1384.224609"/>
     <use xlink:href="#DejaVuSans-78" x="1442.28125"/>
     <use xlink:href="#DejaVuSans-20" x="1501.460938"/>
     <use xlink:href="#DejaVuSans-61" x="1533.248047"/>
     <use xlink:href="#DejaVuSans-6e" x="1594.527344"/>
     <use xlink:href="#DejaVuSans-64" x="1657.90625"/>
     <use xlink:href="#DejaVuSans-20" x="1721.382812"/>
     <use xlink:href="#DejaVuSans-53" x="1753.169922"/>
     <use xlink:href="#DejaVuSans-74" x="1816.646484"/>
     <use xlink:href="#DejaVuSans-72" x="1855.855469"/>
     <use xlink:href="#DejaVuSans-69" x="1896.96875"/>
     <use xlink:href="#DejaVuSans-70" x="1924.751953"/>
     <use xlink:href="#DejaVuSans-20" x="1988.228516"/>
     <use xlink:href="#DejaVuSans-50" x="2020.015625"/>
     <use xlink:href="#DejaVuSans-6c" x="2080.318359"/>
     <use xlink:href="#DejaVuSans-6f" x="2108.101562"/>
     <use xlink:href="#DejaVuSans-74" x="2169.283203"/>
     <use xlink:href="#DejaVuSans-73" x="2208.492188"/>
    </g>
   </g>
  </g>
 </g>
 <defs>
  <clipPath id="p1f77cd4c22">
   <rect x="67.37632" y="97.883028" width="15.732252" height="64.706581"/>
  </clipPath>
  <clipPath id="p929a68cb8b">
   <rect x="117.794119" y="99.424707" width="16.331595" height="68.265378"/>
  </clipPath>
  <clipPath id="pebfd534e9a">
   <rect x="172.017976" y="91.010128" width="13.124881" height="81.667014"/>
  </clipPath>
  <clipPath id="p624934e607">
   <rect x="224.006589" y="105.749909" width="12.153411" height="86.153987"/>
  </clipPath>
  <clipPath id="p50fde4896e">
   <rect x="269.827832" y="96.774" width="17.349311" height="51.692386"/>
  </clipPath>
  <clipPath id="p1380fb67fd">
   <rect x="317.787429" y="99.409317" width="20.406857" height="49.14674"/>
  </clipPath>
  <clipPath id="p17e737fb6d">
   <rect x="373.469525" y="97.410457" width="15.741903" height="71.931967"/>
  </clipPath>
  <clipPath id="pd330af10a5">
   <rect x="57.6" y="41.472" width="357.12" height="266.112"/>
  </clipPath>
 </defs>
</svg>
