<?xml version="1.0" encoding="utf-8" standalone="no"?>
<!DOCTYPE svg PUBLIC "-//W3C//DTD SVG 1.1//EN"
  "http://www.w3.org/Graphics/SVG/1.1/DTD/svg11.dtd">
<svg xmlns:xlink="http://www.w3.org/1999/xlink" width="460.8pt" height="345.6pt" viewBox="0 0 460.8 345.6" xmlns="http://www.w3.org/2000/svg" version="1.1">
 <metadata>
  <rdf:RDF xmlns:dc="http://purl.org/dc/elements/1.1/" xmlns:cc="http://creativecommons.org/ns#" xmlns:rdf="http://www.w3.org/1999/02/22-rdf-syntax-ns#">
   <cc:Work>
    <dc:type rdf:resource="http://purl.org/dc/dcmitype/StillImage"/>
    <dc:date>2024-07-31T08:39:35.846834</dc:date>
    <dc:format>image/svg+xml</dc:format>
    <dc:creator>
     <cc:Agent>
      <dc:title>Matplotlib v3.7.2, https://matplotlib.org/</dc:title>
     </cc:Agent>
    </dc:creator>
   </cc:Work>
  </rdf:RDF>
 </metadata>
 <defs>
  <style type="text/css">*{stroke-linejoin: round; stroke-linecap: butt}</style>
 </defs>
 <g id="figure_1">
  <g id="patch_1">
   <path d="M 0 345.6 
L 460.8 345.6 
L 460.8 0 
L 0 0 
z
" style="fill: #ffffff"/>
  </g>
  <g id="axes_1">
   <g id="patch_2">
    <path d="M 57.6 307.584 
L 414.72 307.584 
L 414.72 41.472 
L 57.6 41.472 
z
" style="fill: #ffffff"/>
   </g>
   <g id="matplotlib.axis_1">
    <g id="xtick_1">
     <g id="text_1">
      <!-- 1 -->
      <g style="fill: #262626" transform="translate(84.17875 322.182437) scale(0.1 -0.1)">
       <defs>
        <path id="DejaVuSans-31" d="M 794 531 
L 1825 531 
L 1825 4091 
L 703 3866 
L 703 4441 
L 1819 4666 
L 2450 4666 
L 2450 531 
L 3481 531 
L 3481 0 
L 794 0 
L 794 531 
z
" transform="scale(0.015625)"/>
       </defs>
       <use xlink:href="#DejaVuSans-31"/>
      </g>
     </g>
    </g>
    <g id="xtick_2">
     <g id="text_2">
      <!-- 2 -->
      <g style="fill: #262626" transform="translate(143.69875 322.182437) scale(0.1 -0.1)">
       <defs>
        <path id="DejaVuSans-32" d="M 1228 531 
L 3431 531 
L 3431 0 
L 469 0 
L 469 531 
Q 828 903 1448 1529 
Q 2069 2156 2228 2338 
Q 2531 2678 2651 2914 
Q 2772 3150 2772 3378 
Q 2772 3750 2511 3984 
Q 2250 4219 1831 4219 
Q 1534 4219 1204 4116 
Q 875 4013 500 3803 
L 500 4441 
Q 881 4594 1212 4672 
Q 1544 4750 1819 4750 
Q 2544 4750 2975 4387 
Q 3406 4025 3406 3419 
Q 3406 3131 3298 2873 
Q 3191 2616 2906 2266 
Q 2828 2175 2409 1742 
Q 1991 1309 1228 531 
z
" transform="scale(0.015625)"/>
       </defs>
       <use xlink:href="#DejaVuSans-32"/>
      </g>
     </g>
    </g>
    <g id="xtick_3">
     <g id="text_3">
      <!-- 3 -->
      <g style="fill: #262626" transform="translate(203.21875 322.182437) scale(0.1 -0.1)">
       <defs>
        <path id="DejaVuSans-33" d="M 2597 2516 
Q 3050 2419 3304 2112 
Q 3559 1806 3559 1356 
Q 3559 666 3084 287 
Q 2609 -91 1734 -91 
Q 1441 -91 1130 -33 
Q 819 25 488 141 
L 488 750 
Q 750 597 1062 519 
Q 1375 441 1716 441 
Q 2309 441 2620 675 
Q 2931 909 2931 1356 
Q 2931 1769 2642 2001 
Q 2353 2234 1838 2234 
L 1294 2234 
L 1294 2753 
L 1863 2753 
Q 2328 2753 2575 2939 
Q 2822 3125 2822 3475 
Q 2822 3834 2567 4026 
Q 2313 4219 1838 4219 
Q 1578 4219 1281 4162 
Q 984 4106 628 3988 
L 628 4550 
Q 988 4650 1302 4700 
Q 1616 4750 1894 4750 
Q 2613 4750 3031 4423 
Q 3450 4097 3450 3541 
Q 3450 3153 3228 2886 
Q 3006 2619 2597 2516 
z
" transform="scale(0.015625)"/>
       </defs>
       <use xlink:href="#DejaVuSans-33"/>
      </g>
     </g>
    </g>
    <g id="xtick_4">
     <g id="text_4">
      <!-- 4 -->
      <g style="fill: #262626" transform="translate(262.73875 322.182437) scale(0.1 -0.1)">
       <defs>
        <path id="DejaVuSans-34" d="M 2419 4116 
L 825 1625 
L 2419 1625 
L 2419 4116 
z
M 2253 4666 
L 3047 4666 
L 3047 1625 
L 3713 1625 
L 3713 1100 
L 3047 1100 
L 3047 0 
L 2419 0 
L 2419 1100 
L 313 1100 
L 313 1709 
L 2253 4666 
z
" transform="scale(0.015625)"/>
       </defs>
       <use xlink:href="#DejaVuSans-34"/>
      </g>
     </g>
    </g>
    <g id="xtick_5">
     <g id="text_5">
      <!-- 5 -->
      <g style="fill: #262626" transform="translate(322.25875 322.182437) scale(0.1 -0.1)">
       <defs>
        <path id="DejaVuSans-35" d="M 691 4666 
L 3169 4666 
L 3169 4134 
L 1269 4134 
L 1269 2991 
Q 1406 3038 1543 3061 
Q 1681 3084 1819 3084 
Q 2600 3084 3056 2656 
Q 3513 2228 3513 1497 
Q 3513 744 3044 326 
Q 2575 -91 1722 -91 
Q 1428 -91 1123 -41 
Q 819 9 494 109 
L 494 744 
Q 775 591 1075 516 
Q 1375 441 1709 441 
Q 2250 441 2565 725 
Q 2881 1009 2881 1497 
Q 2881 1984 2565 2268 
Q 2250 2553 1709 2553 
Q 1456 2553 1204 2497 
Q 953 2441 691 2322 
L 691 4666 
z
" transform="scale(0.015625)"/>
       </defs>
       <use xlink:href="#DejaVuSans-35"/>
      </g>
     </g>
    </g>
    <g id="xtick_6">
     <g id="text_6">
      <!-- 6 -->
      <g style="fill: #262626" transform="translate(381.77875 322.182437) scale(0.1 -0.1)">
       <defs>
        <path id="DejaVuSans-36" d="M 2113 2584 
Q 1688 2584 1439 2293 
Q 1191 2003 1191 1497 
Q 1191 994 1439 701 
Q 1688 409 2113 409 
Q 2538 409 2786 701 
Q 3034 994 3034 1497 
Q 3034 2003 2786 2293 
Q 2538 2584 2113 2584 
z
M 3366 4563 
L 3366 3988 
Q 3128 4100 2886 4159 
Q 2644 4219 2406 4219 
Q 1781 4219 1451 3797 
Q 1122 3375 1075 2522 
Q 1259 2794 1537 2939 
Q 1816 3084 2150 3084 
Q 2853 3084 3261 2657 
Q 3669 2231 3669 1497 
Q 3669 778 3244 343 
Q 2819 -91 2113 -91 
Q 1303 -91 875 529 
Q 447 1150 447 2328 
Q 447 3434 972 4092 
Q 1497 4750 2381 4750 
Q 2619 4750 2861 4703 
Q 3103 4656 3366 4563 
z
" transform="scale(0.015625)"/>
       </defs>
       <use xlink:href="#DejaVuSans-36"/>
      </g>
     </g>
    </g>
    <g id="text_7">
     <!-- Model -->
     <g style="fill: #262626" transform="translate(221.146719 335.860562) scale(0.1 -0.1)">
      <defs>
       <path id="DejaVuSans-4d" d="M 628 4666 
L 1569 4666 
L 2759 1491 
L 3956 4666 
L 4897 4666 
L 4897 0 
L 4281 0 
L 4281 4097 
L 3078 897 
L 2444 897 
L 1241 4097 
L 1241 0 
L 628 0 
L 628 4666 
z
" transform="scale(0.015625)"/>
       <path id="DejaVuSans-6f" d="M 1959 3097 
Q 1497 3097 1228 2736 
Q 959 2375 959 1747 
Q 959 1119 1226 758 
Q 1494 397 1959 397 
Q 2419 397 2687 759 
Q 2956 1122 2956 1747 
Q 2956 2369 2687 2733 
Q 2419 3097 1959 3097 
z
M 1959 3584 
Q 2709 3584 3137 3096 
Q 3566 2609 3566 1747 
Q 3566 888 3137 398 
Q 2709 -91 1959 -91 
Q 1206 -91 779 398 
Q 353 888 353 1747 
Q 353 2609 779 3096 
Q 1206 3584 1959 3584 
z
" transform="scale(0.015625)"/>
       <path id="DejaVuSans-64" d="M 2906 2969 
L 2906 4863 
L 3481 4863 
L 3481 0 
L 2906 0 
L 2906 525 
Q 2725 213 2448 61 
Q 2172 -91 1784 -91 
Q 1150 -91 751 415 
Q 353 922 353 1747 
Q 353 2572 751 3078 
Q 1150 3584 1784 3584 
Q 2172 3584 2448 3432 
Q 2725 3281 2906 2969 
z
M 947 1747 
Q 947 1113 1208 752 
Q 1469 391 1925 391 
Q 2381 391 2643 752 
Q 2906 1113 2906 1747 
Q 2906 2381 2643 2742 
Q 2381 3103 1925 3103 
Q 1469 3103 1208 2742 
Q 947 2381 947 1747 
z
" transform="scale(0.015625)"/>
       <path id="DejaVuSans-65" d="M 3597 1894 
L 3597 1613 
L 953 1613 
Q 991 1019 1311 708 
Q 1631 397 2203 397 
Q 2534 397 2845 478 
Q 3156 559 3463 722 
L 3463 178 
Q 3153 47 2828 -22 
Q 2503 -91 2169 -91 
Q 1331 -91 842 396 
Q 353 884 353 1716 
Q 353 2575 817 3079 
Q 1281 3584 2069 3584 
Q 2775 3584 3186 3129 
Q 3597 2675 3597 1894 
z
M 3022 2063 
Q 3016 2534 2758 2815 
Q 2500 3097 2075 3097 
Q 1594 3097 1305 2825 
Q 1016 2553 972 2059 
L 3022 2063 
z
" transform="scale(0.015625)"/>
       <path id="DejaVuSans-6c" d="M 603 4863 
L 1178 4863 
L 1178 0 
L 603 0 
L 603 4863 
z
" transform="scale(0.015625)"/>
      </defs>
      <use xlink:href="#DejaVuSans-4d"/>
      <use xlink:href="#DejaVuSans-6f" x="86.279297"/>
      <use xlink:href="#DejaVuSans-64" x="147.460938"/>
      <use xlink:href="#DejaVuSans-65" x="210.9375"/>
      <use xlink:href="#DejaVuSans-6c" x="272.460938"/>
     </g>
    </g>
   </g>
   <g id="matplotlib.axis_2">
    <g id="ytick_1">
     <g id="text_8">
      <!-- 0.75 -->
      <g style="fill: #262626" transform="translate(28.334375 311.383219) scale(0.1 -0.1)">
       <defs>
        <path id="DejaVuSans-30" d="M 2034 4250 
Q 1547 4250 1301 3770 
Q 1056 3291 1056 2328 
Q 1056 1369 1301 889 
Q 1547 409 2034 409 
Q 2525 409 2770 889 
Q 3016 1369 3016 2328 
Q 3016 3291 2770 3770 
Q 2525 4250 2034 4250 
z
M 2034 4750 
Q 2819 4750 3233 4129 
Q 3647 3509 3647 2328 
Q 3647 1150 3233 529 
Q 2819 -91 2034 -91 
Q 1250 -91 836 529 
Q 422 1150 422 2328 
Q 422 3509 836 4129 
Q 1250 4750 2034 4750 
z
" transform="scale(0.015625)"/>
        <path id="DejaVuSans-2e" d="M 684 794 
L 1344 794 
L 1344 0 
L 684 0 
L 684 794 
z
" transform="scale(0.015625)"/>
        <path id="DejaVuSans-37" d="M 525 4666 
L 3525 4666 
L 3525 4397 
L 1831 0 
L 1172 0 
L 2766 4134 
L 525 4134 
L 525 4666 
z
" transform="scale(0.015625)"/>
       </defs>
       <use xlink:href="#DejaVuSans-30"/>
       <use xlink:href="#DejaVuSans-2e" x="63.623047"/>
       <use xlink:href="#DejaVuSans-37" x="95.410156"/>
       <use xlink:href="#DejaVuSans-35" x="159.033203"/>
      </g>
     </g>
    </g>
    <g id="ytick_2">
     <g id="text_9">
      <!-- 0.80 -->
      <g style="fill: #262626" transform="translate(28.334375 258.160819) scale(0.1 -0.1)">
       <defs>
        <path id="DejaVuSans-38" d="M 2034 2216 
Q 1584 2216 1326 1975 
Q 1069 1734 1069 1313 
Q 1069 891 1326 650 
Q 1584 409 2034 409 
Q 2484 409 2743 651 
Q 3003 894 3003 1313 
Q 3003 1734 2745 1975 
Q 2488 2216 2034 2216 
z
M 1403 2484 
Q 997 2584 770 2862 
Q 544 3141 544 3541 
Q 544 4100 942 4425 
Q 1341 4750 2034 4750 
Q 2731 4750 3128 4425 
Q 3525 4100 3525 3541 
Q 3525 3141 3298 2862 
Q 3072 2584 2669 2484 
Q 3125 2378 3379 2068 
Q 3634 1759 3634 1313 
Q 3634 634 3220 271 
Q 2806 -91 2034 -91 
Q 1263 -91 848 271 
Q 434 634 434 1313 
Q 434 1759 690 2068 
Q 947 2378 1403 2484 
z
M 1172 3481 
Q 1172 3119 1398 2916 
Q 1625 2713 2034 2713 
Q 2441 2713 2670 2916 
Q 2900 3119 2900 3481 
Q 2900 3844 2670 4047 
Q 2441 4250 2034 4250 
Q 1625 4250 1398 4047 
Q 1172 3844 1172 3481 
z
" transform="scale(0.015625)"/>
       </defs>
       <use xlink:href="#DejaVuSans-30"/>
       <use xlink:href="#DejaVuSans-2e" x="63.623047"/>
       <use xlink:href="#DejaVuSans-38" x="95.410156"/>
       <use xlink:href="#DejaVuSans-30" x="159.033203"/>
      </g>
     </g>
    </g>
    <g id="ytick_3">
     <g id="text_10">
      <!-- 0.85 -->
      <g style="fill: #262626" transform="translate(28.334375 204.938419) scale(0.1 -0.1)">
       <use xlink:href="#DejaVuSans-30"/>
       <use xlink:href="#DejaVuSans-2e" x="63.623047"/>
       <use xlink:href="#DejaVuSans-38" x="95.410156"/>
       <use xlink:href="#DejaVuSans-35" x="159.033203"/>
      </g>
     </g>
    </g>
    <g id="ytick_4">
     <g id="text_11">
      <!-- 0.90 -->
      <g style="fill: #262626" transform="translate(28.334375 151.716019) scale(0.1 -0.1)">
       <defs>
        <path id="DejaVuSans-39" d="M 703 97 
L 703 672 
Q 941 559 1184 500 
Q 1428 441 1663 441 
Q 2288 441 2617 861 
Q 2947 1281 2994 2138 
Q 2813 1869 2534 1725 
Q 2256 1581 1919 1581 
Q 1219 1581 811 2004 
Q 403 2428 403 3163 
Q 403 3881 828 4315 
Q 1253 4750 1959 4750 
Q 2769 4750 3195 4129 
Q 3622 3509 3622 2328 
Q 3622 1225 3098 567 
Q 2575 -91 1691 -91 
Q 1453 -91 1209 -44 
Q 966 3 703 97 
z
M 1959 2075 
Q 2384 2075 2632 2365 
Q 2881 2656 2881 3163 
Q 2881 3666 2632 3958 
Q 2384 4250 1959 4250 
Q 1534 4250 1286 3958 
Q 1038 3666 1038 3163 
Q 1038 2656 1286 2365 
Q 1534 2075 1959 2075 
z
" transform="scale(0.015625)"/>
       </defs>
       <use xlink:href="#DejaVuSans-30"/>
       <use xlink:href="#DejaVuSans-2e" x="63.623047"/>
       <use xlink:href="#DejaVuSans-39" x="95.410156"/>
       <use xlink:href="#DejaVuSans-30" x="159.033203"/>
      </g>
     </g>
    </g>
    <g id="ytick_5">
     <g id="text_12">
      <!-- 0.95 -->
      <g style="fill: #262626" transform="translate(28.334375 98.493619) scale(0.1 -0.1)">
       <use xlink:href="#DejaVuSans-30"/>
       <use xlink:href="#DejaVuSans-2e" x="63.623047"/>
       <use xlink:href="#DejaVuSans-39" x="95.410156"/>
       <use xlink:href="#DejaVuSans-35" x="159.033203"/>
      </g>
     </g>
    </g>
    <g id="ytick_6">
     <g id="text_13">
      <!-- 1.00 -->
      <g style="fill: #262626" transform="translate(28.334375 45.271219) scale(0.1 -0.1)">
       <use xlink:href="#DejaVuSans-31"/>
       <use xlink:href="#DejaVuSans-2e" x="63.623047"/>
       <use xlink:href="#DejaVuSans-30" x="95.410156"/>
       <use xlink:href="#DejaVuSans-30" x="159.033203"/>
      </g>
     </g>
    </g>
    <g id="text_14">
     <!-- auROC -->
     <g style="fill: #262626" transform="translate(22.254687 191.662375) rotate(-90) scale(0.1 -0.1)">
      <defs>
       <path id="DejaVuSans-61" d="M 2194 1759 
Q 1497 1759 1228 1600 
Q 959 1441 959 1056 
Q 959 750 1161 570 
Q 1363 391 1709 391 
Q 2188 391 2477 730 
Q 2766 1069 2766 1631 
L 2766 1759 
L 2194 1759 
z
M 3341 1997 
L 3341 0 
L 2766 0 
L 2766 531 
Q 2569 213 2275 61 
Q 1981 -91 1556 -91 
Q 1019 -91 701 211 
Q 384 513 384 1019 
Q 384 1609 779 1909 
Q 1175 2209 1959 2209 
L 2766 2209 
L 2766 2266 
Q 2766 2663 2505 2880 
Q 2244 3097 1772 3097 
Q 1472 3097 1187 3025 
Q 903 2953 641 2809 
L 641 3341 
Q 956 3463 1253 3523 
Q 1550 3584 1831 3584 
Q 2591 3584 2966 3190 
Q 3341 2797 3341 1997 
z
" transform="scale(0.015625)"/>
       <path id="DejaVuSans-75" d="M 544 1381 
L 544 3500 
L 1119 3500 
L 1119 1403 
Q 1119 906 1312 657 
Q 1506 409 1894 409 
Q 2359 409 2629 706 
Q 2900 1003 2900 1516 
L 2900 3500 
L 3475 3500 
L 3475 0 
L 2900 0 
L 2900 538 
Q 2691 219 2414 64 
Q 2138 -91 1772 -91 
Q 1169 -91 856 284 
Q 544 659 544 1381 
z
M 1991 3584 
L 1991 3584 
z
" transform="scale(0.015625)"/>
       <path id="DejaVuSans-52" d="M 2841 2188 
Q 3044 2119 3236 1894 
Q 3428 1669 3622 1275 
L 4263 0 
L 3584 0 
L 2988 1197 
Q 2756 1666 2539 1819 
Q 2322 1972 1947 1972 
L 1259 1972 
L 1259 0 
L 628 0 
L 628 4666 
L 2053 4666 
Q 2853 4666 3247 4331 
Q 3641 3997 3641 3322 
Q 3641 2881 3436 2590 
Q 3231 2300 2841 2188 
z
M 1259 4147 
L 1259 2491 
L 2053 2491 
Q 2509 2491 2742 2702 
Q 2975 2913 2975 3322 
Q 2975 3731 2742 3939 
Q 2509 4147 2053 4147 
L 1259 4147 
z
" transform="scale(0.015625)"/>
       <path id="DejaVuSans-4f" d="M 2522 4238 
Q 1834 4238 1429 3725 
Q 1025 3213 1025 2328 
Q 1025 1447 1429 934 
Q 1834 422 2522 422 
Q 3209 422 3611 934 
Q 4013 1447 4013 2328 
Q 4013 3213 3611 3725 
Q 3209 4238 2522 4238 
z
M 2522 4750 
Q 3503 4750 4090 4092 
Q 4678 3434 4678 2328 
Q 4678 1225 4090 567 
Q 3503 -91 2522 -91 
Q 1538 -91 948 565 
Q 359 1222 359 2328 
Q 359 3434 948 4092 
Q 1538 4750 2522 4750 
z
" transform="scale(0.015625)"/>
       <path id="DejaVuSans-43" d="M 4122 4306 
L 4122 3641 
Q 3803 3938 3442 4084 
Q 3081 4231 2675 4231 
Q 1875 4231 1450 3742 
Q 1025 3253 1025 2328 
Q 1025 1406 1450 917 
Q 1875 428 2675 428 
Q 3081 428 3442 575 
Q 3803 722 4122 1019 
L 4122 359 
Q 3791 134 3420 21 
Q 3050 -91 2638 -91 
Q 1578 -91 968 557 
Q 359 1206 359 2328 
Q 359 3453 968 4101 
Q 1578 4750 2638 4750 
Q 3056 4750 3426 4639 
Q 3797 4528 4122 4306 
z
" transform="scale(0.015625)"/>
      </defs>
      <use xlink:href="#DejaVuSans-61"/>
      <use xlink:href="#DejaVuSans-75" x="61.279297"/>
      <use xlink:href="#DejaVuSans-52" x="124.658203"/>
      <use xlink:href="#DejaVuSans-4f" x="194.140625"/>
      <use xlink:href="#DejaVuSans-43" x="272.851562"/>
     </g>
    </g>
   </g>
   <g id="PolyCollection_1">
    <defs>
     <path id="m441e891947" d="M 88.025798 -185.446608 
L 86.694202 -185.446608 
L 86.570694 -186.058627 
L 86.429781 -186.670646 
L 86.270095 -187.282665 
L 86.090346 -187.894685 
L 85.88936 -188.506704 
L 85.666117 -189.118723 
L 85.419784 -189.730742 
L 85.149753 -190.342762 
L 84.855671 -190.954781 
L 84.537468 -191.5668 
L 84.195386 -192.178819 
L 83.829995 -192.790839 
L 83.442208 -193.402858 
L 83.033287 -194.014877 
L 82.604844 -194.626896 
L 82.158835 -195.238916 
L 81.697544 -195.850935 
L 81.223566 -196.462954 
L 80.739772 -197.074973 
L 80.24928 -197.686993 
L 79.755406 -198.299012 
L 79.261618 -198.911031 
L 78.771475 -199.52305 
L 78.288563 -200.13507 
L 77.816422 -200.747089 
L 77.358472 -201.359108 
L 76.917923 -201.971127 
L 76.497694 -202.583147 
L 76.100325 -203.195166 
L 75.727885 -203.807185 
L 75.381895 -204.419204 
L 75.063252 -205.031224 
L 74.77217 -205.643243 
L 74.50813 -206.255262 
L 74.269861 -206.867281 
L 74.055342 -207.479301 
L 73.861825 -208.09132 
L 73.685897 -208.703339 
L 73.523571 -209.315358 
L 73.370396 -209.927378 
L 73.221612 -210.539397 
L 73.07231 -211.151416 
L 72.91762 -211.763435 
L 72.752908 -212.375454 
L 72.57397 -212.987474 
L 72.377222 -213.599493 
L 72.15988 -214.211512 
L 71.920107 -214.823531 
L 71.657137 -215.435551 
L 71.371356 -216.04757 
L 71.064345 -216.659589 
L 70.738874 -217.271608 
L 70.398863 -217.883628 
L 70.049286 -218.495647 
L 69.696045 -219.107666 
L 69.345811 -219.719685 
L 69.005833 -220.331705 
L 68.683734 -220.943724 
L 68.387297 -221.555743 
L 68.124242 -222.167762 
L 67.90202 -222.779782 
L 67.727605 -223.391801 
L 67.607325 -224.00382 
L 67.546693 -224.615839 
L 67.550289 -225.227859 
L 67.621649 -225.839878 
L 67.763202 -226.451897 
L 67.976225 -227.063916 
L 68.260833 -227.675936 
L 68.61599 -228.287955 
L 69.039553 -228.899974 
L 69.528328 -229.511993 
L 70.078156 -230.124013 
L 70.684006 -230.736032 
L 71.340091 -231.348051 
L 72.039988 -231.96007 
L 72.776772 -232.57209 
L 73.543154 -233.184109 
L 74.331622 -233.796128 
L 75.134584 -234.408147 
L 75.944507 -235.020166 
L 76.754053 -235.632186 
L 77.556205 -236.244205 
L 78.344381 -236.856224 
L 79.112537 -237.468243 
L 79.855251 -238.080263 
L 80.567792 -238.692282 
L 81.246168 -239.304301 
L 81.887153 -239.91632 
L 82.488296 -240.52834 
L 83.047913 -241.140359 
L 83.565053 -241.752378 
L 84.039459 -242.364397 
L 84.471505 -242.976417 
L 84.862131 -243.588436 
L 85.212763 -244.200455 
L 85.525235 -244.812474 
L 85.801703 -245.424494 
L 86.044564 -246.036513 
L 88.675436 -246.036513 
L 88.675436 -246.036513 
L 88.918297 -245.424494 
L 89.194765 -244.812474 
L 89.507237 -244.200455 
L 89.857869 -243.588436 
L 90.248495 -242.976417 
L 90.680541 -242.364397 
L 91.154947 -241.752378 
L 91.672087 -241.140359 
L 92.231704 -240.52834 
L 92.832847 -239.91632 
L 93.473832 -239.304301 
L 94.152208 -238.692282 
L 94.864749 -238.080263 
L 95.607463 -237.468243 
L 96.375619 -236.856224 
L 97.163795 -236.244205 
L 97.965947 -235.632186 
L 98.775493 -235.020166 
L 99.585416 -234.408147 
L 100.388378 -233.796128 
L 101.176846 -233.184109 
L 101.943228 -232.57209 
L 102.680012 -231.96007 
L 103.379909 -231.348051 
L 104.035994 -230.736032 
L 104.641844 -230.124013 
L 105.191672 -229.511993 
L 105.680447 -228.899974 
L 106.10401 -228.287955 
L 106.459167 -227.675936 
L 106.743775 -227.063916 
L 106.956798 -226.451897 
L 107.098351 -225.839878 
L 107.169711 -225.227859 
L 107.173307 -224.615839 
L 107.112675 -224.00382 
L 106.992395 -223.391801 
L 106.81798 -222.779782 
L 106.595758 -222.167762 
L 106.332703 -221.555743 
L 106.036266 -220.943724 
L 105.714167 -220.331705 
L 105.374189 -219.719685 
L 105.023955 -219.107666 
L 104.670714 -218.495647 
L 104.321137 -217.883628 
L 103.981126 -217.271608 
L 103.655655 -216.659589 
L 103.348644 -216.04757 
L 103.062863 -215.435551 
L 102.799893 -214.823531 
L 102.56012 -214.211512 
L 102.342778 -213.599493 
L 102.14603 -212.987474 
L 101.967092 -212.375454 
L 101.80238 -211.763435 
L 101.64769 -211.151416 
L 101.498388 -210.539397 
L 101.349604 -209.927378 
L 101.196429 -209.315358 
L 101.034103 -208.703339 
L 100.858175 -208.09132 
L 100.664658 -207.479301 
L 100.450139 -206.867281 
L 100.21187 -206.255262 
L 99.94783 -205.643243 
L 99.656748 -205.031224 
L 99.338105 -204.419204 
L 98.992115 -203.807185 
L 98.619675 -203.195166 
L 98.222306 -202.583147 
L 97.802077 -201.971127 
L 97.361528 -201.359108 
L 96.903578 -200.747089 
L 96.431437 -200.13507 
L 95.948525 -199.52305 
L 95.458382 -198.911031 
L 94.964594 -198.299012 
L 94.47072 -197.686993 
L 93.980228 -197.074973 
L 93.496434 -196.462954 
L 93.022456 -195.850935 
L 92.561165 -195.238916 
L 92.115156 -194.626896 
L 91.686713 -194.014877 
L 91.277792 -193.402858 
L 90.890005 -192.790839 
L 90.524614 -192.178819 
L 90.182532 -191.5668 
L 89.864329 -190.954781 
L 89.570247 -190.342762 
L 89.300216 -189.730742 
L 89.053883 -189.118723 
L 88.83064 -188.506704 
L 88.629654 -187.894685 
L 88.449905 -187.282665 
L 88.290219 -186.670646 
L 88.149306 -186.058627 
L 88.025798 -185.446608 
z
" style="stroke: #595959; stroke-width: 1.5"/>
    </defs>
    <g clip-path="url(#pa77476f91d)">
     <use xlink:href="#m441e891947" x="0" y="345.6" style="fill: #72b6a1; stroke: #595959; stroke-width: 1.5"/>
    </g>
   </g>
   <g id="PolyCollection_2">
    <defs>
     <path id="mcd3f28e388" d="M 147.448061 -175.139932 
L 146.311939 -175.139932 
L 146.202793 -175.878129 
L 146.078175 -176.616327 
L 145.937043 -177.354524 
L 145.77851 -178.092721 
L 145.601885 -178.830918 
L 145.406714 -179.569115 
L 145.192825 -180.307312 
L 144.960361 -181.045509 
L 144.709804 -181.783707 
L 144.442003 -182.521904 
L 144.15817 -183.260101 
L 143.859886 -183.998298 
L 143.549075 -184.736495 
L 143.227976 -185.474692 
L 142.899095 -186.212889 
L 142.565148 -186.951087 
L 142.228993 -187.689284 
L 141.893546 -188.427481 
L 141.561697 -189.165678 
L 141.236221 -189.903875 
L 140.919682 -190.642072 
L 140.614349 -191.38027 
L 140.322105 -192.118467 
L 140.044375 -192.856664 
L 139.782061 -193.594861 
L 139.535489 -194.333058 
L 139.304372 -195.071255 
L 139.087796 -195.809452 
L 138.884217 -196.54765 
L 138.691482 -197.285847 
L 138.506869 -198.024044 
L 138.327146 -198.762241 
L 138.14865 -199.500438 
L 137.967379 -200.238635 
L 137.779112 -200.976833 
L 137.579523 -201.71503 
L 137.364327 -202.453227 
L 137.129422 -203.191424 
L 136.871032 -203.929621 
L 136.585864 -204.667818 
L 136.271248 -205.406015 
L 135.925272 -206.144213 
L 135.546906 -206.88241 
L 135.136102 -207.620607 
L 134.693877 -208.358804 
L 134.222359 -209.097001 
L 133.724815 -209.835198 
L 133.205632 -210.573395 
L 132.67027 -211.311593 
L 132.125177 -212.04979 
L 131.57767 -212.787987 
L 131.035782 -213.526184 
L 130.50808 -214.264381 
L 130.003462 -215.002578 
L 129.530935 -215.740776 
L 129.09938 -216.478973 
L 128.717326 -217.21717 
L 128.392715 -217.955367 
L 128.132699 -218.693564 
L 127.943441 -219.431761 
L 127.829966 -220.169958 
L 127.796023 -220.908156 
L 127.84401 -221.646353 
L 127.974919 -222.38455 
L 128.188335 -223.122747 
L 128.48247 -223.860944 
L 128.854236 -224.599141 
L 129.299348 -225.337338 
L 129.812459 -226.075536 
L 130.387313 -226.813733 
L 131.01691 -227.55193 
L 131.69369 -228.290127 
L 132.409707 -229.028324 
L 133.156807 -229.766521 
L 133.926796 -230.504719 
L 134.711595 -231.242916 
L 135.503382 -231.981113 
L 136.294713 -232.71931 
L 137.078626 -233.457507 
L 137.848729 -234.195704 
L 138.599265 -234.933901 
L 139.325158 -235.672099 
L 140.022047 -236.410296 
L 140.686296 -237.148493 
L 141.314996 -237.88669 
L 141.90595 -238.624887 
L 142.457645 -239.363084 
L 142.969218 -240.101282 
L 143.440406 -240.839479 
L 143.871498 -241.577676 
L 144.263271 -242.315873 
L 144.616931 -243.05407 
L 144.934044 -243.792267 
L 145.216473 -244.530464 
L 145.466309 -245.268662 
L 145.68581 -246.006859 
L 145.877339 -246.745056 
L 146.04331 -247.483253 
L 146.186137 -248.22145 
L 147.573863 -248.22145 
L 147.573863 -248.22145 
L 147.71669 -247.483253 
L 147.882661 -246.745056 
L 148.07419 -246.006859 
L 148.293691 -245.268662 
L 148.543527 -244.530464 
L 148.825956 -243.792267 
L 149.143069 -243.05407 
L 149.496729 -242.315873 
L 149.888502 -241.577676 
L 150.319594 -240.839479 
L 150.790782 -240.101282 
L 151.302355 -239.363084 
L 151.85405 -238.624887 
L 152.445004 -237.88669 
L 153.073704 -237.148493 
L 153.737953 -236.410296 
L 154.434842 -235.672099 
L 155.160735 -234.933901 
L 155.911271 -234.195704 
L 156.681374 -233.457507 
L 157.465287 -232.71931 
L 158.256618 -231.981113 
L 159.048405 -231.242916 
L 159.833204 -230.504719 
L 160.603193 -229.766521 
L 161.350293 -229.028324 
L 162.06631 -228.290127 
L 162.74309 -227.55193 
L 163.372687 -226.813733 
L 163.947541 -226.075536 
L 164.460652 -225.337338 
L 164.905764 -224.599141 
L 165.27753 -223.860944 
L 165.571665 -223.122747 
L 165.785081 -222.38455 
L 165.91599 -221.646353 
L 165.963977 -220.908156 
L 165.930034 -220.169958 
L 165.816559 -219.431761 
L 165.627301 -218.693564 
L 165.367285 -217.955367 
L 165.042674 -217.21717 
L 164.66062 -216.478973 
L 164.229065 -215.740776 
L 163.756538 -215.002578 
L 163.25192 -214.264381 
L 162.724218 -213.526184 
L 162.18233 -212.787987 
L 161.634823 -212.04979 
L 161.08973 -211.311593 
L 160.554368 -210.573395 
L 160.035185 -209.835198 
L 159.537641 -209.097001 
L 159.066123 -208.358804 
L 158.623898 -207.620607 
L 158.213094 -206.88241 
L 157.834728 -206.144213 
L 157.488752 -205.406015 
L 157.174136 -204.667818 
L 156.888968 -203.929621 
L 156.630578 -203.191424 
L 156.395673 -202.453227 
L 156.180477 -201.71503 
L 155.980888 -200.976833 
L 155.792621 -200.238635 
L 155.61135 -199.500438 
L 155.432854 -198.762241 
L 155.253131 -198.024044 
L 155.068518 -197.285847 
L 154.875783 -196.54765 
L 154.672204 -195.809452 
L 154.455628 -195.071255 
L 154.224511 -194.333058 
L 153.977939 -193.594861 
L 153.715625 -192.856664 
L 153.437895 -192.118467 
L 153.145651 -191.38027 
L 152.840318 -190.642072 
L 152.523779 -189.903875 
L 152.198303 -189.165678 
L 151.866454 -188.427481 
L 151.531007 -187.689284 
L 151.194852 -186.951087 
L 150.860905 -186.212889 
L 150.532024 -185.474692 
L 150.210925 -184.736495 
L 149.900114 -183.998298 
L 149.60183 -183.260101 
L 149.317997 -182.521904 
L 149.050196 -181.783707 
L 148.799639 -181.045509 
L 148.567175 -180.307312 
L 148.353286 -179.569115 
L 148.158115 -178.830918 
L 147.98149 -178.092721 
L 147.822957 -177.354524 
L 147.681825 -176.616327 
L 147.557207 -175.878129 
L 147.448061 -175.139932 
z
" style="stroke: #595959; stroke-width: 1.5"/>
    </defs>
    <g clip-path="url(#pefc1668bbe)">
     <use xlink:href="#mcd3f28e388" x="0" y="345.6" style="fill: #e99675; stroke: #595959; stroke-width: 1.5"/>
    </g>
   </g>
   <g id="PolyCollection_3">
    <defs>
     <path id="m6bf0b141f6" d="M 206.977201 -178.155869 
L 205.822799 -178.155869 
L 205.711452 -178.8669 
L 205.584192 -179.57793 
L 205.439867 -180.288961 
L 205.27744 -180.999991 
L 205.096009 -181.711021 
L 204.894837 -182.422052 
L 204.673368 -183.133082 
L 204.431241 -183.844113 
L 204.168289 -184.555143 
L 203.884529 -185.266173 
L 203.580149 -185.977204 
L 203.255477 -186.688234 
L 202.910943 -187.399265 
L 202.547041 -188.110295 
L 202.164285 -188.821325 
L 201.763166 -189.532356 
L 201.344115 -190.243386 
L 200.907479 -190.954417 
L 200.453508 -191.665447 
L 199.98236 -192.376477 
L 199.49413 -193.087508 
L 198.988899 -193.798538 
L 198.466797 -194.509569 
L 197.928096 -195.220599 
L 197.373311 -195.93163 
L 196.803308 -196.64266 
L 196.219419 -197.35369 
L 195.623547 -198.064721 
L 195.018254 -198.775751 
L 194.406827 -199.486782 
L 193.79331 -200.197812 
L 193.182501 -200.908842 
L 192.579895 -201.619873 
L 191.991597 -202.330903 
L 191.424177 -203.041934 
L 190.884494 -203.752964 
L 190.379479 -204.463994 
L 189.915899 -205.175025 
L 189.500107 -205.886055 
L 189.137788 -206.597086 
L 188.83373 -207.308116 
L 188.591608 -208.019146 
L 188.41382 -208.730177 
L 188.301366 -209.441207 
L 188.253788 -210.152238 
L 188.269174 -210.863268 
L 188.344221 -211.574299 
L 188.474361 -212.285329 
L 188.653947 -212.996359 
L 188.876476 -213.70739 
L 189.134854 -214.41842 
L 189.421681 -215.129451 
L 189.72954 -215.840481 
L 190.051285 -216.551511 
L 190.380304 -217.262542 
L 190.710749 -217.973572 
L 191.037732 -218.684603 
L 191.357457 -219.395633 
L 191.667315 -220.106663 
L 191.965906 -220.817694 
L 192.253021 -221.528724 
L 192.529559 -222.239755 
L 192.797413 -222.950785 
L 193.059301 -223.661815 
L 193.318586 -224.372846 
L 193.579062 -225.083876 
L 193.844743 -225.794907 
L 194.11964 -226.505937 
L 194.407563 -227.216968 
L 194.711927 -227.927998 
L 195.035591 -228.639028 
L 195.380729 -229.350059 
L 195.74873 -230.061089 
L 196.140139 -230.77212 
L 196.554638 -231.48315 
L 196.991053 -232.19418 
L 197.447412 -232.905211 
L 197.921015 -233.616241 
L 198.408545 -234.327272 
L 198.906187 -235.038302 
L 199.409769 -235.749332 
L 199.914905 -236.460363 
L 200.41714 -237.171393 
L 200.91209 -237.882424 
L 201.395574 -238.593454 
L 201.863723 -239.304484 
L 202.313079 -240.015515 
L 202.740669 -240.726545 
L 203.144055 -241.437576 
L 203.521364 -242.148606 
L 203.871296 -242.859637 
L 204.193109 -243.570667 
L 204.486592 -244.281697 
L 204.752019 -244.992728 
L 204.99009 -245.703758 
L 205.201873 -246.414789 
L 205.388732 -247.125819 
L 205.55226 -247.836849 
L 205.694213 -248.54788 
L 207.105787 -248.54788 
L 207.105787 -248.54788 
L 207.24774 -247.836849 
L 207.411268 -247.125819 
L 207.598127 -246.414789 
L 207.80991 -245.703758 
L 208.047981 -244.992728 
L 208.313408 -244.281697 
L 208.606891 -243.570667 
L 208.928704 -242.859637 
L 209.278636 -242.148606 
L 209.655945 -241.437576 
L 210.059331 -240.726545 
L 210.486921 -240.015515 
L 210.936277 -239.304484 
L 211.404426 -238.593454 
L 211.88791 -237.882424 
L 212.38286 -237.171393 
L 212.885095 -236.460363 
L 213.390231 -235.749332 
L 213.893813 -235.038302 
L 214.391455 -234.327272 
L 214.878985 -233.616241 
L 215.352588 -232.905211 
L 215.808947 -232.19418 
L 216.245362 -231.48315 
L 216.659861 -230.77212 
L 217.05127 -230.061089 
L 217.419271 -229.350059 
L 217.764409 -228.639028 
L 218.088073 -227.927998 
L 218.392437 -227.216968 
L 218.68036 -226.505937 
L 218.955257 -225.794907 
L 219.220938 -225.083876 
L 219.481414 -224.372846 
L 219.740699 -223.661815 
L 220.002587 -222.950785 
L 220.270441 -222.239755 
L 220.546979 -221.528724 
L 220.834094 -220.817694 
L 221.132685 -220.106663 
L 221.442543 -219.395633 
L 221.762268 -218.684603 
L 222.089251 -217.973572 
L 222.419696 -217.262542 
L 222.748715 -216.551511 
L 223.07046 -215.840481 
L 223.378319 -215.129451 
L 223.665146 -214.41842 
L 223.923524 -213.70739 
L 224.146053 -212.996359 
L 224.325639 -212.285329 
L 224.455779 -211.574299 
L 224.530826 -210.863268 
L 224.546212 -210.152238 
L 224.498634 -209.441207 
L 224.38618 -208.730177 
L 224.208392 -208.019146 
L 223.96627 -207.308116 
L 223.662212 -206.597086 
L 223.299893 -205.886055 
L 222.884101 -205.175025 
L 222.420521 -204.463994 
L 221.915506 -203.752964 
L 221.375823 -203.041934 
L 220.808403 -202.330903 
L 220.220105 -201.619873 
L 219.617499 -200.908842 
L 219.00669 -200.197812 
L 218.393173 -199.486782 
L 217.781746 -198.775751 
L 217.176453 -198.064721 
L 216.580581 -197.35369 
L 215.996692 -196.64266 
L 215.426689 -195.93163 
L 214.871904 -195.220599 
L 214.333203 -194.509569 
L 213.811101 -193.798538 
L 213.30587 -193.087508 
L 212.81764 -192.376477 
L 212.346492 -191.665447 
L 211.892521 -190.954417 
L 211.455885 -190.243386 
L 211.036834 -189.532356 
L 210.635715 -188.821325 
L 210.252959 -188.110295 
L 209.889057 -187.399265 
L 209.544523 -186.688234 
L 209.219851 -185.977204 
L 208.915471 -185.266173 
L 208.631711 -184.555143 
L 208.368759 -183.844113 
L 208.126632 -183.133082 
L 207.905163 -182.422052 
L 207.703991 -181.711021 
L 207.52256 -180.999991 
L 207.360133 -180.288961 
L 207.215808 -179.57793 
L 207.088548 -178.8669 
L 206.977201 -178.155869 
z
" style="stroke: #595959; stroke-width: 1.5"/>
    </defs>
    <g clip-path="url(#pd06e9bc9d6)">
     <use xlink:href="#m6bf0b141f6" x="0" y="345.6" style="fill: #95a3c3; stroke: #595959; stroke-width: 1.5"/>
    </g>
   </g>
   <g id="PolyCollection_4">
    <defs>
     <path id="m8e062cd449" d="M 266.378691 -152.895892 
L 265.461309 -152.895892 
L 265.375967 -153.760473 
L 265.278694 -154.625055 
L 265.168576 -155.489637 
L 265.044754 -156.354218 
L 264.906432 -157.2188 
L 264.752898 -158.083381 
L 264.58353 -158.947963 
L 264.397807 -159.812545 
L 264.195311 -160.677126 
L 263.975725 -161.541708 
L 263.738831 -162.40629 
L 263.484496 -163.270871 
L 263.212663 -164.135453 
L 262.923339 -165.000034 
L 262.616576 -165.864616 
L 262.292472 -166.729198 
L 261.951153 -167.593779 
L 261.592784 -168.458361 
L 261.217574 -169.322943 
L 260.8258 -170.187524 
L 260.417833 -171.052106 
L 259.994183 -171.916687 
L 259.555546 -172.781269 
L 259.102866 -173.645851 
L 258.637391 -174.510432 
L 258.16074 -175.375014 
L 257.674955 -176.239596 
L 257.182548 -177.104177 
L 256.686532 -177.968759 
L 256.190435 -178.83334 
L 255.69828 -179.697922 
L 255.21455 -180.562504 
L 254.744113 -181.427085 
L 254.292125 -182.291667 
L 253.863899 -183.156249 
L 253.46476 -184.02083 
L 253.09987 -184.885412 
L 252.774053 -185.749994 
L 252.491611 -186.614575 
L 252.256148 -187.479157 
L 252.070409 -188.343738 
L 251.936147 -189.20832 
L 251.854019 -190.072902 
L 251.823527 -190.937483 
L 251.842992 -191.802065 
L 251.909589 -192.666647 
L 252.019424 -193.531228 
L 252.167649 -194.39581 
L 252.348627 -195.260391 
L 252.556131 -196.124973 
L 252.783559 -196.989555 
L 253.024178 -197.854136 
L 253.271362 -198.718718 
L 253.518834 -199.5833 
L 253.760887 -200.447881 
L 253.992584 -201.312463 
L 254.209921 -202.177044 
L 254.409953 -203.041626 
L 254.590879 -203.906208 
L 254.752069 -204.770789 
L 254.894059 -205.635371 
L 255.018487 -206.499953 
L 255.127995 -207.364534 
L 255.226087 -208.229116 
L 255.316965 -209.093697 
L 255.405332 -209.958279 
L 255.49619 -210.822861 
L 255.594626 -211.687442 
L 255.7056 -212.552024 
L 255.833752 -213.416606 
L 255.983219 -214.281187 
L 256.157478 -215.145769 
L 256.359227 -216.010351 
L 256.590288 -216.874932 
L 256.851559 -217.739514 
L 257.142992 -218.604095 
L 257.463614 -219.468677 
L 257.811581 -220.333259 
L 258.184259 -221.19784 
L 258.57833 -222.062422 
L 258.989925 -222.927004 
L 259.414761 -223.791585 
L 259.848291 -224.656167 
L 260.285853 -225.520748 
L 260.722814 -226.38533 
L 261.154706 -227.249912 
L 261.577339 -228.114493 
L 261.986907 -228.979075 
L 262.380063 -229.843657 
L 262.753981 -230.708238 
L 263.106383 -231.57282 
L 263.435558 -232.437401 
L 263.740354 -233.301983 
L 264.020152 -234.166565 
L 264.274825 -235.031146 
L 264.504691 -235.895728 
L 264.710452 -236.76031 
L 264.893128 -237.624891 
L 265.053998 -238.489473 
L 266.786002 -238.489473 
L 266.786002 -238.489473 
L 266.946872 -237.624891 
L 267.129548 -236.76031 
L 267.335309 -235.895728 
L 267.565175 -235.031146 
L 267.819848 -234.166565 
L 268.099646 -233.301983 
L 268.404442 -232.437401 
L 268.733617 -231.57282 
L 269.086019 -230.708238 
L 269.459937 -229.843657 
L 269.853093 -228.979075 
L 270.262661 -228.114493 
L 270.685294 -227.249912 
L 271.117186 -226.38533 
L 271.554147 -225.520748 
L 271.991709 -224.656167 
L 272.425239 -223.791585 
L 272.850075 -222.927004 
L 273.26167 -222.062422 
L 273.655741 -221.19784 
L 274.028419 -220.333259 
L 274.376386 -219.468677 
L 274.697008 -218.604095 
L 274.988441 -217.739514 
L 275.249712 -216.874932 
L 275.480773 -216.010351 
L 275.682522 -215.145769 
L 275.856781 -214.281187 
L 276.006248 -213.416606 
L 276.1344 -212.552024 
L 276.245374 -211.687442 
L 276.34381 -210.822861 
L 276.434668 -209.958279 
L 276.523035 -209.093697 
L 276.613913 -208.229116 
L 276.712005 -207.364534 
L 276.821513 -206.499953 
L 276.945941 -205.635371 
L 277.087931 -204.770789 
L 277.249121 -203.906208 
L 277.430047 -203.041626 
L 277.630079 -202.177044 
L 277.847416 -201.312463 
L 278.079113 -200.447881 
L 278.321166 -199.5833 
L 278.568638 -198.718718 
L 278.815822 -197.854136 
L 279.056441 -196.989555 
L 279.283869 -196.124973 
L 279.491373 -195.260391 
L 279.672351 -194.39581 
L 279.820576 -193.531228 
L 279.930411 -192.666647 
L 279.997008 -191.802065 
L 280.016473 -190.937483 
L 279.985981 -190.072902 
L 279.903853 -189.20832 
L 279.769591 -188.343738 
L 279.583852 -187.479157 
L 279.348389 -186.614575 
L 279.065947 -185.749994 
L 278.74013 -184.885412 
L 278.37524 -184.02083 
L 277.976101 -183.156249 
L 277.547875 -182.291667 
L 277.095887 -181.427085 
L 276.62545 -180.562504 
L 276.14172 -179.697922 
L 275.649565 -178.83334 
L 275.153468 -177.968759 
L 274.657452 -177.104177 
L 274.165045 -176.239596 
L 273.67926 -175.375014 
L 273.202609 -174.510432 
L 272.737134 -173.645851 
L 272.284454 -172.781269 
L 271.845817 -171.916687 
L 271.422167 -171.052106 
L 271.0142 -170.187524 
L 270.622426 -169.322943 
L 270.247216 -168.458361 
L 269.888847 -167.593779 
L 269.547528 -166.729198 
L 269.223424 -165.864616 
L 268.916661 -165.000034 
L 268.627337 -164.135453 
L 268.355504 -163.270871 
L 268.101169 -162.40629 
L 267.864275 -161.541708 
L 267.644689 -160.677126 
L 267.442193 -159.812545 
L 267.25647 -158.947963 
L 267.087102 -158.083381 
L 266.933568 -157.2188 
L 266.795246 -156.354218 
L 266.671424 -155.489637 
L 266.561306 -154.625055 
L 266.464033 -153.760473 
L 266.378691 -152.895892 
z
" style="stroke: #595959; stroke-width: 1.5"/>
    </defs>
    <g clip-path="url(#pe1489a725a)">
     <use xlink:href="#m8e062cd449" x="0" y="345.6" style="fill: #db96c0; stroke: #595959; stroke-width: 1.5"/>
    </g>
   </g>
   <g id="PolyCollection_5">
    <defs>
     <path id="mf00ad6e87d" d="M 326.520444 -195.927932 
L 324.359556 -195.927932 
L 324.154791 -196.459489 
L 323.920664 -196.991046 
L 323.654932 -197.522603 
L 323.355561 -198.054161 
L 323.020801 -198.585718 
L 322.649271 -199.117275 
L 322.240044 -199.648832 
L 321.79272 -200.18039 
L 321.307495 -200.711947 
L 320.78522 -201.243504 
L 320.227444 -201.775061 
L 319.636432 -202.306619 
L 319.015165 -202.838176 
L 318.367317 -203.369733 
L 317.697203 -203.90129 
L 317.009699 -204.432848 
L 316.310143 -204.964405 
L 315.604209 -205.495962 
L 314.897763 -206.027519 
L 314.196705 -206.559077 
L 313.506804 -207.090634 
L 312.833532 -207.622191 
L 312.181905 -208.153748 
L 311.556334 -208.685306 
L 310.960503 -209.216863 
L 310.39727 -209.74842 
L 309.868604 -210.279977 
L 309.375556 -210.811535 
L 308.918274 -211.343092 
L 308.496054 -211.874649 
L 308.107426 -212.406206 
L 307.750283 -212.937764 
L 307.422033 -213.469321 
L 307.119764 -214.000878 
L 306.840439 -214.532435 
L 306.581075 -215.063993 
L 306.338923 -215.59555 
L 306.111633 -216.127107 
L 305.897385 -216.658664 
L 305.69499 -217.190222 
L 305.503956 -217.721779 
L 305.324498 -218.253336 
L 305.157522 -218.784893 
L 305.004551 -219.31645 
L 304.867624 -219.848008 
L 304.749161 -220.379565 
L 304.651806 -220.911122 
L 304.578257 -221.442679 
L 304.531101 -221.974237 
L 304.512649 -222.505794 
L 304.524803 -223.037351 
L 304.568941 -223.568908 
L 304.645846 -224.100466 
L 304.75567 -224.632023 
L 304.897944 -225.16358 
L 305.071623 -225.695137 
L 305.275175 -226.226695 
L 305.506692 -226.758252 
L 305.764025 -227.289809 
L 306.044934 -227.821366 
L 306.347231 -228.352924 
L 306.668922 -228.884481 
L 307.008318 -229.416038 
L 307.364129 -229.947595 
L 307.735514 -230.479153 
L 308.122103 -231.01071 
L 308.52397 -231.542267 
L 308.941578 -232.073824 
L 309.375683 -232.605382 
L 309.827224 -233.136939 
L 310.297182 -233.668496 
L 310.786439 -234.200053 
L 311.29564 -234.731611 
L 311.825057 -235.263168 
L 312.374483 -235.794725 
L 312.943145 -236.326282 
L 313.529653 -236.85784 
L 314.131976 -237.389397 
L 314.747466 -237.920954 
L 315.372901 -238.452511 
L 316.004571 -238.984069 
L 316.638375 -239.515626 
L 317.269951 -240.047183 
L 317.894808 -240.57874 
L 318.508461 -241.110298 
L 319.106572 -241.641855 
L 319.685072 -242.173412 
L 320.240273 -242.704969 
L 320.768956 -243.236527 
L 321.268446 -243.768084 
L 321.736649 -244.299641 
L 322.172081 -244.831198 
L 322.573861 -245.362756 
L 322.94169 -245.894313 
L 323.275811 -246.42587 
L 323.576958 -246.957427 
L 323.846285 -247.488985 
L 324.085301 -248.020542 
L 324.295793 -248.552099 
L 326.584207 -248.552099 
L 326.584207 -248.552099 
L 326.794699 -248.020542 
L 327.033715 -247.488985 
L 327.303042 -246.957427 
L 327.604189 -246.42587 
L 327.93831 -245.894313 
L 328.306139 -245.362756 
L 328.707919 -244.831198 
L 329.143351 -244.299641 
L 329.611554 -243.768084 
L 330.111044 -243.236527 
L 330.639727 -242.704969 
L 331.194928 -242.173412 
L 331.773428 -241.641855 
L 332.371539 -241.110298 
L 332.985192 -240.57874 
L 333.610049 -240.047183 
L 334.241625 -239.515626 
L 334.875429 -238.984069 
L 335.507099 -238.452511 
L 336.132534 -237.920954 
L 336.748024 -237.389397 
L 337.350347 -236.85784 
L 337.936855 -236.326282 
L 338.505517 -235.794725 
L 339.054943 -235.263168 
L 339.58436 -234.731611 
L 340.093561 -234.200053 
L 340.582818 -233.668496 
L 341.052776 -233.136939 
L 341.504317 -232.605382 
L 341.938422 -232.073824 
L 342.35603 -231.542267 
L 342.757897 -231.01071 
L 343.144486 -230.479153 
L 343.515871 -229.947595 
L 343.871682 -229.416038 
L 344.211078 -228.884481 
L 344.532769 -228.352924 
L 344.835066 -227.821366 
L 345.115975 -227.289809 
L 345.373308 -226.758252 
L 345.604825 -226.226695 
L 345.808377 -225.695137 
L 345.982056 -225.16358 
L 346.12433 -224.632023 
L 346.234154 -224.100466 
L 346.311059 -223.568908 
L 346.355197 -223.037351 
L 346.367351 -222.505794 
L 346.348899 -221.974237 
L 346.301743 -221.442679 
L 346.228194 -220.911122 
L 346.130839 -220.379565 
L 346.012376 -219.848008 
L 345.875449 -219.31645 
L 345.722478 -218.784893 
L 345.555502 -218.253336 
L 345.376044 -217.721779 
L 345.18501 -217.190222 
L 344.982615 -216.658664 
L 344.768367 -216.127107 
L 344.541077 -215.59555 
L 344.298925 -215.063993 
L 344.039561 -214.532435 
L 343.760236 -214.000878 
L 343.457967 -213.469321 
L 343.129717 -212.937764 
L 342.772574 -212.406206 
L 342.383946 -211.874649 
L 341.961726 -211.343092 
L 341.504444 -210.811535 
L 341.011396 -210.279977 
L 340.48273 -209.74842 
L 339.919497 -209.216863 
L 339.323666 -208.685306 
L 338.698095 -208.153748 
L 338.046468 -207.622191 
L 337.373196 -207.090634 
L 336.683295 -206.559077 
L 335.982237 -206.027519 
L 335.275791 -205.495962 
L 334.569857 -204.964405 
L 333.870301 -204.432848 
L 333.182797 -203.90129 
L 332.512683 -203.369733 
L 331.864835 -202.838176 
L 331.243568 -202.306619 
L 330.652556 -201.775061 
L 330.09478 -201.243504 
L 329.572505 -200.711947 
L 329.08728 -200.18039 
L 328.639956 -199.648832 
L 328.230729 -199.117275 
L 327.859199 -198.585718 
L 327.524439 -198.054161 
L 327.225068 -197.522603 
L 326.959336 -196.991046 
L 326.725209 -196.459489 
L 326.520444 -195.927932 
z
" style="stroke: #595959; stroke-width: 1.5"/>
    </defs>
    <g clip-path="url(#p59d31d79aa)">
     <use xlink:href="#mf00ad6e87d" x="0" y="345.6" style="fill: #a2c865; stroke: #595959; stroke-width: 1.5"/>
    </g>
   </g>
   <g id="PolyCollection_6">
    <defs>
     <path id="m9dc3d7d206" d="M 385.959184 -197.117944 
L 383.960816 -197.117944 
L 383.770921 -197.577829 
L 383.553362 -198.037714 
L 383.305832 -198.4976 
L 383.026151 -198.957485 
L 382.71233 -199.41737 
L 382.362642 -199.877255 
L 381.975691 -200.337141 
L 381.550477 -200.797026 
L 381.08647 -201.256911 
L 380.583657 -201.716796 
L 380.042598 -202.176681 
L 379.464458 -202.636567 
L 378.851032 -203.096452 
L 378.204747 -203.556337 
L 377.528654 -204.016222 
L 376.82639 -204.476108 
L 376.102135 -204.935993 
L 375.360537 -205.395878 
L 374.60663 -205.855763 
L 373.84573 -206.315649 
L 373.083326 -206.775534 
L 372.324958 -207.235419 
L 371.576086 -207.695304 
L 370.841972 -208.15519 
L 370.127548 -208.615075 
L 369.437312 -209.07496 
L 368.775217 -209.534845 
L 368.144593 -209.99473 
L 367.548078 -210.454616 
L 366.987578 -210.914501 
L 366.464245 -211.374386 
L 365.978485 -211.834271 
L 365.529987 -212.294157 
L 365.117779 -212.754042 
L 364.7403 -213.213927 
L 364.395495 -213.673812 
L 364.08092 -214.133698 
L 363.793862 -214.593583 
L 363.531454 -215.053468 
L 363.290803 -215.513353 
L 363.0691 -215.973239 
L 362.863733 -216.433124 
L 362.672371 -216.893009 
L 362.493048 -217.352894 
L 362.324217 -217.812779 
L 362.164785 -218.272665 
L 362.014137 -218.73255 
L 361.872126 -219.192435 
L 361.739063 -219.65232 
L 361.615679 -220.112206 
L 361.50309 -220.572091 
L 361.40274 -221.031976 
L 361.316354 -221.491861 
L 361.245888 -221.951747 
L 361.193476 -222.411632 
L 361.16139 -222.871517 
L 361.152 -223.331402 
L 361.167745 -223.791288 
L 361.211106 -224.251173 
L 361.284581 -224.711058 
L 361.390666 -225.170943 
L 361.531826 -225.630828 
L 361.710471 -226.090714 
L 361.928916 -226.550599 
L 362.189338 -227.010484 
L 362.49372 -227.470369 
L 362.843784 -227.930255 
L 363.24092 -228.39014 
L 363.686105 -228.850025 
L 364.179822 -229.30991 
L 364.721978 -229.769796 
L 365.311833 -230.229681 
L 365.947941 -230.689566 
L 366.628105 -231.149451 
L 367.349354 -231.609337 
L 368.107952 -232.069222 
L 368.899428 -232.529107 
L 369.718632 -232.988992 
L 370.559827 -233.448877 
L 371.416794 -233.908763 
L 372.282968 -234.368648 
L 373.151583 -234.828533 
L 374.015828 -235.288418 
L 374.869008 -235.748304 
L 375.704693 -236.208189 
L 376.516872 -236.668074 
L 377.300074 -237.127959 
L 378.049478 -237.587845 
L 378.760998 -238.04773 
L 379.43134 -238.507615 
L 380.05803 -238.9675 
L 380.639417 -239.427386 
L 381.174654 -239.887271 
L 381.663648 -240.347156 
L 382.107001 -240.807041 
L 382.505929 -241.266926 
L 382.862174 -241.726812 
L 383.17791 -242.186697 
L 383.455645 -242.646582 
L 386.464355 -242.646582 
L 386.464355 -242.646582 
L 386.74209 -242.186697 
L 387.057826 -241.726812 
L 387.414071 -241.266926 
L 387.812999 -240.807041 
L 388.256352 -240.347156 
L 388.745346 -239.887271 
L 389.280583 -239.427386 
L 389.86197 -238.9675 
L 390.48866 -238.507615 
L 391.159002 -238.04773 
L 391.870522 -237.587845 
L 392.619926 -237.127959 
L 393.403128 -236.668074 
L 394.215307 -236.208189 
L 395.050992 -235.748304 
L 395.904172 -235.288418 
L 396.768417 -234.828533 
L 397.637032 -234.368648 
L 398.503206 -233.908763 
L 399.360173 -233.448877 
L 400.201368 -232.988992 
L 401.020572 -232.529107 
L 401.812048 -232.069222 
L 402.570646 -231.609337 
L 403.291895 -231.149451 
L 403.972059 -230.689566 
L 404.608167 -230.229681 
L 405.198022 -229.769796 
L 405.740178 -229.30991 
L 406.233895 -228.850025 
L 406.67908 -228.39014 
L 407.076216 -227.930255 
L 407.42628 -227.470369 
L 407.730662 -227.010484 
L 407.991084 -226.550599 
L 408.209529 -226.090714 
L 408.388174 -225.630828 
L 408.529334 -225.170943 
L 408.635419 -224.711058 
L 408.708894 -224.251173 
L 408.752255 -223.791288 
L 408.768 -223.331402 
L 408.75861 -222.871517 
L 408.726524 -222.411632 
L 408.674112 -221.951747 
L 408.603646 -221.491861 
L 408.51726 -221.031976 
L 408.41691 -220.572091 
L 408.304321 -220.112206 
L 408.180937 -219.65232 
L 408.047874 -219.192435 
L 407.905863 -218.73255 
L 407.755215 -218.272665 
L 407.595783 -217.812779 
L 407.426952 -217.352894 
L 407.247629 -216.893009 
L 407.056267 -216.433124 
L 406.8509 -215.973239 
L 406.629197 -215.513353 
L 406.388546 -215.053468 
L 406.126138 -214.593583 
L 405.83908 -214.133698 
L 405.524505 -213.673812 
L 405.1797 -213.213927 
L 404.802221 -212.754042 
L 404.390013 -212.294157 
L 403.941515 -211.834271 
L 403.455755 -211.374386 
L 402.932422 -210.914501 
L 402.371922 -210.454616 
L 401.775407 -209.99473 
L 401.144783 -209.534845 
L 400.482688 -209.07496 
L 399.792452 -208.615075 
L 399.078028 -208.15519 
L 398.343914 -207.695304 
L 397.595042 -207.235419 
L 396.836674 -206.775534 
L 396.07427 -206.315649 
L 395.31337 -205.855763 
L 394.559463 -205.395878 
L 393.817865 -204.935993 
L 393.09361 -204.476108 
L 392.391346 -204.016222 
L 391.715253 -203.556337 
L 391.068968 -203.096452 
L 390.455542 -202.636567 
L 389.877402 -202.176681 
L 389.336343 -201.716796 
L 388.83353 -201.256911 
L 388.369523 -200.797026 
L 387.944309 -200.337141 
L 387.557358 -199.877255 
L 387.20767 -199.41737 
L 386.893849 -198.957485 
L 386.614168 -198.4976 
L 386.366638 -198.037714 
L 386.149079 -197.577829 
L 385.959184 -197.117944 
z
" style="stroke: #595959; stroke-width: 1.5"/>
    </defs>
    <g clip-path="url(#p0dfb4db87b)">
     <use xlink:href="#m9dc3d7d206" x="0" y="345.6" style="fill: #e5c849; stroke: #595959; stroke-width: 1.5"/>
    </g>
   </g>
   <g id="line2d_1">
    <path d="M 87.36 136.692196 
L 87.36 145.234391 
" clip-path="url(#pe140e3de34)" style="fill: none; stroke: #3d3d3d; stroke-width: 1.5; stroke-linecap: round"/>
   </g>
   <g id="line2d_2">
    <path d="M 87.36 119.171382 
L 87.36 114.482488 
" clip-path="url(#pe140e3de34)" style="fill: none; stroke: #3d3d3d; stroke-width: 1.5; stroke-linecap: round"/>
   </g>
   <g id="line2d_3">
    <path d="M 82.896 145.234391 
L 91.824 145.234391 
" clip-path="url(#pe140e3de34)" style="fill: none; stroke: #3d3d3d; stroke-width: 1.5; stroke-linecap: round"/>
   </g>
   <g id="line2d_4">
    <path d="M 82.896 114.482488 
L 91.824 114.482488 
" clip-path="url(#pe140e3de34)" style="fill: none; stroke: #3d3d3d; stroke-width: 1.5; stroke-linecap: round"/>
   </g>
   <g id="line2d_5">
    <path d="M 146.88 136.833235 
L 146.88 153.33484 
" clip-path="url(#pe140e3de34)" style="fill: none; stroke: #3d3d3d; stroke-width: 1.5; stroke-linecap: round"/>
   </g>
   <g id="line2d_6">
    <path d="M 146.88 123.173706 
L 146.88 114.503777 
" clip-path="url(#pe140e3de34)" style="fill: none; stroke: #3d3d3d; stroke-width: 1.5; stroke-linecap: round"/>
   </g>
   <g id="line2d_7">
    <path d="M 142.416 153.33484 
L 151.344 153.33484 
" clip-path="url(#pe140e3de34)" style="fill: none; stroke: #3d3d3d; stroke-width: 1.5; stroke-linecap: round"/>
   </g>
   <g id="line2d_8">
    <path d="M 142.416 114.503777 
L 151.344 114.503777 
" clip-path="url(#pe140e3de34)" style="fill: none; stroke: #3d3d3d; stroke-width: 1.5; stroke-linecap: round"/>
   </g>
   <g id="line2d_9">
    <path d="M 206.4 137.546415 
L 206.4 151.0995 
" clip-path="url(#pe140e3de34)" style="fill: none; stroke: #3d3d3d; stroke-width: 1.5; stroke-linecap: round"/>
   </g>
   <g id="line2d_10">
    <path d="M 206.4 123.0646 
L 206.4 113.396751 
" clip-path="url(#pe140e3de34)" style="fill: none; stroke: #3d3d3d; stroke-width: 1.5; stroke-linecap: round"/>
   </g>
   <g id="line2d_11">
    <path d="M 201.936 151.0995 
L 210.864 151.0995 
" clip-path="url(#pe140e3de34)" style="fill: none; stroke: #3d3d3d; stroke-width: 1.5; stroke-linecap: round"/>
   </g>
   <g id="line2d_12">
    <path d="M 201.936 113.396751 
L 210.864 113.396751 
" clip-path="url(#pe140e3de34)" style="fill: none; stroke: #3d3d3d; stroke-width: 1.5; stroke-linecap: round"/>
   </g>
   <g id="line2d_13">
    <path d="M 265.92 156.868808 
L 265.92 172.015903 
" clip-path="url(#pe140e3de34)" style="fill: none; stroke: #3d3d3d; stroke-width: 1.5; stroke-linecap: round"/>
   </g>
   <g id="line2d_14">
    <path d="M 265.92 134.917229 
L 265.92 127.798733 
" clip-path="url(#pe140e3de34)" style="fill: none; stroke: #3d3d3d; stroke-width: 1.5; stroke-linecap: round"/>
   </g>
   <g id="line2d_15">
    <path d="M 261.456 172.015903 
L 270.384 172.015903 
" clip-path="url(#pe140e3de34)" style="fill: none; stroke: #3d3d3d; stroke-width: 1.5; stroke-linecap: round"/>
   </g>
   <g id="line2d_16">
    <path d="M 261.456 127.798733 
L 270.384 127.798733 
" clip-path="url(#pe140e3de34)" style="fill: none; stroke: #3d3d3d; stroke-width: 1.5; stroke-linecap: round"/>
   </g>
   <g id="line2d_17">
    <path d="M 325.44 131.234239 
L 325.44 136.676229 
" clip-path="url(#pe140e3de34)" style="fill: none; stroke: #3d3d3d; stroke-width: 1.5; stroke-linecap: round"/>
   </g>
   <g id="line2d_18">
    <path d="M 325.44 117.920655 
L 325.44 110.04374 
" clip-path="url(#pe140e3de34)" style="fill: none; stroke: #3d3d3d; stroke-width: 1.5; stroke-linecap: round"/>
   </g>
   <g id="line2d_19">
    <path d="M 320.976 136.676229 
L 329.904 136.676229 
" clip-path="url(#pe140e3de34)" style="fill: none; stroke: #3d3d3d; stroke-width: 1.5; stroke-linecap: round"/>
   </g>
   <g id="line2d_20">
    <path d="M 320.976 110.04374 
L 329.904 110.04374 
" clip-path="url(#pe140e3de34)" style="fill: none; stroke: #3d3d3d; stroke-width: 1.5; stroke-linecap: round"/>
   </g>
   <g id="line2d_21">
    <path d="M 384.96 131.21295 
L 384.96 137.282964 
" clip-path="url(#pe140e3de34)" style="fill: none; stroke: #3d3d3d; stroke-width: 1.5; stroke-linecap: round"/>
   </g>
   <g id="line2d_22">
    <path d="M 384.96 118.734958 
L 384.96 114.152509 
" clip-path="url(#pe140e3de34)" style="fill: none; stroke: #3d3d3d; stroke-width: 1.5; stroke-linecap: round"/>
   </g>
   <g id="line2d_23">
    <path d="M 380.496 137.282964 
L 389.424 137.282964 
" clip-path="url(#pe140e3de34)" style="fill: none; stroke: #3d3d3d; stroke-width: 1.5; stroke-linecap: round"/>
   </g>
   <g id="line2d_24">
    <path d="M 380.496 114.152509 
L 389.424 114.152509 
" clip-path="url(#pe140e3de34)" style="fill: none; stroke: #3d3d3d; stroke-width: 1.5; stroke-linecap: round"/>
   </g>
   <g id="line2d_25">
    <path d="M 78.432 123.721897 
L 96.288 123.721897 
" clip-path="url(#pe140e3de34)" style="fill: none; stroke: #3d3d3d; stroke-width: 1.5; stroke-linecap: round"/>
   </g>
   <g id="line2d_26">
    <path d="M 137.952 126.297861 
L 155.808 126.297861 
" clip-path="url(#pe140e3de34)" style="fill: none; stroke: #3d3d3d; stroke-width: 1.5; stroke-linecap: round"/>
   </g>
   <g id="line2d_27">
    <path d="M 197.472 134.797478 
L 215.328 134.797478 
" clip-path="url(#pe140e3de34)" style="fill: none; stroke: #3d3d3d; stroke-width: 1.5; stroke-linecap: round"/>
   </g>
   <g id="line2d_28">
    <path d="M 256.992 152.733427 
L 274.848 152.733427 
" clip-path="url(#pe140e3de34)" style="fill: none; stroke: #3d3d3d; stroke-width: 1.5; stroke-linecap: round"/>
   </g>
   <g id="line2d_29">
    <path d="M 316.512 122.503104 
L 334.368 122.503104 
" clip-path="url(#pe140e3de34)" style="fill: none; stroke: #3d3d3d; stroke-width: 1.5; stroke-linecap: round"/>
   </g>
   <g id="line2d_30">
    <path d="M 376.032 124.174287 
L 393.888 124.174287 
" clip-path="url(#pe140e3de34)" style="fill: none; stroke: #3d3d3d; stroke-width: 1.5; stroke-linecap: round"/>
   </g>
   <g id="patch_3">
    <path d="M 57.6 307.584 
L 57.6 41.472 
" style="fill: none; stroke: #262626; stroke-width: 0.8; stroke-linejoin: miter; stroke-linecap: square"/>
   </g>
   <g id="patch_4">
    <path d="M 414.72 307.584 
L 414.72 41.472 
" style="fill: none; stroke: #262626; stroke-width: 0.8; stroke-linejoin: miter; stroke-linecap: square"/>
   </g>
   <g id="patch_5">
    <path d="M 57.6 307.584 
L 414.72 307.584 
" style="fill: none; stroke: #262626; stroke-width: 0.8; stroke-linejoin: miter; stroke-linecap: square"/>
   </g>
   <g id="patch_6">
    <path d="M 57.6 41.472 
L 414.72 41.472 
" style="fill: none; stroke: #262626; stroke-width: 0.8; stroke-linejoin: miter; stroke-linecap: square"/>
   </g>
   <g id="patch_7">
    <path d="M 78.432 136.692196 
L 96.288 136.692196 
L 96.288 119.171382 
L 78.432 119.171382 
L 78.432 136.692196 
L 78.432 136.692196 
z
" clip-path="url(#pe140e3de34)" style="fill: none; stroke: #3d3d3d; stroke-width: 1.5; stroke-linejoin: miter"/>
   </g>
   <g id="patch_8">
    <path d="M 137.952 136.833235 
L 155.808 136.833235 
L 155.808 123.173706 
L 137.952 123.173706 
L 137.952 136.833235 
L 137.952 136.833235 
z
" clip-path="url(#pe140e3de34)" style="fill: none; stroke: #3d3d3d; stroke-width: 1.5; stroke-linejoin: miter"/>
   </g>
   <g id="patch_9">
    <path d="M 197.472 137.546415 
L 215.328 137.546415 
L 215.328 123.0646 
L 197.472 123.0646 
L 197.472 137.546415 
L 197.472 137.546415 
z
" clip-path="url(#pe140e3de34)" style="fill: none; stroke: #3d3d3d; stroke-width: 1.5; stroke-linejoin: miter"/>
   </g>
   <g id="patch_10">
    <path d="M 256.992 156.868808 
L 274.848 156.868808 
L 274.848 134.917229 
L 256.992 134.917229 
L 256.992 156.868808 
L 256.992 156.868808 
z
" clip-path="url(#pe140e3de34)" style="fill: none; stroke: #3d3d3d; stroke-width: 1.5; stroke-linejoin: miter"/>
   </g>
   <g id="patch_11">
    <path d="M 316.512 131.234239 
L 334.368 131.234239 
L 334.368 117.920655 
L 316.512 117.920655 
L 316.512 131.234239 
L 316.512 131.234239 
z
" clip-path="url(#pe140e3de34)" style="fill: none; stroke: #3d3d3d; stroke-width: 1.5; stroke-linejoin: miter"/>
   </g>
   <g id="patch_12">
    <path d="M 376.032 131.21295 
L 393.888 131.21295 
L 393.888 118.734958 
L 376.032 118.734958 
L 376.032 131.21295 
L 376.032 131.21295 
z
" clip-path="url(#pe140e3de34)" style="fill: none; stroke: #3d3d3d; stroke-width: 1.5; stroke-linejoin: miter"/>
   </g>
   <g id="PathCollection_1">
    <defs>
     <path id="C0_0_3f5d719ca1" d="M 0 2.5 
C 0.663008 2.5 1.29895 2.236584 1.767767 1.767767 
C 2.236584 1.29895 2.5 0.663008 2.5 -0 
C 2.5 -0.663008 2.236584 -1.29895 1.767767 -1.767767 
C 1.29895 -2.236584 0.663008 -2.5 0 -2.5 
C -0.663008 -2.5 -1.29895 -2.236584 -1.767767 -1.767767 
C -2.236584 -1.29895 -2.5 -0.663008 -2.5 0 
C -2.5 0.663008 -2.236584 1.29895 -1.767767 1.767767 
C -1.29895 2.236584 -0.663008 2.5 0 2.5 
z
"/>
    </defs>
    <g clip-path="url(#pe140e3de34)">
     <use xlink:href="#C0_0_3f5d719ca1" x="96.841169" y="136.803963" style="fill: #66c2a5; stroke: #000000; stroke-width: 0.5"/>
    </g>
    <g clip-path="url(#pe140e3de34)">
     <use xlink:href="#C0_0_3f5d719ca1" x="91.956603" y="136.65494" style="fill: #66c2a5; stroke: #000000; stroke-width: 0.5"/>
    </g>
    <g clip-path="url(#pe140e3de34)">
     <use xlink:href="#C0_0_3f5d719ca1" x="91.25084" y="114.482488" style="fill: #66c2a5; stroke: #000000; stroke-width: 0.5"/>
    </g>
    <g clip-path="url(#pe140e3de34)">
     <use xlink:href="#C0_0_3f5d719ca1" x="95.113251" y="114.588933" style="fill: #66c2a5; stroke: #000000; stroke-width: 0.5"/>
    </g>
    <g clip-path="url(#pe140e3de34)">
     <use xlink:href="#C0_0_3f5d719ca1" x="97.114959" y="145.234391" style="fill: #66c2a5; stroke: #000000; stroke-width: 0.5"/>
    </g>
    <g clip-path="url(#pe140e3de34)">
     <use xlink:href="#C0_0_3f5d719ca1" x="93.587059" y="120.698865" style="fill: #66c2a5; stroke: #000000; stroke-width: 0.5"/>
    </g>
    <g clip-path="url(#pe140e3de34)">
     <use xlink:href="#C0_0_3f5d719ca1" x="100.225417" y="122.976783" style="fill: #66c2a5; stroke: #000000; stroke-width: 0.5"/>
    </g>
    <g clip-path="url(#pe140e3de34)">
     <use xlink:href="#C0_0_3f5d719ca1" x="96.702613" y="124.467011" style="fill: #66c2a5; stroke: #000000; stroke-width: 0.5"/>
    </g>
   </g>
   <g id="PathCollection_2">
    <defs>
     <path id="C1_0_0af47bbe17" d="M 0 2.5 
C 0.663008 2.5 1.29895 2.236584 1.767767 1.767767 
C 2.236584 1.29895 2.5 0.663008 2.5 -0 
C 2.5 -0.663008 2.236584 -1.29895 1.767767 -1.767767 
C 1.29895 -2.236584 0.663008 -2.5 0 -2.5 
C -0.663008 -2.5 -1.29895 -2.236584 -1.767767 -1.767767 
C -2.236584 -1.29895 -2.5 -0.663008 -2.5 0 
C -2.5 0.663008 -2.236584 1.29895 -1.767767 1.767767 
C -1.29895 2.236584 -0.663008 2.5 0 2.5 
z
"/>
    </defs>
    <g clip-path="url(#pe140e3de34)">
     <use xlink:href="#C1_0_0af47bbe17" x="153.795413" y="126.638484" style="fill: #fc8d62; stroke: #000000; stroke-width: 0.5"/>
    </g>
    <g clip-path="url(#pe140e3de34)">
     <use xlink:href="#C1_0_0af47bbe17" x="152.738167" y="153.33484" style="fill: #fc8d62; stroke: #000000; stroke-width: 0.5"/>
    </g>
    <g clip-path="url(#pe140e3de34)">
     <use xlink:href="#C1_0_0af47bbe17" x="152.155591" y="120.092129" style="fill: #fc8d62; stroke: #000000; stroke-width: 0.5"/>
    </g>
    <g clip-path="url(#pe140e3de34)">
     <use xlink:href="#C1_0_0af47bbe17" x="156.749008" y="114.503777" style="fill: #fc8d62; stroke: #000000; stroke-width: 0.5"/>
    </g>
    <g clip-path="url(#pe140e3de34)">
     <use xlink:href="#C1_0_0af47bbe17" x="153.291164" y="144.808612" style="fill: #fc8d62; stroke: #000000; stroke-width: 0.5"/>
    </g>
    <g clip-path="url(#pe140e3de34)">
     <use xlink:href="#C1_0_0af47bbe17" x="148.780806" y="134.174776" style="fill: #fc8d62; stroke: #000000; stroke-width: 0.5"/>
    </g>
    <g clip-path="url(#pe140e3de34)">
     <use xlink:href="#C1_0_0af47bbe17" x="152.808719" y="125.957238" style="fill: #fc8d62; stroke: #000000; stroke-width: 0.5"/>
    </g>
    <g clip-path="url(#pe140e3de34)">
     <use xlink:href="#C1_0_0af47bbe17" x="156.855497" y="124.200899" style="fill: #fc8d62; stroke: #000000; stroke-width: 0.5"/>
    </g>
   </g>
   <g id="PathCollection_3">
    <defs>
     <path id="C2_0_121b38af1c" d="M 0 2.5 
C 0.663008 2.5 1.29895 2.236584 1.767767 1.767767 
C 2.236584 1.29895 2.5 0.663008 2.5 -0 
C 2.5 -0.663008 2.236584 -1.29895 1.767767 -1.767767 
C 1.29895 -2.236584 0.663008 -2.5 0 -2.5 
C -0.663008 -2.5 -1.29895 -2.236584 -1.767767 -1.767767 
C -2.236584 -1.29895 -2.5 -0.663008 -2.5 0 
C -2.5 0.663008 -2.236584 1.29895 -1.767767 1.767767 
C -1.29895 2.236584 -0.663008 2.5 0 2.5 
z
"/>
    </defs>
    <g clip-path="url(#pe140e3de34)">
     <use xlink:href="#C2_0_121b38af1c" x="209.762782" y="141.05111" style="fill: #8da0cb; stroke: #000000; stroke-width: 0.5"/>
    </g>
    <g clip-path="url(#pe140e3de34)">
     <use xlink:href="#C2_0_121b38af1c" x="209.678978" y="151.0995" style="fill: #8da0cb; stroke: #000000; stroke-width: 0.5"/>
    </g>
    <g clip-path="url(#pe140e3de34)">
     <use xlink:href="#C2_0_121b38af1c" x="213.917988" y="118.186767" style="fill: #8da0cb; stroke: #000000; stroke-width: 0.5"/>
    </g>
    <g clip-path="url(#pe140e3de34)">
     <use xlink:href="#C2_0_121b38af1c" x="213.921276" y="113.396751" style="fill: #8da0cb; stroke: #000000; stroke-width: 0.5"/>
    </g>
    <g clip-path="url(#pe140e3de34)">
     <use xlink:href="#C2_0_121b38af1c" x="215.142309" y="135.920471" style="fill: #8da0cb; stroke: #000000; stroke-width: 0.5"/>
    </g>
    <g clip-path="url(#pe140e3de34)">
     <use xlink:href="#C2_0_121b38af1c" x="217.702036" y="124.690545" style="fill: #8da0cb; stroke: #000000; stroke-width: 0.5"/>
    </g>
    <g clip-path="url(#pe140e3de34)">
     <use xlink:href="#C2_0_121b38af1c" x="216.214316" y="133.674486" style="fill: #8da0cb; stroke: #000000; stroke-width: 0.5"/>
    </g>
    <g clip-path="url(#pe140e3de34)">
     <use xlink:href="#C2_0_121b38af1c" x="214.864024" y="136.378184" style="fill: #8da0cb; stroke: #000000; stroke-width: 0.5"/>
    </g>
   </g>
   <g id="PathCollection_4">
    <defs>
     <path id="C3_0_9c77161bb3" d="M 0 2.5 
C 0.663008 2.5 1.29895 2.236584 1.767767 1.767767 
C 2.236584 1.29895 2.5 0.663008 2.5 -0 
C 2.5 -0.663008 2.236584 -1.29895 1.767767 -1.767767 
C 1.29895 -2.236584 0.663008 -2.5 0 -2.5 
C -0.663008 -2.5 -1.29895 -2.236584 -1.767767 -1.767767 
C -2.236584 -1.29895 -2.5 -0.663008 -2.5 0 
C -2.5 0.663008 -2.236584 1.29895 -1.767767 1.767767 
C -1.29895 2.236584 -0.663008 2.5 0 2.5 
z
"/>
    </defs>
    <g clip-path="url(#pe140e3de34)">
     <use xlink:href="#C3_0_9c77161bb3" x="275.710366" y="172.015903" style="fill: #e78ac3; stroke: #000000; stroke-width: 0.5"/>
    </g>
    <g clip-path="url(#pe140e3de34)">
     <use xlink:href="#C3_0_9c77161bb3" x="270.954903" y="158.46548" style="fill: #e78ac3; stroke: #000000; stroke-width: 0.5"/>
    </g>
    <g clip-path="url(#pe140e3de34)">
     <use xlink:href="#C3_0_9c77161bb3" x="271.417132" y="128.426757" style="fill: #e78ac3; stroke: #000000; stroke-width: 0.5"/>
    </g>
    <g clip-path="url(#pe140e3de34)">
     <use xlink:href="#C3_0_9c77161bb3" x="269.827646" y="127.798733" style="fill: #e78ac3; stroke: #000000; stroke-width: 0.5"/>
    </g>
    <g clip-path="url(#pe140e3de34)">
     <use xlink:href="#C3_0_9c77161bb3" x="270.606772" y="156.336584" style="fill: #e78ac3; stroke: #000000; stroke-width: 0.5"/>
    </g>
    <g clip-path="url(#pe140e3de34)">
     <use xlink:href="#C3_0_9c77161bb3" x="274.62154" y="150.492764" style="fill: #e78ac3; stroke: #000000; stroke-width: 0.5"/>
    </g>
    <g clip-path="url(#pe140e3de34)">
     <use xlink:href="#C3_0_9c77161bb3" x="268.206817" y="137.080719" style="fill: #e78ac3; stroke: #000000; stroke-width: 0.5"/>
    </g>
    <g clip-path="url(#pe140e3de34)">
     <use xlink:href="#C3_0_9c77161bb3" x="272.273179" y="154.97409" style="fill: #e78ac3; stroke: #000000; stroke-width: 0.5"/>
    </g>
   </g>
   <g id="PathCollection_5">
    <defs>
     <path id="C4_0_74043c80eb" d="M 0 2.5 
C 0.663008 2.5 1.29895 2.236584 1.767767 1.767767 
C 2.236584 1.29895 2.5 0.663008 2.5 -0 
C 2.5 -0.663008 2.236584 -1.29895 1.767767 -1.767767 
C 1.29895 -2.236584 0.663008 -2.5 0 -2.5 
C -0.663008 -2.5 -1.29895 -2.236584 -1.767767 -1.767767 
C -2.236584 -1.29895 -2.5 -0.663008 -2.5 0 
C -2.5 0.663008 -2.236584 1.29895 -1.767767 1.767767 
C -1.29895 2.236584 -0.663008 2.5 0 2.5 
z
"/>
    </defs>
    <g clip-path="url(#pe140e3de34)">
     <use xlink:href="#C4_0_74043c80eb" x="331.75939" y="130.151163" style="fill: #a6d854; stroke: #000000; stroke-width: 0.5"/>
    </g>
    <g clip-path="url(#pe140e3de34)">
     <use xlink:href="#C4_0_74043c80eb" x="332.507227" y="134.483466" style="fill: #a6d854; stroke: #000000; stroke-width: 0.5"/>
    </g>
    <g clip-path="url(#pe140e3de34)">
     <use xlink:href="#C4_0_74043c80eb" x="331.699484" y="111.438167" style="fill: #a6d854; stroke: #000000; stroke-width: 0.5"/>
    </g>
    <g clip-path="url(#pe140e3de34)">
     <use xlink:href="#C4_0_74043c80eb" x="330.347558" y="110.04374" style="fill: #a6d854; stroke: #000000; stroke-width: 0.5"/>
    </g>
    <g clip-path="url(#pe140e3de34)">
     <use xlink:href="#C4_0_74043c80eb" x="331.705686" y="136.676229" style="fill: #a6d854; stroke: #000000; stroke-width: 0.5"/>
    </g>
    <g clip-path="url(#pe140e3de34)">
     <use xlink:href="#C4_0_74043c80eb" x="337.265305" y="120.081485" style="fill: #a6d854; stroke: #000000; stroke-width: 0.5"/>
    </g>
    <g clip-path="url(#pe140e3de34)">
     <use xlink:href="#C4_0_74043c80eb" x="337.869681" y="122.11458" style="fill: #a6d854; stroke: #000000; stroke-width: 0.5"/>
    </g>
    <g clip-path="url(#pe140e3de34)">
     <use xlink:href="#C4_0_74043c80eb" x="332.604264" y="122.891628" style="fill: #a6d854; stroke: #000000; stroke-width: 0.5"/>
    </g>
   </g>
   <g id="PathCollection_6">
    <defs>
     <path id="C5_0_bc7459095a" d="M 0 2.5 
C 0.663008 2.5 1.29895 2.236584 1.767767 1.767767 
C 2.236584 1.29895 2.5 0.663008 2.5 -0 
C 2.5 -0.663008 2.236584 -1.29895 1.767767 -1.767767 
C 1.29895 -2.236584 0.663008 -2.5 0 -2.5 
C -0.663008 -2.5 -1.29895 -2.236584 -1.767767 -1.767767 
C -2.236584 -1.29895 -2.5 -0.663008 -2.5 0 
C -2.5 0.663008 -2.236584 1.29895 -1.767767 1.767767 
C -1.29895 2.236584 -0.663008 2.5 0 2.5 
z
"/>
    </defs>
    <g clip-path="url(#pe140e3de34)">
     <use xlink:href="#C5_0_bc7459095a" x="393.577936" y="130.459853" style="fill: #ffd92f; stroke: #000000; stroke-width: 0.5"/>
    </g>
    <g clip-path="url(#pe140e3de34)">
     <use xlink:href="#C5_0_bc7459095a" x="387.526721" y="133.472241" style="fill: #ffd92f; stroke: #000000; stroke-width: 0.5"/>
    </g>
    <g clip-path="url(#pe140e3de34)">
     <use xlink:href="#C5_0_bc7459095a" x="389.927366" y="114.152509" style="fill: #ffd92f; stroke: #000000; stroke-width: 0.5"/>
    </g>
    <g clip-path="url(#pe140e3de34)">
     <use xlink:href="#C5_0_bc7459095a" x="391.088491" y="114.791178" style="fill: #ffd92f; stroke: #000000; stroke-width: 0.5"/>
    </g>
    <g clip-path="url(#pe140e3de34)">
     <use xlink:href="#C5_0_bc7459095a" x="396.462944" y="137.282964" style="fill: #ffd92f; stroke: #000000; stroke-width: 0.5"/>
    </g>
    <g clip-path="url(#pe140e3de34)">
     <use xlink:href="#C5_0_bc7459095a" x="389.131821" y="120.049551" style="fill: #ffd92f; stroke: #000000; stroke-width: 0.5"/>
    </g>
    <g clip-path="url(#pe140e3de34)">
     <use xlink:href="#C5_0_bc7459095a" x="391.90044" y="122.710671" style="fill: #ffd92f; stroke: #000000; stroke-width: 0.5"/>
    </g>
    <g clip-path="url(#pe140e3de34)">
     <use xlink:href="#C5_0_bc7459095a" x="397.882504" y="125.637903" style="fill: #ffd92f; stroke: #000000; stroke-width: 0.5"/>
    </g>
   </g>
   <g id="text_15">
    <!-- Violin Plot with Overlayed Box and Strip Plots -->
    <g style="fill: #262626" transform="translate(100.525313 35.472) scale(0.12 -0.12)">
     <defs>
      <path id="DejaVuSans-56" d="M 1831 0 
L 50 4666 
L 709 4666 
L 2188 738 
L 3669 4666 
L 4325 4666 
L 2547 0 
L 1831 0 
z
" transform="scale(0.015625)"/>
      <path id="DejaVuSans-69" d="M 603 3500 
L 1178 3500 
L 1178 0 
L 603 0 
L 603 3500 
z
M 603 4863 
L 1178 4863 
L 1178 4134 
L 603 4134 
L 603 4863 
z
" transform="scale(0.015625)"/>
      <path id="DejaVuSans-6e" d="M 3513 2113 
L 3513 0 
L 2938 0 
L 2938 2094 
Q 2938 2591 2744 2837 
Q 2550 3084 2163 3084 
Q 1697 3084 1428 2787 
Q 1159 2491 1159 1978 
L 1159 0 
L 581 0 
L 581 3500 
L 1159 3500 
L 1159 2956 
Q 1366 3272 1645 3428 
Q 1925 3584 2291 3584 
Q 2894 3584 3203 3211 
Q 3513 2838 3513 2113 
z
" transform="scale(0.015625)"/>
      <path id="DejaVuSans-20" transform="scale(0.015625)"/>
      <path id="DejaVuSans-50" d="M 1259 4147 
L 1259 2394 
L 2053 2394 
Q 2494 2394 2734 2622 
Q 2975 2850 2975 3272 
Q 2975 3691 2734 3919 
Q 2494 4147 2053 4147 
L 1259 4147 
z
M 628 4666 
L 2053 4666 
Q 2838 4666 3239 4311 
Q 3641 3956 3641 3272 
Q 3641 2581 3239 2228 
Q 2838 1875 2053 1875 
L 1259 1875 
L 1259 0 
L 628 0 
L 628 4666 
z
" transform="scale(0.015625)"/>
      <path id="DejaVuSans-74" d="M 1172 4494 
L 1172 3500 
L 2356 3500 
L 2356 3053 
L 1172 3053 
L 1172 1153 
Q 1172 725 1289 603 
Q 1406 481 1766 481 
L 2356 481 
L 2356 0 
L 1766 0 
Q 1100 0 847 248 
Q 594 497 594 1153 
L 594 3053 
L 172 3053 
L 172 3500 
L 594 3500 
L 594 4494 
L 1172 4494 
z
" transform="scale(0.015625)"/>
      <path id="DejaVuSans-77" d="M 269 3500 
L 844 3500 
L 1563 769 
L 2278 3500 
L 2956 3500 
L 3675 769 
L 4391 3500 
L 4966 3500 
L 4050 0 
L 3372 0 
L 2619 2869 
L 1863 0 
L 1184 0 
L 269 3500 
z
" transform="scale(0.015625)"/>
      <path id="DejaVuSans-68" d="M 3513 2113 
L 3513 0 
L 2938 0 
L 2938 2094 
Q 2938 2591 2744 2837 
Q 2550 3084 2163 3084 
Q 1697 3084 1428 2787 
Q 1159 2491 1159 1978 
L 1159 0 
L 581 0 
L 581 4863 
L 1159 4863 
L 1159 2956 
Q 1366 3272 1645 3428 
Q 1925 3584 2291 3584 
Q 2894 3584 3203 3211 
Q 3513 2838 3513 2113 
z
" transform="scale(0.015625)"/>
      <path id="DejaVuSans-76" d="M 191 3500 
L 800 3500 
L 1894 563 
L 2988 3500 
L 3597 3500 
L 2284 0 
L 1503 0 
L 191 3500 
z
" transform="scale(0.015625)"/>
      <path id="DejaVuSans-72" d="M 2631 2963 
Q 2534 3019 2420 3045 
Q 2306 3072 2169 3072 
Q 1681 3072 1420 2755 
Q 1159 2438 1159 1844 
L 1159 0 
L 581 0 
L 581 3500 
L 1159 3500 
L 1159 2956 
Q 1341 3275 1631 3429 
Q 1922 3584 2338 3584 
Q 2397 3584 2469 3576 
Q 2541 3569 2628 3553 
L 2631 2963 
z
" transform="scale(0.015625)"/>
      <path id="DejaVuSans-79" d="M 2059 -325 
Q 1816 -950 1584 -1140 
Q 1353 -1331 966 -1331 
L 506 -1331 
L 506 -850 
L 844 -850 
Q 1081 -850 1212 -737 
Q 1344 -625 1503 -206 
L 1606 56 
L 191 3500 
L 800 3500 
L 1894 763 
L 2988 3500 
L 3597 3500 
L 2059 -325 
z
" transform="scale(0.015625)"/>
      <path id="DejaVuSans-42" d="M 1259 2228 
L 1259 519 
L 2272 519 
Q 2781 519 3026 730 
Q 3272 941 3272 1375 
Q 3272 1813 3026 2020 
Q 2781 2228 2272 2228 
L 1259 2228 
z
M 1259 4147 
L 1259 2741 
L 2194 2741 
Q 2656 2741 2882 2914 
Q 3109 3088 3109 3444 
Q 3109 3797 2882 3972 
Q 2656 4147 2194 4147 
L 1259 4147 
z
M 628 4666 
L 2241 4666 
Q 2963 4666 3353 4366 
Q 3744 4066 3744 3513 
Q 3744 3084 3544 2831 
Q 3344 2578 2956 2516 
Q 3422 2416 3680 2098 
Q 3938 1781 3938 1306 
Q 3938 681 3513 340 
Q 3088 0 2303 0 
L 628 0 
L 628 4666 
z
" transform="scale(0.015625)"/>
      <path id="DejaVuSans-78" d="M 3513 3500 
L 2247 1797 
L 3578 0 
L 2900 0 
L 1881 1375 
L 863 0 
L 184 0 
L 1544 1831 
L 300 3500 
L 978 3500 
L 1906 2253 
L 2834 3500 
L 3513 3500 
z
" transform="scale(0.015625)"/>
      <path id="DejaVuSans-53" d="M 3425 4513 
L 3425 3897 
Q 3066 4069 2747 4153 
Q 2428 4238 2131 4238 
Q 1616 4238 1336 4038 
Q 1056 3838 1056 3469 
Q 1056 3159 1242 3001 
Q 1428 2844 1947 2747 
L 2328 2669 
Q 3034 2534 3370 2195 
Q 3706 1856 3706 1288 
Q 3706 609 3251 259 
Q 2797 -91 1919 -91 
Q 1588 -91 1214 -16 
Q 841 59 441 206 
L 441 856 
Q 825 641 1194 531 
Q 1563 422 1919 422 
Q 2459 422 2753 634 
Q 3047 847 3047 1241 
Q 3047 1584 2836 1778 
Q 2625 1972 2144 2069 
L 1759 2144 
Q 1053 2284 737 2584 
Q 422 2884 422 3419 
Q 422 4038 858 4394 
Q 1294 4750 2059 4750 
Q 2388 4750 2728 4690 
Q 3069 4631 3425 4513 
z
" transform="scale(0.015625)"/>
      <path id="DejaVuSans-70" d="M 1159 525 
L 1159 -1331 
L 581 -1331 
L 581 3500 
L 1159 3500 
L 1159 2969 
Q 1341 3281 1617 3432 
Q 1894 3584 2278 3584 
Q 2916 3584 3314 3078 
Q 3713 2572 3713 1747 
Q 3713 922 3314 415 
Q 2916 -91 2278 -91 
Q 1894 -91 1617 61 
Q 1341 213 1159 525 
z
M 3116 1747 
Q 3116 2381 2855 2742 
Q 2594 3103 2138 3103 
Q 1681 3103 1420 2742 
Q 1159 2381 1159 1747 
Q 1159 1113 1420 752 
Q 1681 391 2138 391 
Q 2594 391 2855 752 
Q 3116 1113 3116 1747 
z
" transform="scale(0.015625)"/>
      <path id="DejaVuSans-73" d="M 2834 3397 
L 2834 2853 
Q 2591 2978 2328 3040 
Q 2066 3103 1784 3103 
Q 1356 3103 1142 2972 
Q 928 2841 928 2578 
Q 928 2378 1081 2264 
Q 1234 2150 1697 2047 
L 1894 2003 
Q 2506 1872 2764 1633 
Q 3022 1394 3022 966 
Q 3022 478 2636 193 
Q 2250 -91 1575 -91 
Q 1294 -91 989 -36 
Q 684 19 347 128 
L 347 722 
Q 666 556 975 473 
Q 1284 391 1588 391 
Q 1994 391 2212 530 
Q 2431 669 2431 922 
Q 2431 1156 2273 1281 
Q 2116 1406 1581 1522 
L 1381 1569 
Q 847 1681 609 1914 
Q 372 2147 372 2553 
Q 372 3047 722 3315 
Q 1072 3584 1716 3584 
Q 2034 3584 2315 3537 
Q 2597 3491 2834 3397 
z
" transform="scale(0.015625)"/>
     </defs>
     <use xlink:href="#DejaVuSans-56"/>
     <use xlink:href="#DejaVuSans-69" x="66.158203"/>
     <use xlink:href="#DejaVuSans-6f" x="93.941406"/>
     <use xlink:href="#DejaVuSans-6c" x="155.123047"/>
     <use xlink:href="#DejaVuSans-69" x="182.90625"/>
     <use xlink:href="#DejaVuSans-6e" x="210.689453"/>
     <use xlink:href="#DejaVuSans-20" x="274.068359"/>
     <use xlink:href="#DejaVuSans-50" x="305.855469"/>
     <use xlink:href="#DejaVuSans-6c" x="366.158203"/>
     <use xlink:href="#DejaVuSans-6f" x="393.941406"/>
     <use xlink:href="#DejaVuSans-74" x="455.123047"/>
     <use xlink:href="#DejaVuSans-20" x="494.332031"/>
     <use xlink:href="#DejaVuSans-77" x="526.119141"/>
     <use xlink:href="#DejaVuSans-69" x="607.90625"/>
     <use xlink:href="#DejaVuSans-74" x="635.689453"/>
     <use xlink:href="#DejaVuSans-68" x="674.898438"/>
     <use xlink:href="#DejaVuSans-20" x="738.277344"/>
     <use xlink:href="#DejaVuSans-4f" x="770.064453"/>
     <use xlink:href="#DejaVuSans-76" x="848.775391"/>
     <use xlink:href="#DejaVuSans-65" x="907.955078"/>
     <use xlink:href="#DejaVuSans-72" x="969.478516"/>
     <use xlink:href="#DejaVuSans-6c" x="1010.591797"/>
     <use xlink:href="#DejaVuSans-61" x="1038.375"/>
     <use xlink:href="#DejaVuSans-79" x="1099.654297"/>
     <use xlink:href="#DejaVuSans-65" x="1158.833984"/>
     <use xlink:href="#DejaVuSans-64" x="1220.357422"/>
     <use xlink:href="#DejaVuSans-20" x="1283.833984"/>
     <use xlink:href="#DejaVuSans-42" x="1315.621094"/>
     <use xlink:href="#DejaVuSans-6f" x="1384.224609"/>
     <use xlink:href="#DejaVuSans-78" x="1442.28125"/>
     <use xlink:href="#DejaVuSans-20" x="1501.460938"/>
     <use xlink:href="#DejaVuSans-61" x="1533.248047"/>
     <use xlink:href="#DejaVuSans-6e" x="1594.527344"/>
     <use xlink:href="#DejaVuSans-64" x="1657.90625"/>
     <use xlink:href="#DejaVuSans-20" x="1721.382812"/>
     <use xlink:href="#DejaVuSans-53" x="1753.169922"/>
     <use xlink:href="#DejaVuSans-74" x="1816.646484"/>
     <use xlink:href="#DejaVuSans-72" x="1855.855469"/>
     <use xlink:href="#DejaVuSans-69" x="1896.96875"/>
     <use xlink:href="#DejaVuSans-70" x="1924.751953"/>
     <use xlink:href="#DejaVuSans-20" x="1988.228516"/>
     <use xlink:href="#DejaVuSans-50" x="2020.015625"/>
     <use xlink:href="#DejaVuSans-6c" x="2080.318359"/>
     <use xlink:href="#DejaVuSans-6f" x="2108.101562"/>
     <use xlink:href="#DejaVuSans-74" x="2169.283203"/>
     <use xlink:href="#DejaVuSans-73" x="2208.492188"/>
    </g>
   </g>
  </g>
 </g>
 <defs>
  <clipPath id="pa77476f91d">
   <rect x="67.546693" y="99.563487" width="19.813307" height="60.589905"/>
  </clipPath>
  <clipPath id="pefc1668bbe">
   <rect x="127.796023" y="97.37855" width="19.083977" height="73.081518"/>
  </clipPath>
  <clipPath id="pd06e9bc9d6">
   <rect x="188.253788" y="97.05212" width="18.146212" height="70.39201"/>
  </clipPath>
  <clipPath id="pe1489a725a">
   <rect x="251.823527" y="107.110527" width="14.096473" height="85.593581"/>
  </clipPath>
  <clipPath id="p59d31d79aa">
   <rect x="304.512649" y="97.047901" width="20.927351" height="52.624168"/>
  </clipPath>
  <clipPath id="p0dfb4db87b">
   <rect x="361.152" y="102.953418" width="23.808" height="45.528638"/>
  </clipPath>
  <clipPath id="pe140e3de34">
   <rect x="57.6" y="41.472" width="357.12" height="266.112"/>
  </clipPath>
 </defs>
</svg>
