<?xml version="1.0" encoding="utf-8" standalone="no"?>
<!DOCTYPE svg PUBLIC "-//W3C//DTD SVG 1.1//EN"
  "http://www.w3.org/Graphics/SVG/1.1/DTD/svg11.dtd">
<svg height="345.6pt" version="1.1" viewBox="0 0 460.8 345.6" width="460.8pt" xmlns="http://www.w3.org/2000/svg" xmlns:xlink="http://www.w3.org/1999/xlink">
 <metadata>
  <rdf:RDF xmlns:cc="http://creativecommons.org/ns#" xmlns:dc="http://purl.org/dc/elements/1.1/" xmlns:rdf="http://www.w3.org/1999/02/22-rdf-syntax-ns#">
   <cc:Work>
    <dc:type rdf:resource="http://purl.org/dc/dcmitype/StillImage"/>
    <dc:date>2024-05-15T17:43:58.008626</dc:date>
    <dc:format>image/svg+xml</dc:format>
    <dc:creator>
     <cc:Agent>
      <dc:title>Matplotlib v3.4.3, https://matplotlib.org/</dc:title>
     </cc:Agent>
    </dc:creator>
   </cc:Work>
  </rdf:RDF>
 </metadata>
 <defs>
  <style type="text/css">*{stroke-linecap:butt;stroke-linejoin:round;}</style>
 </defs>
 <g id="figure_1">
  <g id="patch_1">
   <path d="M 0 345.6 
L 460.8 345.6 
L 460.8 0 
L 0 0 
z
" style="fill:#ffffff;"/>
  </g>
  <g id="axes_1">
   <g id="patch_2">
    <path d="M 57.6 307.584 
L 414.72 307.584 
L 414.72 41.472 
L 57.6 41.472 
z
" style="fill:#ffffff;"/>
   </g>
   <g id="matplotlib.axis_1">
    <g id="xtick_1">
     <g id="text_1">
      <!-- 1 -->
      <g style="fill:#262626;" transform="translate(84.17875 322.182437)scale(0.1 -0.1)">
       <defs>
        <path d="M 794 531 
L 1825 531 
L 1825 4091 
L 703 3866 
L 703 4441 
L 1819 4666 
L 2450 4666 
L 2450 531 
L 3481 531 
L 3481 0 
L 794 0 
L 794 531 
z
" id="DejaVuSans-31" transform="scale(0.015625)"/>
       </defs>
       <use xlink:href="#DejaVuSans-31"/>
      </g>
     </g>
    </g>
    <g id="xtick_2">
     <g id="text_2">
      <!-- 2 -->
      <g style="fill:#262626;" transform="translate(143.69875 322.182437)scale(0.1 -0.1)">
       <defs>
        <path d="M 1228 531 
L 3431 531 
L 3431 0 
L 469 0 
L 469 531 
Q 828 903 1448 1529 
Q 2069 2156 2228 2338 
Q 2531 2678 2651 2914 
Q 2772 3150 2772 3378 
Q 2772 3750 2511 3984 
Q 2250 4219 1831 4219 
Q 1534 4219 1204 4116 
Q 875 4013 500 3803 
L 500 4441 
Q 881 4594 1212 4672 
Q 1544 4750 1819 4750 
Q 2544 4750 2975 4387 
Q 3406 4025 3406 3419 
Q 3406 3131 3298 2873 
Q 3191 2616 2906 2266 
Q 2828 2175 2409 1742 
Q 1991 1309 1228 531 
z
" id="DejaVuSans-32" transform="scale(0.015625)"/>
       </defs>
       <use xlink:href="#DejaVuSans-32"/>
      </g>
     </g>
    </g>
    <g id="xtick_3">
     <g id="text_3">
      <!-- 3 -->
      <g style="fill:#262626;" transform="translate(203.21875 322.182437)scale(0.1 -0.1)">
       <defs>
        <path d="M 2597 2516 
Q 3050 2419 3304 2112 
Q 3559 1806 3559 1356 
Q 3559 666 3084 287 
Q 2609 -91 1734 -91 
Q 1441 -91 1130 -33 
Q 819 25 488 141 
L 488 750 
Q 750 597 1062 519 
Q 1375 441 1716 441 
Q 2309 441 2620 675 
Q 2931 909 2931 1356 
Q 2931 1769 2642 2001 
Q 2353 2234 1838 2234 
L 1294 2234 
L 1294 2753 
L 1863 2753 
Q 2328 2753 2575 2939 
Q 2822 3125 2822 3475 
Q 2822 3834 2567 4026 
Q 2313 4219 1838 4219 
Q 1578 4219 1281 4162 
Q 984 4106 628 3988 
L 628 4550 
Q 988 4650 1302 4700 
Q 1616 4750 1894 4750 
Q 2613 4750 3031 4423 
Q 3450 4097 3450 3541 
Q 3450 3153 3228 2886 
Q 3006 2619 2597 2516 
z
" id="DejaVuSans-33" transform="scale(0.015625)"/>
       </defs>
       <use xlink:href="#DejaVuSans-33"/>
      </g>
     </g>
    </g>
    <g id="xtick_4">
     <g id="text_4">
      <!-- 4 -->
      <g style="fill:#262626;" transform="translate(262.73875 322.182437)scale(0.1 -0.1)">
       <defs>
        <path d="M 2419 4116 
L 825 1625 
L 2419 1625 
L 2419 4116 
z
M 2253 4666 
L 3047 4666 
L 3047 1625 
L 3713 1625 
L 3713 1100 
L 3047 1100 
L 3047 0 
L 2419 0 
L 2419 1100 
L 313 1100 
L 313 1709 
L 2253 4666 
z
" id="DejaVuSans-34" transform="scale(0.015625)"/>
       </defs>
       <use xlink:href="#DejaVuSans-34"/>
      </g>
     </g>
    </g>
    <g id="xtick_5">
     <g id="text_5">
      <!-- 5 -->
      <g style="fill:#262626;" transform="translate(322.25875 322.182437)scale(0.1 -0.1)">
       <defs>
        <path d="M 691 4666 
L 3169 4666 
L 3169 4134 
L 1269 4134 
L 1269 2991 
Q 1406 3038 1543 3061 
Q 1681 3084 1819 3084 
Q 2600 3084 3056 2656 
Q 3513 2228 3513 1497 
Q 3513 744 3044 326 
Q 2575 -91 1722 -91 
Q 1428 -91 1123 -41 
Q 819 9 494 109 
L 494 744 
Q 775 591 1075 516 
Q 1375 441 1709 441 
Q 2250 441 2565 725 
Q 2881 1009 2881 1497 
Q 2881 1984 2565 2268 
Q 2250 2553 1709 2553 
Q 1456 2553 1204 2497 
Q 953 2441 691 2322 
L 691 4666 
z
" id="DejaVuSans-35" transform="scale(0.015625)"/>
       </defs>
       <use xlink:href="#DejaVuSans-35"/>
      </g>
     </g>
    </g>
    <g id="xtick_6">
     <g id="text_6">
      <!-- 6 -->
      <g style="fill:#262626;" transform="translate(381.77875 322.182437)scale(0.1 -0.1)">
       <defs>
        <path d="M 2113 2584 
Q 1688 2584 1439 2293 
Q 1191 2003 1191 1497 
Q 1191 994 1439 701 
Q 1688 409 2113 409 
Q 2538 409 2786 701 
Q 3034 994 3034 1497 
Q 3034 2003 2786 2293 
Q 2538 2584 2113 2584 
z
M 3366 4563 
L 3366 3988 
Q 3128 4100 2886 4159 
Q 2644 4219 2406 4219 
Q 1781 4219 1451 3797 
Q 1122 3375 1075 2522 
Q 1259 2794 1537 2939 
Q 1816 3084 2150 3084 
Q 2853 3084 3261 2657 
Q 3669 2231 3669 1497 
Q 3669 778 3244 343 
Q 2819 -91 2113 -91 
Q 1303 -91 875 529 
Q 447 1150 447 2328 
Q 447 3434 972 4092 
Q 1497 4750 2381 4750 
Q 2619 4750 2861 4703 
Q 3103 4656 3366 4563 
z
" id="DejaVuSans-36" transform="scale(0.015625)"/>
       </defs>
       <use xlink:href="#DejaVuSans-36"/>
      </g>
     </g>
    </g>
    <g id="text_7">
     <!-- Model -->
     <g style="fill:#262626;" transform="translate(221.146719 335.860562)scale(0.1 -0.1)">
      <defs>
       <path d="M 628 4666 
L 1569 4666 
L 2759 1491 
L 3956 4666 
L 4897 4666 
L 4897 0 
L 4281 0 
L 4281 4097 
L 3078 897 
L 2444 897 
L 1241 4097 
L 1241 0 
L 628 0 
L 628 4666 
z
" id="DejaVuSans-4d" transform="scale(0.015625)"/>
       <path d="M 1959 3097 
Q 1497 3097 1228 2736 
Q 959 2375 959 1747 
Q 959 1119 1226 758 
Q 1494 397 1959 397 
Q 2419 397 2687 759 
Q 2956 1122 2956 1747 
Q 2956 2369 2687 2733 
Q 2419 3097 1959 3097 
z
M 1959 3584 
Q 2709 3584 3137 3096 
Q 3566 2609 3566 1747 
Q 3566 888 3137 398 
Q 2709 -91 1959 -91 
Q 1206 -91 779 398 
Q 353 888 353 1747 
Q 353 2609 779 3096 
Q 1206 3584 1959 3584 
z
" id="DejaVuSans-6f" transform="scale(0.015625)"/>
       <path d="M 2906 2969 
L 2906 4863 
L 3481 4863 
L 3481 0 
L 2906 0 
L 2906 525 
Q 2725 213 2448 61 
Q 2172 -91 1784 -91 
Q 1150 -91 751 415 
Q 353 922 353 1747 
Q 353 2572 751 3078 
Q 1150 3584 1784 3584 
Q 2172 3584 2448 3432 
Q 2725 3281 2906 2969 
z
M 947 1747 
Q 947 1113 1208 752 
Q 1469 391 1925 391 
Q 2381 391 2643 752 
Q 2906 1113 2906 1747 
Q 2906 2381 2643 2742 
Q 2381 3103 1925 3103 
Q 1469 3103 1208 2742 
Q 947 2381 947 1747 
z
" id="DejaVuSans-64" transform="scale(0.015625)"/>
       <path d="M 3597 1894 
L 3597 1613 
L 953 1613 
Q 991 1019 1311 708 
Q 1631 397 2203 397 
Q 2534 397 2845 478 
Q 3156 559 3463 722 
L 3463 178 
Q 3153 47 2828 -22 
Q 2503 -91 2169 -91 
Q 1331 -91 842 396 
Q 353 884 353 1716 
Q 353 2575 817 3079 
Q 1281 3584 2069 3584 
Q 2775 3584 3186 3129 
Q 3597 2675 3597 1894 
z
M 3022 2063 
Q 3016 2534 2758 2815 
Q 2500 3097 2075 3097 
Q 1594 3097 1305 2825 
Q 1016 2553 972 2059 
L 3022 2063 
z
" id="DejaVuSans-65" transform="scale(0.015625)"/>
       <path d="M 603 4863 
L 1178 4863 
L 1178 0 
L 603 0 
L 603 4863 
z
" id="DejaVuSans-6c" transform="scale(0.015625)"/>
      </defs>
      <use xlink:href="#DejaVuSans-4d"/>
      <use x="86.279297" xlink:href="#DejaVuSans-6f"/>
      <use x="147.460938" xlink:href="#DejaVuSans-64"/>
      <use x="210.9375" xlink:href="#DejaVuSans-65"/>
      <use x="272.460938" xlink:href="#DejaVuSans-6c"/>
     </g>
    </g>
   </g>
   <g id="matplotlib.axis_2">
    <g id="ytick_1">
     <g id="text_8">
      <!-- 0.75 -->
      <g style="fill:#262626;" transform="translate(28.334375 311.383219)scale(0.1 -0.1)">
       <defs>
        <path d="M 2034 4250 
Q 1547 4250 1301 3770 
Q 1056 3291 1056 2328 
Q 1056 1369 1301 889 
Q 1547 409 2034 409 
Q 2525 409 2770 889 
Q 3016 1369 3016 2328 
Q 3016 3291 2770 3770 
Q 2525 4250 2034 4250 
z
M 2034 4750 
Q 2819 4750 3233 4129 
Q 3647 3509 3647 2328 
Q 3647 1150 3233 529 
Q 2819 -91 2034 -91 
Q 1250 -91 836 529 
Q 422 1150 422 2328 
Q 422 3509 836 4129 
Q 1250 4750 2034 4750 
z
" id="DejaVuSans-30" transform="scale(0.015625)"/>
        <path d="M 684 794 
L 1344 794 
L 1344 0 
L 684 0 
L 684 794 
z
" id="DejaVuSans-2e" transform="scale(0.015625)"/>
        <path d="M 525 4666 
L 3525 4666 
L 3525 4397 
L 1831 0 
L 1172 0 
L 2766 4134 
L 525 4134 
L 525 4666 
z
" id="DejaVuSans-37" transform="scale(0.015625)"/>
       </defs>
       <use xlink:href="#DejaVuSans-30"/>
       <use x="63.623047" xlink:href="#DejaVuSans-2e"/>
       <use x="95.410156" xlink:href="#DejaVuSans-37"/>
       <use x="159.033203" xlink:href="#DejaVuSans-35"/>
      </g>
     </g>
    </g>
    <g id="ytick_2">
     <g id="text_9">
      <!-- 0.80 -->
      <g style="fill:#262626;" transform="translate(28.334375 258.160819)scale(0.1 -0.1)">
       <defs>
        <path d="M 2034 2216 
Q 1584 2216 1326 1975 
Q 1069 1734 1069 1313 
Q 1069 891 1326 650 
Q 1584 409 2034 409 
Q 2484 409 2743 651 
Q 3003 894 3003 1313 
Q 3003 1734 2745 1975 
Q 2488 2216 2034 2216 
z
M 1403 2484 
Q 997 2584 770 2862 
Q 544 3141 544 3541 
Q 544 4100 942 4425 
Q 1341 4750 2034 4750 
Q 2731 4750 3128 4425 
Q 3525 4100 3525 3541 
Q 3525 3141 3298 2862 
Q 3072 2584 2669 2484 
Q 3125 2378 3379 2068 
Q 3634 1759 3634 1313 
Q 3634 634 3220 271 
Q 2806 -91 2034 -91 
Q 1263 -91 848 271 
Q 434 634 434 1313 
Q 434 1759 690 2068 
Q 947 2378 1403 2484 
z
M 1172 3481 
Q 1172 3119 1398 2916 
Q 1625 2713 2034 2713 
Q 2441 2713 2670 2916 
Q 2900 3119 2900 3481 
Q 2900 3844 2670 4047 
Q 2441 4250 2034 4250 
Q 1625 4250 1398 4047 
Q 1172 3844 1172 3481 
z
" id="DejaVuSans-38" transform="scale(0.015625)"/>
       </defs>
       <use xlink:href="#DejaVuSans-30"/>
       <use x="63.623047" xlink:href="#DejaVuSans-2e"/>
       <use x="95.410156" xlink:href="#DejaVuSans-38"/>
       <use x="159.033203" xlink:href="#DejaVuSans-30"/>
      </g>
     </g>
    </g>
    <g id="ytick_3">
     <g id="text_10">
      <!-- 0.85 -->
      <g style="fill:#262626;" transform="translate(28.334375 204.938419)scale(0.1 -0.1)">
       <use xlink:href="#DejaVuSans-30"/>
       <use x="63.623047" xlink:href="#DejaVuSans-2e"/>
       <use x="95.410156" xlink:href="#DejaVuSans-38"/>
       <use x="159.033203" xlink:href="#DejaVuSans-35"/>
      </g>
     </g>
    </g>
    <g id="ytick_4">
     <g id="text_11">
      <!-- 0.90 -->
      <g style="fill:#262626;" transform="translate(28.334375 151.716019)scale(0.1 -0.1)">
       <defs>
        <path d="M 703 97 
L 703 672 
Q 941 559 1184 500 
Q 1428 441 1663 441 
Q 2288 441 2617 861 
Q 2947 1281 2994 2138 
Q 2813 1869 2534 1725 
Q 2256 1581 1919 1581 
Q 1219 1581 811 2004 
Q 403 2428 403 3163 
Q 403 3881 828 4315 
Q 1253 4750 1959 4750 
Q 2769 4750 3195 4129 
Q 3622 3509 3622 2328 
Q 3622 1225 3098 567 
Q 2575 -91 1691 -91 
Q 1453 -91 1209 -44 
Q 966 3 703 97 
z
M 1959 2075 
Q 2384 2075 2632 2365 
Q 2881 2656 2881 3163 
Q 2881 3666 2632 3958 
Q 2384 4250 1959 4250 
Q 1534 4250 1286 3958 
Q 1038 3666 1038 3163 
Q 1038 2656 1286 2365 
Q 1534 2075 1959 2075 
z
" id="DejaVuSans-39" transform="scale(0.015625)"/>
       </defs>
       <use xlink:href="#DejaVuSans-30"/>
       <use x="63.623047" xlink:href="#DejaVuSans-2e"/>
       <use x="95.410156" xlink:href="#DejaVuSans-39"/>
       <use x="159.033203" xlink:href="#DejaVuSans-30"/>
      </g>
     </g>
    </g>
    <g id="ytick_5">
     <g id="text_12">
      <!-- 0.95 -->
      <g style="fill:#262626;" transform="translate(28.334375 98.493619)scale(0.1 -0.1)">
       <use xlink:href="#DejaVuSans-30"/>
       <use x="63.623047" xlink:href="#DejaVuSans-2e"/>
       <use x="95.410156" xlink:href="#DejaVuSans-39"/>
       <use x="159.033203" xlink:href="#DejaVuSans-35"/>
      </g>
     </g>
    </g>
    <g id="ytick_6">
     <g id="text_13">
      <!-- 1.00 -->
      <g style="fill:#262626;" transform="translate(28.334375 45.271219)scale(0.1 -0.1)">
       <use xlink:href="#DejaVuSans-31"/>
       <use x="63.623047" xlink:href="#DejaVuSans-2e"/>
       <use x="95.410156" xlink:href="#DejaVuSans-30"/>
       <use x="159.033203" xlink:href="#DejaVuSans-30"/>
      </g>
     </g>
    </g>
    <g id="text_14">
     <!-- auROC -->
     <g style="fill:#262626;" transform="translate(22.254687 191.662375)rotate(-90)scale(0.1 -0.1)">
      <defs>
       <path d="M 2194 1759 
Q 1497 1759 1228 1600 
Q 959 1441 959 1056 
Q 959 750 1161 570 
Q 1363 391 1709 391 
Q 2188 391 2477 730 
Q 2766 1069 2766 1631 
L 2766 1759 
L 2194 1759 
z
M 3341 1997 
L 3341 0 
L 2766 0 
L 2766 531 
Q 2569 213 2275 61 
Q 1981 -91 1556 -91 
Q 1019 -91 701 211 
Q 384 513 384 1019 
Q 384 1609 779 1909 
Q 1175 2209 1959 2209 
L 2766 2209 
L 2766 2266 
Q 2766 2663 2505 2880 
Q 2244 3097 1772 3097 
Q 1472 3097 1187 3025 
Q 903 2953 641 2809 
L 641 3341 
Q 956 3463 1253 3523 
Q 1550 3584 1831 3584 
Q 2591 3584 2966 3190 
Q 3341 2797 3341 1997 
z
" id="DejaVuSans-61" transform="scale(0.015625)"/>
       <path d="M 544 1381 
L 544 3500 
L 1119 3500 
L 1119 1403 
Q 1119 906 1312 657 
Q 1506 409 1894 409 
Q 2359 409 2629 706 
Q 2900 1003 2900 1516 
L 2900 3500 
L 3475 3500 
L 3475 0 
L 2900 0 
L 2900 538 
Q 2691 219 2414 64 
Q 2138 -91 1772 -91 
Q 1169 -91 856 284 
Q 544 659 544 1381 
z
M 1991 3584 
L 1991 3584 
z
" id="DejaVuSans-75" transform="scale(0.015625)"/>
       <path d="M 2841 2188 
Q 3044 2119 3236 1894 
Q 3428 1669 3622 1275 
L 4263 0 
L 3584 0 
L 2988 1197 
Q 2756 1666 2539 1819 
Q 2322 1972 1947 1972 
L 1259 1972 
L 1259 0 
L 628 0 
L 628 4666 
L 2053 4666 
Q 2853 4666 3247 4331 
Q 3641 3997 3641 3322 
Q 3641 2881 3436 2590 
Q 3231 2300 2841 2188 
z
M 1259 4147 
L 1259 2491 
L 2053 2491 
Q 2509 2491 2742 2702 
Q 2975 2913 2975 3322 
Q 2975 3731 2742 3939 
Q 2509 4147 2053 4147 
L 1259 4147 
z
" id="DejaVuSans-52" transform="scale(0.015625)"/>
       <path d="M 2522 4238 
Q 1834 4238 1429 3725 
Q 1025 3213 1025 2328 
Q 1025 1447 1429 934 
Q 1834 422 2522 422 
Q 3209 422 3611 934 
Q 4013 1447 4013 2328 
Q 4013 3213 3611 3725 
Q 3209 4238 2522 4238 
z
M 2522 4750 
Q 3503 4750 4090 4092 
Q 4678 3434 4678 2328 
Q 4678 1225 4090 567 
Q 3503 -91 2522 -91 
Q 1538 -91 948 565 
Q 359 1222 359 2328 
Q 359 3434 948 4092 
Q 1538 4750 2522 4750 
z
" id="DejaVuSans-4f" transform="scale(0.015625)"/>
       <path d="M 4122 4306 
L 4122 3641 
Q 3803 3938 3442 4084 
Q 3081 4231 2675 4231 
Q 1875 4231 1450 3742 
Q 1025 3253 1025 2328 
Q 1025 1406 1450 917 
Q 1875 428 2675 428 
Q 3081 428 3442 575 
Q 3803 722 4122 1019 
L 4122 359 
Q 3791 134 3420 21 
Q 3050 -91 2638 -91 
Q 1578 -91 968 557 
Q 359 1206 359 2328 
Q 359 3453 968 4101 
Q 1578 4750 2638 4750 
Q 3056 4750 3426 4639 
Q 3797 4528 4122 4306 
z
" id="DejaVuSans-43" transform="scale(0.015625)"/>
      </defs>
      <use xlink:href="#DejaVuSans-61"/>
      <use x="61.279297" xlink:href="#DejaVuSans-75"/>
      <use x="124.658203" xlink:href="#DejaVuSans-52"/>
      <use x="194.140625" xlink:href="#DejaVuSans-4f"/>
      <use x="272.851562" xlink:href="#DejaVuSans-43"/>
     </g>
    </g>
   </g>
   <g id="PolyCollection_1">
    <defs>
     <path d="M 87.993404 -185.446608 
L 86.726596 -185.446608 
L 86.609097 -186.058627 
L 86.475041 -186.670646 
L 86.323124 -187.282665 
L 86.15212 -187.894685 
L 85.960913 -188.506704 
L 85.748532 -189.118723 
L 85.514185 -189.730742 
L 85.257292 -190.342762 
L 84.977518 -190.954781 
L 84.674797 -191.5668 
L 84.349359 -192.178819 
L 84.001746 -192.790839 
L 83.632827 -193.402858 
L 83.243801 -194.014877 
L 82.836204 -194.626896 
L 82.411895 -195.238916 
L 81.973048 -195.850935 
L 81.522131 -196.462954 
L 81.061876 -197.074973 
L 80.595248 -197.686993 
L 80.125404 -198.299012 
L 79.655641 -198.911031 
L 79.189345 -199.52305 
L 78.729929 -200.13507 
L 78.28076 -200.747089 
L 77.845091 -201.359108 
L 77.425977 -201.971127 
L 77.026194 -202.583147 
L 76.648159 -203.195166 
L 76.293839 -203.807185 
L 75.964683 -204.419204 
L 75.661545 -205.031224 
L 75.384624 -205.643243 
L 75.133431 -206.255262 
L 74.906756 -206.867281 
L 74.702674 -207.479301 
L 74.518572 -208.09132 
L 74.351204 -208.703339 
L 74.196775 -209.315358 
L 74.051054 -209.927378 
L 73.909508 -210.539397 
L 73.76747 -211.151416 
L 73.620307 -211.763435 
L 73.463609 -212.375454 
L 73.293377 -212.987474 
L 73.106201 -213.599493 
L 72.899434 -214.211512 
L 72.671328 -214.823531 
L 72.421153 -215.435551 
L 72.149276 -216.04757 
L 71.857202 -216.659589 
L 71.547567 -217.271608 
L 71.224099 -217.883628 
L 70.89153 -218.495647 
L 70.555477 -219.107666 
L 70.222283 -219.719685 
L 69.898846 -220.331705 
L 69.592419 -220.943724 
L 69.310404 -221.555743 
L 69.060149 -222.167762 
L 68.848738 -222.779782 
L 68.68281 -223.391801 
L 68.568381 -224.00382 
L 68.5107 -224.615839 
L 68.51412 -225.227859 
L 68.582009 -225.839878 
L 68.716675 -226.451897 
L 68.919333 -227.063916 
L 69.190094 -227.675936 
L 69.527971 -228.287955 
L 69.930925 -228.899974 
L 70.395919 -229.511993 
L 70.918995 -230.124013 
L 71.495368 -230.736032 
L 72.119532 -231.348051 
L 72.785376 -231.96007 
L 73.486312 -232.57209 
L 74.215406 -233.184109 
L 74.965511 -233.796128 
L 75.729405 -234.408147 
L 76.499922 -235.020166 
L 77.27008 -235.632186 
L 78.033204 -236.244205 
L 78.783032 -236.856224 
L 79.513813 -237.468243 
L 80.220391 -238.080263 
L 80.898264 -238.692282 
L 81.543634 -239.304301 
L 82.153431 -239.91632 
L 82.725326 -240.52834 
L 83.257715 -241.140359 
L 83.749694 -241.752378 
L 84.201018 -242.364397 
L 84.612043 -242.976417 
L 84.983663 -243.588436 
L 85.317236 -244.200455 
L 85.614505 -244.812474 
L 85.877522 -245.424494 
L 86.108566 -246.036513 
L 88.611434 -246.036513 
L 88.611434 -246.036513 
L 88.842478 -245.424494 
L 89.105495 -244.812474 
L 89.402764 -244.200455 
L 89.736337 -243.588436 
L 90.107957 -242.976417 
L 90.518982 -242.364397 
L 90.970306 -241.752378 
L 91.462285 -241.140359 
L 91.994674 -240.52834 
L 92.566569 -239.91632 
L 93.176366 -239.304301 
L 93.821736 -238.692282 
L 94.499609 -238.080263 
L 95.206187 -237.468243 
L 95.936968 -236.856224 
L 96.686796 -236.244205 
L 97.44992 -235.632186 
L 98.220078 -235.020166 
L 98.990595 -234.408147 
L 99.754489 -233.796128 
L 100.504594 -233.184109 
L 101.233688 -232.57209 
L 101.934624 -231.96007 
L 102.600468 -231.348051 
L 103.224632 -230.736032 
L 103.801005 -230.124013 
L 104.324081 -229.511993 
L 104.789075 -228.899974 
L 105.192029 -228.287955 
L 105.529906 -227.675936 
L 105.800667 -227.063916 
L 106.003325 -226.451897 
L 106.137991 -225.839878 
L 106.20588 -225.227859 
L 106.2093 -224.615839 
L 106.151619 -224.00382 
L 106.03719 -223.391801 
L 105.871262 -222.779782 
L 105.659851 -222.167762 
L 105.409596 -221.555743 
L 105.127581 -220.943724 
L 104.821154 -220.331705 
L 104.497717 -219.719685 
L 104.164523 -219.107666 
L 103.82847 -218.495647 
L 103.495901 -217.883628 
L 103.172433 -217.271608 
L 102.862798 -216.659589 
L 102.570724 -216.04757 
L 102.298847 -215.435551 
L 102.048672 -214.823531 
L 101.820566 -214.211512 
L 101.613799 -213.599493 
L 101.426623 -212.987474 
L 101.256391 -212.375454 
L 101.099693 -211.763435 
L 100.95253 -211.151416 
L 100.810492 -210.539397 
L 100.668946 -209.927378 
L 100.523225 -209.315358 
L 100.368796 -208.703339 
L 100.201428 -208.09132 
L 100.017326 -207.479301 
L 99.813244 -206.867281 
L 99.586569 -206.255262 
L 99.335376 -205.643243 
L 99.058455 -205.031224 
L 98.755317 -204.419204 
L 98.426161 -203.807185 
L 98.071841 -203.195166 
L 97.693806 -202.583147 
L 97.294023 -201.971127 
L 96.874909 -201.359108 
L 96.43924 -200.747089 
L 95.990071 -200.13507 
L 95.530655 -199.52305 
L 95.064359 -198.911031 
L 94.594596 -198.299012 
L 94.124752 -197.686993 
L 93.658124 -197.074973 
L 93.197869 -196.462954 
L 92.746952 -195.850935 
L 92.308105 -195.238916 
L 91.883796 -194.626896 
L 91.476199 -194.014877 
L 91.087173 -193.402858 
L 90.718254 -192.790839 
L 90.370641 -192.178819 
L 90.045203 -191.5668 
L 89.742482 -190.954781 
L 89.462708 -190.342762 
L 89.205815 -189.730742 
L 88.971468 -189.118723 
L 88.759087 -188.506704 
L 88.56788 -187.894685 
L 88.396876 -187.282665 
L 88.244959 -186.670646 
L 88.110903 -186.058627 
L 87.993404 -185.446608 
z
" id="m88b479b343" style="stroke:#595959;stroke-width:1.5;"/>
    </defs>
    <g clip-path="url(#pfd2d01dd1b)">
     <use style="fill:#72b6a1;stroke:#595959;stroke-width:1.5;" x="0" xlink:href="#m88b479b343" y="345.6"/>
    </g>
   </g>
   <g id="PolyCollection_2">
    <defs>
     <path d="M 147.420422 -175.139932 
L 146.339578 -175.139932 
L 146.235742 -175.878129 
L 146.117187 -176.616327 
L 145.982922 -177.354524 
L 145.832103 -178.092721 
L 145.664071 -178.830918 
L 145.478396 -179.569115 
L 145.274914 -180.307312 
L 145.05376 -181.045509 
L 144.815394 -181.783707 
L 144.560622 -182.521904 
L 144.2906 -183.260101 
L 144.006829 -183.998298 
L 143.71114 -184.736495 
L 143.405663 -185.474692 
L 143.092784 -186.212889 
L 142.775085 -186.951087 
L 142.455286 -187.689284 
L 142.13616 -188.427481 
L 141.820457 -189.165678 
L 141.510816 -189.903875 
L 141.209679 -190.642072 
L 140.919201 -191.38027 
L 140.641176 -192.118467 
L 140.376959 -192.856664 
L 140.127408 -193.594861 
L 139.892832 -194.333058 
L 139.672961 -195.071255 
L 139.466922 -195.809452 
L 139.273248 -196.54765 
L 139.089891 -197.285847 
L 138.91426 -198.024044 
L 138.743281 -198.762241 
L 138.573469 -199.500438 
L 138.401019 -200.238635 
L 138.221911 -200.976833 
L 138.032033 -201.71503 
L 137.827308 -202.453227 
L 137.603831 -203.191424 
L 137.358013 -203.929621 
L 137.08672 -204.667818 
L 136.787411 -205.406015 
L 136.458269 -206.144213 
L 136.098312 -206.88241 
L 135.707496 -207.620607 
L 135.286786 -208.358804 
L 134.838211 -209.097001 
L 134.364874 -209.835198 
L 133.870952 -210.573395 
L 133.361637 -211.311593 
L 132.843065 -212.04979 
L 132.322197 -212.787987 
L 131.806674 -213.526184 
L 131.304648 -214.264381 
L 130.824582 -215.002578 
L 130.375045 -215.740776 
L 129.964488 -216.478973 
L 129.601022 -217.21717 
L 129.292205 -217.955367 
L 129.044839 -218.693564 
L 128.86479 -219.431761 
L 128.756836 -220.169958 
L 128.724545 -220.908156 
L 128.770197 -221.646353 
L 128.894736 -222.38455 
L 129.097769 -223.122747 
L 129.377593 -223.860944 
L 129.73127 -224.599141 
L 130.154726 -225.337338 
L 130.642872 -226.075536 
L 131.189756 -226.813733 
L 131.788721 -227.55193 
L 132.432573 -228.290127 
L 133.113752 -229.028324 
L 133.824502 -229.766521 
L 134.557028 -230.504719 
L 135.303643 -231.242916 
L 136.056906 -231.981113 
L 136.809735 -232.71931 
L 137.555507 -233.457507 
L 138.288141 -234.195704 
L 139.00216 -234.933901 
L 139.692735 -235.672099 
L 140.355717 -236.410296 
L 140.987648 -237.148493 
L 141.585759 -237.88669 
L 142.14796 -238.624887 
L 142.672813 -239.363084 
L 143.159495 -240.101282 
L 143.607758 -240.839479 
L 144.017875 -241.577676 
L 144.390587 -242.315873 
L 144.727039 -243.05407 
L 145.028723 -243.792267 
L 145.297411 -244.530464 
L 145.535091 -245.268662 
L 145.743913 -246.006859 
L 145.926123 -246.745056 
L 146.084019 -247.483253 
L 146.219896 -248.22145 
L 147.540104 -248.22145 
L 147.540104 -248.22145 
L 147.675981 -247.483253 
L 147.833877 -246.745056 
L 148.016087 -246.006859 
L 148.224909 -245.268662 
L 148.462589 -244.530464 
L 148.731277 -243.792267 
L 149.032961 -243.05407 
L 149.369413 -242.315873 
L 149.742125 -241.577676 
L 150.152242 -240.839479 
L 150.600505 -240.101282 
L 151.087187 -239.363084 
L 151.61204 -238.624887 
L 152.174241 -237.88669 
L 152.772352 -237.148493 
L 153.404283 -236.410296 
L 154.067265 -235.672099 
L 154.75784 -234.933901 
L 155.471859 -234.195704 
L 156.204493 -233.457507 
L 156.950265 -232.71931 
L 157.703094 -231.981113 
L 158.456357 -231.242916 
L 159.202972 -230.504719 
L 159.935498 -229.766521 
L 160.646248 -229.028324 
L 161.327427 -228.290127 
L 161.971279 -227.55193 
L 162.570244 -226.813733 
L 163.117128 -226.075536 
L 163.605274 -225.337338 
L 164.02873 -224.599141 
L 164.382407 -223.860944 
L 164.662231 -223.122747 
L 164.865264 -222.38455 
L 164.989803 -221.646353 
L 165.035455 -220.908156 
L 165.003164 -220.169958 
L 164.89521 -219.431761 
L 164.715161 -218.693564 
L 164.467795 -217.955367 
L 164.158978 -217.21717 
L 163.795512 -216.478973 
L 163.384955 -215.740776 
L 162.935418 -215.002578 
L 162.455352 -214.264381 
L 161.953326 -213.526184 
L 161.437803 -212.787987 
L 160.916935 -212.04979 
L 160.398363 -211.311593 
L 159.889048 -210.573395 
L 159.395126 -209.835198 
L 158.921789 -209.097001 
L 158.473214 -208.358804 
L 158.052504 -207.620607 
L 157.661688 -206.88241 
L 157.301731 -206.144213 
L 156.972589 -205.406015 
L 156.67328 -204.667818 
L 156.401987 -203.929621 
L 156.156169 -203.191424 
L 155.932692 -202.453227 
L 155.727967 -201.71503 
L 155.538089 -200.976833 
L 155.358981 -200.238635 
L 155.186531 -199.500438 
L 155.016719 -198.762241 
L 154.84574 -198.024044 
L 154.670109 -197.285847 
L 154.486752 -196.54765 
L 154.293078 -195.809452 
L 154.087039 -195.071255 
L 153.867168 -194.333058 
L 153.632592 -193.594861 
L 153.383041 -192.856664 
L 153.118824 -192.118467 
L 152.840799 -191.38027 
L 152.550321 -190.642072 
L 152.249184 -189.903875 
L 151.939543 -189.165678 
L 151.62384 -188.427481 
L 151.304714 -187.689284 
L 150.984915 -186.951087 
L 150.667216 -186.212889 
L 150.354337 -185.474692 
L 150.04886 -184.736495 
L 149.753171 -183.998298 
L 149.4694 -183.260101 
L 149.199378 -182.521904 
L 148.944606 -181.783707 
L 148.70624 -181.045509 
L 148.485086 -180.307312 
L 148.281604 -179.569115 
L 148.095929 -178.830918 
L 147.927897 -178.092721 
L 147.777078 -177.354524 
L 147.642813 -176.616327 
L 147.524258 -175.878129 
L 147.420422 -175.139932 
z
" id="madc86ab80e" style="stroke:#595959;stroke-width:1.5;"/>
    </defs>
    <g clip-path="url(#pdea9c2b9f6)">
     <use style="fill:#e99675;stroke:#595959;stroke-width:1.5;" x="0" xlink:href="#madc86ab80e" y="345.6"/>
    </g>
   </g>
   <g id="PolyCollection_3">
    <defs>
     <path d="M 206.949118 -178.155869 
L 205.850882 -178.155869 
L 205.744953 -178.8669 
L 205.623884 -179.57793 
L 205.486582 -180.288961 
L 205.332058 -180.999991 
L 205.159454 -181.711021 
L 204.96807 -182.422052 
L 204.757377 -183.133082 
L 204.52703 -183.844113 
L 204.276871 -184.555143 
L 204.006918 -185.266173 
L 203.717348 -185.977204 
L 203.408472 -186.688234 
L 203.080701 -187.399265 
L 202.734505 -188.110295 
L 202.370372 -188.821325 
L 201.988769 -189.532356 
L 201.590107 -190.243386 
L 201.174715 -190.954417 
L 200.742831 -191.665447 
L 200.294607 -192.376477 
L 199.830132 -193.087508 
L 199.349483 -193.798538 
L 198.852783 -194.509569 
L 198.340293 -195.220599 
L 197.8125 -195.93163 
L 197.27023 -196.64266 
L 196.71475 -197.35369 
L 196.14787 -198.064721 
L 195.572027 -198.775751 
L 194.990349 -199.486782 
L 194.406683 -200.197812 
L 193.825592 -200.908842 
L 193.252305 -201.619873 
L 192.69263 -202.330903 
L 192.152818 -203.041934 
L 191.639393 -203.752964 
L 191.15895 -204.463994 
L 190.717925 -205.175025 
L 190.322363 -205.886055 
L 189.977673 -206.597086 
L 189.688409 -207.308116 
L 189.458067 -208.019146 
L 189.288929 -208.730177 
L 189.181946 -209.441207 
L 189.136683 -210.152238 
L 189.151321 -210.863268 
L 189.222716 -211.574299 
L 189.346525 -212.285329 
L 189.517373 -212.996359 
L 189.729074 -213.70739 
L 189.974881 -214.41842 
L 190.247752 -215.129451 
L 190.540633 -215.840481 
L 190.846724 -216.551511 
L 191.159734 -217.262542 
L 191.474102 -217.973572 
L 191.785175 -218.684603 
L 192.089345 -219.395633 
L 192.384126 -220.106663 
L 192.66819 -220.817694 
L 192.941335 -221.528724 
L 193.204419 -222.239755 
L 193.45924 -222.950785 
L 193.708386 -223.661815 
L 193.955055 -224.372846 
L 194.202859 -225.083876 
L 194.455612 -225.794907 
L 194.717135 -226.505937 
L 194.991049 -227.216968 
L 195.280604 -227.927998 
L 195.588521 -228.639028 
L 195.916866 -229.350059 
L 196.266962 -230.061089 
L 196.639328 -230.77212 
L 197.033659 -231.48315 
L 197.448841 -232.19418 
L 197.882996 -232.905211 
L 198.333556 -233.616241 
L 198.797365 -234.327272 
L 199.270794 -235.038302 
L 199.749875 -235.749332 
L 200.230434 -236.460363 
L 200.708233 -237.171393 
L 201.179102 -237.882424 
L 201.639062 -238.593454 
L 202.084433 -239.304484 
L 202.511926 -240.015515 
L 202.918712 -240.726545 
L 203.302471 -241.437576 
L 203.661423 -242.148606 
L 203.994328 -242.859637 
L 204.300484 -243.570667 
L 204.579688 -244.281697 
L 204.8322 -244.992728 
L 205.058688 -245.703758 
L 205.260167 -246.414789 
L 205.437935 -247.125819 
L 205.593506 -247.836849 
L 205.728552 -248.54788 
L 207.071448 -248.54788 
L 207.071448 -248.54788 
L 207.206494 -247.836849 
L 207.362065 -247.125819 
L 207.539833 -246.414789 
L 207.741312 -245.703758 
L 207.9678 -244.992728 
L 208.220312 -244.281697 
L 208.499516 -243.570667 
L 208.805672 -242.859637 
L 209.138577 -242.148606 
L 209.497529 -241.437576 
L 209.881288 -240.726545 
L 210.288074 -240.015515 
L 210.715567 -239.304484 
L 211.160938 -238.593454 
L 211.620898 -237.882424 
L 212.091767 -237.171393 
L 212.569566 -236.460363 
L 213.050125 -235.749332 
L 213.529206 -235.038302 
L 214.002635 -234.327272 
L 214.466444 -233.616241 
L 214.917004 -232.905211 
L 215.351159 -232.19418 
L 215.766341 -231.48315 
L 216.160672 -230.77212 
L 216.533038 -230.061089 
L 216.883134 -229.350059 
L 217.211479 -228.639028 
L 217.519396 -227.927998 
L 217.808951 -227.216968 
L 218.082865 -226.505937 
L 218.344388 -225.794907 
L 218.597141 -225.083876 
L 218.844945 -224.372846 
L 219.091614 -223.661815 
L 219.34076 -222.950785 
L 219.595581 -222.239755 
L 219.858665 -221.528724 
L 220.13181 -220.817694 
L 220.415874 -220.106663 
L 220.710655 -219.395633 
L 221.014825 -218.684603 
L 221.325898 -217.973572 
L 221.640266 -217.262542 
L 221.953276 -216.551511 
L 222.259367 -215.840481 
L 222.552248 -215.129451 
L 222.825119 -214.41842 
L 223.070926 -213.70739 
L 223.282627 -212.996359 
L 223.453475 -212.285329 
L 223.577284 -211.574299 
L 223.648679 -210.863268 
L 223.663317 -210.152238 
L 223.618054 -209.441207 
L 223.511071 -208.730177 
L 223.341933 -208.019146 
L 223.111591 -207.308116 
L 222.822327 -206.597086 
L 222.477637 -205.886055 
L 222.082075 -205.175025 
L 221.64105 -204.463994 
L 221.160607 -203.752964 
L 220.647182 -203.041934 
L 220.10737 -202.330903 
L 219.547695 -201.619873 
L 218.974408 -200.908842 
L 218.393317 -200.197812 
L 217.809651 -199.486782 
L 217.227973 -198.775751 
L 216.65213 -198.064721 
L 216.08525 -197.35369 
L 215.52977 -196.64266 
L 214.9875 -195.93163 
L 214.459707 -195.220599 
L 213.947217 -194.509569 
L 213.450517 -193.798538 
L 212.969868 -193.087508 
L 212.505393 -192.376477 
L 212.057169 -191.665447 
L 211.625285 -190.954417 
L 211.209893 -190.243386 
L 210.811231 -189.532356 
L 210.429628 -188.821325 
L 210.065495 -188.110295 
L 209.719299 -187.399265 
L 209.391528 -186.688234 
L 209.082652 -185.977204 
L 208.793082 -185.266173 
L 208.523129 -184.555143 
L 208.27297 -183.844113 
L 208.042623 -183.133082 
L 207.83193 -182.422052 
L 207.640546 -181.711021 
L 207.467942 -180.999991 
L 207.313418 -180.288961 
L 207.176116 -179.57793 
L 207.055047 -178.8669 
L 206.949118 -178.155869 
z
" id="mde91a8ac1d" style="stroke:#595959;stroke-width:1.5;"/>
    </defs>
    <g clip-path="url(#p75ea2f7d5e)">
     <use style="fill:#95a3c3;stroke:#595959;stroke-width:1.5;" x="0" xlink:href="#mde91a8ac1d" y="345.6"/>
    </g>
   </g>
   <g id="PolyCollection_4">
    <defs>
     <path d="M 266.356373 -152.895892 
L 265.483627 -152.895892 
L 265.402437 -153.760473 
L 265.309896 -154.625055 
L 265.205136 -155.489637 
L 265.087338 -156.354218 
L 264.955747 -157.2188 
L 264.809683 -158.083381 
L 264.648555 -158.947963 
L 264.471868 -159.812545 
L 264.279225 -160.677126 
L 264.070323 -161.541708 
L 263.844955 -162.40629 
L 263.602994 -163.270871 
L 263.344388 -164.135453 
L 263.06914 -165.000034 
L 262.777303 -165.864616 
L 262.468967 -166.729198 
L 262.144255 -167.593779 
L 261.803322 -168.458361 
L 261.446369 -169.322943 
L 261.073656 -170.187524 
L 260.685538 -171.052106 
L 260.2825 -171.916687 
L 259.865205 -172.781269 
L 259.43455 -173.645851 
L 258.991723 -174.510432 
L 258.538263 -175.375014 
L 258.076114 -176.239596 
L 257.607664 -177.104177 
L 257.135782 -177.968759 
L 256.663822 -178.83334 
L 256.195613 -179.697922 
L 255.735419 -180.562504 
L 255.287871 -181.427085 
L 254.857873 -182.291667 
L 254.450483 -183.156249 
L 254.070763 -184.02083 
L 253.723627 -184.885412 
L 253.413663 -185.749994 
L 253.144963 -186.614575 
L 252.920956 -187.479157 
L 252.744254 -188.343738 
L 252.616524 -189.20832 
L 252.538393 -190.072902 
L 252.509384 -190.937483 
L 252.527901 -191.802065 
L 252.591259 -192.666647 
L 252.69575 -193.531228 
L 252.836762 -194.39581 
L 253.008936 -195.260391 
L 253.206343 -196.124973 
L 253.422706 -196.989555 
L 253.651618 -197.854136 
L 253.886775 -198.718718 
L 254.122206 -199.5833 
L 254.352483 -200.447881 
L 254.572907 -201.312463 
L 254.779669 -202.177044 
L 254.969969 -203.041626 
L 255.142091 -203.906208 
L 255.295439 -204.770789 
L 255.43052 -205.635371 
L 255.548895 -206.499953 
L 255.653075 -207.364534 
L 255.746394 -208.229116 
L 255.832851 -209.093697 
L 255.916918 -209.958279 
L 256.003356 -210.822861 
L 256.097002 -211.687442 
L 256.202577 -212.552024 
L 256.324494 -213.416606 
L 256.466688 -214.281187 
L 256.632469 -215.145769 
L 256.824402 -216.010351 
L 257.044221 -216.874932 
L 257.292779 -217.739514 
L 257.570033 -218.604095 
L 257.875055 -219.468677 
L 258.206092 -220.333259 
L 258.560637 -221.19784 
L 258.935535 -222.062422 
L 259.327104 -222.927004 
L 259.73127 -223.791585 
L 260.143707 -224.656167 
L 260.559979 -225.520748 
L 260.975681 -226.38533 
L 261.386559 -227.249912 
L 261.788629 -228.114493 
L 262.17827 -228.979075 
L 262.552297 -229.843657 
L 262.908022 -230.708238 
L 263.243278 -231.57282 
L 263.556437 -232.437401 
L 263.846404 -233.301983 
L 264.112588 -234.166565 
L 264.35487 -235.031146 
L 264.573552 -235.895728 
L 264.769302 -236.76031 
L 264.94309 -237.624891 
L 265.096133 -238.489473 
L 266.743867 -238.489473 
L 266.743867 -238.489473 
L 266.89691 -237.624891 
L 267.070698 -236.76031 
L 267.266448 -235.895728 
L 267.48513 -235.031146 
L 267.727412 -234.166565 
L 267.993596 -233.301983 
L 268.283563 -232.437401 
L 268.596722 -231.57282 
L 268.931978 -230.708238 
L 269.287703 -229.843657 
L 269.66173 -228.979075 
L 270.051371 -228.114493 
L 270.453441 -227.249912 
L 270.864319 -226.38533 
L 271.280021 -225.520748 
L 271.696293 -224.656167 
L 272.10873 -223.791585 
L 272.512896 -222.927004 
L 272.904465 -222.062422 
L 273.279363 -221.19784 
L 273.633908 -220.333259 
L 273.964945 -219.468677 
L 274.269967 -218.604095 
L 274.547221 -217.739514 
L 274.795779 -216.874932 
L 275.015598 -216.010351 
L 275.207531 -215.145769 
L 275.373312 -214.281187 
L 275.515506 -213.416606 
L 275.637423 -212.552024 
L 275.742998 -211.687442 
L 275.836644 -210.822861 
L 275.923082 -209.958279 
L 276.007149 -209.093697 
L 276.093606 -208.229116 
L 276.186925 -207.364534 
L 276.291105 -206.499953 
L 276.40948 -205.635371 
L 276.544561 -204.770789 
L 276.697909 -203.906208 
L 276.870031 -203.041626 
L 277.060331 -202.177044 
L 277.267093 -201.312463 
L 277.487517 -200.447881 
L 277.717794 -199.5833 
L 277.953225 -198.718718 
L 278.188382 -197.854136 
L 278.417294 -196.989555 
L 278.633657 -196.124973 
L 278.831064 -195.260391 
L 279.003238 -194.39581 
L 279.14425 -193.531228 
L 279.248741 -192.666647 
L 279.312099 -191.802065 
L 279.330616 -190.937483 
L 279.301607 -190.072902 
L 279.223476 -189.20832 
L 279.095746 -188.343738 
L 278.919044 -187.479157 
L 278.695037 -186.614575 
L 278.426337 -185.749994 
L 278.116373 -184.885412 
L 277.769237 -184.02083 
L 277.389517 -183.156249 
L 276.982127 -182.291667 
L 276.552129 -181.427085 
L 276.104581 -180.562504 
L 275.644387 -179.697922 
L 275.176178 -178.83334 
L 274.704218 -177.968759 
L 274.232336 -177.104177 
L 273.763886 -176.239596 
L 273.301737 -175.375014 
L 272.848277 -174.510432 
L 272.40545 -173.645851 
L 271.974795 -172.781269 
L 271.5575 -171.916687 
L 271.154462 -171.052106 
L 270.766344 -170.187524 
L 270.393631 -169.322943 
L 270.036678 -168.458361 
L 269.695745 -167.593779 
L 269.371033 -166.729198 
L 269.062697 -165.864616 
L 268.77086 -165.000034 
L 268.495612 -164.135453 
L 268.237006 -163.270871 
L 267.995045 -162.40629 
L 267.769677 -161.541708 
L 267.560775 -160.677126 
L 267.368132 -159.812545 
L 267.191445 -158.947963 
L 267.030317 -158.083381 
L 266.884253 -157.2188 
L 266.752662 -156.354218 
L 266.634864 -155.489637 
L 266.530104 -154.625055 
L 266.437563 -153.760473 
L 266.356373 -152.895892 
z
" id="m44aef3b398" style="stroke:#595959;stroke-width:1.5;"/>
    </defs>
    <g clip-path="url(#p8433b3106d)">
     <use style="fill:#db96c0;stroke:#595959;stroke-width:1.5;" x="0" xlink:href="#m44aef3b398" y="345.6"/>
    </g>
   </g>
   <g id="PolyCollection_5">
    <defs>
     <path d="M 326.996754 -193.716083 
L 323.883246 -193.716083 
L 323.60809 -194.226952 
L 323.29728 -194.737821 
L 322.948798 -195.24869 
L 322.561008 -195.759559 
L 322.132755 -196.270428 
L 321.66346 -196.781297 
L 321.153213 -197.292166 
L 320.60285 -197.803035 
L 320.014023 -198.313903 
L 319.389246 -198.824772 
L 318.731916 -199.335641 
L 318.046311 -199.84651 
L 317.337554 -200.357379 
L 316.611547 -200.868248 
L 315.874871 -201.379117 
L 315.134658 -201.889986 
L 314.39843 -202.400855 
L 313.673914 -202.911723 
L 312.968841 -203.422592 
L 312.290731 -203.933461 
L 311.646674 -204.44433 
L 311.043113 -204.955199 
L 310.485648 -205.466068 
L 309.978859 -205.976937 
L 309.526152 -206.487806 
L 309.129658 -206.998675 
L 308.790163 -207.509543 
L 308.507088 -208.020412 
L 308.278524 -208.531281 
L 308.101304 -209.04215 
L 307.971131 -209.553019 
L 307.882738 -210.063888 
L 307.830085 -210.574757 
L 307.806582 -211.085626 
L 307.805326 -211.596495 
L 307.81934 -212.107363 
L 307.841817 -212.618232 
L 307.866341 -213.129101 
L 307.887088 -213.63997 
L 307.899001 -214.150839 
L 307.897924 -214.661708 
L 307.880704 -215.172577 
L 307.845244 -215.683446 
L 307.790522 -216.194315 
L 307.716572 -216.705183 
L 307.624426 -217.216052 
L 307.516031 -217.726921 
L 307.394144 -218.23779 
L 307.262202 -218.748659 
L 307.124191 -219.259528 
L 306.984505 -219.770397 
L 306.847813 -220.281266 
L 306.71892 -220.792135 
L 306.602654 -221.303003 
L 306.503753 -221.813872 
L 306.426776 -222.324741 
L 306.376019 -222.83561 
L 306.355453 -223.346479 
L 306.368673 -223.857348 
L 306.418859 -224.368217 
L 306.50874 -224.879086 
L 306.640574 -225.389955 
L 306.81613 -225.900823 
L 307.036669 -226.411692 
L 307.302937 -226.922561 
L 307.61515 -227.43343 
L 307.972986 -227.944299 
L 308.375586 -228.455168 
L 308.821545 -228.966037 
L 309.308922 -229.476906 
L 309.835249 -229.987775 
L 310.397551 -230.498643 
L 310.992374 -231.009512 
L 311.615828 -231.520381 
L 312.263632 -232.03125 
L 312.931183 -232.542119 
L 313.61362 -233.052988 
L 314.305911 -233.563857 
L 315.002932 -234.074726 
L 315.699564 -234.585595 
L 316.390781 -235.096463 
L 317.071743 -235.607332 
L 317.737879 -236.118201 
L 318.384965 -236.62907 
L 319.009195 -237.139939 
L 319.607233 -237.650808 
L 320.176258 -238.161677 
L 320.713989 -238.672546 
L 321.218701 -239.183415 
L 321.689218 -239.694283 
L 322.124903 -240.205152 
L 322.525622 -240.716021 
L 322.891714 -241.22689 
L 323.223935 -241.737759 
L 323.523409 -242.248628 
L 323.791568 -242.759497 
L 324.030094 -243.270366 
L 324.240856 -243.781235 
L 324.425855 -244.292103 
L 326.454145 -244.292103 
L 326.454145 -244.292103 
L 326.639144 -243.781235 
L 326.849906 -243.270366 
L 327.088432 -242.759497 
L 327.356591 -242.248628 
L 327.656065 -241.737759 
L 327.988286 -241.22689 
L 328.354378 -240.716021 
L 328.755097 -240.205152 
L 329.190782 -239.694283 
L 329.661299 -239.183415 
L 330.166011 -238.672546 
L 330.703742 -238.161677 
L 331.272767 -237.650808 
L 331.870805 -237.139939 
L 332.495035 -236.62907 
L 333.142121 -236.118201 
L 333.808257 -235.607332 
L 334.489219 -235.096463 
L 335.180436 -234.585595 
L 335.877068 -234.074726 
L 336.574089 -233.563857 
L 337.26638 -233.052988 
L 337.948817 -232.542119 
L 338.616368 -232.03125 
L 339.264172 -231.520381 
L 339.887626 -231.009512 
L 340.482449 -230.498643 
L 341.044751 -229.987775 
L 341.571078 -229.476906 
L 342.058455 -228.966037 
L 342.504414 -228.455168 
L 342.907014 -227.944299 
L 343.26485 -227.43343 
L 343.577063 -226.922561 
L 343.843331 -226.411692 
L 344.06387 -225.900823 
L 344.239426 -225.389955 
L 344.37126 -224.879086 
L 344.461141 -224.368217 
L 344.511327 -223.857348 
L 344.524547 -223.346479 
L 344.503981 -222.83561 
L 344.453224 -222.324741 
L 344.376247 -221.813872 
L 344.277346 -221.303003 
L 344.16108 -220.792135 
L 344.032187 -220.281266 
L 343.895495 -219.770397 
L 343.755809 -219.259528 
L 343.617798 -218.748659 
L 343.485856 -218.23779 
L 343.363969 -217.726921 
L 343.255574 -217.216052 
L 343.163428 -216.705183 
L 343.089478 -216.194315 
L 343.034756 -215.683446 
L 342.999296 -215.172577 
L 342.982076 -214.661708 
L 342.980999 -214.150839 
L 342.992912 -213.63997 
L 343.013659 -213.129101 
L 343.038183 -212.618232 
L 343.06066 -212.107363 
L 343.074674 -211.596495 
L 343.073418 -211.085626 
L 343.049915 -210.574757 
L 342.997262 -210.063888 
L 342.908869 -209.553019 
L 342.778696 -209.04215 
L 342.601476 -208.531281 
L 342.372912 -208.020412 
L 342.089837 -207.509543 
L 341.750342 -206.998675 
L 341.353848 -206.487806 
L 340.901141 -205.976937 
L 340.394352 -205.466068 
L 339.836887 -204.955199 
L 339.233326 -204.44433 
L 338.589269 -203.933461 
L 337.911159 -203.422592 
L 337.206086 -202.911723 
L 336.48157 -202.400855 
L 335.745342 -201.889986 
L 335.005129 -201.379117 
L 334.268453 -200.868248 
L 333.542446 -200.357379 
L 332.833689 -199.84651 
L 332.148084 -199.335641 
L 331.490754 -198.824772 
L 330.865977 -198.313903 
L 330.27715 -197.803035 
L 329.726787 -197.292166 
L 329.21654 -196.781297 
L 328.747245 -196.270428 
L 328.318992 -195.759559 
L 327.931202 -195.24869 
L 327.58272 -194.737821 
L 327.27191 -194.226952 
L 326.996754 -193.716083 
z
" id="m354d785ddd" style="stroke:#595959;stroke-width:1.5;"/>
    </defs>
    <g clip-path="url(#pa47323c915)">
     <use style="fill:#a2c865;stroke:#595959;stroke-width:1.5;" x="0" xlink:href="#m354d785ddd" y="345.6"/>
    </g>
   </g>
   <g id="PolyCollection_6">
    <defs>
     <path d="M 385.849914 -191.0234 
L 384.070086 -191.0234 
L 383.891743 -191.549529 
L 383.685199 -192.075658 
L 383.447577 -192.601787 
L 383.176005 -193.127917 
L 382.867677 -193.654046 
L 382.519914 -194.180175 
L 382.130245 -194.706304 
L 381.696479 -195.232434 
L 381.216792 -195.758563 
L 380.689801 -196.284692 
L 380.114651 -196.810821 
L 379.491089 -197.336951 
L 378.819535 -197.86308 
L 378.101143 -198.389209 
L 377.337849 -198.915339 
L 376.532413 -199.441468 
L 375.68843 -199.967597 
L 374.810339 -200.493726 
L 373.9034 -201.019856 
L 372.973657 -201.545985 
L 372.027878 -202.072114 
L 371.073474 -202.598243 
L 370.118399 -203.124373 
L 369.171028 -203.650502 
L 368.240027 -204.176631 
L 367.334202 -204.70276 
L 366.462345 -205.22889 
L 365.633069 -205.755019 
L 364.854652 -206.281148 
L 364.134871 -206.807277 
L 363.480859 -207.333407 
L 362.898962 -207.859536 
L 362.39462 -208.385665 
L 361.972265 -208.911795 
L 361.635233 -209.437924 
L 361.385713 -209.964053 
L 361.224703 -210.490182 
L 361.152 -211.016312 
L 361.166207 -211.542441 
L 361.264763 -212.06857 
L 361.443989 -212.594699 
L 361.699158 -213.120829 
L 362.024575 -213.646958 
L 362.413676 -214.173087 
L 362.859138 -214.699216 
L 363.353009 -215.225346 
L 363.886838 -215.751475 
L 364.451833 -216.277604 
L 365.039015 -216.803733 
L 365.639389 -217.329863 
L 366.244128 -217.855992 
L 366.844748 -218.382121 
L 367.433297 -218.90825 
L 368.002536 -219.43438 
L 368.546111 -219.960509 
L 369.058707 -220.486638 
L 369.53619 -221.012768 
L 369.975709 -221.538897 
L 370.375769 -222.065026 
L 370.736266 -222.591155 
L 371.058475 -223.117285 
L 371.344992 -223.643414 
L 371.599629 -224.169543 
L 371.827268 -224.695672 
L 372.033673 -225.221802 
L 372.225269 -225.747931 
L 372.408891 -226.27406 
L 372.59153 -226.800189 
L 372.780061 -227.326319 
L 372.98099 -227.852448 
L 373.200211 -228.378577 
L 373.442795 -228.904706 
L 373.712819 -229.430836 
L 374.013229 -229.956965 
L 374.345766 -230.483094 
L 374.710933 -231.009224 
L 375.108011 -231.535353 
L 375.535131 -232.061482 
L 375.989379 -232.587611 
L 376.466943 -233.113741 
L 376.963284 -233.63987 
L 377.473326 -234.165999 
L 377.991652 -234.692128 
L 378.512708 -235.218258 
L 379.030985 -235.744387 
L 379.541197 -236.270516 
L 380.038433 -236.796645 
L 380.518274 -237.322775 
L 380.976897 -237.848904 
L 381.411132 -238.375033 
L 381.818503 -238.901162 
L 382.197228 -239.427292 
L 382.546208 -239.953421 
L 382.864979 -240.47955 
L 383.153661 -241.00568 
L 383.412884 -241.531809 
L 383.643715 -242.057938 
L 383.847569 -242.584067 
L 384.026131 -243.110197 
L 385.893869 -243.110197 
L 385.893869 -243.110197 
L 386.072431 -242.584067 
L 386.276285 -242.057938 
L 386.507116 -241.531809 
L 386.766339 -241.00568 
L 387.055021 -240.47955 
L 387.373792 -239.953421 
L 387.722772 -239.427292 
L 388.101497 -238.901162 
L 388.508868 -238.375033 
L 388.943103 -237.848904 
L 389.401726 -237.322775 
L 389.881567 -236.796645 
L 390.378803 -236.270516 
L 390.889015 -235.744387 
L 391.407292 -235.218258 
L 391.928348 -234.692128 
L 392.446674 -234.165999 
L 392.956716 -233.63987 
L 393.453057 -233.113741 
L 393.930621 -232.587611 
L 394.384869 -232.061482 
L 394.811989 -231.535353 
L 395.209067 -231.009224 
L 395.574234 -230.483094 
L 395.906771 -229.956965 
L 396.207181 -229.430836 
L 396.477205 -228.904706 
L 396.719789 -228.378577 
L 396.93901 -227.852448 
L 397.139939 -227.326319 
L 397.32847 -226.800189 
L 397.511109 -226.27406 
L 397.694731 -225.747931 
L 397.886327 -225.221802 
L 398.092732 -224.695672 
L 398.320371 -224.169543 
L 398.575008 -223.643414 
L 398.861525 -223.117285 
L 399.183734 -222.591155 
L 399.544231 -222.065026 
L 399.944291 -221.538897 
L 400.38381 -221.012768 
L 400.861293 -220.486638 
L 401.373889 -219.960509 
L 401.917464 -219.43438 
L 402.486703 -218.90825 
L 403.075252 -218.382121 
L 403.675872 -217.855992 
L 404.280611 -217.329863 
L 404.880985 -216.803733 
L 405.468167 -216.277604 
L 406.033162 -215.751475 
L 406.566991 -215.225346 
L 407.060862 -214.699216 
L 407.506324 -214.173087 
L 407.895425 -213.646958 
L 408.220842 -213.120829 
L 408.476011 -212.594699 
L 408.655237 -212.06857 
L 408.753793 -211.542441 
L 408.768 -211.016312 
L 408.695297 -210.490182 
L 408.534287 -209.964053 
L 408.284767 -209.437924 
L 407.947735 -208.911795 
L 407.52538 -208.385665 
L 407.021038 -207.859536 
L 406.439141 -207.333407 
L 405.785129 -206.807277 
L 405.065348 -206.281148 
L 404.286931 -205.755019 
L 403.457655 -205.22889 
L 402.585798 -204.70276 
L 401.679973 -204.176631 
L 400.748972 -203.650502 
L 399.801601 -203.124373 
L 398.846526 -202.598243 
L 397.892122 -202.072114 
L 396.946343 -201.545985 
L 396.0166 -201.019856 
L 395.109661 -200.493726 
L 394.23157 -199.967597 
L 393.387587 -199.441468 
L 392.582151 -198.915339 
L 391.818857 -198.389209 
L 391.100465 -197.86308 
L 390.428911 -197.336951 
L 389.805349 -196.810821 
L 389.230199 -196.284692 
L 388.703208 -195.758563 
L 388.223521 -195.232434 
L 387.789755 -194.706304 
L 387.400086 -194.180175 
L 387.052323 -193.654046 
L 386.743995 -193.127917 
L 386.472423 -192.601787 
L 386.234801 -192.075658 
L 386.028257 -191.549529 
L 385.849914 -191.0234 
z
" id="mb837641526" style="stroke:#595959;stroke-width:1.5;"/>
    </defs>
    <g clip-path="url(#p105d45d1d7)">
     <use style="fill:#e5c849;stroke:#595959;stroke-width:1.5;" x="0" xlink:href="#mb837641526" y="345.6"/>
    </g>
   </g>
   <g id="line2d_1">
    <path clip-path="url(#pa32c6e0211)" d="M 87.36 136.692196 
L 87.36 145.234391 
" style="fill:none;stroke:#3d3d3d;stroke-linecap:round;stroke-width:1.5;"/>
   </g>
   <g id="line2d_2">
    <path clip-path="url(#pa32c6e0211)" d="M 87.36 119.171382 
L 87.36 114.482488 
" style="fill:none;stroke:#3d3d3d;stroke-linecap:round;stroke-width:1.5;"/>
   </g>
   <g id="line2d_3">
    <path clip-path="url(#pa32c6e0211)" d="M 82.896 145.234391 
L 91.824 145.234391 
" style="fill:none;stroke:#3d3d3d;stroke-linecap:round;stroke-width:1.5;"/>
   </g>
   <g id="line2d_4">
    <path clip-path="url(#pa32c6e0211)" d="M 82.896 114.482488 
L 91.824 114.482488 
" style="fill:none;stroke:#3d3d3d;stroke-linecap:round;stroke-width:1.5;"/>
   </g>
   <g id="line2d_5">
    <path clip-path="url(#pa32c6e0211)" d="M 146.88 136.833235 
L 146.88 153.33484 
" style="fill:none;stroke:#3d3d3d;stroke-linecap:round;stroke-width:1.5;"/>
   </g>
   <g id="line2d_6">
    <path clip-path="url(#pa32c6e0211)" d="M 146.88 123.173706 
L 146.88 114.503777 
" style="fill:none;stroke:#3d3d3d;stroke-linecap:round;stroke-width:1.5;"/>
   </g>
   <g id="line2d_7">
    <path clip-path="url(#pa32c6e0211)" d="M 142.416 153.33484 
L 151.344 153.33484 
" style="fill:none;stroke:#3d3d3d;stroke-linecap:round;stroke-width:1.5;"/>
   </g>
   <g id="line2d_8">
    <path clip-path="url(#pa32c6e0211)" d="M 142.416 114.503777 
L 151.344 114.503777 
" style="fill:none;stroke:#3d3d3d;stroke-linecap:round;stroke-width:1.5;"/>
   </g>
   <g id="line2d_9">
    <path clip-path="url(#pa32c6e0211)" d="M 206.4 137.546415 
L 206.4 151.0995 
" style="fill:none;stroke:#3d3d3d;stroke-linecap:round;stroke-width:1.5;"/>
   </g>
   <g id="line2d_10">
    <path clip-path="url(#pa32c6e0211)" d="M 206.4 123.0646 
L 206.4 113.396751 
" style="fill:none;stroke:#3d3d3d;stroke-linecap:round;stroke-width:1.5;"/>
   </g>
   <g id="line2d_11">
    <path clip-path="url(#pa32c6e0211)" d="M 201.936 151.0995 
L 210.864 151.0995 
" style="fill:none;stroke:#3d3d3d;stroke-linecap:round;stroke-width:1.5;"/>
   </g>
   <g id="line2d_12">
    <path clip-path="url(#pa32c6e0211)" d="M 201.936 113.396751 
L 210.864 113.396751 
" style="fill:none;stroke:#3d3d3d;stroke-linecap:round;stroke-width:1.5;"/>
   </g>
   <g id="line2d_13">
    <path clip-path="url(#pa32c6e0211)" d="M 265.92 156.868808 
L 265.92 172.015903 
" style="fill:none;stroke:#3d3d3d;stroke-linecap:round;stroke-width:1.5;"/>
   </g>
   <g id="line2d_14">
    <path clip-path="url(#pa32c6e0211)" d="M 265.92 134.917229 
L 265.92 127.798733 
" style="fill:none;stroke:#3d3d3d;stroke-linecap:round;stroke-width:1.5;"/>
   </g>
   <g id="line2d_15">
    <path clip-path="url(#pa32c6e0211)" d="M 261.456 172.015903 
L 270.384 172.015903 
" style="fill:none;stroke:#3d3d3d;stroke-linecap:round;stroke-width:1.5;"/>
   </g>
   <g id="line2d_16">
    <path clip-path="url(#pa32c6e0211)" d="M 261.456 127.798733 
L 270.384 127.798733 
" style="fill:none;stroke:#3d3d3d;stroke-linecap:round;stroke-width:1.5;"/>
   </g>
   <g id="line2d_17">
    <path clip-path="url(#pa32c6e0211)" d="M 325.44 137.34417 
L 325.44 138.900925 
" style="fill:none;stroke:#3d3d3d;stroke-linecap:round;stroke-width:1.5;"/>
   </g>
   <g id="line2d_18">
    <path clip-path="url(#pa32c6e0211)" d="M 325.44 120.193252 
L 325.44 114.290888 
" style="fill:none;stroke:#3d3d3d;stroke-linecap:round;stroke-width:1.5;"/>
   </g>
   <g id="line2d_19">
    <path clip-path="url(#pa32c6e0211)" d="M 320.976 138.900925 
L 329.904 138.900925 
" style="fill:none;stroke:#3d3d3d;stroke-linecap:round;stroke-width:1.5;"/>
   </g>
   <g id="line2d_20">
    <path clip-path="url(#pa32c6e0211)" d="M 320.976 114.290888 
L 329.904 114.290888 
" style="fill:none;stroke:#3d3d3d;stroke-linecap:round;stroke-width:1.5;"/>
   </g>
   <g id="line2d_21">
    <path clip-path="url(#pa32c6e0211)" d="M 384.96 136.15465 
L 384.96 142.041047 
" style="fill:none;stroke:#3d3d3d;stroke-linecap:round;stroke-width:1.5;"/>
   </g>
   <g id="line2d_22">
    <path clip-path="url(#pa32c6e0211)" d="M 384.96 125.579359 
L 384.96 115.025357 
" style="fill:none;stroke:#3d3d3d;stroke-linecap:round;stroke-width:1.5;"/>
   </g>
   <g id="line2d_23">
    <path clip-path="url(#pa32c6e0211)" d="M 380.496 142.041047 
L 389.424 142.041047 
" style="fill:none;stroke:#3d3d3d;stroke-linecap:round;stroke-width:1.5;"/>
   </g>
   <g id="line2d_24">
    <path clip-path="url(#pa32c6e0211)" d="M 380.496 115.025357 
L 389.424 115.025357 
" style="fill:none;stroke:#3d3d3d;stroke-linecap:round;stroke-width:1.5;"/>
   </g>
   <g id="line2d_25">
    <path clip-path="url(#pa32c6e0211)" d="M 78.432 123.721897 
L 96.288 123.721897 
" style="fill:none;stroke:#3d3d3d;stroke-linecap:round;stroke-width:1.5;"/>
   </g>
   <g id="line2d_26">
    <path clip-path="url(#pa32c6e0211)" d="M 137.952 126.297861 
L 155.808 126.297861 
" style="fill:none;stroke:#3d3d3d;stroke-linecap:round;stroke-width:1.5;"/>
   </g>
   <g id="line2d_27">
    <path clip-path="url(#pa32c6e0211)" d="M 197.472 134.797478 
L 215.328 134.797478 
" style="fill:none;stroke:#3d3d3d;stroke-linecap:round;stroke-width:1.5;"/>
   </g>
   <g id="line2d_28">
    <path clip-path="url(#pa32c6e0211)" d="M 256.992 152.733427 
L 274.848 152.733427 
" style="fill:none;stroke:#3d3d3d;stroke-linecap:round;stroke-width:1.5;"/>
   </g>
   <g id="line2d_29">
    <path clip-path="url(#pa32c6e0211)" d="M 316.512 126.191416 
L 334.368 126.191416 
" style="fill:none;stroke:#3d3d3d;stroke-linecap:round;stroke-width:1.5;"/>
   </g>
   <g id="line2d_30">
    <path clip-path="url(#pa32c6e0211)" d="M 376.032 132.21087 
L 393.888 132.21087 
" style="fill:none;stroke:#3d3d3d;stroke-linecap:round;stroke-width:1.5;"/>
   </g>
   <g id="patch_3">
    <path d="M 57.6 307.584 
L 57.6 41.472 
" style="fill:none;stroke:#262626;stroke-linecap:square;stroke-linejoin:miter;stroke-width:0.8;"/>
   </g>
   <g id="patch_4">
    <path d="M 414.72 307.584 
L 414.72 41.472 
" style="fill:none;stroke:#262626;stroke-linecap:square;stroke-linejoin:miter;stroke-width:0.8;"/>
   </g>
   <g id="patch_5">
    <path d="M 57.6 307.584 
L 414.72 307.584 
" style="fill:none;stroke:#262626;stroke-linecap:square;stroke-linejoin:miter;stroke-width:0.8;"/>
   </g>
   <g id="patch_6">
    <path d="M 57.6 41.472 
L 414.72 41.472 
" style="fill:none;stroke:#262626;stroke-linecap:square;stroke-linejoin:miter;stroke-width:0.8;"/>
   </g>
   <g id="PathCollection_1">
    <defs>
     <path d="M 0 2.5 
C 0.663008 2.5 1.29895 2.236584 1.767767 1.767767 
C 2.236584 1.29895 2.5 0.663008 2.5 -0 
C 2.5 -0.663008 2.236584 -1.29895 1.767767 -1.767767 
C 1.29895 -2.236584 0.663008 -2.5 0 -2.5 
C -0.663008 -2.5 -1.29895 -2.236584 -1.767767 -1.767767 
C -2.236584 -1.29895 -2.5 -0.663008 -2.5 0 
C -2.5 0.663008 -2.236584 1.29895 -1.767767 1.767767 
C -1.29895 2.236584 -0.663008 2.5 0 2.5 
z
" id="C0_0_e8ced445ce"/>
    </defs>
    <g clip-path="url(#pa32c6e0211)">
     <use style="fill:#66c2a5;stroke:#000000;stroke-width:0.5;" x="95.204535" xlink:href="#C0_0_e8ced445ce" y="136.803963"/>
    </g>
    <g clip-path="url(#pa32c6e0211)">
     <use style="fill:#66c2a5;stroke:#000000;stroke-width:0.5;" x="98.263971" xlink:href="#C0_0_e8ced445ce" y="136.65494"/>
    </g>
    <g clip-path="url(#pa32c6e0211)">
     <use style="fill:#66c2a5;stroke:#000000;stroke-width:0.5;" x="98.169609" xlink:href="#C0_0_e8ced445ce" y="114.482488"/>
    </g>
    <g clip-path="url(#pa32c6e0211)">
     <use style="fill:#66c2a5;stroke:#000000;stroke-width:0.5;" x="89.817154" xlink:href="#C0_0_e8ced445ce" y="114.588933"/>
    </g>
    <g clip-path="url(#pa32c6e0211)">
     <use style="fill:#66c2a5;stroke:#000000;stroke-width:0.5;" x="100.364875" xlink:href="#C0_0_e8ced445ce" y="145.234391"/>
    </g>
    <g clip-path="url(#pa32c6e0211)">
     <use style="fill:#66c2a5;stroke:#000000;stroke-width:0.5;" x="93.477689" xlink:href="#C0_0_e8ced445ce" y="120.698865"/>
    </g>
    <g clip-path="url(#pa32c6e0211)">
     <use style="fill:#66c2a5;stroke:#000000;stroke-width:0.5;" x="90.893955" xlink:href="#C0_0_e8ced445ce" y="122.976783"/>
    </g>
    <g clip-path="url(#pa32c6e0211)">
     <use style="fill:#66c2a5;stroke:#000000;stroke-width:0.5;" x="89.818313" xlink:href="#C0_0_e8ced445ce" y="124.467011"/>
    </g>
   </g>
   <g id="PathCollection_2">
    <defs>
     <path d="M 0 2.5 
C 0.663008 2.5 1.29895 2.236584 1.767767 1.767767 
C 2.236584 1.29895 2.5 0.663008 2.5 -0 
C 2.5 -0.663008 2.236584 -1.29895 1.767767 -1.767767 
C 1.29895 -2.236584 0.663008 -2.5 0 -2.5 
C -0.663008 -2.5 -1.29895 -2.236584 -1.767767 -1.767767 
C -2.236584 -1.29895 -2.5 -0.663008 -2.5 0 
C -2.5 0.663008 -2.236584 1.29895 -1.767767 1.767767 
C -1.29895 2.236584 -0.663008 2.5 0 2.5 
z
" id="C1_0_5667675b63"/>
    </defs>
    <g clip-path="url(#pa32c6e0211)">
     <use style="fill:#fc8d62;stroke:#000000;stroke-width:0.5;" x="152.15213" xlink:href="#C1_0_5667675b63" y="126.638484"/>
    </g>
    <g clip-path="url(#pa32c6e0211)">
     <use style="fill:#fc8d62;stroke:#000000;stroke-width:0.5;" x="159.035273" xlink:href="#C1_0_5667675b63" y="153.33484"/>
    </g>
    <g clip-path="url(#pa32c6e0211)">
     <use style="fill:#fc8d62;stroke:#000000;stroke-width:0.5;" x="155.562762" xlink:href="#C1_0_5667675b63" y="120.092129"/>
    </g>
    <g clip-path="url(#pa32c6e0211)">
     <use style="fill:#fc8d62;stroke:#000000;stroke-width:0.5;" x="158.204289" xlink:href="#C1_0_5667675b63" y="114.503777"/>
    </g>
    <g clip-path="url(#pa32c6e0211)">
     <use style="fill:#fc8d62;stroke:#000000;stroke-width:0.5;" x="151.736772" xlink:href="#C1_0_5667675b63" y="144.808612"/>
    </g>
    <g clip-path="url(#pa32c6e0211)">
     <use style="fill:#fc8d62;stroke:#000000;stroke-width:0.5;" x="148.225698" xlink:href="#C1_0_5667675b63" y="134.174776"/>
    </g>
    <g clip-path="url(#pa32c6e0211)">
     <use style="fill:#fc8d62;stroke:#000000;stroke-width:0.5;" x="152.210096" xlink:href="#C1_0_5667675b63" y="125.957238"/>
    </g>
    <g clip-path="url(#pa32c6e0211)">
     <use style="fill:#fc8d62;stroke:#000000;stroke-width:0.5;" x="153.705907" xlink:href="#C1_0_5667675b63" y="124.200899"/>
    </g>
   </g>
   <g id="PathCollection_3">
    <defs>
     <path d="M 0 2.5 
C 0.663008 2.5 1.29895 2.236584 1.767767 1.767767 
C 2.236584 1.29895 2.5 0.663008 2.5 -0 
C 2.5 -0.663008 2.236584 -1.29895 1.767767 -1.767767 
C 1.29895 -2.236584 0.663008 -2.5 0 -2.5 
C -0.663008 -2.5 -1.29895 -2.236584 -1.767767 -1.767767 
C -2.236584 -1.29895 -2.5 -0.663008 -2.5 0 
C -2.5 0.663008 -2.236584 1.29895 -1.767767 1.767767 
C -1.29895 2.236584 -0.663008 2.5 0 2.5 
z
" id="C2_0_4fb316fbc6"/>
    </defs>
    <g clip-path="url(#pa32c6e0211)">
     <use style="fill:#8da0cb;stroke:#000000;stroke-width:0.5;" x="218.04482" xlink:href="#C2_0_4fb316fbc6" y="141.05111"/>
    </g>
    <g clip-path="url(#pa32c6e0211)">
     <use style="fill:#8da0cb;stroke:#000000;stroke-width:0.5;" x="214.034736" xlink:href="#C2_0_4fb316fbc6" y="151.0995"/>
    </g>
    <g clip-path="url(#pa32c6e0211)">
     <use style="fill:#8da0cb;stroke:#000000;stroke-width:0.5;" x="214.161904" xlink:href="#C2_0_4fb316fbc6" y="118.186767"/>
    </g>
    <g clip-path="url(#pa32c6e0211)">
     <use style="fill:#8da0cb;stroke:#000000;stroke-width:0.5;" x="208.996439" xlink:href="#C2_0_4fb316fbc6" y="113.396751"/>
    </g>
    <g clip-path="url(#pa32c6e0211)">
     <use style="fill:#8da0cb;stroke:#000000;stroke-width:0.5;" x="211.605054" xlink:href="#C2_0_4fb316fbc6" y="135.920471"/>
    </g>
    <g clip-path="url(#pa32c6e0211)">
     <use style="fill:#8da0cb;stroke:#000000;stroke-width:0.5;" x="217.948382" xlink:href="#C2_0_4fb316fbc6" y="124.690545"/>
    </g>
    <g clip-path="url(#pa32c6e0211)">
     <use style="fill:#8da0cb;stroke:#000000;stroke-width:0.5;" x="207.741997" xlink:href="#C2_0_4fb316fbc6" y="133.674486"/>
    </g>
    <g clip-path="url(#pa32c6e0211)">
     <use style="fill:#8da0cb;stroke:#000000;stroke-width:0.5;" x="211.48404" xlink:href="#C2_0_4fb316fbc6" y="136.378184"/>
    </g>
   </g>
   <g id="PathCollection_4">
    <defs>
     <path d="M 0 2.5 
C 0.663008 2.5 1.29895 2.236584 1.767767 1.767767 
C 2.236584 1.29895 2.5 0.663008 2.5 -0 
C 2.5 -0.663008 2.236584 -1.29895 1.767767 -1.767767 
C 1.29895 -2.236584 0.663008 -2.5 0 -2.5 
C -0.663008 -2.5 -1.29895 -2.236584 -1.767767 -1.767767 
C -2.236584 -1.29895 -2.5 -0.663008 -2.5 0 
C -2.5 0.663008 -2.236584 1.29895 -1.767767 1.767767 
C -1.29895 2.236584 -0.663008 2.5 0 2.5 
z
" id="C3_0_94a2922ad0"/>
    </defs>
    <g clip-path="url(#pa32c6e0211)">
     <use style="fill:#e78ac3;stroke:#000000;stroke-width:0.5;" x="275.055924" xlink:href="#C3_0_94a2922ad0" y="172.015903"/>
    </g>
    <g clip-path="url(#pa32c6e0211)">
     <use style="fill:#e78ac3;stroke:#000000;stroke-width:0.5;" x="271.716531" xlink:href="#C3_0_94a2922ad0" y="158.46548"/>
    </g>
    <g clip-path="url(#pa32c6e0211)">
     <use style="fill:#e78ac3;stroke:#000000;stroke-width:0.5;" x="269.653296" xlink:href="#C3_0_94a2922ad0" y="128.426757"/>
    </g>
    <g clip-path="url(#pa32c6e0211)">
     <use style="fill:#e78ac3;stroke:#000000;stroke-width:0.5;" x="274.253046" xlink:href="#C3_0_94a2922ad0" y="127.798733"/>
    </g>
    <g clip-path="url(#pa32c6e0211)">
     <use style="fill:#e78ac3;stroke:#000000;stroke-width:0.5;" x="269.053757" xlink:href="#C3_0_94a2922ad0" y="156.336584"/>
    </g>
    <g clip-path="url(#pa32c6e0211)">
     <use style="fill:#e78ac3;stroke:#000000;stroke-width:0.5;" x="268.217319" xlink:href="#C3_0_94a2922ad0" y="150.492764"/>
    </g>
    <g clip-path="url(#pa32c6e0211)">
     <use style="fill:#e78ac3;stroke:#000000;stroke-width:0.5;" x="269.715043" xlink:href="#C3_0_94a2922ad0" y="137.080719"/>
    </g>
    <g clip-path="url(#pa32c6e0211)">
     <use style="fill:#e78ac3;stroke:#000000;stroke-width:0.5;" x="274.32404" xlink:href="#C3_0_94a2922ad0" y="154.97409"/>
    </g>
   </g>
   <g id="PathCollection_5">
    <defs>
     <path d="M 0 2.5 
C 0.663008 2.5 1.29895 2.236584 1.767767 1.767767 
C 2.236584 1.29895 2.5 0.663008 2.5 -0 
C 2.5 -0.663008 2.236584 -1.29895 1.767767 -1.767767 
C 1.29895 -2.236584 0.663008 -2.5 0 -2.5 
C -0.663008 -2.5 -1.29895 -2.236584 -1.767767 -1.767767 
C -2.236584 -1.29895 -2.5 -0.663008 -2.5 0 
C -2.5 0.663008 -2.236584 1.29895 -1.767767 1.767767 
C -1.29895 2.236584 -0.663008 2.5 0 2.5 
z
" id="C4_0_b8fd57bb35"/>
    </defs>
    <g clip-path="url(#pa32c6e0211)">
     <use style="fill:#a6d854;stroke:#000000;stroke-width:0.5;" x="338.471373" xlink:href="#C4_0_b8fd57bb35" y="138.262257"/>
    </g>
    <g clip-path="url(#pa32c6e0211)">
     <use style="fill:#a6d854;stroke:#000000;stroke-width:0.5;" x="329.808349" xlink:href="#C4_0_b8fd57bb35" y="137.038141"/>
    </g>
    <g clip-path="url(#pa32c6e0211)">
     <use style="fill:#a6d854;stroke:#000000;stroke-width:0.5;" x="333.78713" xlink:href="#C4_0_b8fd57bb35" y="116.568806"/>
    </g>
    <g clip-path="url(#pa32c6e0211)">
     <use style="fill:#a6d854;stroke:#000000;stroke-width:0.5;" x="337.785542" xlink:href="#C4_0_b8fd57bb35" y="114.290888"/>
    </g>
    <g clip-path="url(#pa32c6e0211)">
     <use style="fill:#a6d854;stroke:#000000;stroke-width:0.5;" x="337.094033" xlink:href="#C4_0_b8fd57bb35" y="138.900925"/>
    </g>
    <g clip-path="url(#pa32c6e0211)">
     <use style="fill:#a6d854;stroke:#000000;stroke-width:0.5;" x="336.782309" xlink:href="#C4_0_b8fd57bb35" y="127.990333"/>
    </g>
    <g clip-path="url(#pa32c6e0211)">
     <use style="fill:#a6d854;stroke:#000000;stroke-width:0.5;" x="333.316045" xlink:href="#C4_0_b8fd57bb35" y="121.4014"/>
    </g>
    <g clip-path="url(#pa32c6e0211)">
     <use style="fill:#a6d854;stroke:#000000;stroke-width:0.5;" x="333.772535" xlink:href="#C4_0_b8fd57bb35" y="124.392499"/>
    </g>
   </g>
   <g id="PathCollection_6">
    <defs>
     <path d="M 0 2.5 
C 0.663008 2.5 1.29895 2.236584 1.767767 1.767767 
C 2.236584 1.29895 2.5 0.663008 2.5 -0 
C 2.5 -0.663008 2.236584 -1.29895 1.767767 -1.767767 
C 1.29895 -2.236584 0.663008 -2.5 0 -2.5 
C -0.663008 -2.5 -1.29895 -2.236584 -1.767767 -1.767767 
C -2.236584 -1.29895 -2.5 -0.663008 -2.5 0 
C -2.5 0.663008 -2.236584 1.29895 -1.767767 1.767767 
C -1.29895 2.236584 -0.663008 2.5 0 2.5 
z
" id="C5_0_bc98369226"/>
    </defs>
    <g clip-path="url(#pa32c6e0211)">
     <use style="fill:#ffd92f;stroke:#000000;stroke-width:0.5;" x="397.209675" xlink:href="#C5_0_bc98369226" y="134.898601"/>
    </g>
    <g clip-path="url(#pa32c6e0211)">
     <use style="fill:#ffd92f;stroke:#000000;stroke-width:0.5;" x="386.168263" xlink:href="#C5_0_bc98369226" y="137.336187"/>
    </g>
    <g clip-path="url(#pa32c6e0211)">
     <use style="fill:#ffd92f;stroke:#000000;stroke-width:0.5;" x="386.394937" xlink:href="#C5_0_bc98369226" y="115.025357"/>
    </g>
    <g clip-path="url(#pa32c6e0211)">
     <use style="fill:#ffd92f;stroke:#000000;stroke-width:0.5;" x="386.799876" xlink:href="#C5_0_bc98369226" y="117.8355"/>
    </g>
    <g clip-path="url(#pa32c6e0211)">
     <use style="fill:#ffd92f;stroke:#000000;stroke-width:0.5;" x="396.362098" xlink:href="#C5_0_bc98369226" y="135.760804"/>
    </g>
    <g clip-path="url(#pa32c6e0211)">
     <use style="fill:#ffd92f;stroke:#000000;stroke-width:0.5;" x="393.890155" xlink:href="#C5_0_bc98369226" y="129.523139"/>
    </g>
    <g clip-path="url(#pa32c6e0211)">
     <use style="fill:#ffd92f;stroke:#000000;stroke-width:0.5;" x="397.6318" xlink:href="#C5_0_bc98369226" y="128.160645"/>
    </g>
    <g clip-path="url(#pa32c6e0211)">
     <use style="fill:#ffd92f;stroke:#000000;stroke-width:0.5;" x="396.259238" xlink:href="#C5_0_bc98369226" y="142.041047"/>
    </g>
   </g>
   <g id="patch_7">
    <path clip-path="url(#pa32c6e0211)" d="M 78.432 136.692196 
L 96.288 136.692196 
L 96.288 119.171382 
L 78.432 119.171382 
L 78.432 136.692196 
z
" style="fill:none;stroke:#3d3d3d;stroke-linejoin:miter;stroke-width:1.5;"/>
   </g>
   <g id="patch_8">
    <path clip-path="url(#pa32c6e0211)" d="M 137.952 136.833235 
L 155.808 136.833235 
L 155.808 123.173706 
L 137.952 123.173706 
L 137.952 136.833235 
z
" style="fill:none;stroke:#3d3d3d;stroke-linejoin:miter;stroke-width:1.5;"/>
   </g>
   <g id="patch_9">
    <path clip-path="url(#pa32c6e0211)" d="M 197.472 137.546415 
L 215.328 137.546415 
L 215.328 123.0646 
L 197.472 123.0646 
L 197.472 137.546415 
z
" style="fill:none;stroke:#3d3d3d;stroke-linejoin:miter;stroke-width:1.5;"/>
   </g>
   <g id="patch_10">
    <path clip-path="url(#pa32c6e0211)" d="M 256.992 156.868808 
L 274.848 156.868808 
L 274.848 134.917229 
L 256.992 134.917229 
L 256.992 156.868808 
z
" style="fill:none;stroke:#3d3d3d;stroke-linejoin:miter;stroke-width:1.5;"/>
   </g>
   <g id="patch_11">
    <path clip-path="url(#pa32c6e0211)" d="M 316.512 137.34417 
L 334.368 137.34417 
L 334.368 120.193252 
L 316.512 120.193252 
L 316.512 137.34417 
z
" style="fill:none;stroke:#3d3d3d;stroke-linejoin:miter;stroke-width:1.5;"/>
   </g>
   <g id="patch_12">
    <path clip-path="url(#pa32c6e0211)" d="M 376.032 136.15465 
L 393.888 136.15465 
L 393.888 125.579359 
L 376.032 125.579359 
L 376.032 136.15465 
z
" style="fill:none;stroke:#3d3d3d;stroke-linejoin:miter;stroke-width:1.5;"/>
   </g>
   <g id="text_15">
    <!-- Violin Plot with Overlayed Box and Strip Plots -->
    <g style="fill:#262626;" transform="translate(100.525313 35.472)scale(0.12 -0.12)">
     <defs>
      <path d="M 1831 0 
L 50 4666 
L 709 4666 
L 2188 738 
L 3669 4666 
L 4325 4666 
L 2547 0 
L 1831 0 
z
" id="DejaVuSans-56" transform="scale(0.015625)"/>
      <path d="M 603 3500 
L 1178 3500 
L 1178 0 
L 603 0 
L 603 3500 
z
M 603 4863 
L 1178 4863 
L 1178 4134 
L 603 4134 
L 603 4863 
z
" id="DejaVuSans-69" transform="scale(0.015625)"/>
      <path d="M 3513 2113 
L 3513 0 
L 2938 0 
L 2938 2094 
Q 2938 2591 2744 2837 
Q 2550 3084 2163 3084 
Q 1697 3084 1428 2787 
Q 1159 2491 1159 1978 
L 1159 0 
L 581 0 
L 581 3500 
L 1159 3500 
L 1159 2956 
Q 1366 3272 1645 3428 
Q 1925 3584 2291 3584 
Q 2894 3584 3203 3211 
Q 3513 2838 3513 2113 
z
" id="DejaVuSans-6e" transform="scale(0.015625)"/>
      <path id="DejaVuSans-20" transform="scale(0.015625)"/>
      <path d="M 1259 4147 
L 1259 2394 
L 2053 2394 
Q 2494 2394 2734 2622 
Q 2975 2850 2975 3272 
Q 2975 3691 2734 3919 
Q 2494 4147 2053 4147 
L 1259 4147 
z
M 628 4666 
L 2053 4666 
Q 2838 4666 3239 4311 
Q 3641 3956 3641 3272 
Q 3641 2581 3239 2228 
Q 2838 1875 2053 1875 
L 1259 1875 
L 1259 0 
L 628 0 
L 628 4666 
z
" id="DejaVuSans-50" transform="scale(0.015625)"/>
      <path d="M 1172 4494 
L 1172 3500 
L 2356 3500 
L 2356 3053 
L 1172 3053 
L 1172 1153 
Q 1172 725 1289 603 
Q 1406 481 1766 481 
L 2356 481 
L 2356 0 
L 1766 0 
Q 1100 0 847 248 
Q 594 497 594 1153 
L 594 3053 
L 172 3053 
L 172 3500 
L 594 3500 
L 594 4494 
L 1172 4494 
z
" id="DejaVuSans-74" transform="scale(0.015625)"/>
      <path d="M 269 3500 
L 844 3500 
L 1563 769 
L 2278 3500 
L 2956 3500 
L 3675 769 
L 4391 3500 
L 4966 3500 
L 4050 0 
L 3372 0 
L 2619 2869 
L 1863 0 
L 1184 0 
L 269 3500 
z
" id="DejaVuSans-77" transform="scale(0.015625)"/>
      <path d="M 3513 2113 
L 3513 0 
L 2938 0 
L 2938 2094 
Q 2938 2591 2744 2837 
Q 2550 3084 2163 3084 
Q 1697 3084 1428 2787 
Q 1159 2491 1159 1978 
L 1159 0 
L 581 0 
L 581 4863 
L 1159 4863 
L 1159 2956 
Q 1366 3272 1645 3428 
Q 1925 3584 2291 3584 
Q 2894 3584 3203 3211 
Q 3513 2838 3513 2113 
z
" id="DejaVuSans-68" transform="scale(0.015625)"/>
      <path d="M 191 3500 
L 800 3500 
L 1894 563 
L 2988 3500 
L 3597 3500 
L 2284 0 
L 1503 0 
L 191 3500 
z
" id="DejaVuSans-76" transform="scale(0.015625)"/>
      <path d="M 2631 2963 
Q 2534 3019 2420 3045 
Q 2306 3072 2169 3072 
Q 1681 3072 1420 2755 
Q 1159 2438 1159 1844 
L 1159 0 
L 581 0 
L 581 3500 
L 1159 3500 
L 1159 2956 
Q 1341 3275 1631 3429 
Q 1922 3584 2338 3584 
Q 2397 3584 2469 3576 
Q 2541 3569 2628 3553 
L 2631 2963 
z
" id="DejaVuSans-72" transform="scale(0.015625)"/>
      <path d="M 2059 -325 
Q 1816 -950 1584 -1140 
Q 1353 -1331 966 -1331 
L 506 -1331 
L 506 -850 
L 844 -850 
Q 1081 -850 1212 -737 
Q 1344 -625 1503 -206 
L 1606 56 
L 191 3500 
L 800 3500 
L 1894 763 
L 2988 3500 
L 3597 3500 
L 2059 -325 
z
" id="DejaVuSans-79" transform="scale(0.015625)"/>
      <path d="M 1259 2228 
L 1259 519 
L 2272 519 
Q 2781 519 3026 730 
Q 3272 941 3272 1375 
Q 3272 1813 3026 2020 
Q 2781 2228 2272 2228 
L 1259 2228 
z
M 1259 4147 
L 1259 2741 
L 2194 2741 
Q 2656 2741 2882 2914 
Q 3109 3088 3109 3444 
Q 3109 3797 2882 3972 
Q 2656 4147 2194 4147 
L 1259 4147 
z
M 628 4666 
L 2241 4666 
Q 2963 4666 3353 4366 
Q 3744 4066 3744 3513 
Q 3744 3084 3544 2831 
Q 3344 2578 2956 2516 
Q 3422 2416 3680 2098 
Q 3938 1781 3938 1306 
Q 3938 681 3513 340 
Q 3088 0 2303 0 
L 628 0 
L 628 4666 
z
" id="DejaVuSans-42" transform="scale(0.015625)"/>
      <path d="M 3513 3500 
L 2247 1797 
L 3578 0 
L 2900 0 
L 1881 1375 
L 863 0 
L 184 0 
L 1544 1831 
L 300 3500 
L 978 3500 
L 1906 2253 
L 2834 3500 
L 3513 3500 
z
" id="DejaVuSans-78" transform="scale(0.015625)"/>
      <path d="M 3425 4513 
L 3425 3897 
Q 3066 4069 2747 4153 
Q 2428 4238 2131 4238 
Q 1616 4238 1336 4038 
Q 1056 3838 1056 3469 
Q 1056 3159 1242 3001 
Q 1428 2844 1947 2747 
L 2328 2669 
Q 3034 2534 3370 2195 
Q 3706 1856 3706 1288 
Q 3706 609 3251 259 
Q 2797 -91 1919 -91 
Q 1588 -91 1214 -16 
Q 841 59 441 206 
L 441 856 
Q 825 641 1194 531 
Q 1563 422 1919 422 
Q 2459 422 2753 634 
Q 3047 847 3047 1241 
Q 3047 1584 2836 1778 
Q 2625 1972 2144 2069 
L 1759 2144 
Q 1053 2284 737 2584 
Q 422 2884 422 3419 
Q 422 4038 858 4394 
Q 1294 4750 2059 4750 
Q 2388 4750 2728 4690 
Q 3069 4631 3425 4513 
z
" id="DejaVuSans-53" transform="scale(0.015625)"/>
      <path d="M 1159 525 
L 1159 -1331 
L 581 -1331 
L 581 3500 
L 1159 3500 
L 1159 2969 
Q 1341 3281 1617 3432 
Q 1894 3584 2278 3584 
Q 2916 3584 3314 3078 
Q 3713 2572 3713 1747 
Q 3713 922 3314 415 
Q 2916 -91 2278 -91 
Q 1894 -91 1617 61 
Q 1341 213 1159 525 
z
M 3116 1747 
Q 3116 2381 2855 2742 
Q 2594 3103 2138 3103 
Q 1681 3103 1420 2742 
Q 1159 2381 1159 1747 
Q 1159 1113 1420 752 
Q 1681 391 2138 391 
Q 2594 391 2855 752 
Q 3116 1113 3116 1747 
z
" id="DejaVuSans-70" transform="scale(0.015625)"/>
      <path d="M 2834 3397 
L 2834 2853 
Q 2591 2978 2328 3040 
Q 2066 3103 1784 3103 
Q 1356 3103 1142 2972 
Q 928 2841 928 2578 
Q 928 2378 1081 2264 
Q 1234 2150 1697 2047 
L 1894 2003 
Q 2506 1872 2764 1633 
Q 3022 1394 3022 966 
Q 3022 478 2636 193 
Q 2250 -91 1575 -91 
Q 1294 -91 989 -36 
Q 684 19 347 128 
L 347 722 
Q 666 556 975 473 
Q 1284 391 1588 391 
Q 1994 391 2212 530 
Q 2431 669 2431 922 
Q 2431 1156 2273 1281 
Q 2116 1406 1581 1522 
L 1381 1569 
Q 847 1681 609 1914 
Q 372 2147 372 2553 
Q 372 3047 722 3315 
Q 1072 3584 1716 3584 
Q 2034 3584 2315 3537 
Q 2597 3491 2834 3397 
z
" id="DejaVuSans-73" transform="scale(0.015625)"/>
     </defs>
     <use xlink:href="#DejaVuSans-56"/>
     <use x="66.158203" xlink:href="#DejaVuSans-69"/>
     <use x="93.941406" xlink:href="#DejaVuSans-6f"/>
     <use x="155.123047" xlink:href="#DejaVuSans-6c"/>
     <use x="182.90625" xlink:href="#DejaVuSans-69"/>
     <use x="210.689453" xlink:href="#DejaVuSans-6e"/>
     <use x="274.068359" xlink:href="#DejaVuSans-20"/>
     <use x="305.855469" xlink:href="#DejaVuSans-50"/>
     <use x="366.158203" xlink:href="#DejaVuSans-6c"/>
     <use x="393.941406" xlink:href="#DejaVuSans-6f"/>
     <use x="455.123047" xlink:href="#DejaVuSans-74"/>
     <use x="494.332031" xlink:href="#DejaVuSans-20"/>
     <use x="526.119141" xlink:href="#DejaVuSans-77"/>
     <use x="607.90625" xlink:href="#DejaVuSans-69"/>
     <use x="635.689453" xlink:href="#DejaVuSans-74"/>
     <use x="674.898438" xlink:href="#DejaVuSans-68"/>
     <use x="738.277344" xlink:href="#DejaVuSans-20"/>
     <use x="770.064453" xlink:href="#DejaVuSans-4f"/>
     <use x="848.775391" xlink:href="#DejaVuSans-76"/>
     <use x="907.955078" xlink:href="#DejaVuSans-65"/>
     <use x="969.478516" xlink:href="#DejaVuSans-72"/>
     <use x="1010.591797" xlink:href="#DejaVuSans-6c"/>
     <use x="1038.375" xlink:href="#DejaVuSans-61"/>
     <use x="1099.654297" xlink:href="#DejaVuSans-79"/>
     <use x="1158.833984" xlink:href="#DejaVuSans-65"/>
     <use x="1220.357422" xlink:href="#DejaVuSans-64"/>
     <use x="1283.833984" xlink:href="#DejaVuSans-20"/>
     <use x="1315.621094" xlink:href="#DejaVuSans-42"/>
     <use x="1384.224609" xlink:href="#DejaVuSans-6f"/>
     <use x="1442.28125" xlink:href="#DejaVuSans-78"/>
     <use x="1501.460938" xlink:href="#DejaVuSans-20"/>
     <use x="1533.248047" xlink:href="#DejaVuSans-61"/>
     <use x="1594.527344" xlink:href="#DejaVuSans-6e"/>
     <use x="1657.90625" xlink:href="#DejaVuSans-64"/>
     <use x="1721.382812" xlink:href="#DejaVuSans-20"/>
     <use x="1753.169922" xlink:href="#DejaVuSans-53"/>
     <use x="1816.646484" xlink:href="#DejaVuSans-74"/>
     <use x="1855.855469" xlink:href="#DejaVuSans-72"/>
     <use x="1896.96875" xlink:href="#DejaVuSans-69"/>
     <use x="1924.751953" xlink:href="#DejaVuSans-70"/>
     <use x="1988.228516" xlink:href="#DejaVuSans-20"/>
     <use x="2020.015625" xlink:href="#DejaVuSans-50"/>
     <use x="2080.318359" xlink:href="#DejaVuSans-6c"/>
     <use x="2108.101562" xlink:href="#DejaVuSans-6f"/>
     <use x="2169.283203" xlink:href="#DejaVuSans-74"/>
     <use x="2208.492188" xlink:href="#DejaVuSans-73"/>
    </g>
   </g>
  </g>
 </g>
 <defs>
  <clipPath id="pfd2d01dd1b">
   <rect height="60.589905" width="18.8493" x="68.5107" y="99.563487"/>
  </clipPath>
  <clipPath id="pdea9c2b9f6">
   <rect height="73.081518" width="18.155455" x="128.724545" y="97.37855"/>
  </clipPath>
  <clipPath id="p75ea2f7d5e">
   <rect height="70.39201" width="17.263317" x="189.136683" y="97.05212"/>
  </clipPath>
  <clipPath id="p8433b3106d">
   <rect height="85.593581" width="13.410616" x="252.509384" y="107.110527"/>
  </clipPath>
  <clipPath id="pa47323c915">
   <rect height="50.57602" width="19.084547" x="306.355453" y="101.307897"/>
  </clipPath>
  <clipPath id="p105d45d1d7">
   <rect height="52.086797" width="23.808" x="361.152" y="102.489803"/>
  </clipPath>
  <clipPath id="pa32c6e0211">
   <rect height="266.112" width="357.12" x="57.6" y="41.472"/>
  </clipPath>
 </defs>
</svg>
